G04 #@! TF.GenerationSoftware,KiCad,Pcbnew,(5.0.1-3-g963ef8bb5)*
G04 #@! TF.CreationDate,2018-11-10T15:27:12+00:00*
G04 #@! TF.ProjectId,xmas_tree_v0.1,786D61735F747265655F76302E312E6B,rev?*
G04 #@! TF.SameCoordinates,Original*
G04 #@! TF.FileFunction,Legend,Top*
G04 #@! TF.FilePolarity,Positive*
%FSLAX46Y46*%
G04 Gerber Fmt 4.6, Leading zero omitted, Abs format (unit mm)*
G04 Created by KiCad (PCBNEW (5.0.1-3-g963ef8bb5)) date Saturday, 10 November 2018 at 15:27:12*
%MOMM*%
%LPD*%
G01*
G04 APERTURE LIST*
%ADD10C,0.300000*%
%ADD11C,1.000000*%
%ADD12C,1.200000*%
%ADD13C,0.010000*%
%ADD14C,0.002540*%
G04 APERTURE END LIST*
D10*
X102657142Y-53378571D02*
X101800000Y-53378571D01*
X102228571Y-53378571D02*
X102228571Y-51878571D01*
X102085714Y-52092857D01*
X101942857Y-52235714D01*
X101800000Y-52307142D01*
X103585714Y-51878571D02*
X103728571Y-51878571D01*
X103871428Y-51950000D01*
X103942857Y-52021428D01*
X104014285Y-52164285D01*
X104085714Y-52450000D01*
X104085714Y-52807142D01*
X104014285Y-53092857D01*
X103942857Y-53235714D01*
X103871428Y-53307142D01*
X103728571Y-53378571D01*
X103585714Y-53378571D01*
X103442857Y-53307142D01*
X103371428Y-53235714D01*
X103300000Y-53092857D01*
X103228571Y-52807142D01*
X103228571Y-52450000D01*
X103300000Y-52164285D01*
X103371428Y-52021428D01*
X103442857Y-51950000D01*
X103585714Y-51878571D01*
X105800000Y-51807142D02*
X104514285Y-53735714D01*
X107085714Y-53378571D02*
X106228571Y-53378571D01*
X106657142Y-53378571D02*
X106657142Y-51878571D01*
X106514285Y-52092857D01*
X106371428Y-52235714D01*
X106228571Y-52307142D01*
X108514285Y-53378571D02*
X107657142Y-53378571D01*
X108085714Y-53378571D02*
X108085714Y-51878571D01*
X107942857Y-52092857D01*
X107800000Y-52235714D01*
X107657142Y-52307142D01*
X110228571Y-51807142D02*
X108942857Y-53735714D01*
X110657142Y-52021428D02*
X110728571Y-51950000D01*
X110871428Y-51878571D01*
X111228571Y-51878571D01*
X111371428Y-51950000D01*
X111442857Y-52021428D01*
X111514285Y-52164285D01*
X111514285Y-52307142D01*
X111442857Y-52521428D01*
X110585714Y-53378571D01*
X111514285Y-53378571D01*
X112442857Y-51878571D02*
X112585714Y-51878571D01*
X112728571Y-51950000D01*
X112800000Y-52021428D01*
X112871428Y-52164285D01*
X112942857Y-52450000D01*
X112942857Y-52807142D01*
X112871428Y-53092857D01*
X112800000Y-53235714D01*
X112728571Y-53307142D01*
X112585714Y-53378571D01*
X112442857Y-53378571D01*
X112300000Y-53307142D01*
X112228571Y-53235714D01*
X112157142Y-53092857D01*
X112085714Y-52807142D01*
X112085714Y-52450000D01*
X112157142Y-52164285D01*
X112228571Y-52021428D01*
X112300000Y-51950000D01*
X112442857Y-51878571D01*
X114371428Y-53378571D02*
X113514285Y-53378571D01*
X113942857Y-53378571D02*
X113942857Y-51878571D01*
X113800000Y-52092857D01*
X113657142Y-52235714D01*
X113514285Y-52307142D01*
X115228571Y-52521428D02*
X115085714Y-52450000D01*
X115014285Y-52378571D01*
X114942857Y-52235714D01*
X114942857Y-52164285D01*
X115014285Y-52021428D01*
X115085714Y-51950000D01*
X115228571Y-51878571D01*
X115514285Y-51878571D01*
X115657142Y-51950000D01*
X115728571Y-52021428D01*
X115800000Y-52164285D01*
X115800000Y-52235714D01*
X115728571Y-52378571D01*
X115657142Y-52450000D01*
X115514285Y-52521428D01*
X115228571Y-52521428D01*
X115085714Y-52592857D01*
X115014285Y-52664285D01*
X114942857Y-52807142D01*
X114942857Y-53092857D01*
X115014285Y-53235714D01*
X115085714Y-53307142D01*
X115228571Y-53378571D01*
X115514285Y-53378571D01*
X115657142Y-53307142D01*
X115728571Y-53235714D01*
X115800000Y-53092857D01*
X115800000Y-52807142D01*
X115728571Y-52664285D01*
X115657142Y-52592857D01*
X115514285Y-52521428D01*
X166292857Y-147621428D02*
X166292857Y-148673809D01*
X166230952Y-148797619D01*
X166169047Y-148859523D01*
X166045238Y-148921428D01*
X165859523Y-148921428D01*
X165735714Y-148859523D01*
X166292857Y-148426190D02*
X166169047Y-148488095D01*
X165921428Y-148488095D01*
X165797619Y-148426190D01*
X165735714Y-148364285D01*
X165673809Y-148240476D01*
X165673809Y-147869047D01*
X165735714Y-147745238D01*
X165797619Y-147683333D01*
X165921428Y-147621428D01*
X166169047Y-147621428D01*
X166292857Y-147683333D01*
X166911904Y-148488095D02*
X166911904Y-147621428D01*
X166911904Y-147188095D02*
X166850000Y-147250000D01*
X166911904Y-147311904D01*
X166973809Y-147250000D01*
X166911904Y-147188095D01*
X166911904Y-147311904D01*
X167345238Y-147621428D02*
X167840476Y-147621428D01*
X167530952Y-147188095D02*
X167530952Y-148302380D01*
X167592857Y-148426190D01*
X167716666Y-148488095D01*
X167840476Y-148488095D01*
X168273809Y-148488095D02*
X168273809Y-147188095D01*
X168830952Y-148488095D02*
X168830952Y-147807142D01*
X168769047Y-147683333D01*
X168645238Y-147621428D01*
X168459523Y-147621428D01*
X168335714Y-147683333D01*
X168273809Y-147745238D01*
X170007142Y-147621428D02*
X170007142Y-148488095D01*
X169450000Y-147621428D02*
X169450000Y-148302380D01*
X169511904Y-148426190D01*
X169635714Y-148488095D01*
X169821428Y-148488095D01*
X169945238Y-148426190D01*
X170007142Y-148364285D01*
X170626190Y-148488095D02*
X170626190Y-147188095D01*
X170626190Y-147683333D02*
X170750000Y-147621428D01*
X170997619Y-147621428D01*
X171121428Y-147683333D01*
X171183333Y-147745238D01*
X171245238Y-147869047D01*
X171245238Y-148240476D01*
X171183333Y-148364285D01*
X171121428Y-148426190D01*
X170997619Y-148488095D01*
X170750000Y-148488095D01*
X170626190Y-148426190D01*
X171802380Y-148364285D02*
X171864285Y-148426190D01*
X171802380Y-148488095D01*
X171740476Y-148426190D01*
X171802380Y-148364285D01*
X171802380Y-148488095D01*
X172978571Y-148426190D02*
X172854761Y-148488095D01*
X172607142Y-148488095D01*
X172483333Y-148426190D01*
X172421428Y-148364285D01*
X172359523Y-148240476D01*
X172359523Y-147869047D01*
X172421428Y-147745238D01*
X172483333Y-147683333D01*
X172607142Y-147621428D01*
X172854761Y-147621428D01*
X172978571Y-147683333D01*
X173721428Y-148488095D02*
X173597619Y-148426190D01*
X173535714Y-148364285D01*
X173473809Y-148240476D01*
X173473809Y-147869047D01*
X173535714Y-147745238D01*
X173597619Y-147683333D01*
X173721428Y-147621428D01*
X173907142Y-147621428D01*
X174030952Y-147683333D01*
X174092857Y-147745238D01*
X174154761Y-147869047D01*
X174154761Y-148240476D01*
X174092857Y-148364285D01*
X174030952Y-148426190D01*
X173907142Y-148488095D01*
X173721428Y-148488095D01*
X174711904Y-148488095D02*
X174711904Y-147621428D01*
X174711904Y-147745238D02*
X174773809Y-147683333D01*
X174897619Y-147621428D01*
X175083333Y-147621428D01*
X175207142Y-147683333D01*
X175269047Y-147807142D01*
X175269047Y-148488095D01*
X175269047Y-147807142D02*
X175330952Y-147683333D01*
X175454761Y-147621428D01*
X175640476Y-147621428D01*
X175764285Y-147683333D01*
X175826190Y-147807142D01*
X175826190Y-148488095D01*
X177373809Y-147126190D02*
X176259523Y-148797619D01*
X177683333Y-147621428D02*
X177930952Y-148488095D01*
X178178571Y-147869047D01*
X178426190Y-148488095D01*
X178673809Y-147621428D01*
X179169047Y-148488095D02*
X179169047Y-147621428D01*
X179169047Y-147188095D02*
X179107142Y-147250000D01*
X179169047Y-147311904D01*
X179230952Y-147250000D01*
X179169047Y-147188095D01*
X179169047Y-147311904D01*
X179973809Y-148488095D02*
X179850000Y-148426190D01*
X179788095Y-148302380D01*
X179788095Y-147188095D01*
X180654761Y-148488095D02*
X180530952Y-148426190D01*
X180469047Y-148302380D01*
X180469047Y-147188095D01*
X181150000Y-147621428D02*
X181150000Y-148921428D01*
X181150000Y-147683333D02*
X181273809Y-147621428D01*
X181521428Y-147621428D01*
X181645238Y-147683333D01*
X181707142Y-147745238D01*
X181769047Y-147869047D01*
X181769047Y-148240476D01*
X181707142Y-148364285D01*
X181645238Y-148426190D01*
X181521428Y-148488095D01*
X181273809Y-148488095D01*
X181150000Y-148426190D01*
X182511904Y-148488095D02*
X182388095Y-148426190D01*
X182326190Y-148302380D01*
X182326190Y-147188095D01*
X183564285Y-148488095D02*
X183564285Y-147807142D01*
X183502380Y-147683333D01*
X183378571Y-147621428D01*
X183130952Y-147621428D01*
X183007142Y-147683333D01*
X183564285Y-148426190D02*
X183440476Y-148488095D01*
X183130952Y-148488095D01*
X183007142Y-148426190D01*
X182945238Y-148302380D01*
X182945238Y-148178571D01*
X183007142Y-148054761D01*
X183130952Y-147992857D01*
X183440476Y-147992857D01*
X183564285Y-147930952D01*
X183997619Y-147621428D02*
X184492857Y-147621428D01*
X184183333Y-147188095D02*
X184183333Y-148302380D01*
X184245238Y-148426190D01*
X184369047Y-148488095D01*
X184492857Y-148488095D01*
X184740476Y-147621428D02*
X185235714Y-147621428D01*
X184926190Y-147188095D02*
X184926190Y-148302380D01*
X184988095Y-148426190D01*
X185111904Y-148488095D01*
X185235714Y-148488095D01*
X185607142Y-148426190D02*
X185730952Y-148488095D01*
X185978571Y-148488095D01*
X186102380Y-148426190D01*
X186164285Y-148302380D01*
X186164285Y-148240476D01*
X186102380Y-148116666D01*
X185978571Y-148054761D01*
X185792857Y-148054761D01*
X185669047Y-147992857D01*
X185607142Y-147869047D01*
X185607142Y-147807142D01*
X185669047Y-147683333D01*
X185792857Y-147621428D01*
X185978571Y-147621428D01*
X186102380Y-147683333D01*
X187650000Y-147126190D02*
X186535714Y-148797619D01*
X187959523Y-148488095D02*
X188640476Y-147621428D01*
X187959523Y-147621428D02*
X188640476Y-148488095D01*
X189135714Y-148488095D02*
X189135714Y-147621428D01*
X189135714Y-147745238D02*
X189197619Y-147683333D01*
X189321428Y-147621428D01*
X189507142Y-147621428D01*
X189630952Y-147683333D01*
X189692857Y-147807142D01*
X189692857Y-148488095D01*
X189692857Y-147807142D02*
X189754761Y-147683333D01*
X189878571Y-147621428D01*
X190064285Y-147621428D01*
X190188095Y-147683333D01*
X190250000Y-147807142D01*
X190250000Y-148488095D01*
X191426190Y-148488095D02*
X191426190Y-147807142D01*
X191364285Y-147683333D01*
X191240476Y-147621428D01*
X190992857Y-147621428D01*
X190869047Y-147683333D01*
X191426190Y-148426190D02*
X191302380Y-148488095D01*
X190992857Y-148488095D01*
X190869047Y-148426190D01*
X190807142Y-148302380D01*
X190807142Y-148178571D01*
X190869047Y-148054761D01*
X190992857Y-147992857D01*
X191302380Y-147992857D01*
X191426190Y-147930952D01*
X191983333Y-148426190D02*
X192107142Y-148488095D01*
X192354761Y-148488095D01*
X192478571Y-148426190D01*
X192540476Y-148302380D01*
X192540476Y-148240476D01*
X192478571Y-148116666D01*
X192354761Y-148054761D01*
X192169047Y-148054761D01*
X192045238Y-147992857D01*
X191983333Y-147869047D01*
X191983333Y-147807142D01*
X192045238Y-147683333D01*
X192169047Y-147621428D01*
X192354761Y-147621428D01*
X192478571Y-147683333D01*
X193097619Y-147992857D02*
X194088095Y-147992857D01*
X194521428Y-147621428D02*
X195016666Y-147621428D01*
X194707142Y-147188095D02*
X194707142Y-148302380D01*
X194769047Y-148426190D01*
X194892857Y-148488095D01*
X195016666Y-148488095D01*
X195450000Y-148488095D02*
X195450000Y-147621428D01*
X195450000Y-147869047D02*
X195511904Y-147745238D01*
X195573809Y-147683333D01*
X195697619Y-147621428D01*
X195821428Y-147621428D01*
X196750000Y-148426190D02*
X196626190Y-148488095D01*
X196378571Y-148488095D01*
X196254761Y-148426190D01*
X196192857Y-148302380D01*
X196192857Y-147807142D01*
X196254761Y-147683333D01*
X196378571Y-147621428D01*
X196626190Y-147621428D01*
X196750000Y-147683333D01*
X196811904Y-147807142D01*
X196811904Y-147930952D01*
X196192857Y-148054761D01*
X197864285Y-148426190D02*
X197740476Y-148488095D01*
X197492857Y-148488095D01*
X197369047Y-148426190D01*
X197307142Y-148302380D01*
X197307142Y-147807142D01*
X197369047Y-147683333D01*
X197492857Y-147621428D01*
X197740476Y-147621428D01*
X197864285Y-147683333D01*
X197926190Y-147807142D01*
X197926190Y-147930952D01*
X197307142Y-148054761D01*
D11*
X180400000Y-102000000D02*
G75*
G03X180400000Y-102000000I-200000J0D01*
G01*
D12*
X165100000Y-52500000D02*
G75*
G03X165100000Y-52500000I-600000J0D01*
G01*
X158700000Y-89100000D02*
G75*
G03X158700000Y-89100000I-600000J0D01*
G01*
X122200000Y-104700000D02*
G75*
G03X122200000Y-104700000I-600000J0D01*
G01*
D11*
X128100000Y-69000000D02*
G75*
G03X128100000Y-69000000I-200000J0D01*
G01*
D12*
X158700000Y-146900000D02*
G75*
G03X158700000Y-146900000I-600000J0D01*
G01*
D11*
X136500000Y-120100000D02*
G75*
G03X136500000Y-120100000I-200000J0D01*
G01*
X148713128Y-96706007D02*
G75*
G02X181700000Y-110300000I5488161J-33502145D01*
G01*
X186602019Y-100493400D02*
G75*
G02X168700000Y-85800000I8897981J29093400D01*
G01*
X147098304Y-72478650D02*
G75*
G02X168900000Y-86300000I1701696J-21421350D01*
G01*
X197500156Y-56800820D02*
G75*
G02X135900000Y-49600000I-19326744J101750227D01*
G01*
X158390047Y-127970793D02*
G75*
G02X182700000Y-125200000I18501099J-54293238D01*
G01*
X142422452Y-73192054D02*
G75*
G02X131200000Y-74300000I-7422453J17792053D01*
G01*
X116460044Y-76719021D02*
G75*
G02X131200000Y-74300000I11339957J-22980978D01*
G01*
X150606745Y-103014774D02*
G75*
G02X118200000Y-91100000I-4306745J38314774D01*
G01*
X115702421Y-113258633D02*
G75*
G02X152300000Y-126600000I6703284J-38479075D01*
G01*
X154518988Y-133009736D02*
G75*
G02X126100001Y-137999999I-16018988J7809736D01*
G01*
X108678482Y-133110929D02*
G75*
G02X126000000Y-137900000I4321518J-18089071D01*
G01*
X108600000Y-139600000D02*
G75*
G03X108600000Y-139600000I-200000J0D01*
G01*
D13*
G04 #@! TO.C,REF\002A\002A*
G36*
X179244186Y-76731069D02*
X179160365Y-76286445D01*
X178851080Y-76158947D01*
X178541794Y-76031449D01*
X178170754Y-76283754D01*
X178066843Y-76354004D01*
X177972913Y-76416728D01*
X177893348Y-76469062D01*
X177832530Y-76508143D01*
X177794843Y-76531107D01*
X177784579Y-76536058D01*
X177766090Y-76523324D01*
X177726580Y-76488118D01*
X177670478Y-76434938D01*
X177602213Y-76368282D01*
X177526214Y-76292646D01*
X177446908Y-76212528D01*
X177368725Y-76132426D01*
X177296093Y-76056836D01*
X177233441Y-75990255D01*
X177185197Y-75937182D01*
X177155790Y-75902113D01*
X177148759Y-75890377D01*
X177158877Y-75868740D01*
X177187241Y-75821338D01*
X177230871Y-75752807D01*
X177286782Y-75667785D01*
X177351994Y-75570907D01*
X177389781Y-75515650D01*
X177458657Y-75414752D01*
X177519860Y-75323701D01*
X177570422Y-75247030D01*
X177607372Y-75189272D01*
X177627742Y-75154957D01*
X177630803Y-75147746D01*
X177623864Y-75127252D01*
X177604949Y-75079487D01*
X177576913Y-75011168D01*
X177542609Y-74929011D01*
X177504891Y-74839730D01*
X177466613Y-74750042D01*
X177430630Y-74666662D01*
X177399794Y-74596306D01*
X177376961Y-74545690D01*
X177364983Y-74521529D01*
X177364276Y-74520578D01*
X177345469Y-74515964D01*
X177295382Y-74505672D01*
X177219207Y-74490713D01*
X177122135Y-74472099D01*
X177009357Y-74450841D01*
X176943558Y-74438582D01*
X176823050Y-74415638D01*
X176714203Y-74393805D01*
X176622524Y-74374278D01*
X176553519Y-74358252D01*
X176512696Y-74346921D01*
X176504489Y-74343326D01*
X176496452Y-74318994D01*
X176489967Y-74264041D01*
X176485030Y-74184892D01*
X176481636Y-74087974D01*
X176479782Y-73979713D01*
X176479462Y-73866535D01*
X176480673Y-73754865D01*
X176483410Y-73651132D01*
X176487669Y-73561759D01*
X176493445Y-73493174D01*
X176500733Y-73451803D01*
X176505105Y-73443190D01*
X176531236Y-73432867D01*
X176586607Y-73418108D01*
X176663893Y-73400648D01*
X176755770Y-73382220D01*
X176787842Y-73376259D01*
X176942476Y-73347934D01*
X177064625Y-73325124D01*
X177158327Y-73306920D01*
X177227616Y-73292417D01*
X177276529Y-73280708D01*
X177309103Y-73270885D01*
X177329372Y-73262044D01*
X177341374Y-73253276D01*
X177343053Y-73251543D01*
X177359816Y-73223629D01*
X177385386Y-73169305D01*
X177417212Y-73095223D01*
X177452740Y-73008035D01*
X177489417Y-72914392D01*
X177524689Y-72820948D01*
X177556004Y-72734353D01*
X177580807Y-72661260D01*
X177596546Y-72608322D01*
X177600668Y-72582189D01*
X177600324Y-72581274D01*
X177586359Y-72559914D01*
X177554678Y-72512916D01*
X177508609Y-72445173D01*
X177451482Y-72361577D01*
X177386627Y-72267018D01*
X177368157Y-72240146D01*
X177302301Y-72142725D01*
X177244350Y-72053837D01*
X177197462Y-71978588D01*
X177164793Y-71922080D01*
X177149500Y-71889419D01*
X177148759Y-71885407D01*
X177161608Y-71864316D01*
X177197112Y-71822536D01*
X177250707Y-71764555D01*
X177317829Y-71694865D01*
X177393913Y-71617955D01*
X177474396Y-71538317D01*
X177554713Y-71460439D01*
X177630301Y-71388814D01*
X177696595Y-71327930D01*
X177749031Y-71282279D01*
X177783045Y-71256350D01*
X177792455Y-71252117D01*
X177814357Y-71262088D01*
X177859200Y-71288980D01*
X177919679Y-71328264D01*
X177966211Y-71359883D01*
X178050525Y-71417902D01*
X178150374Y-71486216D01*
X178250527Y-71554421D01*
X178304373Y-71590925D01*
X178486629Y-71714200D01*
X178639619Y-71631480D01*
X178709318Y-71595241D01*
X178768586Y-71567074D01*
X178808689Y-71551009D01*
X178818897Y-71548774D01*
X178831171Y-71565278D01*
X178855387Y-71611918D01*
X178889737Y-71684391D01*
X178932412Y-71778394D01*
X178981606Y-71889626D01*
X179035510Y-72013785D01*
X179092316Y-72146568D01*
X179150218Y-72283673D01*
X179207407Y-72420798D01*
X179262076Y-72553642D01*
X179312416Y-72677902D01*
X179356620Y-72789275D01*
X179392881Y-72883461D01*
X179419391Y-72956156D01*
X179434342Y-73003059D01*
X179436746Y-73019167D01*
X179417689Y-73039714D01*
X179375964Y-73073067D01*
X179320294Y-73112298D01*
X179315622Y-73115401D01*
X179171736Y-73230577D01*
X179055717Y-73364947D01*
X178968570Y-73514216D01*
X178911301Y-73674087D01*
X178884914Y-73840263D01*
X178890415Y-74008448D01*
X178928810Y-74174345D01*
X179001105Y-74333658D01*
X179022374Y-74368513D01*
X179133004Y-74509263D01*
X179263698Y-74622286D01*
X179409936Y-74706997D01*
X179567192Y-74762806D01*
X179730943Y-74789126D01*
X179896667Y-74785370D01*
X180059838Y-74750950D01*
X180215935Y-74685277D01*
X180360433Y-74587765D01*
X180405131Y-74548187D01*
X180518888Y-74424297D01*
X180601782Y-74293876D01*
X180658644Y-74147685D01*
X180690313Y-74002912D01*
X180698131Y-73840140D01*
X180672062Y-73676560D01*
X180614755Y-73517702D01*
X180528856Y-73369094D01*
X180417014Y-73236265D01*
X180281877Y-73124744D01*
X180264117Y-73112989D01*
X180207850Y-73074492D01*
X180165077Y-73041137D01*
X180144628Y-73019840D01*
X180144331Y-73019167D01*
X180148721Y-72996129D01*
X180166124Y-72943843D01*
X180194732Y-72866610D01*
X180232735Y-72768732D01*
X180278326Y-72654509D01*
X180329697Y-72528242D01*
X180385038Y-72394233D01*
X180442542Y-72256782D01*
X180500399Y-72120192D01*
X180556802Y-71988763D01*
X180609942Y-71866795D01*
X180658010Y-71758591D01*
X180699199Y-71668451D01*
X180731699Y-71600677D01*
X180753703Y-71559570D01*
X180762564Y-71548774D01*
X180789640Y-71557181D01*
X180840303Y-71579728D01*
X180905817Y-71612387D01*
X180941841Y-71631480D01*
X181094832Y-71714200D01*
X181277088Y-71590925D01*
X181370125Y-71527772D01*
X181471985Y-71458273D01*
X181567438Y-71392835D01*
X181615250Y-71359883D01*
X181682495Y-71314727D01*
X181739436Y-71278943D01*
X181778646Y-71257062D01*
X181791381Y-71252437D01*
X181809917Y-71264915D01*
X181850941Y-71299748D01*
X181910475Y-71353322D01*
X181984542Y-71422017D01*
X182069165Y-71502219D01*
X182122685Y-71553714D01*
X182216319Y-71645714D01*
X182297241Y-71728001D01*
X182362177Y-71797055D01*
X182407858Y-71849356D01*
X182431011Y-71881384D01*
X182433232Y-71887884D01*
X182422924Y-71912606D01*
X182394439Y-71962595D01*
X182350937Y-72032788D01*
X182295577Y-72118125D01*
X182231520Y-72213544D01*
X182213303Y-72240146D01*
X182146927Y-72336833D01*
X182087378Y-72423883D01*
X182037984Y-72496405D01*
X182002075Y-72549507D01*
X181982981Y-72578297D01*
X181981136Y-72581274D01*
X181983895Y-72604218D01*
X181998538Y-72654664D01*
X182022513Y-72725959D01*
X182053266Y-72811453D01*
X182088244Y-72904493D01*
X182124893Y-72998426D01*
X182160661Y-73086601D01*
X182192994Y-73162366D01*
X182219338Y-73219069D01*
X182237142Y-73250057D01*
X182238407Y-73251543D01*
X182249294Y-73260399D01*
X182267682Y-73269157D01*
X182297606Y-73278723D01*
X182343103Y-73290004D01*
X182408209Y-73303907D01*
X182496961Y-73321337D01*
X182613393Y-73343202D01*
X182761542Y-73370409D01*
X182793618Y-73376259D01*
X182888686Y-73394626D01*
X182971565Y-73412595D01*
X183034930Y-73428431D01*
X183071458Y-73440400D01*
X183076356Y-73443190D01*
X183084427Y-73467928D01*
X183090987Y-73523210D01*
X183096033Y-73602611D01*
X183099559Y-73699704D01*
X183101561Y-73808062D01*
X183102036Y-73921260D01*
X183100977Y-74032872D01*
X183098382Y-74136471D01*
X183094246Y-74225632D01*
X183088563Y-74293928D01*
X183081331Y-74334934D01*
X183076971Y-74343326D01*
X183052698Y-74351792D01*
X182997426Y-74365565D01*
X182916662Y-74383450D01*
X182815912Y-74404252D01*
X182700683Y-74426777D01*
X182637902Y-74438582D01*
X182518787Y-74460849D01*
X182412565Y-74481021D01*
X182324427Y-74498085D01*
X182259566Y-74511031D01*
X182223174Y-74518845D01*
X182217184Y-74520578D01*
X182207061Y-74540110D01*
X182185662Y-74587157D01*
X182155839Y-74654997D01*
X182120445Y-74736909D01*
X182082332Y-74826172D01*
X182044353Y-74916065D01*
X182009360Y-74999865D01*
X181980206Y-75070853D01*
X181959743Y-75122306D01*
X181950823Y-75147503D01*
X181950657Y-75148604D01*
X181960769Y-75168481D01*
X181989117Y-75214223D01*
X182032723Y-75281283D01*
X182088606Y-75365116D01*
X182153787Y-75461174D01*
X182191679Y-75516350D01*
X182260725Y-75617519D01*
X182322050Y-75709370D01*
X182372663Y-75787256D01*
X182409571Y-75846531D01*
X182429782Y-75882549D01*
X182432701Y-75890623D01*
X182420153Y-75909416D01*
X182385463Y-75949543D01*
X182333063Y-76006507D01*
X182267384Y-76075815D01*
X182192856Y-76152969D01*
X182113913Y-76233475D01*
X182034983Y-76312837D01*
X181960500Y-76386560D01*
X181894894Y-76450148D01*
X181842596Y-76499106D01*
X181808039Y-76528939D01*
X181796478Y-76536058D01*
X181777654Y-76526047D01*
X181732631Y-76497922D01*
X181665787Y-76454546D01*
X181581499Y-76398782D01*
X181484144Y-76333494D01*
X181410707Y-76283754D01*
X181039667Y-76031449D01*
X180421095Y-76286445D01*
X180337275Y-76731069D01*
X180253454Y-77175693D01*
X179328006Y-77175693D01*
X179244186Y-76731069D01*
X179244186Y-76731069D01*
G37*
X179244186Y-76731069D02*
X179160365Y-76286445D01*
X178851080Y-76158947D01*
X178541794Y-76031449D01*
X178170754Y-76283754D01*
X178066843Y-76354004D01*
X177972913Y-76416728D01*
X177893348Y-76469062D01*
X177832530Y-76508143D01*
X177794843Y-76531107D01*
X177784579Y-76536058D01*
X177766090Y-76523324D01*
X177726580Y-76488118D01*
X177670478Y-76434938D01*
X177602213Y-76368282D01*
X177526214Y-76292646D01*
X177446908Y-76212528D01*
X177368725Y-76132426D01*
X177296093Y-76056836D01*
X177233441Y-75990255D01*
X177185197Y-75937182D01*
X177155790Y-75902113D01*
X177148759Y-75890377D01*
X177158877Y-75868740D01*
X177187241Y-75821338D01*
X177230871Y-75752807D01*
X177286782Y-75667785D01*
X177351994Y-75570907D01*
X177389781Y-75515650D01*
X177458657Y-75414752D01*
X177519860Y-75323701D01*
X177570422Y-75247030D01*
X177607372Y-75189272D01*
X177627742Y-75154957D01*
X177630803Y-75147746D01*
X177623864Y-75127252D01*
X177604949Y-75079487D01*
X177576913Y-75011168D01*
X177542609Y-74929011D01*
X177504891Y-74839730D01*
X177466613Y-74750042D01*
X177430630Y-74666662D01*
X177399794Y-74596306D01*
X177376961Y-74545690D01*
X177364983Y-74521529D01*
X177364276Y-74520578D01*
X177345469Y-74515964D01*
X177295382Y-74505672D01*
X177219207Y-74490713D01*
X177122135Y-74472099D01*
X177009357Y-74450841D01*
X176943558Y-74438582D01*
X176823050Y-74415638D01*
X176714203Y-74393805D01*
X176622524Y-74374278D01*
X176553519Y-74358252D01*
X176512696Y-74346921D01*
X176504489Y-74343326D01*
X176496452Y-74318994D01*
X176489967Y-74264041D01*
X176485030Y-74184892D01*
X176481636Y-74087974D01*
X176479782Y-73979713D01*
X176479462Y-73866535D01*
X176480673Y-73754865D01*
X176483410Y-73651132D01*
X176487669Y-73561759D01*
X176493445Y-73493174D01*
X176500733Y-73451803D01*
X176505105Y-73443190D01*
X176531236Y-73432867D01*
X176586607Y-73418108D01*
X176663893Y-73400648D01*
X176755770Y-73382220D01*
X176787842Y-73376259D01*
X176942476Y-73347934D01*
X177064625Y-73325124D01*
X177158327Y-73306920D01*
X177227616Y-73292417D01*
X177276529Y-73280708D01*
X177309103Y-73270885D01*
X177329372Y-73262044D01*
X177341374Y-73253276D01*
X177343053Y-73251543D01*
X177359816Y-73223629D01*
X177385386Y-73169305D01*
X177417212Y-73095223D01*
X177452740Y-73008035D01*
X177489417Y-72914392D01*
X177524689Y-72820948D01*
X177556004Y-72734353D01*
X177580807Y-72661260D01*
X177596546Y-72608322D01*
X177600668Y-72582189D01*
X177600324Y-72581274D01*
X177586359Y-72559914D01*
X177554678Y-72512916D01*
X177508609Y-72445173D01*
X177451482Y-72361577D01*
X177386627Y-72267018D01*
X177368157Y-72240146D01*
X177302301Y-72142725D01*
X177244350Y-72053837D01*
X177197462Y-71978588D01*
X177164793Y-71922080D01*
X177149500Y-71889419D01*
X177148759Y-71885407D01*
X177161608Y-71864316D01*
X177197112Y-71822536D01*
X177250707Y-71764555D01*
X177317829Y-71694865D01*
X177393913Y-71617955D01*
X177474396Y-71538317D01*
X177554713Y-71460439D01*
X177630301Y-71388814D01*
X177696595Y-71327930D01*
X177749031Y-71282279D01*
X177783045Y-71256350D01*
X177792455Y-71252117D01*
X177814357Y-71262088D01*
X177859200Y-71288980D01*
X177919679Y-71328264D01*
X177966211Y-71359883D01*
X178050525Y-71417902D01*
X178150374Y-71486216D01*
X178250527Y-71554421D01*
X178304373Y-71590925D01*
X178486629Y-71714200D01*
X178639619Y-71631480D01*
X178709318Y-71595241D01*
X178768586Y-71567074D01*
X178808689Y-71551009D01*
X178818897Y-71548774D01*
X178831171Y-71565278D01*
X178855387Y-71611918D01*
X178889737Y-71684391D01*
X178932412Y-71778394D01*
X178981606Y-71889626D01*
X179035510Y-72013785D01*
X179092316Y-72146568D01*
X179150218Y-72283673D01*
X179207407Y-72420798D01*
X179262076Y-72553642D01*
X179312416Y-72677902D01*
X179356620Y-72789275D01*
X179392881Y-72883461D01*
X179419391Y-72956156D01*
X179434342Y-73003059D01*
X179436746Y-73019167D01*
X179417689Y-73039714D01*
X179375964Y-73073067D01*
X179320294Y-73112298D01*
X179315622Y-73115401D01*
X179171736Y-73230577D01*
X179055717Y-73364947D01*
X178968570Y-73514216D01*
X178911301Y-73674087D01*
X178884914Y-73840263D01*
X178890415Y-74008448D01*
X178928810Y-74174345D01*
X179001105Y-74333658D01*
X179022374Y-74368513D01*
X179133004Y-74509263D01*
X179263698Y-74622286D01*
X179409936Y-74706997D01*
X179567192Y-74762806D01*
X179730943Y-74789126D01*
X179896667Y-74785370D01*
X180059838Y-74750950D01*
X180215935Y-74685277D01*
X180360433Y-74587765D01*
X180405131Y-74548187D01*
X180518888Y-74424297D01*
X180601782Y-74293876D01*
X180658644Y-74147685D01*
X180690313Y-74002912D01*
X180698131Y-73840140D01*
X180672062Y-73676560D01*
X180614755Y-73517702D01*
X180528856Y-73369094D01*
X180417014Y-73236265D01*
X180281877Y-73124744D01*
X180264117Y-73112989D01*
X180207850Y-73074492D01*
X180165077Y-73041137D01*
X180144628Y-73019840D01*
X180144331Y-73019167D01*
X180148721Y-72996129D01*
X180166124Y-72943843D01*
X180194732Y-72866610D01*
X180232735Y-72768732D01*
X180278326Y-72654509D01*
X180329697Y-72528242D01*
X180385038Y-72394233D01*
X180442542Y-72256782D01*
X180500399Y-72120192D01*
X180556802Y-71988763D01*
X180609942Y-71866795D01*
X180658010Y-71758591D01*
X180699199Y-71668451D01*
X180731699Y-71600677D01*
X180753703Y-71559570D01*
X180762564Y-71548774D01*
X180789640Y-71557181D01*
X180840303Y-71579728D01*
X180905817Y-71612387D01*
X180941841Y-71631480D01*
X181094832Y-71714200D01*
X181277088Y-71590925D01*
X181370125Y-71527772D01*
X181471985Y-71458273D01*
X181567438Y-71392835D01*
X181615250Y-71359883D01*
X181682495Y-71314727D01*
X181739436Y-71278943D01*
X181778646Y-71257062D01*
X181791381Y-71252437D01*
X181809917Y-71264915D01*
X181850941Y-71299748D01*
X181910475Y-71353322D01*
X181984542Y-71422017D01*
X182069165Y-71502219D01*
X182122685Y-71553714D01*
X182216319Y-71645714D01*
X182297241Y-71728001D01*
X182362177Y-71797055D01*
X182407858Y-71849356D01*
X182431011Y-71881384D01*
X182433232Y-71887884D01*
X182422924Y-71912606D01*
X182394439Y-71962595D01*
X182350937Y-72032788D01*
X182295577Y-72118125D01*
X182231520Y-72213544D01*
X182213303Y-72240146D01*
X182146927Y-72336833D01*
X182087378Y-72423883D01*
X182037984Y-72496405D01*
X182002075Y-72549507D01*
X181982981Y-72578297D01*
X181981136Y-72581274D01*
X181983895Y-72604218D01*
X181998538Y-72654664D01*
X182022513Y-72725959D01*
X182053266Y-72811453D01*
X182088244Y-72904493D01*
X182124893Y-72998426D01*
X182160661Y-73086601D01*
X182192994Y-73162366D01*
X182219338Y-73219069D01*
X182237142Y-73250057D01*
X182238407Y-73251543D01*
X182249294Y-73260399D01*
X182267682Y-73269157D01*
X182297606Y-73278723D01*
X182343103Y-73290004D01*
X182408209Y-73303907D01*
X182496961Y-73321337D01*
X182613393Y-73343202D01*
X182761542Y-73370409D01*
X182793618Y-73376259D01*
X182888686Y-73394626D01*
X182971565Y-73412595D01*
X183034930Y-73428431D01*
X183071458Y-73440400D01*
X183076356Y-73443190D01*
X183084427Y-73467928D01*
X183090987Y-73523210D01*
X183096033Y-73602611D01*
X183099559Y-73699704D01*
X183101561Y-73808062D01*
X183102036Y-73921260D01*
X183100977Y-74032872D01*
X183098382Y-74136471D01*
X183094246Y-74225632D01*
X183088563Y-74293928D01*
X183081331Y-74334934D01*
X183076971Y-74343326D01*
X183052698Y-74351792D01*
X182997426Y-74365565D01*
X182916662Y-74383450D01*
X182815912Y-74404252D01*
X182700683Y-74426777D01*
X182637902Y-74438582D01*
X182518787Y-74460849D01*
X182412565Y-74481021D01*
X182324427Y-74498085D01*
X182259566Y-74511031D01*
X182223174Y-74518845D01*
X182217184Y-74520578D01*
X182207061Y-74540110D01*
X182185662Y-74587157D01*
X182155839Y-74654997D01*
X182120445Y-74736909D01*
X182082332Y-74826172D01*
X182044353Y-74916065D01*
X182009360Y-74999865D01*
X181980206Y-75070853D01*
X181959743Y-75122306D01*
X181950823Y-75147503D01*
X181950657Y-75148604D01*
X181960769Y-75168481D01*
X181989117Y-75214223D01*
X182032723Y-75281283D01*
X182088606Y-75365116D01*
X182153787Y-75461174D01*
X182191679Y-75516350D01*
X182260725Y-75617519D01*
X182322050Y-75709370D01*
X182372663Y-75787256D01*
X182409571Y-75846531D01*
X182429782Y-75882549D01*
X182432701Y-75890623D01*
X182420153Y-75909416D01*
X182385463Y-75949543D01*
X182333063Y-76006507D01*
X182267384Y-76075815D01*
X182192856Y-76152969D01*
X182113913Y-76233475D01*
X182034983Y-76312837D01*
X181960500Y-76386560D01*
X181894894Y-76450148D01*
X181842596Y-76499106D01*
X181808039Y-76528939D01*
X181796478Y-76536058D01*
X181777654Y-76526047D01*
X181732631Y-76497922D01*
X181665787Y-76454546D01*
X181581499Y-76398782D01*
X181484144Y-76333494D01*
X181410707Y-76283754D01*
X181039667Y-76031449D01*
X180421095Y-76286445D01*
X180337275Y-76731069D01*
X180253454Y-77175693D01*
X179328006Y-77175693D01*
X179244186Y-76731069D01*
D14*
G04 #@! TO.C,G\002A\002A\002A*
G36*
X158679674Y-120755417D02*
X158671721Y-120763528D01*
X158655068Y-120785380D01*
X158630463Y-120815343D01*
X158601134Y-120854992D01*
X158573379Y-120891412D01*
X158549600Y-120923777D01*
X158532947Y-120945629D01*
X158524995Y-120953740D01*
X158519364Y-120952993D01*
X158499245Y-120949175D01*
X158468693Y-120946263D01*
X158451802Y-120944020D01*
X158423651Y-120940281D01*
X158410816Y-120942014D01*
X158410069Y-120947644D01*
X158406251Y-120967763D01*
X158404993Y-121003119D01*
X158399838Y-121050562D01*
X158397164Y-121105210D01*
X158393742Y-121165488D01*
X158390320Y-121225766D01*
X158386072Y-121283643D01*
X158382571Y-121335889D01*
X158380565Y-121376875D01*
X158380055Y-121406600D01*
X158378560Y-121417861D01*
X158381788Y-121419436D01*
X158397931Y-121427309D01*
X158422106Y-121435103D01*
X158480967Y-121457817D01*
X158543216Y-121498169D01*
X158593536Y-121550688D01*
X158624722Y-121617854D01*
X158639018Y-121682777D01*
X158635675Y-121751087D01*
X158612293Y-121823611D01*
X158573515Y-121882631D01*
X158520170Y-121930549D01*
X158455405Y-121960908D01*
X158388081Y-121976031D01*
X158317369Y-121973515D01*
X158244845Y-121950133D01*
X158214135Y-121931158D01*
X158160665Y-121885096D01*
X158121606Y-121834073D01*
X158116644Y-121819663D01*
X158095891Y-121751591D01*
X158092777Y-121680132D01*
X158107380Y-121613317D01*
X158141275Y-121547919D01*
X158144424Y-121541462D01*
X158162652Y-121516381D01*
X158173754Y-121501813D01*
X158182454Y-121488072D01*
X158028107Y-121312877D01*
X158002120Y-121284216D01*
X157959084Y-121237249D01*
X157923333Y-121195832D01*
X157893290Y-121163195D01*
X157873013Y-121143313D01*
X157864075Y-121132959D01*
X157856870Y-121135440D01*
X157844114Y-121145205D01*
X157820256Y-121169538D01*
X157804351Y-121185760D01*
X157786044Y-121202809D01*
X157778092Y-121210920D01*
X157766831Y-121209424D01*
X157742657Y-121201630D01*
X157704820Y-121193167D01*
X157660527Y-121181555D01*
X157618634Y-121169116D01*
X157577569Y-121159079D01*
X157550993Y-121152112D01*
X157536504Y-121149042D01*
X157534103Y-121149869D01*
X157526977Y-121160381D01*
X157512726Y-121181406D01*
X157495404Y-121216921D01*
X157470209Y-121268578D01*
X157464658Y-121275862D01*
X157445015Y-121320235D01*
X157428520Y-121358150D01*
X157415923Y-121383979D01*
X157413600Y-121392838D01*
X157422538Y-121403192D01*
X157445217Y-121422246D01*
X157477582Y-121446025D01*
X157517231Y-121475354D01*
X157618381Y-121550666D01*
X157611379Y-121655159D01*
X157611696Y-121687286D01*
X157608863Y-121725870D01*
X157605125Y-121754021D01*
X157604456Y-121767683D01*
X157595677Y-121773392D01*
X157571740Y-121789694D01*
X157538196Y-121809303D01*
X157497448Y-121831392D01*
X157457527Y-121855884D01*
X157423983Y-121875493D01*
X157396818Y-121890219D01*
X157385637Y-121896756D01*
X157384062Y-121899984D01*
X157383314Y-121905615D01*
X157385047Y-121918450D01*
X157393317Y-121942466D01*
X157405721Y-121978490D01*
X157423914Y-122031326D01*
X157425568Y-122036129D01*
X157442933Y-122086563D01*
X157456164Y-122124989D01*
X157466835Y-122148178D01*
X157472545Y-122156957D01*
X157486207Y-122157626D01*
X157514279Y-122153333D01*
X157552784Y-122148133D01*
X157601722Y-122142028D01*
X157604124Y-122141201D01*
X157652235Y-122132694D01*
X157691567Y-122129896D01*
X157719639Y-122125603D01*
X157733301Y-122126272D01*
X157736530Y-122127846D01*
X157751925Y-122141350D01*
X157773856Y-122166035D01*
X157799843Y-122194696D01*
X157825830Y-122223357D01*
X157851817Y-122252018D01*
X157866464Y-122271151D01*
X157873000Y-122282332D01*
X157869103Y-122294420D01*
X157862963Y-122323398D01*
X157852099Y-122362061D01*
X157838912Y-122409583D01*
X157838164Y-122415214D01*
X157824151Y-122460334D01*
X157816515Y-122500572D01*
X157809548Y-122527149D01*
X157808052Y-122538409D01*
X157808879Y-122540811D01*
X157819392Y-122547936D01*
X157846047Y-122562935D01*
X157884790Y-122581831D01*
X157929990Y-122603877D01*
X157942904Y-122610175D01*
X157991332Y-122633795D01*
X158026020Y-122648715D01*
X158046966Y-122654935D01*
X158055824Y-122657257D01*
X158054998Y-122654856D01*
X158065352Y-122645918D01*
X158083579Y-122620837D01*
X158107358Y-122588472D01*
X158136687Y-122548823D01*
X158138262Y-122545595D01*
X158168418Y-122508347D01*
X158192197Y-122475983D01*
X158208850Y-122454130D01*
X158215976Y-122443618D01*
X158218377Y-122442791D01*
X158234441Y-122442632D01*
X158266568Y-122442316D01*
X158301924Y-122443573D01*
X158342910Y-122445579D01*
X158379092Y-122449238D01*
X158406416Y-122450575D01*
X158420905Y-122453646D01*
X158430670Y-122466401D01*
X158445397Y-122493567D01*
X158468234Y-122528685D01*
X158491151Y-122571835D01*
X158496033Y-122578213D01*
X158518950Y-122621363D01*
X158538559Y-122654906D01*
X158554860Y-122678843D01*
X158561397Y-122690024D01*
X158566200Y-122688370D01*
X158591043Y-122682502D01*
X158624666Y-122670925D01*
X158665493Y-122656867D01*
X158706321Y-122642809D01*
X158747148Y-122628751D01*
X158782345Y-122613945D01*
X158806362Y-122605676D01*
X158817543Y-122599140D01*
X158816716Y-122596738D01*
X158817384Y-122583076D01*
X158812264Y-122552603D01*
X158808640Y-122510869D01*
X158799306Y-122460356D01*
X158799226Y-122452324D01*
X158790719Y-122404213D01*
X158787922Y-122364881D01*
X158783629Y-122336809D01*
X158782722Y-122326375D01*
X158786699Y-122322320D01*
X158801029Y-122309327D01*
X158828115Y-122286568D01*
X158860753Y-122256526D01*
X158935634Y-122193133D01*
X159066113Y-122228796D01*
X159078200Y-122232693D01*
X159125723Y-122245880D01*
X159163559Y-122254343D01*
X159190136Y-122261310D01*
X159201396Y-122262805D01*
X159207695Y-122249891D01*
X159222694Y-122223236D01*
X159241590Y-122184493D01*
X159264462Y-122141695D01*
X159279382Y-122107007D01*
X159298278Y-122068265D01*
X159310875Y-122042436D01*
X159315520Y-122024719D01*
X159317843Y-122015860D01*
X159313787Y-122011884D01*
X159304849Y-122001530D01*
X159280595Y-121985704D01*
X159247404Y-121959523D01*
X159208582Y-121932596D01*
X159175390Y-121906415D01*
X159142198Y-121880235D01*
X159118692Y-121858779D01*
X159107352Y-121849252D01*
X159108100Y-121843622D01*
X159107863Y-121819526D01*
X159109120Y-121784171D01*
X159112701Y-121739956D01*
X159119782Y-121643495D01*
X159171711Y-121614869D01*
X159202853Y-121596087D01*
X159248405Y-121572343D01*
X159288326Y-121547852D01*
X159353011Y-121509461D01*
X159268584Y-121256464D01*
X159257323Y-121254969D01*
X159243661Y-121254300D01*
X159217991Y-121257766D01*
X159177085Y-121263793D01*
X159131375Y-121271473D01*
X159092870Y-121276672D01*
X159051963Y-121282698D01*
X159023891Y-121286991D01*
X159011056Y-121288725D01*
X159007001Y-121284748D01*
X158990779Y-121268843D01*
X158966446Y-121244985D01*
X158940459Y-121216324D01*
X158913645Y-121185262D01*
X158890060Y-121155774D01*
X158872184Y-121135065D01*
X158862419Y-121122310D01*
X158863914Y-121111049D01*
X158870882Y-121084473D01*
X158881746Y-121045810D01*
X158893358Y-121001516D01*
X158906545Y-120953994D01*
X158917409Y-120915330D01*
X158923549Y-120886352D01*
X158927446Y-120874265D01*
X158920162Y-120868714D01*
X158899964Y-120856864D01*
X158863623Y-120837141D01*
X158805509Y-120808797D01*
X158796650Y-120806475D01*
X158753852Y-120783602D01*
X158716763Y-120769510D01*
X158690934Y-120756912D01*
X158679674Y-120755417D01*
X158679674Y-120755417D01*
G37*
X158679674Y-120755417D02*
X158671721Y-120763528D01*
X158655068Y-120785380D01*
X158630463Y-120815343D01*
X158601134Y-120854992D01*
X158573379Y-120891412D01*
X158549600Y-120923777D01*
X158532947Y-120945629D01*
X158524995Y-120953740D01*
X158519364Y-120952993D01*
X158499245Y-120949175D01*
X158468693Y-120946263D01*
X158451802Y-120944020D01*
X158423651Y-120940281D01*
X158410816Y-120942014D01*
X158410069Y-120947644D01*
X158406251Y-120967763D01*
X158404993Y-121003119D01*
X158399838Y-121050562D01*
X158397164Y-121105210D01*
X158393742Y-121165488D01*
X158390320Y-121225766D01*
X158386072Y-121283643D01*
X158382571Y-121335889D01*
X158380565Y-121376875D01*
X158380055Y-121406600D01*
X158378560Y-121417861D01*
X158381788Y-121419436D01*
X158397931Y-121427309D01*
X158422106Y-121435103D01*
X158480967Y-121457817D01*
X158543216Y-121498169D01*
X158593536Y-121550688D01*
X158624722Y-121617854D01*
X158639018Y-121682777D01*
X158635675Y-121751087D01*
X158612293Y-121823611D01*
X158573515Y-121882631D01*
X158520170Y-121930549D01*
X158455405Y-121960908D01*
X158388081Y-121976031D01*
X158317369Y-121973515D01*
X158244845Y-121950133D01*
X158214135Y-121931158D01*
X158160665Y-121885096D01*
X158121606Y-121834073D01*
X158116644Y-121819663D01*
X158095891Y-121751591D01*
X158092777Y-121680132D01*
X158107380Y-121613317D01*
X158141275Y-121547919D01*
X158144424Y-121541462D01*
X158162652Y-121516381D01*
X158173754Y-121501813D01*
X158182454Y-121488072D01*
X158028107Y-121312877D01*
X158002120Y-121284216D01*
X157959084Y-121237249D01*
X157923333Y-121195832D01*
X157893290Y-121163195D01*
X157873013Y-121143313D01*
X157864075Y-121132959D01*
X157856870Y-121135440D01*
X157844114Y-121145205D01*
X157820256Y-121169538D01*
X157804351Y-121185760D01*
X157786044Y-121202809D01*
X157778092Y-121210920D01*
X157766831Y-121209424D01*
X157742657Y-121201630D01*
X157704820Y-121193167D01*
X157660527Y-121181555D01*
X157618634Y-121169116D01*
X157577569Y-121159079D01*
X157550993Y-121152112D01*
X157536504Y-121149042D01*
X157534103Y-121149869D01*
X157526977Y-121160381D01*
X157512726Y-121181406D01*
X157495404Y-121216921D01*
X157470209Y-121268578D01*
X157464658Y-121275862D01*
X157445015Y-121320235D01*
X157428520Y-121358150D01*
X157415923Y-121383979D01*
X157413600Y-121392838D01*
X157422538Y-121403192D01*
X157445217Y-121422246D01*
X157477582Y-121446025D01*
X157517231Y-121475354D01*
X157618381Y-121550666D01*
X157611379Y-121655159D01*
X157611696Y-121687286D01*
X157608863Y-121725870D01*
X157605125Y-121754021D01*
X157604456Y-121767683D01*
X157595677Y-121773392D01*
X157571740Y-121789694D01*
X157538196Y-121809303D01*
X157497448Y-121831392D01*
X157457527Y-121855884D01*
X157423983Y-121875493D01*
X157396818Y-121890219D01*
X157385637Y-121896756D01*
X157384062Y-121899984D01*
X157383314Y-121905615D01*
X157385047Y-121918450D01*
X157393317Y-121942466D01*
X157405721Y-121978490D01*
X157423914Y-122031326D01*
X157425568Y-122036129D01*
X157442933Y-122086563D01*
X157456164Y-122124989D01*
X157466835Y-122148178D01*
X157472545Y-122156957D01*
X157486207Y-122157626D01*
X157514279Y-122153333D01*
X157552784Y-122148133D01*
X157601722Y-122142028D01*
X157604124Y-122141201D01*
X157652235Y-122132694D01*
X157691567Y-122129896D01*
X157719639Y-122125603D01*
X157733301Y-122126272D01*
X157736530Y-122127846D01*
X157751925Y-122141350D01*
X157773856Y-122166035D01*
X157799843Y-122194696D01*
X157825830Y-122223357D01*
X157851817Y-122252018D01*
X157866464Y-122271151D01*
X157873000Y-122282332D01*
X157869103Y-122294420D01*
X157862963Y-122323398D01*
X157852099Y-122362061D01*
X157838912Y-122409583D01*
X157838164Y-122415214D01*
X157824151Y-122460334D01*
X157816515Y-122500572D01*
X157809548Y-122527149D01*
X157808052Y-122538409D01*
X157808879Y-122540811D01*
X157819392Y-122547936D01*
X157846047Y-122562935D01*
X157884790Y-122581831D01*
X157929990Y-122603877D01*
X157942904Y-122610175D01*
X157991332Y-122633795D01*
X158026020Y-122648715D01*
X158046966Y-122654935D01*
X158055824Y-122657257D01*
X158054998Y-122654856D01*
X158065352Y-122645918D01*
X158083579Y-122620837D01*
X158107358Y-122588472D01*
X158136687Y-122548823D01*
X158138262Y-122545595D01*
X158168418Y-122508347D01*
X158192197Y-122475983D01*
X158208850Y-122454130D01*
X158215976Y-122443618D01*
X158218377Y-122442791D01*
X158234441Y-122442632D01*
X158266568Y-122442316D01*
X158301924Y-122443573D01*
X158342910Y-122445579D01*
X158379092Y-122449238D01*
X158406416Y-122450575D01*
X158420905Y-122453646D01*
X158430670Y-122466401D01*
X158445397Y-122493567D01*
X158468234Y-122528685D01*
X158491151Y-122571835D01*
X158496033Y-122578213D01*
X158518950Y-122621363D01*
X158538559Y-122654906D01*
X158554860Y-122678843D01*
X158561397Y-122690024D01*
X158566200Y-122688370D01*
X158591043Y-122682502D01*
X158624666Y-122670925D01*
X158665493Y-122656867D01*
X158706321Y-122642809D01*
X158747148Y-122628751D01*
X158782345Y-122613945D01*
X158806362Y-122605676D01*
X158817543Y-122599140D01*
X158816716Y-122596738D01*
X158817384Y-122583076D01*
X158812264Y-122552603D01*
X158808640Y-122510869D01*
X158799306Y-122460356D01*
X158799226Y-122452324D01*
X158790719Y-122404213D01*
X158787922Y-122364881D01*
X158783629Y-122336809D01*
X158782722Y-122326375D01*
X158786699Y-122322320D01*
X158801029Y-122309327D01*
X158828115Y-122286568D01*
X158860753Y-122256526D01*
X158935634Y-122193133D01*
X159066113Y-122228796D01*
X159078200Y-122232693D01*
X159125723Y-122245880D01*
X159163559Y-122254343D01*
X159190136Y-122261310D01*
X159201396Y-122262805D01*
X159207695Y-122249891D01*
X159222694Y-122223236D01*
X159241590Y-122184493D01*
X159264462Y-122141695D01*
X159279382Y-122107007D01*
X159298278Y-122068265D01*
X159310875Y-122042436D01*
X159315520Y-122024719D01*
X159317843Y-122015860D01*
X159313787Y-122011884D01*
X159304849Y-122001530D01*
X159280595Y-121985704D01*
X159247404Y-121959523D01*
X159208582Y-121932596D01*
X159175390Y-121906415D01*
X159142198Y-121880235D01*
X159118692Y-121858779D01*
X159107352Y-121849252D01*
X159108100Y-121843622D01*
X159107863Y-121819526D01*
X159109120Y-121784171D01*
X159112701Y-121739956D01*
X159119782Y-121643495D01*
X159171711Y-121614869D01*
X159202853Y-121596087D01*
X159248405Y-121572343D01*
X159288326Y-121547852D01*
X159353011Y-121509461D01*
X159268584Y-121256464D01*
X159257323Y-121254969D01*
X159243661Y-121254300D01*
X159217991Y-121257766D01*
X159177085Y-121263793D01*
X159131375Y-121271473D01*
X159092870Y-121276672D01*
X159051963Y-121282698D01*
X159023891Y-121286991D01*
X159011056Y-121288725D01*
X159007001Y-121284748D01*
X158990779Y-121268843D01*
X158966446Y-121244985D01*
X158940459Y-121216324D01*
X158913645Y-121185262D01*
X158890060Y-121155774D01*
X158872184Y-121135065D01*
X158862419Y-121122310D01*
X158863914Y-121111049D01*
X158870882Y-121084473D01*
X158881746Y-121045810D01*
X158893358Y-121001516D01*
X158906545Y-120953994D01*
X158917409Y-120915330D01*
X158923549Y-120886352D01*
X158927446Y-120874265D01*
X158920162Y-120868714D01*
X158899964Y-120856864D01*
X158863623Y-120837141D01*
X158805509Y-120808797D01*
X158796650Y-120806475D01*
X158753852Y-120783602D01*
X158716763Y-120769510D01*
X158690934Y-120756912D01*
X158679674Y-120755417D01*
G36*
X120270087Y-124335679D02*
X120285288Y-124323717D01*
X120311267Y-124293089D01*
X120351790Y-124248046D01*
X120398358Y-124196124D01*
X120446722Y-124141092D01*
X120484792Y-124096706D01*
X120513223Y-124065421D01*
X120523519Y-124054774D01*
X120531536Y-124055255D01*
X120562469Y-124062745D01*
X120606983Y-124071854D01*
X120634805Y-124077547D01*
X120675551Y-124082407D01*
X120694040Y-124082712D01*
X120695178Y-124077148D01*
X120702010Y-124043762D01*
X120709147Y-123991887D01*
X120719043Y-123920866D01*
X120731216Y-123838716D01*
X120744527Y-123751002D01*
X120754728Y-123661492D01*
X120766243Y-123576889D01*
X120776620Y-123497850D01*
X120783581Y-123435504D01*
X120787783Y-123392304D01*
X120790542Y-123373158D01*
X120787431Y-123371362D01*
X120765655Y-123358789D01*
X120727186Y-123342801D01*
X120643369Y-123304779D01*
X120552321Y-123239769D01*
X120484974Y-123155260D01*
X120443781Y-123050595D01*
X120427299Y-122949827D01*
X120441573Y-122846078D01*
X120484807Y-122742457D01*
X120548678Y-122656973D01*
X120631391Y-122592737D01*
X120733603Y-122552201D01*
X120836824Y-122535062D01*
X120943027Y-122548678D01*
X121045990Y-122589459D01*
X121093967Y-122621307D01*
X121166703Y-122696483D01*
X121220468Y-122779372D01*
X121228838Y-122800796D01*
X121251542Y-122905155D01*
X121248397Y-123011182D01*
X121217430Y-123111516D01*
X121162891Y-123202388D01*
X121155049Y-123212378D01*
X121127932Y-123248569D01*
X121108000Y-123272318D01*
X121094770Y-123291640D01*
X121308293Y-123568386D01*
X121341068Y-123612196D01*
X121400879Y-123688206D01*
X121450043Y-123753921D01*
X121492808Y-123805572D01*
X121520501Y-123840226D01*
X121531805Y-123852974D01*
X121544730Y-123852140D01*
X121564839Y-123838864D01*
X121603084Y-123804949D01*
X121628581Y-123782340D01*
X121656532Y-123759073D01*
X121669280Y-123747768D01*
X121685973Y-123751184D01*
X121723127Y-123762265D01*
X121775836Y-123782327D01*
X121842126Y-123804009D01*
X121905963Y-123826348D01*
X121963578Y-123845094D01*
X122004501Y-123860425D01*
X122023647Y-123863184D01*
X122026100Y-123862527D01*
X122041302Y-123850564D01*
X122061716Y-123818798D01*
X122092907Y-123768367D01*
X122138465Y-123693050D01*
X122145650Y-123680606D01*
X122181571Y-123618389D01*
X122208993Y-123563709D01*
X122228092Y-123527036D01*
X122234619Y-123512139D01*
X122220203Y-123497594D01*
X122188261Y-123466709D01*
X122143218Y-123426186D01*
X122088185Y-123377822D01*
X121945039Y-123255772D01*
X121963996Y-123100805D01*
X121969337Y-123052041D01*
X121976956Y-122992149D01*
X121984269Y-122950745D01*
X121987027Y-122931599D01*
X122002887Y-122922090D01*
X122037059Y-122902415D01*
X122090859Y-122877481D01*
X122156268Y-122846807D01*
X122216771Y-122817447D01*
X122269913Y-122790060D01*
X122309650Y-122771524D01*
X122328620Y-122763811D01*
X122332212Y-122757589D01*
X122332693Y-122749571D01*
X122329888Y-122729286D01*
X122322480Y-122691827D01*
X122308017Y-122637851D01*
X122286323Y-122556887D01*
X122284351Y-122549527D01*
X122263971Y-122473470D01*
X122245083Y-122412791D01*
X122232769Y-122376647D01*
X122225713Y-122360130D01*
X122207224Y-122359825D01*
X122163543Y-122363640D01*
X122103827Y-122366493D01*
X122031843Y-122372633D01*
X122026937Y-122373948D01*
X121954295Y-122377635D01*
X121894579Y-122380488D01*
X121850898Y-122384303D01*
X121831752Y-122381544D01*
X121827984Y-122377295D01*
X121806031Y-122354251D01*
X121775228Y-122317802D01*
X121739342Y-122272196D01*
X121702798Y-122224137D01*
X121670022Y-122180327D01*
X121648551Y-122149266D01*
X121639043Y-122133406D01*
X121644255Y-122113602D01*
X121659585Y-122072680D01*
X121680786Y-122014407D01*
X121704263Y-121945006D01*
X121705402Y-121939442D01*
X121728880Y-121870041D01*
X121747626Y-121812425D01*
X121760504Y-121772161D01*
X121763920Y-121755468D01*
X121763262Y-121753014D01*
X121746393Y-121739127D01*
X121708406Y-121715121D01*
X121652410Y-121682792D01*
X121589536Y-121644418D01*
X121568417Y-121634299D01*
X121496868Y-121592989D01*
X121448409Y-121569160D01*
X121418615Y-121556106D01*
X121407487Y-121553829D01*
X121405033Y-121554486D01*
X121390489Y-121568902D01*
X121360261Y-121603297D01*
X121320396Y-121650793D01*
X121272031Y-121705826D01*
X121270235Y-121708937D01*
X121221871Y-121763970D01*
X121182005Y-121811466D01*
X121153573Y-121842751D01*
X121140825Y-121854056D01*
X121138371Y-121854713D01*
X121114976Y-121855723D01*
X121069323Y-121852178D01*
X121012541Y-121846356D01*
X120952648Y-121838737D01*
X120898320Y-121832258D01*
X120859370Y-121824287D01*
X120839566Y-121819075D01*
X120837113Y-121819733D01*
X120826289Y-121798966D01*
X120804642Y-121757434D01*
X120776597Y-121701838D01*
X120742812Y-121634632D01*
X120737729Y-121625476D01*
X120706397Y-121557613D01*
X120681463Y-121503813D01*
X120661131Y-121467187D01*
X120654076Y-121450671D01*
X120644262Y-121453300D01*
X120609256Y-121460050D01*
X120557076Y-121471402D01*
X120493286Y-121488495D01*
X120429497Y-121505587D01*
X120365707Y-121522680D01*
X120312388Y-121539596D01*
X120273791Y-121552568D01*
X120257931Y-121562076D01*
X120258941Y-121585472D01*
X120260303Y-121629811D01*
X120264471Y-121694434D01*
X120268815Y-121769528D01*
X120269648Y-121782453D01*
X120275788Y-121854437D01*
X120278641Y-121914153D01*
X120281799Y-121955381D01*
X120280837Y-121971416D01*
X120276587Y-121975184D01*
X120251090Y-121997794D01*
X120209076Y-122027459D01*
X120159221Y-122067113D01*
X120041197Y-122156589D01*
X119849029Y-122087119D01*
X119831679Y-122081249D01*
X119762278Y-122057771D01*
X119704662Y-122039025D01*
X119664397Y-122026147D01*
X119650158Y-122022074D01*
X119647705Y-122022731D01*
X119636928Y-122041396D01*
X119612922Y-122079384D01*
X119580593Y-122135379D01*
X119542219Y-122198254D01*
X119513482Y-122248027D01*
X119481153Y-122304023D01*
X119462711Y-122343149D01*
X119450796Y-122367378D01*
X119449176Y-122380960D01*
X119453602Y-122387663D01*
X119468018Y-122402208D01*
X119501756Y-122429982D01*
X119547456Y-122472959D01*
X119601831Y-122518870D01*
X119649328Y-122558735D01*
X119698139Y-122603507D01*
X119730738Y-122636846D01*
X119745154Y-122651390D01*
X119745330Y-122661862D01*
X119741609Y-122697044D01*
X119734472Y-122748918D01*
X119725715Y-122814375D01*
X119703471Y-122957075D01*
X119624655Y-122996601D01*
X119575762Y-123020220D01*
X119507899Y-123051552D01*
X119443147Y-123084680D01*
X119340454Y-123133233D01*
X119442527Y-123523989D01*
X119461674Y-123526748D01*
X119477709Y-123527710D01*
X119519594Y-123527006D01*
X119578653Y-123521699D01*
X119648183Y-123516217D01*
X119710353Y-123512706D01*
X119769412Y-123507400D01*
X119813093Y-123503584D01*
X119831582Y-123503889D01*
X119837804Y-123507482D01*
X119860413Y-123532979D01*
X119891874Y-123571882D01*
X119927760Y-123617487D01*
X119967415Y-123667343D01*
X120000191Y-123711153D01*
X120025430Y-123746463D01*
X120035596Y-123764776D01*
X120032180Y-123781469D01*
X120019303Y-123821734D01*
X120000556Y-123879349D01*
X119976421Y-123946297D01*
X119952286Y-124013245D01*
X119933539Y-124070860D01*
X119918208Y-124111782D01*
X119915449Y-124130929D01*
X119922986Y-124139428D01*
X119952298Y-124160499D01*
X120005840Y-124193486D01*
X120086722Y-124240183D01*
X120101619Y-124246710D01*
X120163836Y-124282631D01*
X120218517Y-124310053D01*
X120255190Y-124329152D01*
X120270087Y-124335679D01*
X120270087Y-124335679D01*
G37*
X120270087Y-124335679D02*
X120285288Y-124323717D01*
X120311267Y-124293089D01*
X120351790Y-124248046D01*
X120398358Y-124196124D01*
X120446722Y-124141092D01*
X120484792Y-124096706D01*
X120513223Y-124065421D01*
X120523519Y-124054774D01*
X120531536Y-124055255D01*
X120562469Y-124062745D01*
X120606983Y-124071854D01*
X120634805Y-124077547D01*
X120675551Y-124082407D01*
X120694040Y-124082712D01*
X120695178Y-124077148D01*
X120702010Y-124043762D01*
X120709147Y-123991887D01*
X120719043Y-123920866D01*
X120731216Y-123838716D01*
X120744527Y-123751002D01*
X120754728Y-123661492D01*
X120766243Y-123576889D01*
X120776620Y-123497850D01*
X120783581Y-123435504D01*
X120787783Y-123392304D01*
X120790542Y-123373158D01*
X120787431Y-123371362D01*
X120765655Y-123358789D01*
X120727186Y-123342801D01*
X120643369Y-123304779D01*
X120552321Y-123239769D01*
X120484974Y-123155260D01*
X120443781Y-123050595D01*
X120427299Y-122949827D01*
X120441573Y-122846078D01*
X120484807Y-122742457D01*
X120548678Y-122656973D01*
X120631391Y-122592737D01*
X120733603Y-122552201D01*
X120836824Y-122535062D01*
X120943027Y-122548678D01*
X121045990Y-122589459D01*
X121093967Y-122621307D01*
X121166703Y-122696483D01*
X121220468Y-122779372D01*
X121228838Y-122800796D01*
X121251542Y-122905155D01*
X121248397Y-123011182D01*
X121217430Y-123111516D01*
X121162891Y-123202388D01*
X121155049Y-123212378D01*
X121127932Y-123248569D01*
X121108000Y-123272318D01*
X121094770Y-123291640D01*
X121308293Y-123568386D01*
X121341068Y-123612196D01*
X121400879Y-123688206D01*
X121450043Y-123753921D01*
X121492808Y-123805572D01*
X121520501Y-123840226D01*
X121531805Y-123852974D01*
X121544730Y-123852140D01*
X121564839Y-123838864D01*
X121603084Y-123804949D01*
X121628581Y-123782340D01*
X121656532Y-123759073D01*
X121669280Y-123747768D01*
X121685973Y-123751184D01*
X121723127Y-123762265D01*
X121775836Y-123782327D01*
X121842126Y-123804009D01*
X121905963Y-123826348D01*
X121963578Y-123845094D01*
X122004501Y-123860425D01*
X122023647Y-123863184D01*
X122026100Y-123862527D01*
X122041302Y-123850564D01*
X122061716Y-123818798D01*
X122092907Y-123768367D01*
X122138465Y-123693050D01*
X122145650Y-123680606D01*
X122181571Y-123618389D01*
X122208993Y-123563709D01*
X122228092Y-123527036D01*
X122234619Y-123512139D01*
X122220203Y-123497594D01*
X122188261Y-123466709D01*
X122143218Y-123426186D01*
X122088185Y-123377822D01*
X121945039Y-123255772D01*
X121963996Y-123100805D01*
X121969337Y-123052041D01*
X121976956Y-122992149D01*
X121984269Y-122950745D01*
X121987027Y-122931599D01*
X122002887Y-122922090D01*
X122037059Y-122902415D01*
X122090859Y-122877481D01*
X122156268Y-122846807D01*
X122216771Y-122817447D01*
X122269913Y-122790060D01*
X122309650Y-122771524D01*
X122328620Y-122763811D01*
X122332212Y-122757589D01*
X122332693Y-122749571D01*
X122329888Y-122729286D01*
X122322480Y-122691827D01*
X122308017Y-122637851D01*
X122286323Y-122556887D01*
X122284351Y-122549527D01*
X122263971Y-122473470D01*
X122245083Y-122412791D01*
X122232769Y-122376647D01*
X122225713Y-122360130D01*
X122207224Y-122359825D01*
X122163543Y-122363640D01*
X122103827Y-122366493D01*
X122031843Y-122372633D01*
X122026937Y-122373948D01*
X121954295Y-122377635D01*
X121894579Y-122380488D01*
X121850898Y-122384303D01*
X121831752Y-122381544D01*
X121827984Y-122377295D01*
X121806031Y-122354251D01*
X121775228Y-122317802D01*
X121739342Y-122272196D01*
X121702798Y-122224137D01*
X121670022Y-122180327D01*
X121648551Y-122149266D01*
X121639043Y-122133406D01*
X121644255Y-122113602D01*
X121659585Y-122072680D01*
X121680786Y-122014407D01*
X121704263Y-121945006D01*
X121705402Y-121939442D01*
X121728880Y-121870041D01*
X121747626Y-121812425D01*
X121760504Y-121772161D01*
X121763920Y-121755468D01*
X121763262Y-121753014D01*
X121746393Y-121739127D01*
X121708406Y-121715121D01*
X121652410Y-121682792D01*
X121589536Y-121644418D01*
X121568417Y-121634299D01*
X121496868Y-121592989D01*
X121448409Y-121569160D01*
X121418615Y-121556106D01*
X121407487Y-121553829D01*
X121405033Y-121554486D01*
X121390489Y-121568902D01*
X121360261Y-121603297D01*
X121320396Y-121650793D01*
X121272031Y-121705826D01*
X121270235Y-121708937D01*
X121221871Y-121763970D01*
X121182005Y-121811466D01*
X121153573Y-121842751D01*
X121140825Y-121854056D01*
X121138371Y-121854713D01*
X121114976Y-121855723D01*
X121069323Y-121852178D01*
X121012541Y-121846356D01*
X120952648Y-121838737D01*
X120898320Y-121832258D01*
X120859370Y-121824287D01*
X120839566Y-121819075D01*
X120837113Y-121819733D01*
X120826289Y-121798966D01*
X120804642Y-121757434D01*
X120776597Y-121701838D01*
X120742812Y-121634632D01*
X120737729Y-121625476D01*
X120706397Y-121557613D01*
X120681463Y-121503813D01*
X120661131Y-121467187D01*
X120654076Y-121450671D01*
X120644262Y-121453300D01*
X120609256Y-121460050D01*
X120557076Y-121471402D01*
X120493286Y-121488495D01*
X120429497Y-121505587D01*
X120365707Y-121522680D01*
X120312388Y-121539596D01*
X120273791Y-121552568D01*
X120257931Y-121562076D01*
X120258941Y-121585472D01*
X120260303Y-121629811D01*
X120264471Y-121694434D01*
X120268815Y-121769528D01*
X120269648Y-121782453D01*
X120275788Y-121854437D01*
X120278641Y-121914153D01*
X120281799Y-121955381D01*
X120280837Y-121971416D01*
X120276587Y-121975184D01*
X120251090Y-121997794D01*
X120209076Y-122027459D01*
X120159221Y-122067113D01*
X120041197Y-122156589D01*
X119849029Y-122087119D01*
X119831679Y-122081249D01*
X119762278Y-122057771D01*
X119704662Y-122039025D01*
X119664397Y-122026147D01*
X119650158Y-122022074D01*
X119647705Y-122022731D01*
X119636928Y-122041396D01*
X119612922Y-122079384D01*
X119580593Y-122135379D01*
X119542219Y-122198254D01*
X119513482Y-122248027D01*
X119481153Y-122304023D01*
X119462711Y-122343149D01*
X119450796Y-122367378D01*
X119449176Y-122380960D01*
X119453602Y-122387663D01*
X119468018Y-122402208D01*
X119501756Y-122429982D01*
X119547456Y-122472959D01*
X119601831Y-122518870D01*
X119649328Y-122558735D01*
X119698139Y-122603507D01*
X119730738Y-122636846D01*
X119745154Y-122651390D01*
X119745330Y-122661862D01*
X119741609Y-122697044D01*
X119734472Y-122748918D01*
X119725715Y-122814375D01*
X119703471Y-122957075D01*
X119624655Y-122996601D01*
X119575762Y-123020220D01*
X119507899Y-123051552D01*
X119443147Y-123084680D01*
X119340454Y-123133233D01*
X119442527Y-123523989D01*
X119461674Y-123526748D01*
X119477709Y-123527710D01*
X119519594Y-123527006D01*
X119578653Y-123521699D01*
X119648183Y-123516217D01*
X119710353Y-123512706D01*
X119769412Y-123507400D01*
X119813093Y-123503584D01*
X119831582Y-123503889D01*
X119837804Y-123507482D01*
X119860413Y-123532979D01*
X119891874Y-123571882D01*
X119927760Y-123617487D01*
X119967415Y-123667343D01*
X120000191Y-123711153D01*
X120025430Y-123746463D01*
X120035596Y-123764776D01*
X120032180Y-123781469D01*
X120019303Y-123821734D01*
X120000556Y-123879349D01*
X119976421Y-123946297D01*
X119952286Y-124013245D01*
X119933539Y-124070860D01*
X119918208Y-124111782D01*
X119915449Y-124130929D01*
X119922986Y-124139428D01*
X119952298Y-124160499D01*
X120005840Y-124193486D01*
X120086722Y-124240183D01*
X120101619Y-124246710D01*
X120163836Y-124282631D01*
X120218517Y-124310053D01*
X120255190Y-124329152D01*
X120270087Y-124335679D01*
G36*
X135888420Y-87595780D02*
X135908740Y-87585620D01*
X135957000Y-87555140D01*
X136023040Y-87511960D01*
X136101780Y-87458620D01*
X136180520Y-87405280D01*
X136246560Y-87362100D01*
X136292280Y-87331620D01*
X136310060Y-87321460D01*
X136320220Y-87324000D01*
X136358320Y-87344320D01*
X136414200Y-87372260D01*
X136444680Y-87387500D01*
X136495480Y-87410360D01*
X136520880Y-87415440D01*
X136523420Y-87407820D01*
X136543740Y-87369720D01*
X136571680Y-87303680D01*
X136609780Y-87217320D01*
X136652960Y-87115720D01*
X136698680Y-87006500D01*
X136744400Y-86894740D01*
X136790120Y-86788060D01*
X136828220Y-86691540D01*
X136861240Y-86615340D01*
X136881560Y-86559460D01*
X136889180Y-86536600D01*
X136886640Y-86531520D01*
X136861240Y-86508660D01*
X136818060Y-86475640D01*
X136721540Y-86396900D01*
X136630100Y-86280060D01*
X136571680Y-86147980D01*
X136553900Y-86000660D01*
X136569140Y-85866040D01*
X136622480Y-85736500D01*
X136713920Y-85617120D01*
X136825680Y-85530760D01*
X136955220Y-85474880D01*
X137100000Y-85457100D01*
X137239700Y-85472340D01*
X137371780Y-85525680D01*
X137491160Y-85614580D01*
X137539420Y-85673000D01*
X137608000Y-85792380D01*
X137648640Y-85919380D01*
X137651180Y-85949860D01*
X137646100Y-86092100D01*
X137605460Y-86226720D01*
X137531800Y-86346100D01*
X137427660Y-86445160D01*
X137414960Y-86455320D01*
X137366700Y-86490880D01*
X137336220Y-86513740D01*
X137310820Y-86534060D01*
X137488620Y-86965860D01*
X137516560Y-87034440D01*
X137567360Y-87151280D01*
X137610540Y-87252880D01*
X137643560Y-87334160D01*
X137668960Y-87387500D01*
X137679120Y-87410360D01*
X137694360Y-87412900D01*
X137727380Y-87400200D01*
X137788340Y-87372260D01*
X137828980Y-87351940D01*
X137874700Y-87329080D01*
X137895020Y-87321460D01*
X137912800Y-87331620D01*
X137955980Y-87359560D01*
X138019480Y-87402740D01*
X138095680Y-87453540D01*
X138169340Y-87504340D01*
X138237920Y-87550060D01*
X138286180Y-87580540D01*
X138311580Y-87593240D01*
X138314120Y-87593240D01*
X138334440Y-87580540D01*
X138375080Y-87550060D01*
X138433500Y-87494180D01*
X138514780Y-87412900D01*
X138527480Y-87400200D01*
X138596060Y-87329080D01*
X138651940Y-87270660D01*
X138690040Y-87230020D01*
X138702740Y-87212240D01*
X138690040Y-87186840D01*
X138659560Y-87138580D01*
X138613840Y-87070000D01*
X138560500Y-86991260D01*
X138418260Y-86782980D01*
X138497000Y-86587400D01*
X138519860Y-86528980D01*
X138550340Y-86455320D01*
X138573200Y-86404520D01*
X138585900Y-86381660D01*
X138606220Y-86374040D01*
X138659560Y-86361340D01*
X138738300Y-86343560D01*
X138829740Y-86328320D01*
X138918640Y-86310540D01*
X138997380Y-86295300D01*
X139055800Y-86285140D01*
X139081200Y-86280060D01*
X139086280Y-86274980D01*
X139091360Y-86262280D01*
X139096440Y-86236880D01*
X139096440Y-86188620D01*
X139098980Y-86112420D01*
X139098980Y-86000660D01*
X139098980Y-85990500D01*
X139096440Y-85883820D01*
X139096440Y-85800000D01*
X139093900Y-85746660D01*
X139088820Y-85726340D01*
X139063420Y-85718720D01*
X139007540Y-85708560D01*
X138928800Y-85690780D01*
X138832280Y-85673000D01*
X138827200Y-85673000D01*
X138733220Y-85655220D01*
X138654480Y-85637440D01*
X138598600Y-85624740D01*
X138575740Y-85617120D01*
X138570660Y-85612040D01*
X138550340Y-85573940D01*
X138522400Y-85515520D01*
X138491920Y-85444400D01*
X138461440Y-85370740D01*
X138433500Y-85302160D01*
X138415720Y-85253900D01*
X138410640Y-85231040D01*
X138425880Y-85208180D01*
X138458900Y-85157380D01*
X138504620Y-85091340D01*
X138560500Y-85010060D01*
X138563040Y-85002440D01*
X138618920Y-84923700D01*
X138662100Y-84855120D01*
X138692580Y-84806860D01*
X138702740Y-84786540D01*
X138702740Y-84784000D01*
X138684960Y-84761140D01*
X138644320Y-84715420D01*
X138585900Y-84654460D01*
X138514780Y-84583340D01*
X138491920Y-84563020D01*
X138415720Y-84486820D01*
X138362380Y-84436020D01*
X138326820Y-84410620D01*
X138311580Y-84403000D01*
X138311580Y-84405540D01*
X138286180Y-84418240D01*
X138235380Y-84451260D01*
X138166800Y-84499520D01*
X138085520Y-84552860D01*
X138080440Y-84557940D01*
X138001700Y-84611280D01*
X137935660Y-84657000D01*
X137887400Y-84687480D01*
X137867080Y-84700180D01*
X137862000Y-84700180D01*
X137831520Y-84690020D01*
X137773100Y-84672240D01*
X137704520Y-84644300D01*
X137630860Y-84613820D01*
X137562280Y-84585880D01*
X137511480Y-84563020D01*
X137488620Y-84550320D01*
X137488620Y-84547780D01*
X137478460Y-84519840D01*
X137465760Y-84458880D01*
X137447980Y-84377600D01*
X137430200Y-84278540D01*
X137427660Y-84263300D01*
X137409880Y-84169320D01*
X137394640Y-84090580D01*
X137381940Y-84034700D01*
X137376860Y-84011840D01*
X137364160Y-84009300D01*
X137315900Y-84006760D01*
X137244780Y-84004220D01*
X137158420Y-84004220D01*
X137069520Y-84004220D01*
X136983160Y-84006760D01*
X136906960Y-84009300D01*
X136853620Y-84011840D01*
X136830760Y-84016920D01*
X136828220Y-84019460D01*
X136820600Y-84047400D01*
X136807900Y-84108360D01*
X136790120Y-84189640D01*
X136772340Y-84288700D01*
X136769800Y-84306480D01*
X136752020Y-84400460D01*
X136734240Y-84479200D01*
X136724080Y-84532540D01*
X136716460Y-84552860D01*
X136708840Y-84557940D01*
X136670740Y-84575720D01*
X136607240Y-84601120D01*
X136525960Y-84634140D01*
X136343080Y-84707800D01*
X136119560Y-84552860D01*
X136099240Y-84540160D01*
X136017960Y-84484280D01*
X135951920Y-84441100D01*
X135906200Y-84410620D01*
X135885880Y-84400460D01*
X135863020Y-84420780D01*
X135817300Y-84461420D01*
X135756340Y-84522380D01*
X135687760Y-84590960D01*
X135634420Y-84644300D01*
X135573460Y-84707800D01*
X135532820Y-84748440D01*
X135512500Y-84776380D01*
X135504880Y-84794160D01*
X135507420Y-84804320D01*
X135520120Y-84827180D01*
X135553140Y-84875440D01*
X135598860Y-84944020D01*
X135654740Y-85022760D01*
X135700460Y-85091340D01*
X135748720Y-85165000D01*
X135779200Y-85218340D01*
X135791900Y-85246280D01*
X135789360Y-85256440D01*
X135771580Y-85299620D01*
X135746180Y-85368200D01*
X135713160Y-85446940D01*
X135634420Y-85624740D01*
X135517580Y-85645060D01*
X135446460Y-85660300D01*
X135347400Y-85678080D01*
X135253420Y-85695860D01*
X135106100Y-85726340D01*
X135101020Y-86264820D01*
X135123880Y-86274980D01*
X135146740Y-86282600D01*
X135200080Y-86292760D01*
X135278820Y-86308000D01*
X135370260Y-86325780D01*
X135449000Y-86341020D01*
X135527740Y-86356260D01*
X135583620Y-86366420D01*
X135609020Y-86371500D01*
X135616640Y-86381660D01*
X135636960Y-86419760D01*
X135664900Y-86480720D01*
X135695380Y-86554380D01*
X135725860Y-86628040D01*
X135753800Y-86699160D01*
X135774120Y-86752500D01*
X135781740Y-86780440D01*
X135771580Y-86800760D01*
X135741100Y-86846480D01*
X135697920Y-86912520D01*
X135644580Y-86991260D01*
X135588700Y-87070000D01*
X135545520Y-87138580D01*
X135512500Y-87186840D01*
X135499800Y-87207160D01*
X135507420Y-87222400D01*
X135537900Y-87260500D01*
X135596320Y-87321460D01*
X135685220Y-87410360D01*
X135700460Y-87423060D01*
X135769040Y-87491640D01*
X135830000Y-87544980D01*
X135870640Y-87583080D01*
X135888420Y-87595780D01*
X135888420Y-87595780D01*
G37*
X135888420Y-87595780D02*
X135908740Y-87585620D01*
X135957000Y-87555140D01*
X136023040Y-87511960D01*
X136101780Y-87458620D01*
X136180520Y-87405280D01*
X136246560Y-87362100D01*
X136292280Y-87331620D01*
X136310060Y-87321460D01*
X136320220Y-87324000D01*
X136358320Y-87344320D01*
X136414200Y-87372260D01*
X136444680Y-87387500D01*
X136495480Y-87410360D01*
X136520880Y-87415440D01*
X136523420Y-87407820D01*
X136543740Y-87369720D01*
X136571680Y-87303680D01*
X136609780Y-87217320D01*
X136652960Y-87115720D01*
X136698680Y-87006500D01*
X136744400Y-86894740D01*
X136790120Y-86788060D01*
X136828220Y-86691540D01*
X136861240Y-86615340D01*
X136881560Y-86559460D01*
X136889180Y-86536600D01*
X136886640Y-86531520D01*
X136861240Y-86508660D01*
X136818060Y-86475640D01*
X136721540Y-86396900D01*
X136630100Y-86280060D01*
X136571680Y-86147980D01*
X136553900Y-86000660D01*
X136569140Y-85866040D01*
X136622480Y-85736500D01*
X136713920Y-85617120D01*
X136825680Y-85530760D01*
X136955220Y-85474880D01*
X137100000Y-85457100D01*
X137239700Y-85472340D01*
X137371780Y-85525680D01*
X137491160Y-85614580D01*
X137539420Y-85673000D01*
X137608000Y-85792380D01*
X137648640Y-85919380D01*
X137651180Y-85949860D01*
X137646100Y-86092100D01*
X137605460Y-86226720D01*
X137531800Y-86346100D01*
X137427660Y-86445160D01*
X137414960Y-86455320D01*
X137366700Y-86490880D01*
X137336220Y-86513740D01*
X137310820Y-86534060D01*
X137488620Y-86965860D01*
X137516560Y-87034440D01*
X137567360Y-87151280D01*
X137610540Y-87252880D01*
X137643560Y-87334160D01*
X137668960Y-87387500D01*
X137679120Y-87410360D01*
X137694360Y-87412900D01*
X137727380Y-87400200D01*
X137788340Y-87372260D01*
X137828980Y-87351940D01*
X137874700Y-87329080D01*
X137895020Y-87321460D01*
X137912800Y-87331620D01*
X137955980Y-87359560D01*
X138019480Y-87402740D01*
X138095680Y-87453540D01*
X138169340Y-87504340D01*
X138237920Y-87550060D01*
X138286180Y-87580540D01*
X138311580Y-87593240D01*
X138314120Y-87593240D01*
X138334440Y-87580540D01*
X138375080Y-87550060D01*
X138433500Y-87494180D01*
X138514780Y-87412900D01*
X138527480Y-87400200D01*
X138596060Y-87329080D01*
X138651940Y-87270660D01*
X138690040Y-87230020D01*
X138702740Y-87212240D01*
X138690040Y-87186840D01*
X138659560Y-87138580D01*
X138613840Y-87070000D01*
X138560500Y-86991260D01*
X138418260Y-86782980D01*
X138497000Y-86587400D01*
X138519860Y-86528980D01*
X138550340Y-86455320D01*
X138573200Y-86404520D01*
X138585900Y-86381660D01*
X138606220Y-86374040D01*
X138659560Y-86361340D01*
X138738300Y-86343560D01*
X138829740Y-86328320D01*
X138918640Y-86310540D01*
X138997380Y-86295300D01*
X139055800Y-86285140D01*
X139081200Y-86280060D01*
X139086280Y-86274980D01*
X139091360Y-86262280D01*
X139096440Y-86236880D01*
X139096440Y-86188620D01*
X139098980Y-86112420D01*
X139098980Y-86000660D01*
X139098980Y-85990500D01*
X139096440Y-85883820D01*
X139096440Y-85800000D01*
X139093900Y-85746660D01*
X139088820Y-85726340D01*
X139063420Y-85718720D01*
X139007540Y-85708560D01*
X138928800Y-85690780D01*
X138832280Y-85673000D01*
X138827200Y-85673000D01*
X138733220Y-85655220D01*
X138654480Y-85637440D01*
X138598600Y-85624740D01*
X138575740Y-85617120D01*
X138570660Y-85612040D01*
X138550340Y-85573940D01*
X138522400Y-85515520D01*
X138491920Y-85444400D01*
X138461440Y-85370740D01*
X138433500Y-85302160D01*
X138415720Y-85253900D01*
X138410640Y-85231040D01*
X138425880Y-85208180D01*
X138458900Y-85157380D01*
X138504620Y-85091340D01*
X138560500Y-85010060D01*
X138563040Y-85002440D01*
X138618920Y-84923700D01*
X138662100Y-84855120D01*
X138692580Y-84806860D01*
X138702740Y-84786540D01*
X138702740Y-84784000D01*
X138684960Y-84761140D01*
X138644320Y-84715420D01*
X138585900Y-84654460D01*
X138514780Y-84583340D01*
X138491920Y-84563020D01*
X138415720Y-84486820D01*
X138362380Y-84436020D01*
X138326820Y-84410620D01*
X138311580Y-84403000D01*
X138311580Y-84405540D01*
X138286180Y-84418240D01*
X138235380Y-84451260D01*
X138166800Y-84499520D01*
X138085520Y-84552860D01*
X138080440Y-84557940D01*
X138001700Y-84611280D01*
X137935660Y-84657000D01*
X137887400Y-84687480D01*
X137867080Y-84700180D01*
X137862000Y-84700180D01*
X137831520Y-84690020D01*
X137773100Y-84672240D01*
X137704520Y-84644300D01*
X137630860Y-84613820D01*
X137562280Y-84585880D01*
X137511480Y-84563020D01*
X137488620Y-84550320D01*
X137488620Y-84547780D01*
X137478460Y-84519840D01*
X137465760Y-84458880D01*
X137447980Y-84377600D01*
X137430200Y-84278540D01*
X137427660Y-84263300D01*
X137409880Y-84169320D01*
X137394640Y-84090580D01*
X137381940Y-84034700D01*
X137376860Y-84011840D01*
X137364160Y-84009300D01*
X137315900Y-84006760D01*
X137244780Y-84004220D01*
X137158420Y-84004220D01*
X137069520Y-84004220D01*
X136983160Y-84006760D01*
X136906960Y-84009300D01*
X136853620Y-84011840D01*
X136830760Y-84016920D01*
X136828220Y-84019460D01*
X136820600Y-84047400D01*
X136807900Y-84108360D01*
X136790120Y-84189640D01*
X136772340Y-84288700D01*
X136769800Y-84306480D01*
X136752020Y-84400460D01*
X136734240Y-84479200D01*
X136724080Y-84532540D01*
X136716460Y-84552860D01*
X136708840Y-84557940D01*
X136670740Y-84575720D01*
X136607240Y-84601120D01*
X136525960Y-84634140D01*
X136343080Y-84707800D01*
X136119560Y-84552860D01*
X136099240Y-84540160D01*
X136017960Y-84484280D01*
X135951920Y-84441100D01*
X135906200Y-84410620D01*
X135885880Y-84400460D01*
X135863020Y-84420780D01*
X135817300Y-84461420D01*
X135756340Y-84522380D01*
X135687760Y-84590960D01*
X135634420Y-84644300D01*
X135573460Y-84707800D01*
X135532820Y-84748440D01*
X135512500Y-84776380D01*
X135504880Y-84794160D01*
X135507420Y-84804320D01*
X135520120Y-84827180D01*
X135553140Y-84875440D01*
X135598860Y-84944020D01*
X135654740Y-85022760D01*
X135700460Y-85091340D01*
X135748720Y-85165000D01*
X135779200Y-85218340D01*
X135791900Y-85246280D01*
X135789360Y-85256440D01*
X135771580Y-85299620D01*
X135746180Y-85368200D01*
X135713160Y-85446940D01*
X135634420Y-85624740D01*
X135517580Y-85645060D01*
X135446460Y-85660300D01*
X135347400Y-85678080D01*
X135253420Y-85695860D01*
X135106100Y-85726340D01*
X135101020Y-86264820D01*
X135123880Y-86274980D01*
X135146740Y-86282600D01*
X135200080Y-86292760D01*
X135278820Y-86308000D01*
X135370260Y-86325780D01*
X135449000Y-86341020D01*
X135527740Y-86356260D01*
X135583620Y-86366420D01*
X135609020Y-86371500D01*
X135616640Y-86381660D01*
X135636960Y-86419760D01*
X135664900Y-86480720D01*
X135695380Y-86554380D01*
X135725860Y-86628040D01*
X135753800Y-86699160D01*
X135774120Y-86752500D01*
X135781740Y-86780440D01*
X135771580Y-86800760D01*
X135741100Y-86846480D01*
X135697920Y-86912520D01*
X135644580Y-86991260D01*
X135588700Y-87070000D01*
X135545520Y-87138580D01*
X135512500Y-87186840D01*
X135499800Y-87207160D01*
X135507420Y-87222400D01*
X135537900Y-87260500D01*
X135596320Y-87321460D01*
X135685220Y-87410360D01*
X135700460Y-87423060D01*
X135769040Y-87491640D01*
X135830000Y-87544980D01*
X135870640Y-87583080D01*
X135888420Y-87595780D01*
D13*
G04 #@! TO.C,REF\002A\002A*
G36*
X193139878Y-138287776D02*
X193245612Y-138288355D01*
X193322132Y-138289922D01*
X193374372Y-138292972D01*
X193407263Y-138297996D01*
X193425737Y-138305489D01*
X193434727Y-138315944D01*
X193439163Y-138329853D01*
X193439594Y-138331654D01*
X193446333Y-138364145D01*
X193458808Y-138428252D01*
X193475719Y-138517151D01*
X193495771Y-138624019D01*
X193517664Y-138742033D01*
X193518429Y-138746178D01*
X193540359Y-138861831D01*
X193560877Y-138964014D01*
X193578659Y-139046598D01*
X193592381Y-139103456D01*
X193600718Y-139128458D01*
X193601116Y-139128901D01*
X193625677Y-139141110D01*
X193676315Y-139161456D01*
X193742095Y-139185545D01*
X193742461Y-139185674D01*
X193825317Y-139216818D01*
X193923000Y-139256491D01*
X194015077Y-139296381D01*
X194019434Y-139298353D01*
X194169407Y-139366420D01*
X194501498Y-139139639D01*
X194603374Y-139070504D01*
X194695657Y-139008697D01*
X194773003Y-138957733D01*
X194830064Y-138921127D01*
X194861495Y-138902394D01*
X194864479Y-138901004D01*
X194887321Y-138907190D01*
X194929982Y-138937035D01*
X194994128Y-138991947D01*
X195081421Y-139073334D01*
X195170535Y-139159922D01*
X195256441Y-139245247D01*
X195333327Y-139323108D01*
X195396564Y-139388697D01*
X195441523Y-139437205D01*
X195463576Y-139463825D01*
X195464396Y-139465195D01*
X195466834Y-139483463D01*
X195457650Y-139513295D01*
X195434574Y-139558721D01*
X195395337Y-139623770D01*
X195337670Y-139712470D01*
X195260795Y-139826657D01*
X195192570Y-139927162D01*
X195131582Y-140017303D01*
X195081356Y-140091849D01*
X195045416Y-140145565D01*
X195027287Y-140173218D01*
X195026146Y-140175095D01*
X195028359Y-140201590D01*
X195045138Y-140253086D01*
X195073142Y-140319851D01*
X195083122Y-140341172D01*
X195126672Y-140436159D01*
X195173134Y-140543937D01*
X195210877Y-140637192D01*
X195238073Y-140706406D01*
X195259675Y-140759006D01*
X195272158Y-140786497D01*
X195273709Y-140788616D01*
X195296668Y-140792124D01*
X195350786Y-140801738D01*
X195428868Y-140816089D01*
X195523719Y-140833807D01*
X195628143Y-140853525D01*
X195734944Y-140873874D01*
X195836926Y-140893486D01*
X195926894Y-140910991D01*
X195997653Y-140925022D01*
X196042006Y-140934209D01*
X196052885Y-140936807D01*
X196064122Y-140943218D01*
X196072605Y-140957697D01*
X196078714Y-140985133D01*
X196082832Y-141030411D01*
X196085341Y-141098420D01*
X196086621Y-141194047D01*
X196087054Y-141322180D01*
X196087077Y-141374701D01*
X196087077Y-141801845D01*
X195984500Y-141822091D01*
X195927431Y-141833070D01*
X195842269Y-141849095D01*
X195739372Y-141868233D01*
X195629096Y-141888551D01*
X195598615Y-141894132D01*
X195496855Y-141913917D01*
X195408205Y-141933373D01*
X195340108Y-141950697D01*
X195300004Y-141964088D01*
X195293323Y-141968079D01*
X195276919Y-141996342D01*
X195253399Y-142051109D01*
X195227316Y-142121588D01*
X195222142Y-142136769D01*
X195187956Y-142230896D01*
X195145523Y-142337101D01*
X195103997Y-142432473D01*
X195103792Y-142432916D01*
X195034640Y-142582525D01*
X195489512Y-143251617D01*
X195197500Y-143544116D01*
X195109180Y-143631170D01*
X195028625Y-143707909D01*
X194960360Y-143770237D01*
X194908908Y-143814056D01*
X194878794Y-143835270D01*
X194874474Y-143836616D01*
X194849111Y-143826016D01*
X194797358Y-143796547D01*
X194724868Y-143751705D01*
X194637294Y-143694984D01*
X194542612Y-143631462D01*
X194446516Y-143566668D01*
X194360837Y-143510287D01*
X194291016Y-143465788D01*
X194242494Y-143436639D01*
X194220782Y-143426308D01*
X194194293Y-143435050D01*
X194144062Y-143458087D01*
X194080451Y-143490631D01*
X194073708Y-143494249D01*
X193988046Y-143537210D01*
X193929306Y-143558279D01*
X193892772Y-143558503D01*
X193873731Y-143538928D01*
X193873620Y-143538654D01*
X193864102Y-143515472D01*
X193841403Y-143460441D01*
X193807282Y-143377822D01*
X193763500Y-143271872D01*
X193711816Y-143146852D01*
X193653992Y-143007020D01*
X193597991Y-142871637D01*
X193536447Y-142722234D01*
X193479939Y-142583832D01*
X193430161Y-142460673D01*
X193388806Y-142357002D01*
X193357568Y-142277059D01*
X193338141Y-142225088D01*
X193332154Y-142205692D01*
X193347168Y-142183443D01*
X193386439Y-142147982D01*
X193438807Y-142108887D01*
X193587941Y-141985245D01*
X193704511Y-141843522D01*
X193787118Y-141686704D01*
X193834366Y-141517775D01*
X193844857Y-141339722D01*
X193837231Y-141257539D01*
X193795682Y-141087031D01*
X193724123Y-140936459D01*
X193626995Y-140807309D01*
X193508734Y-140701064D01*
X193373780Y-140619210D01*
X193226571Y-140563232D01*
X193071544Y-140534615D01*
X192913139Y-140534844D01*
X192755794Y-140565405D01*
X192603946Y-140627782D01*
X192462035Y-140723460D01*
X192402803Y-140777572D01*
X192289203Y-140916520D01*
X192210106Y-141068361D01*
X192164986Y-141228667D01*
X192153316Y-141393012D01*
X192174569Y-141556971D01*
X192228220Y-141716118D01*
X192313740Y-141866025D01*
X192430605Y-142002267D01*
X192561193Y-142108887D01*
X192615588Y-142149642D01*
X192654014Y-142184718D01*
X192667846Y-142205726D01*
X192660603Y-142228635D01*
X192640005Y-142283365D01*
X192607746Y-142365672D01*
X192565521Y-142471315D01*
X192515023Y-142596050D01*
X192457948Y-142735636D01*
X192401854Y-142871670D01*
X192339967Y-143021201D01*
X192282644Y-143159767D01*
X192231644Y-143283107D01*
X192188727Y-143386964D01*
X192155653Y-143467080D01*
X192134181Y-143519195D01*
X192126225Y-143538654D01*
X192107429Y-143558423D01*
X192071074Y-143558365D01*
X192012479Y-143537441D01*
X191926968Y-143494613D01*
X191926292Y-143494249D01*
X191861907Y-143461012D01*
X191809861Y-143436802D01*
X191780512Y-143426404D01*
X191779217Y-143426308D01*
X191757124Y-143436855D01*
X191708348Y-143466184D01*
X191638331Y-143510827D01*
X191552514Y-143567314D01*
X191457388Y-143631462D01*
X191360540Y-143696411D01*
X191273253Y-143752896D01*
X191201181Y-143797421D01*
X191149977Y-143826490D01*
X191125526Y-143836616D01*
X191103010Y-143823307D01*
X191057742Y-143786112D01*
X190994244Y-143729128D01*
X190917039Y-143656449D01*
X190830651Y-143572171D01*
X190802399Y-143544016D01*
X190510287Y-143251416D01*
X190732631Y-142925104D01*
X190800202Y-142824897D01*
X190859507Y-142734963D01*
X190907217Y-142660510D01*
X190940007Y-142606751D01*
X190954548Y-142578894D01*
X190954974Y-142576912D01*
X190947308Y-142550655D01*
X190926689Y-142497837D01*
X190896685Y-142427310D01*
X190875625Y-142380093D01*
X190836248Y-142289694D01*
X190799165Y-142198366D01*
X190770415Y-142121200D01*
X190762605Y-142097692D01*
X190740417Y-142034916D01*
X190718727Y-141986411D01*
X190706813Y-141968079D01*
X190680523Y-141956859D01*
X190623142Y-141940954D01*
X190542118Y-141922167D01*
X190444895Y-141902299D01*
X190401385Y-141894132D01*
X190290896Y-141873829D01*
X190184916Y-141854170D01*
X190093801Y-141837088D01*
X190027908Y-141824518D01*
X190015500Y-141822091D01*
X189912923Y-141801845D01*
X189912923Y-141374701D01*
X189913153Y-141234246D01*
X189914099Y-141127979D01*
X189916141Y-141051013D01*
X189919662Y-140998460D01*
X189925043Y-140965433D01*
X189932666Y-140947045D01*
X189942912Y-140938408D01*
X189947115Y-140936807D01*
X189972470Y-140931127D01*
X190028484Y-140919795D01*
X190107964Y-140904179D01*
X190203712Y-140885647D01*
X190308533Y-140865569D01*
X190415232Y-140845312D01*
X190516613Y-140826246D01*
X190605479Y-140809739D01*
X190674637Y-140797159D01*
X190716889Y-140789875D01*
X190726290Y-140788616D01*
X190734807Y-140771763D01*
X190753660Y-140726870D01*
X190779324Y-140662430D01*
X190789123Y-140637192D01*
X190828648Y-140539686D01*
X190875192Y-140431959D01*
X190916877Y-140341172D01*
X190947550Y-140271753D01*
X190967956Y-140214710D01*
X190974768Y-140179777D01*
X190973682Y-140175095D01*
X190959285Y-140152991D01*
X190926412Y-140103831D01*
X190878590Y-140032848D01*
X190819348Y-139945278D01*
X190752215Y-139846357D01*
X190738941Y-139826830D01*
X190661046Y-139711140D01*
X190603787Y-139623044D01*
X190564881Y-139558486D01*
X190542044Y-139513411D01*
X190532994Y-139483763D01*
X190535448Y-139465485D01*
X190535511Y-139465369D01*
X190554827Y-139441361D01*
X190597551Y-139394947D01*
X190659051Y-139330937D01*
X190734698Y-139254145D01*
X190819861Y-139169382D01*
X190829465Y-139159922D01*
X190936790Y-139055989D01*
X191019615Y-138979675D01*
X191079605Y-138929571D01*
X191118423Y-138904270D01*
X191135520Y-138901004D01*
X191160473Y-138915250D01*
X191212255Y-138948156D01*
X191285520Y-138996208D01*
X191374920Y-139055890D01*
X191475111Y-139123688D01*
X191498501Y-139139639D01*
X191830593Y-139366420D01*
X191980565Y-139298353D01*
X192071770Y-139258685D01*
X192169669Y-139218791D01*
X192253831Y-139186983D01*
X192257538Y-139185674D01*
X192323369Y-139161576D01*
X192374116Y-139141200D01*
X192398842Y-139128936D01*
X192398884Y-139128901D01*
X192406729Y-139106734D01*
X192420066Y-139052217D01*
X192437570Y-138971480D01*
X192457917Y-138870650D01*
X192479782Y-138755856D01*
X192481571Y-138746178D01*
X192503504Y-138627904D01*
X192523640Y-138520542D01*
X192540680Y-138430917D01*
X192553328Y-138365851D01*
X192560284Y-138332168D01*
X192560406Y-138331654D01*
X192564639Y-138317325D01*
X192572871Y-138306507D01*
X192590033Y-138298706D01*
X192621058Y-138293429D01*
X192670878Y-138290182D01*
X192744424Y-138288472D01*
X192846629Y-138287807D01*
X192982425Y-138287693D01*
X193000000Y-138287692D01*
X193139878Y-138287776D01*
X193139878Y-138287776D01*
G37*
X193139878Y-138287776D02*
X193245612Y-138288355D01*
X193322132Y-138289922D01*
X193374372Y-138292972D01*
X193407263Y-138297996D01*
X193425737Y-138305489D01*
X193434727Y-138315944D01*
X193439163Y-138329853D01*
X193439594Y-138331654D01*
X193446333Y-138364145D01*
X193458808Y-138428252D01*
X193475719Y-138517151D01*
X193495771Y-138624019D01*
X193517664Y-138742033D01*
X193518429Y-138746178D01*
X193540359Y-138861831D01*
X193560877Y-138964014D01*
X193578659Y-139046598D01*
X193592381Y-139103456D01*
X193600718Y-139128458D01*
X193601116Y-139128901D01*
X193625677Y-139141110D01*
X193676315Y-139161456D01*
X193742095Y-139185545D01*
X193742461Y-139185674D01*
X193825317Y-139216818D01*
X193923000Y-139256491D01*
X194015077Y-139296381D01*
X194019434Y-139298353D01*
X194169407Y-139366420D01*
X194501498Y-139139639D01*
X194603374Y-139070504D01*
X194695657Y-139008697D01*
X194773003Y-138957733D01*
X194830064Y-138921127D01*
X194861495Y-138902394D01*
X194864479Y-138901004D01*
X194887321Y-138907190D01*
X194929982Y-138937035D01*
X194994128Y-138991947D01*
X195081421Y-139073334D01*
X195170535Y-139159922D01*
X195256441Y-139245247D01*
X195333327Y-139323108D01*
X195396564Y-139388697D01*
X195441523Y-139437205D01*
X195463576Y-139463825D01*
X195464396Y-139465195D01*
X195466834Y-139483463D01*
X195457650Y-139513295D01*
X195434574Y-139558721D01*
X195395337Y-139623770D01*
X195337670Y-139712470D01*
X195260795Y-139826657D01*
X195192570Y-139927162D01*
X195131582Y-140017303D01*
X195081356Y-140091849D01*
X195045416Y-140145565D01*
X195027287Y-140173218D01*
X195026146Y-140175095D01*
X195028359Y-140201590D01*
X195045138Y-140253086D01*
X195073142Y-140319851D01*
X195083122Y-140341172D01*
X195126672Y-140436159D01*
X195173134Y-140543937D01*
X195210877Y-140637192D01*
X195238073Y-140706406D01*
X195259675Y-140759006D01*
X195272158Y-140786497D01*
X195273709Y-140788616D01*
X195296668Y-140792124D01*
X195350786Y-140801738D01*
X195428868Y-140816089D01*
X195523719Y-140833807D01*
X195628143Y-140853525D01*
X195734944Y-140873874D01*
X195836926Y-140893486D01*
X195926894Y-140910991D01*
X195997653Y-140925022D01*
X196042006Y-140934209D01*
X196052885Y-140936807D01*
X196064122Y-140943218D01*
X196072605Y-140957697D01*
X196078714Y-140985133D01*
X196082832Y-141030411D01*
X196085341Y-141098420D01*
X196086621Y-141194047D01*
X196087054Y-141322180D01*
X196087077Y-141374701D01*
X196087077Y-141801845D01*
X195984500Y-141822091D01*
X195927431Y-141833070D01*
X195842269Y-141849095D01*
X195739372Y-141868233D01*
X195629096Y-141888551D01*
X195598615Y-141894132D01*
X195496855Y-141913917D01*
X195408205Y-141933373D01*
X195340108Y-141950697D01*
X195300004Y-141964088D01*
X195293323Y-141968079D01*
X195276919Y-141996342D01*
X195253399Y-142051109D01*
X195227316Y-142121588D01*
X195222142Y-142136769D01*
X195187956Y-142230896D01*
X195145523Y-142337101D01*
X195103997Y-142432473D01*
X195103792Y-142432916D01*
X195034640Y-142582525D01*
X195489512Y-143251617D01*
X195197500Y-143544116D01*
X195109180Y-143631170D01*
X195028625Y-143707909D01*
X194960360Y-143770237D01*
X194908908Y-143814056D01*
X194878794Y-143835270D01*
X194874474Y-143836616D01*
X194849111Y-143826016D01*
X194797358Y-143796547D01*
X194724868Y-143751705D01*
X194637294Y-143694984D01*
X194542612Y-143631462D01*
X194446516Y-143566668D01*
X194360837Y-143510287D01*
X194291016Y-143465788D01*
X194242494Y-143436639D01*
X194220782Y-143426308D01*
X194194293Y-143435050D01*
X194144062Y-143458087D01*
X194080451Y-143490631D01*
X194073708Y-143494249D01*
X193988046Y-143537210D01*
X193929306Y-143558279D01*
X193892772Y-143558503D01*
X193873731Y-143538928D01*
X193873620Y-143538654D01*
X193864102Y-143515472D01*
X193841403Y-143460441D01*
X193807282Y-143377822D01*
X193763500Y-143271872D01*
X193711816Y-143146852D01*
X193653992Y-143007020D01*
X193597991Y-142871637D01*
X193536447Y-142722234D01*
X193479939Y-142583832D01*
X193430161Y-142460673D01*
X193388806Y-142357002D01*
X193357568Y-142277059D01*
X193338141Y-142225088D01*
X193332154Y-142205692D01*
X193347168Y-142183443D01*
X193386439Y-142147982D01*
X193438807Y-142108887D01*
X193587941Y-141985245D01*
X193704511Y-141843522D01*
X193787118Y-141686704D01*
X193834366Y-141517775D01*
X193844857Y-141339722D01*
X193837231Y-141257539D01*
X193795682Y-141087031D01*
X193724123Y-140936459D01*
X193626995Y-140807309D01*
X193508734Y-140701064D01*
X193373780Y-140619210D01*
X193226571Y-140563232D01*
X193071544Y-140534615D01*
X192913139Y-140534844D01*
X192755794Y-140565405D01*
X192603946Y-140627782D01*
X192462035Y-140723460D01*
X192402803Y-140777572D01*
X192289203Y-140916520D01*
X192210106Y-141068361D01*
X192164986Y-141228667D01*
X192153316Y-141393012D01*
X192174569Y-141556971D01*
X192228220Y-141716118D01*
X192313740Y-141866025D01*
X192430605Y-142002267D01*
X192561193Y-142108887D01*
X192615588Y-142149642D01*
X192654014Y-142184718D01*
X192667846Y-142205726D01*
X192660603Y-142228635D01*
X192640005Y-142283365D01*
X192607746Y-142365672D01*
X192565521Y-142471315D01*
X192515023Y-142596050D01*
X192457948Y-142735636D01*
X192401854Y-142871670D01*
X192339967Y-143021201D01*
X192282644Y-143159767D01*
X192231644Y-143283107D01*
X192188727Y-143386964D01*
X192155653Y-143467080D01*
X192134181Y-143519195D01*
X192126225Y-143538654D01*
X192107429Y-143558423D01*
X192071074Y-143558365D01*
X192012479Y-143537441D01*
X191926968Y-143494613D01*
X191926292Y-143494249D01*
X191861907Y-143461012D01*
X191809861Y-143436802D01*
X191780512Y-143426404D01*
X191779217Y-143426308D01*
X191757124Y-143436855D01*
X191708348Y-143466184D01*
X191638331Y-143510827D01*
X191552514Y-143567314D01*
X191457388Y-143631462D01*
X191360540Y-143696411D01*
X191273253Y-143752896D01*
X191201181Y-143797421D01*
X191149977Y-143826490D01*
X191125526Y-143836616D01*
X191103010Y-143823307D01*
X191057742Y-143786112D01*
X190994244Y-143729128D01*
X190917039Y-143656449D01*
X190830651Y-143572171D01*
X190802399Y-143544016D01*
X190510287Y-143251416D01*
X190732631Y-142925104D01*
X190800202Y-142824897D01*
X190859507Y-142734963D01*
X190907217Y-142660510D01*
X190940007Y-142606751D01*
X190954548Y-142578894D01*
X190954974Y-142576912D01*
X190947308Y-142550655D01*
X190926689Y-142497837D01*
X190896685Y-142427310D01*
X190875625Y-142380093D01*
X190836248Y-142289694D01*
X190799165Y-142198366D01*
X190770415Y-142121200D01*
X190762605Y-142097692D01*
X190740417Y-142034916D01*
X190718727Y-141986411D01*
X190706813Y-141968079D01*
X190680523Y-141956859D01*
X190623142Y-141940954D01*
X190542118Y-141922167D01*
X190444895Y-141902299D01*
X190401385Y-141894132D01*
X190290896Y-141873829D01*
X190184916Y-141854170D01*
X190093801Y-141837088D01*
X190027908Y-141824518D01*
X190015500Y-141822091D01*
X189912923Y-141801845D01*
X189912923Y-141374701D01*
X189913153Y-141234246D01*
X189914099Y-141127979D01*
X189916141Y-141051013D01*
X189919662Y-140998460D01*
X189925043Y-140965433D01*
X189932666Y-140947045D01*
X189942912Y-140938408D01*
X189947115Y-140936807D01*
X189972470Y-140931127D01*
X190028484Y-140919795D01*
X190107964Y-140904179D01*
X190203712Y-140885647D01*
X190308533Y-140865569D01*
X190415232Y-140845312D01*
X190516613Y-140826246D01*
X190605479Y-140809739D01*
X190674637Y-140797159D01*
X190716889Y-140789875D01*
X190726290Y-140788616D01*
X190734807Y-140771763D01*
X190753660Y-140726870D01*
X190779324Y-140662430D01*
X190789123Y-140637192D01*
X190828648Y-140539686D01*
X190875192Y-140431959D01*
X190916877Y-140341172D01*
X190947550Y-140271753D01*
X190967956Y-140214710D01*
X190974768Y-140179777D01*
X190973682Y-140175095D01*
X190959285Y-140152991D01*
X190926412Y-140103831D01*
X190878590Y-140032848D01*
X190819348Y-139945278D01*
X190752215Y-139846357D01*
X190738941Y-139826830D01*
X190661046Y-139711140D01*
X190603787Y-139623044D01*
X190564881Y-139558486D01*
X190542044Y-139513411D01*
X190532994Y-139483763D01*
X190535448Y-139465485D01*
X190535511Y-139465369D01*
X190554827Y-139441361D01*
X190597551Y-139394947D01*
X190659051Y-139330937D01*
X190734698Y-139254145D01*
X190819861Y-139169382D01*
X190829465Y-139159922D01*
X190936790Y-139055989D01*
X191019615Y-138979675D01*
X191079605Y-138929571D01*
X191118423Y-138904270D01*
X191135520Y-138901004D01*
X191160473Y-138915250D01*
X191212255Y-138948156D01*
X191285520Y-138996208D01*
X191374920Y-139055890D01*
X191475111Y-139123688D01*
X191498501Y-139139639D01*
X191830593Y-139366420D01*
X191980565Y-139298353D01*
X192071770Y-139258685D01*
X192169669Y-139218791D01*
X192253831Y-139186983D01*
X192257538Y-139185674D01*
X192323369Y-139161576D01*
X192374116Y-139141200D01*
X192398842Y-139128936D01*
X192398884Y-139128901D01*
X192406729Y-139106734D01*
X192420066Y-139052217D01*
X192437570Y-138971480D01*
X192457917Y-138870650D01*
X192479782Y-138755856D01*
X192481571Y-138746178D01*
X192503504Y-138627904D01*
X192523640Y-138520542D01*
X192540680Y-138430917D01*
X192553328Y-138365851D01*
X192560284Y-138332168D01*
X192560406Y-138331654D01*
X192564639Y-138317325D01*
X192572871Y-138306507D01*
X192590033Y-138298706D01*
X192621058Y-138293429D01*
X192670878Y-138290182D01*
X192744424Y-138288472D01*
X192846629Y-138287807D01*
X192982425Y-138287693D01*
X193000000Y-138287692D01*
X193139878Y-138287776D01*
G36*
X197245224Y-144647838D02*
X197322528Y-144698361D01*
X197359814Y-144743590D01*
X197389353Y-144825663D01*
X197391699Y-144890607D01*
X197386385Y-144977445D01*
X197186115Y-145065103D01*
X197088739Y-145109887D01*
X197025113Y-145145913D01*
X196992029Y-145177117D01*
X196986280Y-145207436D01*
X197004658Y-145240805D01*
X197024923Y-145262923D01*
X197083889Y-145298393D01*
X197148024Y-145300879D01*
X197206926Y-145273235D01*
X197250197Y-145218320D01*
X197257936Y-145198928D01*
X197295006Y-145138364D01*
X197337654Y-145112552D01*
X197396154Y-145090471D01*
X197396154Y-145174184D01*
X197390982Y-145231150D01*
X197370723Y-145279189D01*
X197328262Y-145334346D01*
X197321951Y-145341514D01*
X197274720Y-145390585D01*
X197234121Y-145416920D01*
X197183328Y-145429035D01*
X197141220Y-145433003D01*
X197065902Y-145433991D01*
X197012286Y-145421466D01*
X196978838Y-145402869D01*
X196926268Y-145361975D01*
X196889879Y-145317748D01*
X196866850Y-145262126D01*
X196854359Y-145187047D01*
X196849587Y-145084449D01*
X196849206Y-145032376D01*
X196850501Y-144969948D01*
X196968471Y-144969948D01*
X196969839Y-145003438D01*
X196973249Y-145008923D01*
X196995753Y-145001472D01*
X197044182Y-144981753D01*
X197108908Y-144953718D01*
X197122443Y-144947692D01*
X197204244Y-144906096D01*
X197249312Y-144869538D01*
X197259217Y-144835296D01*
X197235526Y-144800648D01*
X197215960Y-144785339D01*
X197145360Y-144754721D01*
X197079280Y-144759780D01*
X197023959Y-144797151D01*
X196985636Y-144863473D01*
X196973349Y-144916116D01*
X196968471Y-144969948D01*
X196850501Y-144969948D01*
X196851730Y-144910720D01*
X196861032Y-144820710D01*
X196879460Y-144755167D01*
X196909360Y-144706912D01*
X196953080Y-144668767D01*
X196972141Y-144656440D01*
X197058726Y-144624336D01*
X197153522Y-144622316D01*
X197245224Y-144647838D01*
X197245224Y-144647838D01*
G37*
X197245224Y-144647838D02*
X197322528Y-144698361D01*
X197359814Y-144743590D01*
X197389353Y-144825663D01*
X197391699Y-144890607D01*
X197386385Y-144977445D01*
X197186115Y-145065103D01*
X197088739Y-145109887D01*
X197025113Y-145145913D01*
X196992029Y-145177117D01*
X196986280Y-145207436D01*
X197004658Y-145240805D01*
X197024923Y-145262923D01*
X197083889Y-145298393D01*
X197148024Y-145300879D01*
X197206926Y-145273235D01*
X197250197Y-145218320D01*
X197257936Y-145198928D01*
X197295006Y-145138364D01*
X197337654Y-145112552D01*
X197396154Y-145090471D01*
X197396154Y-145174184D01*
X197390982Y-145231150D01*
X197370723Y-145279189D01*
X197328262Y-145334346D01*
X197321951Y-145341514D01*
X197274720Y-145390585D01*
X197234121Y-145416920D01*
X197183328Y-145429035D01*
X197141220Y-145433003D01*
X197065902Y-145433991D01*
X197012286Y-145421466D01*
X196978838Y-145402869D01*
X196926268Y-145361975D01*
X196889879Y-145317748D01*
X196866850Y-145262126D01*
X196854359Y-145187047D01*
X196849587Y-145084449D01*
X196849206Y-145032376D01*
X196850501Y-144969948D01*
X196968471Y-144969948D01*
X196969839Y-145003438D01*
X196973249Y-145008923D01*
X196995753Y-145001472D01*
X197044182Y-144981753D01*
X197108908Y-144953718D01*
X197122443Y-144947692D01*
X197204244Y-144906096D01*
X197249312Y-144869538D01*
X197259217Y-144835296D01*
X197235526Y-144800648D01*
X197215960Y-144785339D01*
X197145360Y-144754721D01*
X197079280Y-144759780D01*
X197023959Y-144797151D01*
X196985636Y-144863473D01*
X196973349Y-144916116D01*
X196968471Y-144969948D01*
X196850501Y-144969948D01*
X196851730Y-144910720D01*
X196861032Y-144820710D01*
X196879460Y-144755167D01*
X196909360Y-144706912D01*
X196953080Y-144668767D01*
X196972141Y-144656440D01*
X197058726Y-144624336D01*
X197153522Y-144622316D01*
X197245224Y-144647838D01*
G36*
X196570807Y-144636782D02*
X196594161Y-144646988D01*
X196649902Y-144691134D01*
X196697569Y-144754967D01*
X196727048Y-144823087D01*
X196731846Y-144856670D01*
X196715760Y-144903556D01*
X196680475Y-144928365D01*
X196642644Y-144943387D01*
X196625321Y-144946155D01*
X196616886Y-144926066D01*
X196600230Y-144882351D01*
X196592923Y-144862598D01*
X196551948Y-144794271D01*
X196492622Y-144760191D01*
X196416552Y-144761239D01*
X196410918Y-144762581D01*
X196370305Y-144781836D01*
X196340448Y-144819375D01*
X196320055Y-144879809D01*
X196307836Y-144967751D01*
X196302500Y-145087813D01*
X196302000Y-145151698D01*
X196301752Y-145252403D01*
X196300126Y-145321054D01*
X196295801Y-145364673D01*
X196287454Y-145390282D01*
X196273765Y-145404903D01*
X196253411Y-145415558D01*
X196252234Y-145416095D01*
X196213038Y-145432667D01*
X196193619Y-145438769D01*
X196190635Y-145420319D01*
X196188081Y-145369323D01*
X196186140Y-145292308D01*
X196184997Y-145195805D01*
X196184769Y-145125184D01*
X196185932Y-144988525D01*
X196190479Y-144884851D01*
X196199999Y-144808108D01*
X196216081Y-144752246D01*
X196240313Y-144711212D01*
X196274286Y-144678954D01*
X196307833Y-144656440D01*
X196388499Y-144626476D01*
X196482381Y-144619718D01*
X196570807Y-144636782D01*
X196570807Y-144636782D01*
G37*
X196570807Y-144636782D02*
X196594161Y-144646988D01*
X196649902Y-144691134D01*
X196697569Y-144754967D01*
X196727048Y-144823087D01*
X196731846Y-144856670D01*
X196715760Y-144903556D01*
X196680475Y-144928365D01*
X196642644Y-144943387D01*
X196625321Y-144946155D01*
X196616886Y-144926066D01*
X196600230Y-144882351D01*
X196592923Y-144862598D01*
X196551948Y-144794271D01*
X196492622Y-144760191D01*
X196416552Y-144761239D01*
X196410918Y-144762581D01*
X196370305Y-144781836D01*
X196340448Y-144819375D01*
X196320055Y-144879809D01*
X196307836Y-144967751D01*
X196302500Y-145087813D01*
X196302000Y-145151698D01*
X196301752Y-145252403D01*
X196300126Y-145321054D01*
X196295801Y-145364673D01*
X196287454Y-145390282D01*
X196273765Y-145404903D01*
X196253411Y-145415558D01*
X196252234Y-145416095D01*
X196213038Y-145432667D01*
X196193619Y-145438769D01*
X196190635Y-145420319D01*
X196188081Y-145369323D01*
X196186140Y-145292308D01*
X196184997Y-145195805D01*
X196184769Y-145125184D01*
X196185932Y-144988525D01*
X196190479Y-144884851D01*
X196199999Y-144808108D01*
X196216081Y-144752246D01*
X196240313Y-144711212D01*
X196274286Y-144678954D01*
X196307833Y-144656440D01*
X196388499Y-144626476D01*
X196482381Y-144619718D01*
X196570807Y-144636782D01*
G36*
X195887333Y-144633528D02*
X195943590Y-144659117D01*
X195987747Y-144690124D01*
X196020101Y-144724795D01*
X196042438Y-144769520D01*
X196056546Y-144830692D01*
X196064211Y-144914701D01*
X196067220Y-145027940D01*
X196067538Y-145102509D01*
X196067538Y-145393420D01*
X196017773Y-145416095D01*
X195978576Y-145432667D01*
X195959157Y-145438769D01*
X195955442Y-145420610D01*
X195952495Y-145371648D01*
X195950691Y-145300153D01*
X195950308Y-145243385D01*
X195948661Y-145161371D01*
X195944222Y-145096309D01*
X195937740Y-145056467D01*
X195932590Y-145048000D01*
X195897977Y-145056646D01*
X195843640Y-145078823D01*
X195780722Y-145108886D01*
X195720368Y-145141192D01*
X195673721Y-145170098D01*
X195651926Y-145189961D01*
X195651839Y-145190175D01*
X195653714Y-145226935D01*
X195670525Y-145262026D01*
X195700039Y-145290528D01*
X195743116Y-145300061D01*
X195779932Y-145298950D01*
X195832074Y-145298133D01*
X195859444Y-145310349D01*
X195875882Y-145342624D01*
X195877955Y-145348710D01*
X195885081Y-145394739D01*
X195866024Y-145422687D01*
X195816353Y-145436007D01*
X195762697Y-145438470D01*
X195666142Y-145420210D01*
X195616159Y-145394131D01*
X195554429Y-145332868D01*
X195521690Y-145257670D01*
X195518753Y-145178211D01*
X195546424Y-145104167D01*
X195588047Y-145057769D01*
X195629604Y-145031793D01*
X195694922Y-144998907D01*
X195771038Y-144965557D01*
X195783726Y-144960461D01*
X195867333Y-144923565D01*
X195915530Y-144891046D01*
X195931030Y-144858718D01*
X195916550Y-144822394D01*
X195891692Y-144794000D01*
X195832939Y-144759039D01*
X195768293Y-144756417D01*
X195709008Y-144783358D01*
X195666339Y-144837088D01*
X195660739Y-144850950D01*
X195628133Y-144901936D01*
X195580530Y-144939787D01*
X195520461Y-144970850D01*
X195520461Y-144882768D01*
X195523997Y-144828951D01*
X195539156Y-144786534D01*
X195572768Y-144741279D01*
X195605035Y-144706420D01*
X195655209Y-144657062D01*
X195694193Y-144630547D01*
X195736064Y-144619911D01*
X195783460Y-144618154D01*
X195887333Y-144633528D01*
X195887333Y-144633528D01*
G37*
X195887333Y-144633528D02*
X195943590Y-144659117D01*
X195987747Y-144690124D01*
X196020101Y-144724795D01*
X196042438Y-144769520D01*
X196056546Y-144830692D01*
X196064211Y-144914701D01*
X196067220Y-145027940D01*
X196067538Y-145102509D01*
X196067538Y-145393420D01*
X196017773Y-145416095D01*
X195978576Y-145432667D01*
X195959157Y-145438769D01*
X195955442Y-145420610D01*
X195952495Y-145371648D01*
X195950691Y-145300153D01*
X195950308Y-145243385D01*
X195948661Y-145161371D01*
X195944222Y-145096309D01*
X195937740Y-145056467D01*
X195932590Y-145048000D01*
X195897977Y-145056646D01*
X195843640Y-145078823D01*
X195780722Y-145108886D01*
X195720368Y-145141192D01*
X195673721Y-145170098D01*
X195651926Y-145189961D01*
X195651839Y-145190175D01*
X195653714Y-145226935D01*
X195670525Y-145262026D01*
X195700039Y-145290528D01*
X195743116Y-145300061D01*
X195779932Y-145298950D01*
X195832074Y-145298133D01*
X195859444Y-145310349D01*
X195875882Y-145342624D01*
X195877955Y-145348710D01*
X195885081Y-145394739D01*
X195866024Y-145422687D01*
X195816353Y-145436007D01*
X195762697Y-145438470D01*
X195666142Y-145420210D01*
X195616159Y-145394131D01*
X195554429Y-145332868D01*
X195521690Y-145257670D01*
X195518753Y-145178211D01*
X195546424Y-145104167D01*
X195588047Y-145057769D01*
X195629604Y-145031793D01*
X195694922Y-144998907D01*
X195771038Y-144965557D01*
X195783726Y-144960461D01*
X195867333Y-144923565D01*
X195915530Y-144891046D01*
X195931030Y-144858718D01*
X195916550Y-144822394D01*
X195891692Y-144794000D01*
X195832939Y-144759039D01*
X195768293Y-144756417D01*
X195709008Y-144783358D01*
X195666339Y-144837088D01*
X195660739Y-144850950D01*
X195628133Y-144901936D01*
X195580530Y-144939787D01*
X195520461Y-144970850D01*
X195520461Y-144882768D01*
X195523997Y-144828951D01*
X195539156Y-144786534D01*
X195572768Y-144741279D01*
X195605035Y-144706420D01*
X195655209Y-144657062D01*
X195694193Y-144630547D01*
X195736064Y-144619911D01*
X195783460Y-144618154D01*
X195887333Y-144633528D01*
G36*
X195395929Y-144636662D02*
X195398911Y-144688068D01*
X195401247Y-144766192D01*
X195402749Y-144864857D01*
X195403231Y-144968343D01*
X195403231Y-145318533D01*
X195341401Y-145380363D01*
X195298793Y-145418462D01*
X195261390Y-145433895D01*
X195210270Y-145432918D01*
X195189978Y-145430433D01*
X195126554Y-145423200D01*
X195074095Y-145419055D01*
X195061308Y-145418672D01*
X195018199Y-145421176D01*
X194956544Y-145427462D01*
X194932638Y-145430433D01*
X194873922Y-145435028D01*
X194834464Y-145425046D01*
X194795338Y-145394228D01*
X194781215Y-145380363D01*
X194719385Y-145318533D01*
X194719385Y-144663503D01*
X194769150Y-144640829D01*
X194812002Y-144624034D01*
X194837073Y-144618154D01*
X194843501Y-144636736D01*
X194849509Y-144688655D01*
X194854697Y-144768172D01*
X194858664Y-144869546D01*
X194860577Y-144955192D01*
X194865923Y-145292231D01*
X194912560Y-145298825D01*
X194954976Y-145294214D01*
X194975760Y-145279287D01*
X194981570Y-145251377D01*
X194986530Y-145191925D01*
X194990246Y-145108466D01*
X194992324Y-145008532D01*
X194992624Y-144957104D01*
X194992923Y-144661054D01*
X195054454Y-144639604D01*
X195098004Y-144625020D01*
X195121694Y-144618219D01*
X195122377Y-144618154D01*
X195124754Y-144636642D01*
X195127366Y-144687906D01*
X195129995Y-144765649D01*
X195132421Y-144863574D01*
X195134115Y-144955192D01*
X195139461Y-145292231D01*
X195256692Y-145292231D01*
X195262072Y-144984746D01*
X195267451Y-144677261D01*
X195324601Y-144647707D01*
X195366797Y-144627413D01*
X195391770Y-144618204D01*
X195392491Y-144618154D01*
X195395929Y-144636662D01*
X195395929Y-144636662D01*
G37*
X195395929Y-144636662D02*
X195398911Y-144688068D01*
X195401247Y-144766192D01*
X195402749Y-144864857D01*
X195403231Y-144968343D01*
X195403231Y-145318533D01*
X195341401Y-145380363D01*
X195298793Y-145418462D01*
X195261390Y-145433895D01*
X195210270Y-145432918D01*
X195189978Y-145430433D01*
X195126554Y-145423200D01*
X195074095Y-145419055D01*
X195061308Y-145418672D01*
X195018199Y-145421176D01*
X194956544Y-145427462D01*
X194932638Y-145430433D01*
X194873922Y-145435028D01*
X194834464Y-145425046D01*
X194795338Y-145394228D01*
X194781215Y-145380363D01*
X194719385Y-145318533D01*
X194719385Y-144663503D01*
X194769150Y-144640829D01*
X194812002Y-144624034D01*
X194837073Y-144618154D01*
X194843501Y-144636736D01*
X194849509Y-144688655D01*
X194854697Y-144768172D01*
X194858664Y-144869546D01*
X194860577Y-144955192D01*
X194865923Y-145292231D01*
X194912560Y-145298825D01*
X194954976Y-145294214D01*
X194975760Y-145279287D01*
X194981570Y-145251377D01*
X194986530Y-145191925D01*
X194990246Y-145108466D01*
X194992324Y-145008532D01*
X194992624Y-144957104D01*
X194992923Y-144661054D01*
X195054454Y-144639604D01*
X195098004Y-144625020D01*
X195121694Y-144618219D01*
X195122377Y-144618154D01*
X195124754Y-144636642D01*
X195127366Y-144687906D01*
X195129995Y-144765649D01*
X195132421Y-144863574D01*
X195134115Y-144955192D01*
X195139461Y-145292231D01*
X195256692Y-145292231D01*
X195262072Y-144984746D01*
X195267451Y-144677261D01*
X195324601Y-144647707D01*
X195366797Y-144627413D01*
X195391770Y-144618204D01*
X195392491Y-144618154D01*
X195395929Y-144636662D01*
G36*
X194602081Y-144780289D02*
X194601833Y-144926320D01*
X194600872Y-145038655D01*
X194598794Y-145122678D01*
X194595193Y-145183769D01*
X194589665Y-145227309D01*
X194581804Y-145258679D01*
X194571207Y-145283262D01*
X194563182Y-145297294D01*
X194496728Y-145373388D01*
X194412470Y-145421084D01*
X194319249Y-145438199D01*
X194225900Y-145422546D01*
X194170312Y-145394418D01*
X194111957Y-145345760D01*
X194072186Y-145286333D01*
X194048190Y-145208507D01*
X194037161Y-145104652D01*
X194035599Y-145028462D01*
X194035809Y-145022986D01*
X194172308Y-145022986D01*
X194173141Y-145110355D01*
X194176961Y-145168192D01*
X194185746Y-145206029D01*
X194201474Y-145233398D01*
X194220266Y-145254042D01*
X194283375Y-145293890D01*
X194351137Y-145297295D01*
X194415179Y-145264025D01*
X194420164Y-145259517D01*
X194441439Y-145236067D01*
X194454779Y-145208166D01*
X194462001Y-145166641D01*
X194464923Y-145102316D01*
X194465385Y-145031200D01*
X194464383Y-144941858D01*
X194460238Y-144882258D01*
X194451236Y-144843089D01*
X194435667Y-144815040D01*
X194422902Y-144800144D01*
X194363600Y-144762575D01*
X194295301Y-144758057D01*
X194230110Y-144786753D01*
X194217528Y-144797406D01*
X194196111Y-144821063D01*
X194182744Y-144849251D01*
X194175566Y-144891245D01*
X194172719Y-144956319D01*
X194172308Y-145022986D01*
X194035809Y-145022986D01*
X194040322Y-144905765D01*
X194056362Y-144813577D01*
X194086528Y-144744269D01*
X194133629Y-144690211D01*
X194170312Y-144662505D01*
X194236990Y-144632572D01*
X194314272Y-144618678D01*
X194386110Y-144622397D01*
X194426308Y-144637400D01*
X194442082Y-144641670D01*
X194452550Y-144625750D01*
X194459856Y-144583089D01*
X194465385Y-144518106D01*
X194471437Y-144445732D01*
X194479844Y-144402187D01*
X194495141Y-144377287D01*
X194521864Y-144360845D01*
X194538654Y-144353564D01*
X194602154Y-144326963D01*
X194602081Y-144780289D01*
X194602081Y-144780289D01*
G37*
X194602081Y-144780289D02*
X194601833Y-144926320D01*
X194600872Y-145038655D01*
X194598794Y-145122678D01*
X194595193Y-145183769D01*
X194589665Y-145227309D01*
X194581804Y-145258679D01*
X194571207Y-145283262D01*
X194563182Y-145297294D01*
X194496728Y-145373388D01*
X194412470Y-145421084D01*
X194319249Y-145438199D01*
X194225900Y-145422546D01*
X194170312Y-145394418D01*
X194111957Y-145345760D01*
X194072186Y-145286333D01*
X194048190Y-145208507D01*
X194037161Y-145104652D01*
X194035599Y-145028462D01*
X194035809Y-145022986D01*
X194172308Y-145022986D01*
X194173141Y-145110355D01*
X194176961Y-145168192D01*
X194185746Y-145206029D01*
X194201474Y-145233398D01*
X194220266Y-145254042D01*
X194283375Y-145293890D01*
X194351137Y-145297295D01*
X194415179Y-145264025D01*
X194420164Y-145259517D01*
X194441439Y-145236067D01*
X194454779Y-145208166D01*
X194462001Y-145166641D01*
X194464923Y-145102316D01*
X194465385Y-145031200D01*
X194464383Y-144941858D01*
X194460238Y-144882258D01*
X194451236Y-144843089D01*
X194435667Y-144815040D01*
X194422902Y-144800144D01*
X194363600Y-144762575D01*
X194295301Y-144758057D01*
X194230110Y-144786753D01*
X194217528Y-144797406D01*
X194196111Y-144821063D01*
X194182744Y-144849251D01*
X194175566Y-144891245D01*
X194172719Y-144956319D01*
X194172308Y-145022986D01*
X194035809Y-145022986D01*
X194040322Y-144905765D01*
X194056362Y-144813577D01*
X194086528Y-144744269D01*
X194133629Y-144690211D01*
X194170312Y-144662505D01*
X194236990Y-144632572D01*
X194314272Y-144618678D01*
X194386110Y-144622397D01*
X194426308Y-144637400D01*
X194442082Y-144641670D01*
X194452550Y-144625750D01*
X194459856Y-144583089D01*
X194465385Y-144518106D01*
X194471437Y-144445732D01*
X194479844Y-144402187D01*
X194495141Y-144377287D01*
X194521864Y-144360845D01*
X194538654Y-144353564D01*
X194602154Y-144326963D01*
X194602081Y-144780289D01*
G36*
X193713362Y-144624670D02*
X193802117Y-144657421D01*
X193874022Y-144715350D01*
X193902144Y-144756128D01*
X193932802Y-144830954D01*
X193932165Y-144885058D01*
X193899987Y-144921446D01*
X193888081Y-144927633D01*
X193836675Y-144946925D01*
X193810422Y-144941982D01*
X193801530Y-144909587D01*
X193801077Y-144891692D01*
X193784797Y-144825859D01*
X193742365Y-144779807D01*
X193683388Y-144757564D01*
X193617475Y-144763161D01*
X193563895Y-144792229D01*
X193545798Y-144808810D01*
X193532971Y-144828925D01*
X193524306Y-144859332D01*
X193518696Y-144906788D01*
X193515035Y-144978050D01*
X193512215Y-145079875D01*
X193511484Y-145112115D01*
X193508820Y-145222410D01*
X193505792Y-145300036D01*
X193501250Y-145351396D01*
X193494046Y-145382890D01*
X193483033Y-145400920D01*
X193467060Y-145411888D01*
X193456834Y-145416733D01*
X193413406Y-145433301D01*
X193387842Y-145438769D01*
X193379395Y-145420507D01*
X193374239Y-145365296D01*
X193372346Y-145272499D01*
X193373689Y-145141478D01*
X193374107Y-145121269D01*
X193377058Y-145001733D01*
X193380548Y-144914449D01*
X193385514Y-144852591D01*
X193392893Y-144809336D01*
X193403624Y-144777860D01*
X193418645Y-144751339D01*
X193426502Y-144739975D01*
X193471553Y-144689692D01*
X193521940Y-144650581D01*
X193528108Y-144647167D01*
X193618458Y-144620212D01*
X193713362Y-144624670D01*
X193713362Y-144624670D01*
G37*
X193713362Y-144624670D02*
X193802117Y-144657421D01*
X193874022Y-144715350D01*
X193902144Y-144756128D01*
X193932802Y-144830954D01*
X193932165Y-144885058D01*
X193899987Y-144921446D01*
X193888081Y-144927633D01*
X193836675Y-144946925D01*
X193810422Y-144941982D01*
X193801530Y-144909587D01*
X193801077Y-144891692D01*
X193784797Y-144825859D01*
X193742365Y-144779807D01*
X193683388Y-144757564D01*
X193617475Y-144763161D01*
X193563895Y-144792229D01*
X193545798Y-144808810D01*
X193532971Y-144828925D01*
X193524306Y-144859332D01*
X193518696Y-144906788D01*
X193515035Y-144978050D01*
X193512215Y-145079875D01*
X193511484Y-145112115D01*
X193508820Y-145222410D01*
X193505792Y-145300036D01*
X193501250Y-145351396D01*
X193494046Y-145382890D01*
X193483033Y-145400920D01*
X193467060Y-145411888D01*
X193456834Y-145416733D01*
X193413406Y-145433301D01*
X193387842Y-145438769D01*
X193379395Y-145420507D01*
X193374239Y-145365296D01*
X193372346Y-145272499D01*
X193373689Y-145141478D01*
X193374107Y-145121269D01*
X193377058Y-145001733D01*
X193380548Y-144914449D01*
X193385514Y-144852591D01*
X193392893Y-144809336D01*
X193403624Y-144777860D01*
X193418645Y-144751339D01*
X193426502Y-144739975D01*
X193471553Y-144689692D01*
X193521940Y-144650581D01*
X193528108Y-144647167D01*
X193618458Y-144620212D01*
X193713362Y-144624670D01*
G36*
X193053501Y-144626303D02*
X193130060Y-144654733D01*
X193130936Y-144655279D01*
X193178285Y-144690127D01*
X193213241Y-144730852D01*
X193237825Y-144783925D01*
X193254062Y-144855814D01*
X193263975Y-144952992D01*
X193269586Y-145081928D01*
X193270077Y-145100298D01*
X193277141Y-145377287D01*
X193217695Y-145408028D01*
X193174681Y-145428802D01*
X193148710Y-145438646D01*
X193147509Y-145438769D01*
X193143014Y-145420606D01*
X193139444Y-145371612D01*
X193137248Y-145300031D01*
X193136769Y-145242068D01*
X193136758Y-145148170D01*
X193132466Y-145089203D01*
X193117503Y-145061079D01*
X193085482Y-145059706D01*
X193030014Y-145080998D01*
X192946269Y-145120136D01*
X192884689Y-145152643D01*
X192853017Y-145180845D01*
X192843706Y-145211582D01*
X192843692Y-145213104D01*
X192859057Y-145266054D01*
X192904547Y-145294660D01*
X192974166Y-145298803D01*
X193024313Y-145298084D01*
X193050754Y-145312527D01*
X193067243Y-145347218D01*
X193076733Y-145391416D01*
X193063057Y-145416493D01*
X193057907Y-145420082D01*
X193009425Y-145434496D01*
X192941531Y-145436537D01*
X192871612Y-145426983D01*
X192822068Y-145409522D01*
X192753570Y-145351364D01*
X192714634Y-145270408D01*
X192706923Y-145207160D01*
X192712807Y-145150111D01*
X192734101Y-145103542D01*
X192776265Y-145062181D01*
X192844759Y-145020755D01*
X192945044Y-144973993D01*
X192951154Y-144971350D01*
X193041490Y-144929617D01*
X193097235Y-144895391D01*
X193121129Y-144864635D01*
X193115913Y-144833311D01*
X193084328Y-144797383D01*
X193074883Y-144789116D01*
X193011617Y-144757058D01*
X192946064Y-144758407D01*
X192888972Y-144789838D01*
X192851093Y-144848024D01*
X192847574Y-144859446D01*
X192813300Y-144914837D01*
X192769809Y-144941518D01*
X192706923Y-144967960D01*
X192706923Y-144899548D01*
X192726052Y-144800110D01*
X192782831Y-144708902D01*
X192812378Y-144678389D01*
X192879542Y-144639228D01*
X192964956Y-144621500D01*
X193053501Y-144626303D01*
X193053501Y-144626303D01*
G37*
X193053501Y-144626303D02*
X193130060Y-144654733D01*
X193130936Y-144655279D01*
X193178285Y-144690127D01*
X193213241Y-144730852D01*
X193237825Y-144783925D01*
X193254062Y-144855814D01*
X193263975Y-144952992D01*
X193269586Y-145081928D01*
X193270077Y-145100298D01*
X193277141Y-145377287D01*
X193217695Y-145408028D01*
X193174681Y-145428802D01*
X193148710Y-145438646D01*
X193147509Y-145438769D01*
X193143014Y-145420606D01*
X193139444Y-145371612D01*
X193137248Y-145300031D01*
X193136769Y-145242068D01*
X193136758Y-145148170D01*
X193132466Y-145089203D01*
X193117503Y-145061079D01*
X193085482Y-145059706D01*
X193030014Y-145080998D01*
X192946269Y-145120136D01*
X192884689Y-145152643D01*
X192853017Y-145180845D01*
X192843706Y-145211582D01*
X192843692Y-145213104D01*
X192859057Y-145266054D01*
X192904547Y-145294660D01*
X192974166Y-145298803D01*
X193024313Y-145298084D01*
X193050754Y-145312527D01*
X193067243Y-145347218D01*
X193076733Y-145391416D01*
X193063057Y-145416493D01*
X193057907Y-145420082D01*
X193009425Y-145434496D01*
X192941531Y-145436537D01*
X192871612Y-145426983D01*
X192822068Y-145409522D01*
X192753570Y-145351364D01*
X192714634Y-145270408D01*
X192706923Y-145207160D01*
X192712807Y-145150111D01*
X192734101Y-145103542D01*
X192776265Y-145062181D01*
X192844759Y-145020755D01*
X192945044Y-144973993D01*
X192951154Y-144971350D01*
X193041490Y-144929617D01*
X193097235Y-144895391D01*
X193121129Y-144864635D01*
X193115913Y-144833311D01*
X193084328Y-144797383D01*
X193074883Y-144789116D01*
X193011617Y-144757058D01*
X192946064Y-144758407D01*
X192888972Y-144789838D01*
X192851093Y-144848024D01*
X192847574Y-144859446D01*
X192813300Y-144914837D01*
X192769809Y-144941518D01*
X192706923Y-144967960D01*
X192706923Y-144899548D01*
X192726052Y-144800110D01*
X192782831Y-144708902D01*
X192812378Y-144678389D01*
X192879542Y-144639228D01*
X192964956Y-144621500D01*
X193053501Y-144626303D01*
G36*
X192159846Y-144492120D02*
X192165572Y-144571980D01*
X192172149Y-144619039D01*
X192181262Y-144639566D01*
X192194598Y-144639829D01*
X192198923Y-144637378D01*
X192256444Y-144619636D01*
X192331268Y-144620672D01*
X192407339Y-144638910D01*
X192454918Y-144662505D01*
X192503702Y-144700198D01*
X192539364Y-144742855D01*
X192563845Y-144797057D01*
X192579087Y-144869384D01*
X192587030Y-144966419D01*
X192589616Y-145094742D01*
X192589662Y-145119358D01*
X192589692Y-145395870D01*
X192528161Y-145417320D01*
X192484459Y-145431912D01*
X192460482Y-145438706D01*
X192459777Y-145438769D01*
X192457415Y-145420345D01*
X192455406Y-145369526D01*
X192453901Y-145292993D01*
X192453053Y-145197430D01*
X192452923Y-145139329D01*
X192452651Y-145024771D01*
X192451252Y-144942667D01*
X192447849Y-144886393D01*
X192441567Y-144849326D01*
X192431529Y-144824844D01*
X192416861Y-144806325D01*
X192407702Y-144797406D01*
X192344789Y-144761466D01*
X192276136Y-144758775D01*
X192213848Y-144789170D01*
X192202329Y-144800144D01*
X192185433Y-144820779D01*
X192173714Y-144845256D01*
X192166233Y-144880647D01*
X192162054Y-144934026D01*
X192160237Y-145012466D01*
X192159846Y-145120617D01*
X192159846Y-145395870D01*
X192098315Y-145417320D01*
X192054613Y-145431912D01*
X192030636Y-145438706D01*
X192029930Y-145438769D01*
X192028126Y-145420069D01*
X192026500Y-145367322D01*
X192025117Y-145285557D01*
X192024042Y-145179805D01*
X192023340Y-145055094D01*
X192023077Y-144916455D01*
X192023077Y-144381806D01*
X192150077Y-144328236D01*
X192159846Y-144492120D01*
X192159846Y-144492120D01*
G37*
X192159846Y-144492120D02*
X192165572Y-144571980D01*
X192172149Y-144619039D01*
X192181262Y-144639566D01*
X192194598Y-144639829D01*
X192198923Y-144637378D01*
X192256444Y-144619636D01*
X192331268Y-144620672D01*
X192407339Y-144638910D01*
X192454918Y-144662505D01*
X192503702Y-144700198D01*
X192539364Y-144742855D01*
X192563845Y-144797057D01*
X192579087Y-144869384D01*
X192587030Y-144966419D01*
X192589616Y-145094742D01*
X192589662Y-145119358D01*
X192589692Y-145395870D01*
X192528161Y-145417320D01*
X192484459Y-145431912D01*
X192460482Y-145438706D01*
X192459777Y-145438769D01*
X192457415Y-145420345D01*
X192455406Y-145369526D01*
X192453901Y-145292993D01*
X192453053Y-145197430D01*
X192452923Y-145139329D01*
X192452651Y-145024771D01*
X192451252Y-144942667D01*
X192447849Y-144886393D01*
X192441567Y-144849326D01*
X192431529Y-144824844D01*
X192416861Y-144806325D01*
X192407702Y-144797406D01*
X192344789Y-144761466D01*
X192276136Y-144758775D01*
X192213848Y-144789170D01*
X192202329Y-144800144D01*
X192185433Y-144820779D01*
X192173714Y-144845256D01*
X192166233Y-144880647D01*
X192162054Y-144934026D01*
X192160237Y-145012466D01*
X192159846Y-145120617D01*
X192159846Y-145395870D01*
X192098315Y-145417320D01*
X192054613Y-145431912D01*
X192030636Y-145438706D01*
X192029930Y-145438769D01*
X192028126Y-145420069D01*
X192026500Y-145367322D01*
X192025117Y-145285557D01*
X192024042Y-145179805D01*
X192023340Y-145055094D01*
X192023077Y-144916455D01*
X192023077Y-144381806D01*
X192150077Y-144328236D01*
X192159846Y-144492120D01*
G36*
X190534254Y-144599745D02*
X190611286Y-144651567D01*
X190670816Y-144726412D01*
X190706378Y-144821654D01*
X190713571Y-144891756D01*
X190712754Y-144921009D01*
X190705914Y-144943407D01*
X190687112Y-144963474D01*
X190650408Y-144985733D01*
X190589862Y-145014709D01*
X190499534Y-145054927D01*
X190499077Y-145055129D01*
X190415933Y-145093210D01*
X190347753Y-145127025D01*
X190301505Y-145152933D01*
X190284158Y-145167295D01*
X190284154Y-145167411D01*
X190299443Y-145198685D01*
X190335196Y-145233157D01*
X190376242Y-145257990D01*
X190397037Y-145262923D01*
X190453770Y-145245862D01*
X190502627Y-145203133D01*
X190526465Y-145156155D01*
X190549397Y-145121522D01*
X190594318Y-145082081D01*
X190647123Y-145048009D01*
X190693710Y-145029480D01*
X190703452Y-145028462D01*
X190714418Y-145045215D01*
X190715079Y-145088039D01*
X190707020Y-145145781D01*
X190691827Y-145207289D01*
X190671086Y-145261409D01*
X190670038Y-145263510D01*
X190607621Y-145350660D01*
X190526726Y-145409939D01*
X190434856Y-145439034D01*
X190339513Y-145435634D01*
X190248198Y-145397428D01*
X190244138Y-145394741D01*
X190172306Y-145329642D01*
X190125073Y-145244705D01*
X190098934Y-145133021D01*
X190095426Y-145101643D01*
X190089213Y-144953536D01*
X190096661Y-144884468D01*
X190284154Y-144884468D01*
X190286590Y-144927552D01*
X190299914Y-144940126D01*
X190333132Y-144930719D01*
X190385494Y-144908483D01*
X190444024Y-144880610D01*
X190445479Y-144879872D01*
X190495089Y-144853777D01*
X190515000Y-144836363D01*
X190510090Y-144818107D01*
X190489416Y-144794120D01*
X190436819Y-144759406D01*
X190380177Y-144756856D01*
X190329369Y-144782119D01*
X190294276Y-144830847D01*
X190284154Y-144884468D01*
X190096661Y-144884468D01*
X190101992Y-144835036D01*
X190134778Y-144741055D01*
X190180421Y-144675215D01*
X190262802Y-144608681D01*
X190353546Y-144575676D01*
X190446185Y-144573573D01*
X190534254Y-144599745D01*
X190534254Y-144599745D01*
G37*
X190534254Y-144599745D02*
X190611286Y-144651567D01*
X190670816Y-144726412D01*
X190706378Y-144821654D01*
X190713571Y-144891756D01*
X190712754Y-144921009D01*
X190705914Y-144943407D01*
X190687112Y-144963474D01*
X190650408Y-144985733D01*
X190589862Y-145014709D01*
X190499534Y-145054927D01*
X190499077Y-145055129D01*
X190415933Y-145093210D01*
X190347753Y-145127025D01*
X190301505Y-145152933D01*
X190284158Y-145167295D01*
X190284154Y-145167411D01*
X190299443Y-145198685D01*
X190335196Y-145233157D01*
X190376242Y-145257990D01*
X190397037Y-145262923D01*
X190453770Y-145245862D01*
X190502627Y-145203133D01*
X190526465Y-145156155D01*
X190549397Y-145121522D01*
X190594318Y-145082081D01*
X190647123Y-145048009D01*
X190693710Y-145029480D01*
X190703452Y-145028462D01*
X190714418Y-145045215D01*
X190715079Y-145088039D01*
X190707020Y-145145781D01*
X190691827Y-145207289D01*
X190671086Y-145261409D01*
X190670038Y-145263510D01*
X190607621Y-145350660D01*
X190526726Y-145409939D01*
X190434856Y-145439034D01*
X190339513Y-145435634D01*
X190248198Y-145397428D01*
X190244138Y-145394741D01*
X190172306Y-145329642D01*
X190125073Y-145244705D01*
X190098934Y-145133021D01*
X190095426Y-145101643D01*
X190089213Y-144953536D01*
X190096661Y-144884468D01*
X190284154Y-144884468D01*
X190286590Y-144927552D01*
X190299914Y-144940126D01*
X190333132Y-144930719D01*
X190385494Y-144908483D01*
X190444024Y-144880610D01*
X190445479Y-144879872D01*
X190495089Y-144853777D01*
X190515000Y-144836363D01*
X190510090Y-144818107D01*
X190489416Y-144794120D01*
X190436819Y-144759406D01*
X190380177Y-144756856D01*
X190329369Y-144782119D01*
X190294276Y-144830847D01*
X190284154Y-144884468D01*
X190096661Y-144884468D01*
X190101992Y-144835036D01*
X190134778Y-144741055D01*
X190180421Y-144675215D01*
X190262802Y-144608681D01*
X190353546Y-144575676D01*
X190446185Y-144573573D01*
X190534254Y-144599745D01*
G36*
X189016886Y-144587256D02*
X189108464Y-144635409D01*
X189176049Y-144712905D01*
X189200057Y-144762727D01*
X189218738Y-144837533D01*
X189228301Y-144932052D01*
X189229208Y-145035210D01*
X189221921Y-145135935D01*
X189206903Y-145223153D01*
X189184615Y-145285791D01*
X189177765Y-145296579D01*
X189096632Y-145377105D01*
X189000266Y-145425336D01*
X188895701Y-145439450D01*
X188789968Y-145417629D01*
X188760543Y-145404547D01*
X188703241Y-145364231D01*
X188652950Y-145310775D01*
X188648197Y-145303995D01*
X188628878Y-145271321D01*
X188616108Y-145236394D01*
X188608564Y-145190414D01*
X188604924Y-145124584D01*
X188603865Y-145030105D01*
X188603846Y-145008923D01*
X188603894Y-145002182D01*
X188799231Y-145002182D01*
X188800368Y-145091349D01*
X188804841Y-145150520D01*
X188814246Y-145188741D01*
X188830176Y-145215053D01*
X188838308Y-145223846D01*
X188885058Y-145257261D01*
X188930447Y-145255737D01*
X188976340Y-145226752D01*
X189003712Y-145195809D01*
X189019923Y-145150643D01*
X189029026Y-145079420D01*
X189029651Y-145071114D01*
X189031204Y-144942037D01*
X189014965Y-144846172D01*
X188981152Y-144784107D01*
X188929984Y-144756432D01*
X188911720Y-144754923D01*
X188863760Y-144762513D01*
X188830953Y-144788808D01*
X188810895Y-144839095D01*
X188801178Y-144918664D01*
X188799231Y-145002182D01*
X188603894Y-145002182D01*
X188604574Y-144908249D01*
X188607629Y-144837906D01*
X188614322Y-144789163D01*
X188625960Y-144753288D01*
X188643853Y-144721548D01*
X188647808Y-144715648D01*
X188714267Y-144636104D01*
X188786685Y-144589929D01*
X188874849Y-144571599D01*
X188904787Y-144570703D01*
X189016886Y-144587256D01*
X189016886Y-144587256D01*
G37*
X189016886Y-144587256D02*
X189108464Y-144635409D01*
X189176049Y-144712905D01*
X189200057Y-144762727D01*
X189218738Y-144837533D01*
X189228301Y-144932052D01*
X189229208Y-145035210D01*
X189221921Y-145135935D01*
X189206903Y-145223153D01*
X189184615Y-145285791D01*
X189177765Y-145296579D01*
X189096632Y-145377105D01*
X189000266Y-145425336D01*
X188895701Y-145439450D01*
X188789968Y-145417629D01*
X188760543Y-145404547D01*
X188703241Y-145364231D01*
X188652950Y-145310775D01*
X188648197Y-145303995D01*
X188628878Y-145271321D01*
X188616108Y-145236394D01*
X188608564Y-145190414D01*
X188604924Y-145124584D01*
X188603865Y-145030105D01*
X188603846Y-145008923D01*
X188603894Y-145002182D01*
X188799231Y-145002182D01*
X188800368Y-145091349D01*
X188804841Y-145150520D01*
X188814246Y-145188741D01*
X188830176Y-145215053D01*
X188838308Y-145223846D01*
X188885058Y-145257261D01*
X188930447Y-145255737D01*
X188976340Y-145226752D01*
X189003712Y-145195809D01*
X189019923Y-145150643D01*
X189029026Y-145079420D01*
X189029651Y-145071114D01*
X189031204Y-144942037D01*
X189014965Y-144846172D01*
X188981152Y-144784107D01*
X188929984Y-144756432D01*
X188911720Y-144754923D01*
X188863760Y-144762513D01*
X188830953Y-144788808D01*
X188810895Y-144839095D01*
X188801178Y-144918664D01*
X188799231Y-145002182D01*
X188603894Y-145002182D01*
X188604574Y-144908249D01*
X188607629Y-144837906D01*
X188614322Y-144789163D01*
X188625960Y-144753288D01*
X188643853Y-144721548D01*
X188647808Y-144715648D01*
X188714267Y-144636104D01*
X188786685Y-144589929D01*
X188874849Y-144571599D01*
X188904787Y-144570703D01*
X189016886Y-144587256D01*
G36*
X191271664Y-144595089D02*
X191334367Y-144631358D01*
X191377961Y-144667358D01*
X191409845Y-144705075D01*
X191431810Y-144751199D01*
X191445649Y-144812421D01*
X191453153Y-144895431D01*
X191456117Y-145006919D01*
X191456461Y-145087062D01*
X191456461Y-145382065D01*
X191290385Y-145456515D01*
X191280615Y-145133402D01*
X191276579Y-145012729D01*
X191272344Y-144925141D01*
X191267097Y-144864650D01*
X191260025Y-144825268D01*
X191250311Y-144801007D01*
X191237144Y-144785880D01*
X191232919Y-144782606D01*
X191168909Y-144757034D01*
X191104208Y-144767153D01*
X191065692Y-144794000D01*
X191050025Y-144813024D01*
X191039180Y-144837988D01*
X191032288Y-144875834D01*
X191028479Y-144933502D01*
X191026883Y-145017935D01*
X191026615Y-145105928D01*
X191026563Y-145216323D01*
X191024672Y-145294463D01*
X191018345Y-145347165D01*
X191004983Y-145381242D01*
X190981985Y-145403511D01*
X190946754Y-145420787D01*
X190899697Y-145438738D01*
X190848303Y-145458278D01*
X190854421Y-145111485D01*
X190856884Y-144986468D01*
X190859767Y-144894082D01*
X190863898Y-144827881D01*
X190870107Y-144781420D01*
X190879226Y-144748256D01*
X190892083Y-144721944D01*
X190907584Y-144698729D01*
X190982371Y-144624569D01*
X191073628Y-144581684D01*
X191172883Y-144571412D01*
X191271664Y-144595089D01*
X191271664Y-144595089D01*
G37*
X191271664Y-144595089D02*
X191334367Y-144631358D01*
X191377961Y-144667358D01*
X191409845Y-144705075D01*
X191431810Y-144751199D01*
X191445649Y-144812421D01*
X191453153Y-144895431D01*
X191456117Y-145006919D01*
X191456461Y-145087062D01*
X191456461Y-145382065D01*
X191290385Y-145456515D01*
X191280615Y-145133402D01*
X191276579Y-145012729D01*
X191272344Y-144925141D01*
X191267097Y-144864650D01*
X191260025Y-144825268D01*
X191250311Y-144801007D01*
X191237144Y-144785880D01*
X191232919Y-144782606D01*
X191168909Y-144757034D01*
X191104208Y-144767153D01*
X191065692Y-144794000D01*
X191050025Y-144813024D01*
X191039180Y-144837988D01*
X191032288Y-144875834D01*
X191028479Y-144933502D01*
X191026883Y-145017935D01*
X191026615Y-145105928D01*
X191026563Y-145216323D01*
X191024672Y-145294463D01*
X191018345Y-145347165D01*
X191004983Y-145381242D01*
X190981985Y-145403511D01*
X190946754Y-145420787D01*
X190899697Y-145438738D01*
X190848303Y-145458278D01*
X190854421Y-145111485D01*
X190856884Y-144986468D01*
X190859767Y-144894082D01*
X190863898Y-144827881D01*
X190870107Y-144781420D01*
X190879226Y-144748256D01*
X190892083Y-144721944D01*
X190907584Y-144698729D01*
X190982371Y-144624569D01*
X191073628Y-144581684D01*
X191172883Y-144571412D01*
X191271664Y-144595089D01*
G36*
X189768886Y-144584505D02*
X189843539Y-144621727D01*
X189909431Y-144690261D01*
X189927577Y-144715648D01*
X189947345Y-144748866D01*
X189960172Y-144784945D01*
X189967510Y-144833098D01*
X189970813Y-144902536D01*
X189971538Y-144994206D01*
X189968263Y-145119830D01*
X189956877Y-145214154D01*
X189935041Y-145284523D01*
X189900419Y-145338286D01*
X189850670Y-145382788D01*
X189847014Y-145385423D01*
X189797985Y-145412377D01*
X189738945Y-145425712D01*
X189663859Y-145429000D01*
X189541795Y-145429000D01*
X189541744Y-145547497D01*
X189540608Y-145613492D01*
X189533686Y-145652202D01*
X189515598Y-145675419D01*
X189480962Y-145694933D01*
X189472645Y-145698920D01*
X189433720Y-145717603D01*
X189403583Y-145729403D01*
X189381174Y-145730422D01*
X189365433Y-145716761D01*
X189355302Y-145684522D01*
X189349723Y-145629804D01*
X189347635Y-145548711D01*
X189347981Y-145437344D01*
X189349700Y-145291802D01*
X189350237Y-145248269D01*
X189352172Y-145098205D01*
X189353904Y-145000042D01*
X189541692Y-145000042D01*
X189542748Y-145083364D01*
X189547438Y-145137880D01*
X189558051Y-145173837D01*
X189576872Y-145201482D01*
X189589650Y-145214965D01*
X189641890Y-145254417D01*
X189688142Y-145257628D01*
X189735867Y-145225049D01*
X189737077Y-145223846D01*
X189756494Y-145198668D01*
X189768307Y-145164447D01*
X189774265Y-145111748D01*
X189776120Y-145031131D01*
X189776154Y-145013271D01*
X189771670Y-144902175D01*
X189757074Y-144825161D01*
X189730650Y-144778147D01*
X189690683Y-144757050D01*
X189667584Y-144754923D01*
X189612762Y-144764900D01*
X189575158Y-144797752D01*
X189552523Y-144857857D01*
X189542606Y-144949598D01*
X189541692Y-145000042D01*
X189353904Y-145000042D01*
X189354222Y-144982060D01*
X189356873Y-144894679D01*
X189360606Y-144830905D01*
X189365907Y-144785582D01*
X189373258Y-144753555D01*
X189383143Y-144729668D01*
X189396046Y-144708764D01*
X189401579Y-144700898D01*
X189474969Y-144626595D01*
X189567760Y-144584467D01*
X189675096Y-144572722D01*
X189768886Y-144584505D01*
X189768886Y-144584505D01*
G37*
X189768886Y-144584505D02*
X189843539Y-144621727D01*
X189909431Y-144690261D01*
X189927577Y-144715648D01*
X189947345Y-144748866D01*
X189960172Y-144784945D01*
X189967510Y-144833098D01*
X189970813Y-144902536D01*
X189971538Y-144994206D01*
X189968263Y-145119830D01*
X189956877Y-145214154D01*
X189935041Y-145284523D01*
X189900419Y-145338286D01*
X189850670Y-145382788D01*
X189847014Y-145385423D01*
X189797985Y-145412377D01*
X189738945Y-145425712D01*
X189663859Y-145429000D01*
X189541795Y-145429000D01*
X189541744Y-145547497D01*
X189540608Y-145613492D01*
X189533686Y-145652202D01*
X189515598Y-145675419D01*
X189480962Y-145694933D01*
X189472645Y-145698920D01*
X189433720Y-145717603D01*
X189403583Y-145729403D01*
X189381174Y-145730422D01*
X189365433Y-145716761D01*
X189355302Y-145684522D01*
X189349723Y-145629804D01*
X189347635Y-145548711D01*
X189347981Y-145437344D01*
X189349700Y-145291802D01*
X189350237Y-145248269D01*
X189352172Y-145098205D01*
X189353904Y-145000042D01*
X189541692Y-145000042D01*
X189542748Y-145083364D01*
X189547438Y-145137880D01*
X189558051Y-145173837D01*
X189576872Y-145201482D01*
X189589650Y-145214965D01*
X189641890Y-145254417D01*
X189688142Y-145257628D01*
X189735867Y-145225049D01*
X189737077Y-145223846D01*
X189756494Y-145198668D01*
X189768307Y-145164447D01*
X189774265Y-145111748D01*
X189776120Y-145031131D01*
X189776154Y-145013271D01*
X189771670Y-144902175D01*
X189757074Y-144825161D01*
X189730650Y-144778147D01*
X189690683Y-144757050D01*
X189667584Y-144754923D01*
X189612762Y-144764900D01*
X189575158Y-144797752D01*
X189552523Y-144857857D01*
X189542606Y-144949598D01*
X189541692Y-145000042D01*
X189353904Y-145000042D01*
X189354222Y-144982060D01*
X189356873Y-144894679D01*
X189360606Y-144830905D01*
X189365907Y-144785582D01*
X189373258Y-144753555D01*
X189383143Y-144729668D01*
X189396046Y-144708764D01*
X189401579Y-144700898D01*
X189474969Y-144626595D01*
X189567760Y-144584467D01*
X189675096Y-144572722D01*
X189768886Y-144584505D01*
G04 #@! TD*
M02*
