G04 #@! TF.GenerationSoftware,KiCad,Pcbnew,(5.0.1-3-g963ef8bb5)*
G04 #@! TF.CreationDate,2018-11-10T15:27:12+00:00*
G04 #@! TF.ProjectId,xmas_tree_v0.1,786D61735F747265655F76302E312E6B,rev?*
G04 #@! TF.SameCoordinates,Original*
G04 #@! TF.FileFunction,Soldermask,Bot*
G04 #@! TF.FilePolarity,Negative*
%FSLAX46Y46*%
G04 Gerber Fmt 4.6, Leading zero omitted, Abs format (unit mm)*
G04 Created by KiCad (PCBNEW (5.0.1-3-g963ef8bb5)) date Saturday, 10 November 2018 at 15:27:12*
%MOMM*%
%LPD*%
G01*
G04 APERTURE LIST*
%ADD10C,0.100000*%
G04 APERTURE END LIST*
D10*
G36*
X127964499Y-147453445D02*
X128001993Y-147464819D01*
X128036557Y-147483294D01*
X128066847Y-147508153D01*
X128091706Y-147538443D01*
X128110181Y-147573007D01*
X128121555Y-147610501D01*
X128126000Y-147655638D01*
X128126000Y-148294362D01*
X128121555Y-148339499D01*
X128110181Y-148376993D01*
X128091706Y-148411557D01*
X128066847Y-148441847D01*
X128036557Y-148466706D01*
X128001993Y-148485181D01*
X127964499Y-148496555D01*
X127919362Y-148501000D01*
X127180638Y-148501000D01*
X127135501Y-148496555D01*
X127098007Y-148485181D01*
X127063443Y-148466706D01*
X127033153Y-148441847D01*
X127008294Y-148411557D01*
X126989819Y-148376993D01*
X126978445Y-148339499D01*
X126974000Y-148294362D01*
X126974000Y-147655638D01*
X126978445Y-147610501D01*
X126989819Y-147573007D01*
X127008294Y-147538443D01*
X127033153Y-147508153D01*
X127063443Y-147483294D01*
X127098007Y-147464819D01*
X127135501Y-147453445D01*
X127180638Y-147449000D01*
X127919362Y-147449000D01*
X127964499Y-147453445D01*
X127964499Y-147453445D01*
G37*
G36*
X126214499Y-147453445D02*
X126251993Y-147464819D01*
X126286557Y-147483294D01*
X126316847Y-147508153D01*
X126341706Y-147538443D01*
X126360181Y-147573007D01*
X126371555Y-147610501D01*
X126376000Y-147655638D01*
X126376000Y-148294362D01*
X126371555Y-148339499D01*
X126360181Y-148376993D01*
X126341706Y-148411557D01*
X126316847Y-148441847D01*
X126286557Y-148466706D01*
X126251993Y-148485181D01*
X126214499Y-148496555D01*
X126169362Y-148501000D01*
X125430638Y-148501000D01*
X125385501Y-148496555D01*
X125348007Y-148485181D01*
X125313443Y-148466706D01*
X125283153Y-148441847D01*
X125258294Y-148411557D01*
X125239819Y-148376993D01*
X125228445Y-148339499D01*
X125224000Y-148294362D01*
X125224000Y-147655638D01*
X125228445Y-147610501D01*
X125239819Y-147573007D01*
X125258294Y-147538443D01*
X125283153Y-147508153D01*
X125313443Y-147483294D01*
X125348007Y-147464819D01*
X125385501Y-147453445D01*
X125430638Y-147449000D01*
X126169362Y-147449000D01*
X126214499Y-147453445D01*
X126214499Y-147453445D01*
G37*
G36*
X157401000Y-148451000D02*
X155749000Y-148451000D01*
X155749000Y-147049000D01*
X157401000Y-147049000D01*
X157401000Y-148451000D01*
X157401000Y-148451000D01*
G37*
G36*
X149451000Y-148451000D02*
X147799000Y-148451000D01*
X147799000Y-147049000D01*
X149451000Y-147049000D01*
X149451000Y-148451000D01*
X149451000Y-148451000D01*
G37*
G36*
X110040350Y-146984694D02*
X110139770Y-147025875D01*
X110229249Y-147085663D01*
X110305337Y-147161751D01*
X110365125Y-147251230D01*
X110406306Y-147350650D01*
X110427300Y-147456194D01*
X110427300Y-147563806D01*
X110406306Y-147669350D01*
X110365125Y-147768770D01*
X110305337Y-147858249D01*
X110229249Y-147934337D01*
X110139770Y-147994125D01*
X110040350Y-148035306D01*
X109934806Y-148056300D01*
X109827194Y-148056300D01*
X109721650Y-148035306D01*
X109622230Y-147994125D01*
X109532751Y-147934337D01*
X109456663Y-147858249D01*
X109396875Y-147768770D01*
X109355694Y-147669350D01*
X109334700Y-147563806D01*
X109334700Y-147456194D01*
X109355694Y-147350650D01*
X109396875Y-147251230D01*
X109456663Y-147161751D01*
X109532751Y-147085663D01*
X109622230Y-147025875D01*
X109721650Y-146984694D01*
X109827194Y-146963700D01*
X109934806Y-146963700D01*
X110040350Y-146984694D01*
X110040350Y-146984694D01*
G37*
G36*
X108008350Y-146984694D02*
X108107770Y-147025875D01*
X108197249Y-147085663D01*
X108273337Y-147161751D01*
X108333125Y-147251230D01*
X108374306Y-147350650D01*
X108395300Y-147456194D01*
X108395300Y-147563806D01*
X108374306Y-147669350D01*
X108333125Y-147768770D01*
X108273337Y-147858249D01*
X108197249Y-147934337D01*
X108107770Y-147994125D01*
X108008350Y-148035306D01*
X107902806Y-148056300D01*
X107795194Y-148056300D01*
X107689650Y-148035306D01*
X107590230Y-147994125D01*
X107500751Y-147934337D01*
X107424663Y-147858249D01*
X107364875Y-147768770D01*
X107323694Y-147669350D01*
X107302700Y-147563806D01*
X107302700Y-147456194D01*
X107323694Y-147350650D01*
X107364875Y-147251230D01*
X107424663Y-147161751D01*
X107500751Y-147085663D01*
X107590230Y-147025875D01*
X107689650Y-146984694D01*
X107795194Y-146963700D01*
X107902806Y-146963700D01*
X108008350Y-146984694D01*
X108008350Y-146984694D01*
G37*
G36*
X128001000Y-146851000D02*
X127099000Y-146851000D01*
X127099000Y-145849000D01*
X128001000Y-145849000D01*
X128001000Y-146851000D01*
X128001000Y-146851000D01*
G37*
G36*
X126101000Y-146851000D02*
X125199000Y-146851000D01*
X125199000Y-145849000D01*
X126101000Y-145849000D01*
X126101000Y-146851000D01*
X126101000Y-146851000D01*
G37*
G36*
X127051000Y-144851000D02*
X126149000Y-144851000D01*
X126149000Y-143849000D01*
X127051000Y-143849000D01*
X127051000Y-144851000D01*
X127051000Y-144851000D01*
G37*
G36*
X157401000Y-143951000D02*
X155749000Y-143951000D01*
X155749000Y-142549000D01*
X157401000Y-142549000D01*
X157401000Y-143951000D01*
X157401000Y-143951000D01*
G37*
G36*
X149451000Y-143951000D02*
X147799000Y-143951000D01*
X147799000Y-142549000D01*
X149451000Y-142549000D01*
X149451000Y-143951000D01*
X149451000Y-143951000D01*
G37*
G36*
X146964499Y-142628445D02*
X147001993Y-142639819D01*
X147036557Y-142658294D01*
X147066847Y-142683153D01*
X147091706Y-142713443D01*
X147110181Y-142748007D01*
X147121555Y-142785501D01*
X147126000Y-142830638D01*
X147126000Y-143569362D01*
X147121555Y-143614499D01*
X147110181Y-143651993D01*
X147091706Y-143686557D01*
X147066847Y-143716847D01*
X147036557Y-143741706D01*
X147001993Y-143760181D01*
X146964499Y-143771555D01*
X146919362Y-143776000D01*
X146280638Y-143776000D01*
X146235501Y-143771555D01*
X146198007Y-143760181D01*
X146163443Y-143741706D01*
X146133153Y-143716847D01*
X146108294Y-143686557D01*
X146089819Y-143651993D01*
X146078445Y-143614499D01*
X146074000Y-143569362D01*
X146074000Y-142830638D01*
X146078445Y-142785501D01*
X146089819Y-142748007D01*
X146108294Y-142713443D01*
X146133153Y-142683153D01*
X146163443Y-142658294D01*
X146198007Y-142639819D01*
X146235501Y-142628445D01*
X146280638Y-142624000D01*
X146919362Y-142624000D01*
X146964499Y-142628445D01*
X146964499Y-142628445D01*
G37*
G36*
X109024350Y-141904694D02*
X109123770Y-141945875D01*
X109213249Y-142005663D01*
X109289337Y-142081751D01*
X109349125Y-142171230D01*
X109390306Y-142270650D01*
X109411300Y-142376194D01*
X109411300Y-142483806D01*
X109390306Y-142589350D01*
X109349125Y-142688770D01*
X109289337Y-142778249D01*
X109213249Y-142854337D01*
X109213246Y-142854339D01*
X109123770Y-142914125D01*
X109024350Y-142955306D01*
X108918806Y-142976300D01*
X108811194Y-142976300D01*
X108705650Y-142955306D01*
X108606230Y-142914125D01*
X108516754Y-142854339D01*
X108516751Y-142854337D01*
X108440663Y-142778249D01*
X108380875Y-142688770D01*
X108339694Y-142589350D01*
X108318700Y-142483806D01*
X108318700Y-142376194D01*
X108339694Y-142270650D01*
X108380875Y-142171230D01*
X108440663Y-142081751D01*
X108516751Y-142005663D01*
X108606230Y-141945875D01*
X108705650Y-141904694D01*
X108811194Y-141883700D01*
X108918806Y-141883700D01*
X109024350Y-141904694D01*
X109024350Y-141904694D01*
G37*
G36*
X146964499Y-140878445D02*
X147001993Y-140889819D01*
X147036557Y-140908294D01*
X147066847Y-140933153D01*
X147091706Y-140963443D01*
X147110181Y-140998007D01*
X147121555Y-141035501D01*
X147126000Y-141080638D01*
X147126000Y-141819362D01*
X147121555Y-141864499D01*
X147110181Y-141901993D01*
X147091706Y-141936557D01*
X147066847Y-141966847D01*
X147036557Y-141991706D01*
X147001993Y-142010181D01*
X146964499Y-142021555D01*
X146919362Y-142026000D01*
X146280638Y-142026000D01*
X146235501Y-142021555D01*
X146198007Y-142010181D01*
X146163443Y-141991706D01*
X146133153Y-141966847D01*
X146108294Y-141936557D01*
X146089819Y-141901993D01*
X146078445Y-141864499D01*
X146074000Y-141819362D01*
X146074000Y-141080638D01*
X146078445Y-141035501D01*
X146089819Y-140998007D01*
X146108294Y-140963443D01*
X146133153Y-140933153D01*
X146163443Y-140908294D01*
X146198007Y-140889819D01*
X146235501Y-140878445D01*
X146280638Y-140874000D01*
X146919362Y-140874000D01*
X146964499Y-140878445D01*
X146964499Y-140878445D01*
G37*
G36*
X106842866Y-134589097D02*
X106943140Y-134630632D01*
X107033390Y-134690935D01*
X107110133Y-134767678D01*
X107170436Y-134857928D01*
X107211971Y-134958202D01*
X107233145Y-135064653D01*
X107233145Y-135173193D01*
X107211971Y-135279644D01*
X107170436Y-135379918D01*
X107110133Y-135470168D01*
X107033390Y-135546911D01*
X106943140Y-135607214D01*
X106842866Y-135648749D01*
X106736415Y-135669923D01*
X106627875Y-135669923D01*
X106521424Y-135648749D01*
X106421150Y-135607214D01*
X106330900Y-135546911D01*
X106254157Y-135470168D01*
X106193854Y-135379918D01*
X106152319Y-135279644D01*
X106131145Y-135173193D01*
X106131145Y-135064653D01*
X106152319Y-134958202D01*
X106193854Y-134857928D01*
X106254157Y-134767678D01*
X106330900Y-134690935D01*
X106421150Y-134630632D01*
X106521424Y-134589097D01*
X106627875Y-134567923D01*
X106736415Y-134567923D01*
X106842866Y-134589097D01*
X106842866Y-134589097D01*
G37*
G36*
X107476794Y-133229636D02*
X107577068Y-133271171D01*
X107667318Y-133331474D01*
X107744061Y-133408217D01*
X107804364Y-133498467D01*
X107845899Y-133598741D01*
X107867073Y-133705192D01*
X107867073Y-133813732D01*
X107845899Y-133920183D01*
X107804364Y-134020457D01*
X107744061Y-134110707D01*
X107667318Y-134187450D01*
X107577068Y-134247753D01*
X107476794Y-134289288D01*
X107370343Y-134310462D01*
X107261803Y-134310462D01*
X107155352Y-134289288D01*
X107055078Y-134247753D01*
X106964828Y-134187450D01*
X106888085Y-134110707D01*
X106827782Y-134020457D01*
X106786247Y-133920183D01*
X106765073Y-133813732D01*
X106765073Y-133705192D01*
X106786247Y-133598741D01*
X106827782Y-133498467D01*
X106888085Y-133408217D01*
X106964828Y-133331474D01*
X107055078Y-133271171D01*
X107155352Y-133229636D01*
X107261803Y-133208462D01*
X107370343Y-133208462D01*
X107476794Y-133229636D01*
X107476794Y-133229636D01*
G37*
G36*
X174864992Y-132202630D02*
X174965266Y-132244165D01*
X175055516Y-132304468D01*
X175132259Y-132381211D01*
X175192562Y-132471461D01*
X175234097Y-132571735D01*
X175255271Y-132678186D01*
X175255271Y-132786726D01*
X175234097Y-132893177D01*
X175192562Y-132993451D01*
X175132259Y-133083701D01*
X175055516Y-133160444D01*
X174965266Y-133220747D01*
X174864992Y-133262282D01*
X174758541Y-133283456D01*
X174650001Y-133283456D01*
X174543550Y-133262282D01*
X174443276Y-133220747D01*
X174353026Y-133160444D01*
X174276283Y-133083701D01*
X174215980Y-132993451D01*
X174174445Y-132893177D01*
X174153271Y-132786726D01*
X174153271Y-132678186D01*
X174174445Y-132571735D01*
X174215980Y-132471461D01*
X174276283Y-132381211D01*
X174353026Y-132304468D01*
X174443276Y-132244165D01*
X174543550Y-132202630D01*
X174650001Y-132181456D01*
X174758541Y-132181456D01*
X174864992Y-132202630D01*
X174864992Y-132202630D01*
G37*
G36*
X108110721Y-131870174D02*
X108210995Y-131911709D01*
X108301245Y-131972012D01*
X108377988Y-132048755D01*
X108438291Y-132139005D01*
X108479826Y-132239279D01*
X108501000Y-132345730D01*
X108501000Y-132454270D01*
X108479826Y-132560721D01*
X108438291Y-132660995D01*
X108377988Y-132751245D01*
X108301245Y-132827988D01*
X108210995Y-132888291D01*
X108110721Y-132929826D01*
X108004270Y-132951000D01*
X107895730Y-132951000D01*
X107789279Y-132929826D01*
X107689005Y-132888291D01*
X107598755Y-132827988D01*
X107522012Y-132751245D01*
X107461709Y-132660995D01*
X107420174Y-132560721D01*
X107399000Y-132454270D01*
X107399000Y-132345730D01*
X107420174Y-132239279D01*
X107461709Y-132139005D01*
X107522012Y-132048755D01*
X107598755Y-131972012D01*
X107689005Y-131911709D01*
X107789279Y-131870174D01*
X107895730Y-131849000D01*
X108004270Y-131849000D01*
X108110721Y-131870174D01*
X108110721Y-131870174D01*
G37*
G36*
X175725356Y-130973902D02*
X175825630Y-131015437D01*
X175915880Y-131075740D01*
X175992623Y-131152483D01*
X176052926Y-131242733D01*
X176094461Y-131343007D01*
X176115635Y-131449458D01*
X176115635Y-131557998D01*
X176094461Y-131664449D01*
X176052926Y-131764723D01*
X175992623Y-131854973D01*
X175915880Y-131931716D01*
X175825630Y-131992019D01*
X175725356Y-132033554D01*
X175618905Y-132054728D01*
X175510365Y-132054728D01*
X175403914Y-132033554D01*
X175303640Y-131992019D01*
X175213390Y-131931716D01*
X175136647Y-131854973D01*
X175076344Y-131764723D01*
X175034809Y-131664449D01*
X175013635Y-131557998D01*
X175013635Y-131449458D01*
X175034809Y-131343007D01*
X175076344Y-131242733D01*
X175136647Y-131152483D01*
X175213390Y-131075740D01*
X175303640Y-131015437D01*
X175403914Y-130973902D01*
X175510365Y-130952728D01*
X175618905Y-130952728D01*
X175725356Y-130973902D01*
X175725356Y-130973902D01*
G37*
G36*
X108744648Y-130510712D02*
X108844922Y-130552247D01*
X108935172Y-130612550D01*
X109011915Y-130689293D01*
X109072218Y-130779543D01*
X109113753Y-130879817D01*
X109134927Y-130986268D01*
X109134927Y-131094808D01*
X109113753Y-131201259D01*
X109072218Y-131301533D01*
X109011915Y-131391783D01*
X108935172Y-131468526D01*
X108844922Y-131528829D01*
X108744648Y-131570364D01*
X108638197Y-131591538D01*
X108529657Y-131591538D01*
X108423206Y-131570364D01*
X108322932Y-131528829D01*
X108232682Y-131468526D01*
X108155939Y-131391783D01*
X108095636Y-131301533D01*
X108054101Y-131201259D01*
X108032927Y-131094808D01*
X108032927Y-130986268D01*
X108054101Y-130879817D01*
X108095636Y-130779543D01*
X108155939Y-130689293D01*
X108232682Y-130612550D01*
X108322932Y-130552247D01*
X108423206Y-130510712D01*
X108529657Y-130489538D01*
X108638197Y-130489538D01*
X108744648Y-130510712D01*
X108744648Y-130510712D01*
G37*
G36*
X176585721Y-129745174D02*
X176685995Y-129786709D01*
X176776245Y-129847012D01*
X176852988Y-129923755D01*
X176913291Y-130014005D01*
X176954826Y-130114279D01*
X176976000Y-130220730D01*
X176976000Y-130329270D01*
X176954826Y-130435721D01*
X176913291Y-130535995D01*
X176852988Y-130626245D01*
X176776245Y-130702988D01*
X176685995Y-130763291D01*
X176585721Y-130804826D01*
X176479270Y-130826000D01*
X176370730Y-130826000D01*
X176264279Y-130804826D01*
X176164005Y-130763291D01*
X176073755Y-130702988D01*
X175997012Y-130626245D01*
X175936709Y-130535995D01*
X175895174Y-130435721D01*
X175874000Y-130329270D01*
X175874000Y-130220730D01*
X175895174Y-130114279D01*
X175936709Y-130014005D01*
X175997012Y-129923755D01*
X176073755Y-129847012D01*
X176164005Y-129786709D01*
X176264279Y-129745174D01*
X176370730Y-129724000D01*
X176479270Y-129724000D01*
X176585721Y-129745174D01*
X176585721Y-129745174D01*
G37*
G36*
X143539499Y-129578445D02*
X143576993Y-129589819D01*
X143611557Y-129608294D01*
X143641847Y-129633153D01*
X143666706Y-129663443D01*
X143685181Y-129698007D01*
X143696555Y-129735501D01*
X143701000Y-129780638D01*
X143701000Y-130419362D01*
X143696555Y-130464499D01*
X143685181Y-130501993D01*
X143666706Y-130536557D01*
X143641847Y-130566847D01*
X143611557Y-130591706D01*
X143576993Y-130610181D01*
X143539499Y-130621555D01*
X143494362Y-130626000D01*
X142755638Y-130626000D01*
X142710501Y-130621555D01*
X142673007Y-130610181D01*
X142638443Y-130591706D01*
X142608153Y-130566847D01*
X142583294Y-130536557D01*
X142564819Y-130501993D01*
X142553445Y-130464499D01*
X142549000Y-130419362D01*
X142549000Y-129780638D01*
X142553445Y-129735501D01*
X142564819Y-129698007D01*
X142583294Y-129663443D01*
X142608153Y-129633153D01*
X142638443Y-129608294D01*
X142673007Y-129589819D01*
X142710501Y-129578445D01*
X142755638Y-129574000D01*
X143494362Y-129574000D01*
X143539499Y-129578445D01*
X143539499Y-129578445D01*
G37*
G36*
X145289499Y-129578445D02*
X145326993Y-129589819D01*
X145361557Y-129608294D01*
X145391847Y-129633153D01*
X145416706Y-129663443D01*
X145435181Y-129698007D01*
X145446555Y-129735501D01*
X145451000Y-129780638D01*
X145451000Y-130419362D01*
X145446555Y-130464499D01*
X145435181Y-130501993D01*
X145416706Y-130536557D01*
X145391847Y-130566847D01*
X145361557Y-130591706D01*
X145326993Y-130610181D01*
X145289499Y-130621555D01*
X145244362Y-130626000D01*
X144505638Y-130626000D01*
X144460501Y-130621555D01*
X144423007Y-130610181D01*
X144388443Y-130591706D01*
X144358153Y-130566847D01*
X144333294Y-130536557D01*
X144314819Y-130501993D01*
X144303445Y-130464499D01*
X144299000Y-130419362D01*
X144299000Y-129780638D01*
X144303445Y-129735501D01*
X144314819Y-129698007D01*
X144333294Y-129663443D01*
X144358153Y-129633153D01*
X144388443Y-129608294D01*
X144423007Y-129589819D01*
X144460501Y-129578445D01*
X144505638Y-129574000D01*
X145244362Y-129574000D01*
X145289499Y-129578445D01*
X145289499Y-129578445D01*
G37*
G36*
X109378576Y-129151251D02*
X109478850Y-129192786D01*
X109569100Y-129253089D01*
X109645843Y-129329832D01*
X109706146Y-129420082D01*
X109747681Y-129520356D01*
X109768855Y-129626807D01*
X109768855Y-129735347D01*
X109747681Y-129841798D01*
X109706146Y-129942072D01*
X109645843Y-130032322D01*
X109569100Y-130109065D01*
X109478850Y-130169368D01*
X109378576Y-130210903D01*
X109272125Y-130232077D01*
X109163585Y-130232077D01*
X109057134Y-130210903D01*
X108956860Y-130169368D01*
X108866610Y-130109065D01*
X108789867Y-130032322D01*
X108729564Y-129942072D01*
X108688029Y-129841798D01*
X108666855Y-129735347D01*
X108666855Y-129626807D01*
X108688029Y-129520356D01*
X108729564Y-129420082D01*
X108789867Y-129329832D01*
X108866610Y-129253089D01*
X108956860Y-129192786D01*
X109057134Y-129151251D01*
X109163585Y-129130077D01*
X109272125Y-129130077D01*
X109378576Y-129151251D01*
X109378576Y-129151251D01*
G37*
G36*
X153161781Y-128939252D02*
X153262055Y-128980787D01*
X153352305Y-129041090D01*
X153429048Y-129117833D01*
X153489351Y-129208083D01*
X153530886Y-129308357D01*
X153552060Y-129414808D01*
X153552060Y-129523348D01*
X153530886Y-129629799D01*
X153489351Y-129730073D01*
X153429048Y-129820323D01*
X153352305Y-129897066D01*
X153262055Y-129957369D01*
X153161781Y-129998904D01*
X153055330Y-130020078D01*
X152946790Y-130020078D01*
X152840339Y-129998904D01*
X152740065Y-129957369D01*
X152649815Y-129897066D01*
X152573072Y-129820323D01*
X152512769Y-129730073D01*
X152471234Y-129629799D01*
X152450060Y-129523348D01*
X152450060Y-129414808D01*
X152471234Y-129308357D01*
X152512769Y-129208083D01*
X152573072Y-129117833D01*
X152649815Y-129041090D01*
X152740065Y-128980787D01*
X152840339Y-128939252D01*
X152946790Y-128918078D01*
X153055330Y-128918078D01*
X153161781Y-128939252D01*
X153161781Y-128939252D01*
G37*
G36*
X177446086Y-128516446D02*
X177546360Y-128557981D01*
X177636610Y-128618284D01*
X177713353Y-128695027D01*
X177773656Y-128785277D01*
X177815191Y-128885551D01*
X177836365Y-128992002D01*
X177836365Y-129100542D01*
X177815191Y-129206993D01*
X177773656Y-129307267D01*
X177713353Y-129397517D01*
X177636610Y-129474260D01*
X177546360Y-129534563D01*
X177446086Y-129576098D01*
X177339635Y-129597272D01*
X177231095Y-129597272D01*
X177124644Y-129576098D01*
X177024370Y-129534563D01*
X176934120Y-129474260D01*
X176857377Y-129397517D01*
X176797074Y-129307267D01*
X176755539Y-129206993D01*
X176734365Y-129100542D01*
X176734365Y-128992002D01*
X176755539Y-128885551D01*
X176797074Y-128785277D01*
X176857377Y-128695027D01*
X176934120Y-128618284D01*
X177024370Y-128557981D01*
X177124644Y-128516446D01*
X177231095Y-128495272D01*
X177339635Y-128495272D01*
X177446086Y-128516446D01*
X177446086Y-128516446D01*
G37*
G36*
X145289499Y-127878445D02*
X145326993Y-127889819D01*
X145361557Y-127908294D01*
X145391847Y-127933153D01*
X145416706Y-127963443D01*
X145435181Y-127998007D01*
X145446555Y-128035501D01*
X145451000Y-128080638D01*
X145451000Y-128719362D01*
X145446555Y-128764499D01*
X145435181Y-128801993D01*
X145416706Y-128836557D01*
X145391847Y-128866847D01*
X145361557Y-128891706D01*
X145326993Y-128910181D01*
X145289499Y-128921555D01*
X145244362Y-128926000D01*
X144505638Y-128926000D01*
X144460501Y-128921555D01*
X144423007Y-128910181D01*
X144388443Y-128891706D01*
X144358153Y-128866847D01*
X144333294Y-128836557D01*
X144314819Y-128801993D01*
X144303445Y-128764499D01*
X144299000Y-128719362D01*
X144299000Y-128080638D01*
X144303445Y-128035501D01*
X144314819Y-127998007D01*
X144333294Y-127963443D01*
X144358153Y-127933153D01*
X144388443Y-127908294D01*
X144423007Y-127889819D01*
X144460501Y-127878445D01*
X144505638Y-127874000D01*
X145244362Y-127874000D01*
X145289499Y-127878445D01*
X145289499Y-127878445D01*
G37*
G36*
X143539499Y-127878445D02*
X143576993Y-127889819D01*
X143611557Y-127908294D01*
X143641847Y-127933153D01*
X143666706Y-127963443D01*
X143685181Y-127998007D01*
X143696555Y-128035501D01*
X143701000Y-128080638D01*
X143701000Y-128719362D01*
X143696555Y-128764499D01*
X143685181Y-128801993D01*
X143666706Y-128836557D01*
X143641847Y-128866847D01*
X143611557Y-128891706D01*
X143576993Y-128910181D01*
X143539499Y-128921555D01*
X143494362Y-128926000D01*
X142755638Y-128926000D01*
X142710501Y-128921555D01*
X142673007Y-128910181D01*
X142638443Y-128891706D01*
X142608153Y-128866847D01*
X142583294Y-128836557D01*
X142564819Y-128801993D01*
X142553445Y-128764499D01*
X142549000Y-128719362D01*
X142549000Y-128080638D01*
X142553445Y-128035501D01*
X142564819Y-127998007D01*
X142583294Y-127963443D01*
X142608153Y-127933153D01*
X142638443Y-127908294D01*
X142673007Y-127889819D01*
X142710501Y-127878445D01*
X142755638Y-127874000D01*
X143494362Y-127874000D01*
X143539499Y-127878445D01*
X143539499Y-127878445D01*
G37*
G36*
X152648751Y-127529713D02*
X152749025Y-127571248D01*
X152839275Y-127631551D01*
X152916018Y-127708294D01*
X152976321Y-127798544D01*
X153017856Y-127898818D01*
X153039030Y-128005269D01*
X153039030Y-128113809D01*
X153017856Y-128220260D01*
X152976321Y-128320534D01*
X152916018Y-128410784D01*
X152839275Y-128487527D01*
X152749025Y-128547830D01*
X152648751Y-128589365D01*
X152542300Y-128610539D01*
X152433760Y-128610539D01*
X152327309Y-128589365D01*
X152227035Y-128547830D01*
X152136785Y-128487527D01*
X152060042Y-128410784D01*
X151999739Y-128320534D01*
X151958204Y-128220260D01*
X151937030Y-128113809D01*
X151937030Y-128005269D01*
X151958204Y-127898818D01*
X151999739Y-127798544D01*
X152060042Y-127708294D01*
X152136785Y-127631551D01*
X152227035Y-127571248D01*
X152327309Y-127529713D01*
X152433760Y-127508539D01*
X152542300Y-127508539D01*
X152648751Y-127529713D01*
X152648751Y-127529713D01*
G37*
G36*
X178306450Y-127287718D02*
X178406724Y-127329253D01*
X178496974Y-127389556D01*
X178573717Y-127466299D01*
X178634020Y-127556549D01*
X178675555Y-127656823D01*
X178696729Y-127763274D01*
X178696729Y-127871814D01*
X178675555Y-127978265D01*
X178634020Y-128078539D01*
X178573717Y-128168789D01*
X178496974Y-128245532D01*
X178406724Y-128305835D01*
X178306450Y-128347370D01*
X178199999Y-128368544D01*
X178091459Y-128368544D01*
X177985008Y-128347370D01*
X177884734Y-128305835D01*
X177794484Y-128245532D01*
X177717741Y-128168789D01*
X177657438Y-128078539D01*
X177615903Y-127978265D01*
X177594729Y-127871814D01*
X177594729Y-127763274D01*
X177615903Y-127656823D01*
X177657438Y-127556549D01*
X177717741Y-127466299D01*
X177794484Y-127389556D01*
X177884734Y-127329253D01*
X177985008Y-127287718D01*
X178091459Y-127266544D01*
X178199999Y-127266544D01*
X178306450Y-127287718D01*
X178306450Y-127287718D01*
G37*
G36*
X158781716Y-126564235D02*
X158881990Y-126605770D01*
X158972240Y-126666073D01*
X159048983Y-126742816D01*
X159109286Y-126833066D01*
X159150821Y-126933340D01*
X159171995Y-127039791D01*
X159171995Y-127148331D01*
X159150821Y-127254782D01*
X159109286Y-127355056D01*
X159048983Y-127445306D01*
X158972240Y-127522049D01*
X158881990Y-127582352D01*
X158781716Y-127623887D01*
X158675265Y-127645061D01*
X158566725Y-127645061D01*
X158460274Y-127623887D01*
X158360000Y-127582352D01*
X158269750Y-127522049D01*
X158193007Y-127445306D01*
X158132704Y-127355056D01*
X158091169Y-127254782D01*
X158069995Y-127148331D01*
X158069995Y-127039791D01*
X158091169Y-126933340D01*
X158132704Y-126833066D01*
X158193007Y-126742816D01*
X158269750Y-126666073D01*
X158360000Y-126605770D01*
X158460274Y-126564235D01*
X158566725Y-126543061D01*
X158675265Y-126543061D01*
X158781716Y-126564235D01*
X158781716Y-126564235D01*
G37*
G36*
X152135721Y-126120174D02*
X152235995Y-126161709D01*
X152326245Y-126222012D01*
X152402988Y-126298755D01*
X152463291Y-126389005D01*
X152504826Y-126489279D01*
X152526000Y-126595730D01*
X152526000Y-126704270D01*
X152504826Y-126810721D01*
X152463291Y-126910995D01*
X152402988Y-127001245D01*
X152326245Y-127077988D01*
X152235995Y-127138291D01*
X152135721Y-127179826D01*
X152029270Y-127201000D01*
X151920730Y-127201000D01*
X151814279Y-127179826D01*
X151714005Y-127138291D01*
X151623755Y-127077988D01*
X151547012Y-127001245D01*
X151486709Y-126910995D01*
X151445174Y-126810721D01*
X151424000Y-126704270D01*
X151424000Y-126595730D01*
X151445174Y-126489279D01*
X151486709Y-126389005D01*
X151547012Y-126298755D01*
X151623755Y-126222012D01*
X151714005Y-126161709D01*
X151814279Y-126120174D01*
X151920730Y-126099000D01*
X152029270Y-126099000D01*
X152135721Y-126120174D01*
X152135721Y-126120174D01*
G37*
G36*
X157758719Y-125467205D02*
X157858993Y-125508740D01*
X157949243Y-125569043D01*
X158025986Y-125645786D01*
X158086289Y-125736036D01*
X158127824Y-125836310D01*
X158148998Y-125942761D01*
X158148998Y-126051301D01*
X158127824Y-126157752D01*
X158086289Y-126258026D01*
X158025986Y-126348276D01*
X157949243Y-126425019D01*
X157858993Y-126485322D01*
X157758719Y-126526857D01*
X157652268Y-126548031D01*
X157543728Y-126548031D01*
X157437277Y-126526857D01*
X157337003Y-126485322D01*
X157246753Y-126425019D01*
X157170010Y-126348276D01*
X157109707Y-126258026D01*
X157068172Y-126157752D01*
X157046998Y-126051301D01*
X157046998Y-125942761D01*
X157068172Y-125836310D01*
X157109707Y-125736036D01*
X157170010Y-125645786D01*
X157246753Y-125569043D01*
X157337003Y-125508740D01*
X157437277Y-125467205D01*
X157543728Y-125446031D01*
X157652268Y-125446031D01*
X157758719Y-125467205D01*
X157758719Y-125467205D01*
G37*
G36*
X151622691Y-124710635D02*
X151722965Y-124752170D01*
X151813215Y-124812473D01*
X151889958Y-124889216D01*
X151950261Y-124979466D01*
X151991796Y-125079740D01*
X152012970Y-125186191D01*
X152012970Y-125294731D01*
X151991796Y-125401182D01*
X151950261Y-125501456D01*
X151889958Y-125591706D01*
X151813215Y-125668449D01*
X151722965Y-125728752D01*
X151622691Y-125770287D01*
X151516240Y-125791461D01*
X151407700Y-125791461D01*
X151301249Y-125770287D01*
X151200975Y-125728752D01*
X151110725Y-125668449D01*
X151033982Y-125591706D01*
X150973679Y-125501456D01*
X150932144Y-125401182D01*
X150910970Y-125294731D01*
X150910970Y-125186191D01*
X150932144Y-125079740D01*
X150973679Y-124979466D01*
X151033982Y-124889216D01*
X151110725Y-124812473D01*
X151200975Y-124752170D01*
X151301249Y-124710635D01*
X151407700Y-124689461D01*
X151516240Y-124689461D01*
X151622691Y-124710635D01*
X151622691Y-124710635D01*
G37*
G36*
X156735721Y-124370174D02*
X156835995Y-124411709D01*
X156926245Y-124472012D01*
X157002988Y-124548755D01*
X157063291Y-124639005D01*
X157104826Y-124739279D01*
X157126000Y-124845730D01*
X157126000Y-124954270D01*
X157104826Y-125060721D01*
X157063291Y-125160995D01*
X157002988Y-125251245D01*
X156926245Y-125327988D01*
X156835995Y-125388291D01*
X156735721Y-125429826D01*
X156629270Y-125451000D01*
X156520730Y-125451000D01*
X156414279Y-125429826D01*
X156314005Y-125388291D01*
X156223755Y-125327988D01*
X156147012Y-125251245D01*
X156086709Y-125160995D01*
X156045174Y-125060721D01*
X156024000Y-124954270D01*
X156024000Y-124845730D01*
X156045174Y-124739279D01*
X156086709Y-124639005D01*
X156147012Y-124548755D01*
X156223755Y-124472012D01*
X156314005Y-124411709D01*
X156414279Y-124370174D01*
X156520730Y-124349000D01*
X156629270Y-124349000D01*
X156735721Y-124370174D01*
X156735721Y-124370174D01*
G37*
G36*
X151109661Y-123301096D02*
X151209935Y-123342631D01*
X151300185Y-123402934D01*
X151376928Y-123479677D01*
X151437231Y-123569927D01*
X151478766Y-123670201D01*
X151499940Y-123776652D01*
X151499940Y-123885192D01*
X151478766Y-123991643D01*
X151437231Y-124091917D01*
X151376928Y-124182167D01*
X151300185Y-124258910D01*
X151209935Y-124319213D01*
X151109661Y-124360748D01*
X151003210Y-124381922D01*
X150894670Y-124381922D01*
X150788219Y-124360748D01*
X150687945Y-124319213D01*
X150597695Y-124258910D01*
X150520952Y-124182167D01*
X150460649Y-124091917D01*
X150419114Y-123991643D01*
X150397940Y-123885192D01*
X150397940Y-123776652D01*
X150419114Y-123670201D01*
X150460649Y-123569927D01*
X150520952Y-123479677D01*
X150597695Y-123402934D01*
X150687945Y-123342631D01*
X150788219Y-123301096D01*
X150894670Y-123279922D01*
X151003210Y-123279922D01*
X151109661Y-123301096D01*
X151109661Y-123301096D01*
G37*
G36*
X155712723Y-123273143D02*
X155812997Y-123314678D01*
X155903247Y-123374981D01*
X155979990Y-123451724D01*
X156040293Y-123541974D01*
X156081828Y-123642248D01*
X156103002Y-123748699D01*
X156103002Y-123857239D01*
X156081828Y-123963690D01*
X156040293Y-124063964D01*
X155979990Y-124154214D01*
X155903247Y-124230957D01*
X155812997Y-124291260D01*
X155712723Y-124332795D01*
X155606272Y-124353969D01*
X155497732Y-124353969D01*
X155391281Y-124332795D01*
X155291007Y-124291260D01*
X155200757Y-124230957D01*
X155124014Y-124154214D01*
X155063711Y-124063964D01*
X155022176Y-123963690D01*
X155001002Y-123857239D01*
X155001002Y-123748699D01*
X155022176Y-123642248D01*
X155063711Y-123541974D01*
X155124014Y-123451724D01*
X155200757Y-123374981D01*
X155291007Y-123314678D01*
X155391281Y-123273143D01*
X155497732Y-123251969D01*
X155606272Y-123251969D01*
X155712723Y-123273143D01*
X155712723Y-123273143D01*
G37*
G36*
X154689726Y-122176113D02*
X154790000Y-122217648D01*
X154880250Y-122277951D01*
X154956993Y-122354694D01*
X155017296Y-122444944D01*
X155058831Y-122545218D01*
X155080005Y-122651669D01*
X155080005Y-122760209D01*
X155058831Y-122866660D01*
X155017296Y-122966934D01*
X154956993Y-123057184D01*
X154880250Y-123133927D01*
X154790000Y-123194230D01*
X154689726Y-123235765D01*
X154583275Y-123256939D01*
X154474735Y-123256939D01*
X154368284Y-123235765D01*
X154268010Y-123194230D01*
X154177760Y-123133927D01*
X154101017Y-123057184D01*
X154040714Y-122966934D01*
X153999179Y-122866660D01*
X153978005Y-122760209D01*
X153978005Y-122651669D01*
X153999179Y-122545218D01*
X154040714Y-122444944D01*
X154101017Y-122354694D01*
X154177760Y-122277951D01*
X154268010Y-122217648D01*
X154368284Y-122176113D01*
X154474735Y-122154939D01*
X154583275Y-122154939D01*
X154689726Y-122176113D01*
X154689726Y-122176113D01*
G37*
G36*
X160764499Y-121778445D02*
X160801993Y-121789819D01*
X160836557Y-121808294D01*
X160866847Y-121833153D01*
X160891706Y-121863443D01*
X160910181Y-121898007D01*
X160921555Y-121935501D01*
X160926000Y-121980638D01*
X160926000Y-122619362D01*
X160921555Y-122664499D01*
X160910181Y-122701993D01*
X160891706Y-122736557D01*
X160866847Y-122766847D01*
X160836557Y-122791706D01*
X160801993Y-122810181D01*
X160764499Y-122821555D01*
X160719362Y-122826000D01*
X159980638Y-122826000D01*
X159935501Y-122821555D01*
X159898007Y-122810181D01*
X159863443Y-122791706D01*
X159833153Y-122766847D01*
X159808294Y-122736557D01*
X159789819Y-122701993D01*
X159778445Y-122664499D01*
X159774000Y-122619362D01*
X159774000Y-121980638D01*
X159778445Y-121935501D01*
X159789819Y-121898007D01*
X159808294Y-121863443D01*
X159833153Y-121833153D01*
X159863443Y-121808294D01*
X159898007Y-121789819D01*
X159935501Y-121778445D01*
X159980638Y-121774000D01*
X160719362Y-121774000D01*
X160764499Y-121778445D01*
X160764499Y-121778445D01*
G37*
G36*
X159014499Y-121778445D02*
X159051993Y-121789819D01*
X159086557Y-121808294D01*
X159116847Y-121833153D01*
X159141706Y-121863443D01*
X159160181Y-121898007D01*
X159171555Y-121935501D01*
X159176000Y-121980638D01*
X159176000Y-122619362D01*
X159171555Y-122664499D01*
X159160181Y-122701993D01*
X159141706Y-122736557D01*
X159116847Y-122766847D01*
X159086557Y-122791706D01*
X159051993Y-122810181D01*
X159014499Y-122821555D01*
X158969362Y-122826000D01*
X158230638Y-122826000D01*
X158185501Y-122821555D01*
X158148007Y-122810181D01*
X158113443Y-122791706D01*
X158083153Y-122766847D01*
X158058294Y-122736557D01*
X158039819Y-122701993D01*
X158028445Y-122664499D01*
X158024000Y-122619362D01*
X158024000Y-121980638D01*
X158028445Y-121935501D01*
X158039819Y-121898007D01*
X158058294Y-121863443D01*
X158083153Y-121833153D01*
X158113443Y-121808294D01*
X158148007Y-121789819D01*
X158185501Y-121778445D01*
X158230638Y-121774000D01*
X158969362Y-121774000D01*
X159014499Y-121778445D01*
X159014499Y-121778445D01*
G37*
G36*
X160789499Y-120178445D02*
X160826993Y-120189819D01*
X160861557Y-120208294D01*
X160891847Y-120233153D01*
X160916706Y-120263443D01*
X160935181Y-120298007D01*
X160946555Y-120335501D01*
X160951000Y-120380638D01*
X160951000Y-121019362D01*
X160946555Y-121064499D01*
X160935181Y-121101993D01*
X160916706Y-121136557D01*
X160891847Y-121166847D01*
X160861557Y-121191706D01*
X160826993Y-121210181D01*
X160789499Y-121221555D01*
X160744362Y-121226000D01*
X160005638Y-121226000D01*
X159960501Y-121221555D01*
X159923007Y-121210181D01*
X159888443Y-121191706D01*
X159858153Y-121166847D01*
X159833294Y-121136557D01*
X159814819Y-121101993D01*
X159803445Y-121064499D01*
X159799000Y-121019362D01*
X159799000Y-120380638D01*
X159803445Y-120335501D01*
X159814819Y-120298007D01*
X159833294Y-120263443D01*
X159858153Y-120233153D01*
X159888443Y-120208294D01*
X159923007Y-120189819D01*
X159960501Y-120178445D01*
X160005638Y-120174000D01*
X160744362Y-120174000D01*
X160789499Y-120178445D01*
X160789499Y-120178445D01*
G37*
G36*
X159039499Y-120178445D02*
X159076993Y-120189819D01*
X159111557Y-120208294D01*
X159141847Y-120233153D01*
X159166706Y-120263443D01*
X159185181Y-120298007D01*
X159196555Y-120335501D01*
X159201000Y-120380638D01*
X159201000Y-121019362D01*
X159196555Y-121064499D01*
X159185181Y-121101993D01*
X159166706Y-121136557D01*
X159141847Y-121166847D01*
X159111557Y-121191706D01*
X159076993Y-121210181D01*
X159039499Y-121221555D01*
X158994362Y-121226000D01*
X158255638Y-121226000D01*
X158210501Y-121221555D01*
X158173007Y-121210181D01*
X158138443Y-121191706D01*
X158108153Y-121166847D01*
X158083294Y-121136557D01*
X158064819Y-121101993D01*
X158053445Y-121064499D01*
X158049000Y-121019362D01*
X158049000Y-120380638D01*
X158053445Y-120335501D01*
X158064819Y-120298007D01*
X158083294Y-120263443D01*
X158108153Y-120233153D01*
X158138443Y-120208294D01*
X158173007Y-120189819D01*
X158210501Y-120178445D01*
X158255638Y-120174000D01*
X158994362Y-120174000D01*
X159039499Y-120178445D01*
X159039499Y-120178445D01*
G37*
G36*
X120789499Y-116328445D02*
X120826993Y-116339819D01*
X120861557Y-116358294D01*
X120891847Y-116383153D01*
X120916706Y-116413443D01*
X120935181Y-116448007D01*
X120946555Y-116485501D01*
X120951000Y-116530638D01*
X120951000Y-117169362D01*
X120946555Y-117214499D01*
X120935181Y-117251993D01*
X120916706Y-117286557D01*
X120891847Y-117316847D01*
X120861557Y-117341706D01*
X120826993Y-117360181D01*
X120789499Y-117371555D01*
X120744362Y-117376000D01*
X120005638Y-117376000D01*
X119960501Y-117371555D01*
X119923007Y-117360181D01*
X119888443Y-117341706D01*
X119858153Y-117316847D01*
X119833294Y-117286557D01*
X119814819Y-117251993D01*
X119803445Y-117214499D01*
X119799000Y-117169362D01*
X119799000Y-116530638D01*
X119803445Y-116485501D01*
X119814819Y-116448007D01*
X119833294Y-116413443D01*
X119858153Y-116383153D01*
X119888443Y-116358294D01*
X119923007Y-116339819D01*
X119960501Y-116328445D01*
X120005638Y-116324000D01*
X120744362Y-116324000D01*
X120789499Y-116328445D01*
X120789499Y-116328445D01*
G37*
G36*
X122539499Y-116328445D02*
X122576993Y-116339819D01*
X122611557Y-116358294D01*
X122641847Y-116383153D01*
X122666706Y-116413443D01*
X122685181Y-116448007D01*
X122696555Y-116485501D01*
X122701000Y-116530638D01*
X122701000Y-117169362D01*
X122696555Y-117214499D01*
X122685181Y-117251993D01*
X122666706Y-117286557D01*
X122641847Y-117316847D01*
X122611557Y-117341706D01*
X122576993Y-117360181D01*
X122539499Y-117371555D01*
X122494362Y-117376000D01*
X121755638Y-117376000D01*
X121710501Y-117371555D01*
X121673007Y-117360181D01*
X121638443Y-117341706D01*
X121608153Y-117316847D01*
X121583294Y-117286557D01*
X121564819Y-117251993D01*
X121553445Y-117214499D01*
X121549000Y-117169362D01*
X121549000Y-116530638D01*
X121553445Y-116485501D01*
X121564819Y-116448007D01*
X121583294Y-116413443D01*
X121608153Y-116383153D01*
X121638443Y-116358294D01*
X121673007Y-116339819D01*
X121710501Y-116328445D01*
X121755638Y-116324000D01*
X122494362Y-116324000D01*
X122539499Y-116328445D01*
X122539499Y-116328445D01*
G37*
G36*
X122489499Y-114528445D02*
X122526993Y-114539819D01*
X122561557Y-114558294D01*
X122591847Y-114583153D01*
X122616706Y-114613443D01*
X122635181Y-114648007D01*
X122646555Y-114685501D01*
X122651000Y-114730638D01*
X122651000Y-115369362D01*
X122646555Y-115414499D01*
X122635181Y-115451993D01*
X122616706Y-115486557D01*
X122591847Y-115516847D01*
X122561557Y-115541706D01*
X122526993Y-115560181D01*
X122489499Y-115571555D01*
X122444362Y-115576000D01*
X121705638Y-115576000D01*
X121660501Y-115571555D01*
X121623007Y-115560181D01*
X121588443Y-115541706D01*
X121558153Y-115516847D01*
X121533294Y-115486557D01*
X121514819Y-115451993D01*
X121503445Y-115414499D01*
X121499000Y-115369362D01*
X121499000Y-114730638D01*
X121503445Y-114685501D01*
X121514819Y-114648007D01*
X121533294Y-114613443D01*
X121558153Y-114583153D01*
X121588443Y-114558294D01*
X121623007Y-114539819D01*
X121660501Y-114528445D01*
X121705638Y-114524000D01*
X122444362Y-114524000D01*
X122489499Y-114528445D01*
X122489499Y-114528445D01*
G37*
G36*
X120739499Y-114528445D02*
X120776993Y-114539819D01*
X120811557Y-114558294D01*
X120841847Y-114583153D01*
X120866706Y-114613443D01*
X120885181Y-114648007D01*
X120896555Y-114685501D01*
X120901000Y-114730638D01*
X120901000Y-115369362D01*
X120896555Y-115414499D01*
X120885181Y-115451993D01*
X120866706Y-115486557D01*
X120841847Y-115516847D01*
X120811557Y-115541706D01*
X120776993Y-115560181D01*
X120739499Y-115571555D01*
X120694362Y-115576000D01*
X119955638Y-115576000D01*
X119910501Y-115571555D01*
X119873007Y-115560181D01*
X119838443Y-115541706D01*
X119808153Y-115516847D01*
X119783294Y-115486557D01*
X119764819Y-115451993D01*
X119753445Y-115414499D01*
X119749000Y-115369362D01*
X119749000Y-114730638D01*
X119753445Y-114685501D01*
X119764819Y-114648007D01*
X119783294Y-114613443D01*
X119808153Y-114583153D01*
X119838443Y-114558294D01*
X119873007Y-114539819D01*
X119910501Y-114528445D01*
X119955638Y-114524000D01*
X120694362Y-114524000D01*
X120739499Y-114528445D01*
X120739499Y-114528445D01*
G37*
G36*
X111426804Y-104536186D02*
X111527078Y-104577721D01*
X111617328Y-104638024D01*
X111694071Y-104714767D01*
X111754374Y-104805017D01*
X111795909Y-104905291D01*
X111817083Y-105011742D01*
X111817083Y-105120282D01*
X111795909Y-105226733D01*
X111754374Y-105327007D01*
X111694071Y-105417257D01*
X111617328Y-105494000D01*
X111527078Y-105554303D01*
X111426804Y-105595838D01*
X111320353Y-105617012D01*
X111211813Y-105617012D01*
X111105362Y-105595838D01*
X111005088Y-105554303D01*
X110914838Y-105494000D01*
X110838095Y-105417257D01*
X110777792Y-105327007D01*
X110736257Y-105226733D01*
X110715083Y-105120282D01*
X110715083Y-105011742D01*
X110736257Y-104905291D01*
X110777792Y-104805017D01*
X110838095Y-104714767D01*
X110914838Y-104638024D01*
X111005088Y-104577721D01*
X111105362Y-104536186D01*
X111211813Y-104515012D01*
X111320353Y-104515012D01*
X111426804Y-104536186D01*
X111426804Y-104536186D01*
G37*
G36*
X183852306Y-103519017D02*
X183952580Y-103560552D01*
X184042830Y-103620855D01*
X184119573Y-103697598D01*
X184179876Y-103787848D01*
X184221411Y-103888122D01*
X184242585Y-103994573D01*
X184242585Y-104103113D01*
X184221411Y-104209564D01*
X184179876Y-104309838D01*
X184119573Y-104400088D01*
X184042830Y-104476831D01*
X183952580Y-104537134D01*
X183852306Y-104578669D01*
X183745855Y-104599843D01*
X183637315Y-104599843D01*
X183530864Y-104578669D01*
X183430590Y-104537134D01*
X183340340Y-104476831D01*
X183263597Y-104400088D01*
X183203294Y-104309838D01*
X183161759Y-104209564D01*
X183140585Y-104103113D01*
X183140585Y-103994573D01*
X183161759Y-103888122D01*
X183203294Y-103787848D01*
X183263597Y-103697598D01*
X183340340Y-103620855D01*
X183430590Y-103560552D01*
X183530864Y-103519017D01*
X183637315Y-103497843D01*
X183745855Y-103497843D01*
X183852306Y-103519017D01*
X183852306Y-103519017D01*
G37*
G36*
X112243762Y-103278180D02*
X112344036Y-103319715D01*
X112434286Y-103380018D01*
X112511029Y-103456761D01*
X112571332Y-103547011D01*
X112612867Y-103647285D01*
X112634041Y-103753736D01*
X112634041Y-103862276D01*
X112612867Y-103968727D01*
X112571332Y-104069001D01*
X112511029Y-104159251D01*
X112434286Y-104235994D01*
X112344036Y-104296297D01*
X112243762Y-104337832D01*
X112137311Y-104359006D01*
X112028771Y-104359006D01*
X111922320Y-104337832D01*
X111822046Y-104296297D01*
X111731796Y-104235994D01*
X111655053Y-104159251D01*
X111594750Y-104069001D01*
X111553215Y-103968727D01*
X111532041Y-103862276D01*
X111532041Y-103753736D01*
X111553215Y-103647285D01*
X111594750Y-103547011D01*
X111655053Y-103456761D01*
X111731796Y-103380018D01*
X111822046Y-103319715D01*
X111922320Y-103278180D01*
X112028771Y-103257006D01*
X112137311Y-103257006D01*
X112243762Y-103278180D01*
X112243762Y-103278180D01*
G37*
G36*
X184556514Y-102194595D02*
X184656788Y-102236130D01*
X184747038Y-102296433D01*
X184823781Y-102373176D01*
X184884084Y-102463426D01*
X184925619Y-102563700D01*
X184946793Y-102670151D01*
X184946793Y-102778691D01*
X184925619Y-102885142D01*
X184884084Y-102985416D01*
X184823781Y-103075666D01*
X184747038Y-103152409D01*
X184656788Y-103212712D01*
X184556514Y-103254247D01*
X184450063Y-103275421D01*
X184341523Y-103275421D01*
X184235072Y-103254247D01*
X184134798Y-103212712D01*
X184044548Y-103152409D01*
X183967805Y-103075666D01*
X183907502Y-102985416D01*
X183865967Y-102885142D01*
X183844793Y-102778691D01*
X183844793Y-102670151D01*
X183865967Y-102563700D01*
X183907502Y-102463426D01*
X183967805Y-102373176D01*
X184044548Y-102296433D01*
X184134798Y-102236130D01*
X184235072Y-102194595D01*
X184341523Y-102173421D01*
X184450063Y-102173421D01*
X184556514Y-102194595D01*
X184556514Y-102194595D01*
G37*
G36*
X113060721Y-102020174D02*
X113160995Y-102061709D01*
X113251245Y-102122012D01*
X113327988Y-102198755D01*
X113388291Y-102289005D01*
X113429826Y-102389279D01*
X113451000Y-102495730D01*
X113451000Y-102604270D01*
X113429826Y-102710721D01*
X113388291Y-102810995D01*
X113327988Y-102901245D01*
X113251245Y-102977988D01*
X113160995Y-103038291D01*
X113060721Y-103079826D01*
X112954270Y-103101000D01*
X112845730Y-103101000D01*
X112739279Y-103079826D01*
X112639005Y-103038291D01*
X112548755Y-102977988D01*
X112472012Y-102901245D01*
X112411709Y-102810995D01*
X112370174Y-102710721D01*
X112349000Y-102604270D01*
X112349000Y-102495730D01*
X112370174Y-102389279D01*
X112411709Y-102289005D01*
X112472012Y-102198755D01*
X112548755Y-102122012D01*
X112639005Y-102061709D01*
X112739279Y-102020174D01*
X112845730Y-101999000D01*
X112954270Y-101999000D01*
X113060721Y-102020174D01*
X113060721Y-102020174D01*
G37*
G36*
X149303576Y-101314097D02*
X149403850Y-101355632D01*
X149494100Y-101415935D01*
X149570843Y-101492678D01*
X149631146Y-101582928D01*
X149672681Y-101683202D01*
X149693855Y-101789653D01*
X149693855Y-101898193D01*
X149672681Y-102004644D01*
X149631146Y-102104918D01*
X149570843Y-102195168D01*
X149494100Y-102271911D01*
X149403850Y-102332214D01*
X149303576Y-102373749D01*
X149197125Y-102394923D01*
X149088585Y-102394923D01*
X148982134Y-102373749D01*
X148881860Y-102332214D01*
X148791610Y-102271911D01*
X148714867Y-102195168D01*
X148654564Y-102104918D01*
X148613029Y-102004644D01*
X148591855Y-101898193D01*
X148591855Y-101789653D01*
X148613029Y-101683202D01*
X148654564Y-101582928D01*
X148714867Y-101492678D01*
X148791610Y-101415935D01*
X148881860Y-101355632D01*
X148982134Y-101314097D01*
X149088585Y-101292923D01*
X149197125Y-101292923D01*
X149303576Y-101314097D01*
X149303576Y-101314097D01*
G37*
G36*
X185260721Y-100870174D02*
X185360995Y-100911709D01*
X185451245Y-100972012D01*
X185527988Y-101048755D01*
X185588291Y-101139005D01*
X185629826Y-101239279D01*
X185651000Y-101345730D01*
X185651000Y-101454270D01*
X185629826Y-101560721D01*
X185588291Y-101660995D01*
X185527988Y-101751245D01*
X185451245Y-101827988D01*
X185360995Y-101888291D01*
X185260721Y-101929826D01*
X185154270Y-101951000D01*
X185045730Y-101951000D01*
X184939279Y-101929826D01*
X184839005Y-101888291D01*
X184748755Y-101827988D01*
X184672012Y-101751245D01*
X184611709Y-101660995D01*
X184570174Y-101560721D01*
X184549000Y-101454270D01*
X184549000Y-101345730D01*
X184570174Y-101239279D01*
X184611709Y-101139005D01*
X184672012Y-101048755D01*
X184748755Y-100972012D01*
X184839005Y-100911709D01*
X184939279Y-100870174D01*
X185045730Y-100849000D01*
X185154270Y-100849000D01*
X185260721Y-100870174D01*
X185260721Y-100870174D01*
G37*
G36*
X113877680Y-100762168D02*
X113977954Y-100803703D01*
X114068204Y-100864006D01*
X114144947Y-100940749D01*
X114205250Y-101030999D01*
X114246785Y-101131273D01*
X114267959Y-101237724D01*
X114267959Y-101346264D01*
X114246785Y-101452715D01*
X114205250Y-101552989D01*
X114144947Y-101643239D01*
X114068204Y-101719982D01*
X113977954Y-101780285D01*
X113877680Y-101821820D01*
X113771229Y-101842994D01*
X113662689Y-101842994D01*
X113556238Y-101821820D01*
X113455964Y-101780285D01*
X113365714Y-101719982D01*
X113288971Y-101643239D01*
X113228668Y-101552989D01*
X113187133Y-101452715D01*
X113165959Y-101346264D01*
X113165959Y-101237724D01*
X113187133Y-101131273D01*
X113228668Y-101030999D01*
X113288971Y-100940749D01*
X113365714Y-100864006D01*
X113455964Y-100803703D01*
X113556238Y-100762168D01*
X113662689Y-100740994D01*
X113771229Y-100740994D01*
X113877680Y-100762168D01*
X113877680Y-100762168D01*
G37*
G36*
X148669648Y-99954636D02*
X148769922Y-99996171D01*
X148860172Y-100056474D01*
X148936915Y-100133217D01*
X148997218Y-100223467D01*
X149038753Y-100323741D01*
X149059927Y-100430192D01*
X149059927Y-100538732D01*
X149038753Y-100645183D01*
X148997218Y-100745457D01*
X148936915Y-100835707D01*
X148860172Y-100912450D01*
X148769922Y-100972753D01*
X148669648Y-101014288D01*
X148563197Y-101035462D01*
X148454657Y-101035462D01*
X148348206Y-101014288D01*
X148247932Y-100972753D01*
X148157682Y-100912450D01*
X148080939Y-100835707D01*
X148020636Y-100745457D01*
X147979101Y-100645183D01*
X147957927Y-100538732D01*
X147957927Y-100430192D01*
X147979101Y-100323741D01*
X148020636Y-100223467D01*
X148080939Y-100133217D01*
X148157682Y-100056474D01*
X148247932Y-99996171D01*
X148348206Y-99954636D01*
X148454657Y-99933462D01*
X148563197Y-99933462D01*
X148669648Y-99954636D01*
X148669648Y-99954636D01*
G37*
G36*
X151869136Y-99844017D02*
X151969410Y-99885552D01*
X152059660Y-99945855D01*
X152136403Y-100022598D01*
X152196706Y-100112848D01*
X152238241Y-100213122D01*
X152259415Y-100319573D01*
X152259415Y-100428113D01*
X152238241Y-100534564D01*
X152196706Y-100634838D01*
X152136403Y-100725088D01*
X152059660Y-100801831D01*
X151969410Y-100862134D01*
X151869136Y-100903669D01*
X151762685Y-100924843D01*
X151654145Y-100924843D01*
X151547694Y-100903669D01*
X151447420Y-100862134D01*
X151357170Y-100801831D01*
X151280427Y-100725088D01*
X151220124Y-100634838D01*
X151178589Y-100534564D01*
X151157415Y-100428113D01*
X151157415Y-100319573D01*
X151178589Y-100213122D01*
X151220124Y-100112848D01*
X151280427Y-100022598D01*
X151357170Y-99945855D01*
X151447420Y-99885552D01*
X151547694Y-99844017D01*
X151654145Y-99822843D01*
X151762685Y-99822843D01*
X151869136Y-99844017D01*
X151869136Y-99844017D01*
G37*
G36*
X185964928Y-99545753D02*
X186065202Y-99587288D01*
X186155452Y-99647591D01*
X186232195Y-99724334D01*
X186292498Y-99814584D01*
X186334033Y-99914858D01*
X186355207Y-100021309D01*
X186355207Y-100129849D01*
X186334033Y-100236300D01*
X186292498Y-100336574D01*
X186232195Y-100426824D01*
X186155452Y-100503567D01*
X186065202Y-100563870D01*
X185964928Y-100605405D01*
X185858477Y-100626579D01*
X185749937Y-100626579D01*
X185643486Y-100605405D01*
X185543212Y-100563870D01*
X185452962Y-100503567D01*
X185376219Y-100426824D01*
X185315916Y-100336574D01*
X185274381Y-100236300D01*
X185253207Y-100129849D01*
X185253207Y-100021309D01*
X185274381Y-99914858D01*
X185315916Y-99814584D01*
X185376219Y-99724334D01*
X185452962Y-99647591D01*
X185543212Y-99587288D01*
X185643486Y-99545753D01*
X185749937Y-99524579D01*
X185858477Y-99524579D01*
X185964928Y-99545753D01*
X185964928Y-99545753D01*
G37*
G36*
X114694638Y-99504162D02*
X114794912Y-99545697D01*
X114885162Y-99606000D01*
X114961905Y-99682743D01*
X115022208Y-99772993D01*
X115063743Y-99873267D01*
X115084917Y-99979718D01*
X115084917Y-100088258D01*
X115063743Y-100194709D01*
X115022208Y-100294983D01*
X114961905Y-100385233D01*
X114885162Y-100461976D01*
X114794912Y-100522279D01*
X114694638Y-100563814D01*
X114588187Y-100584988D01*
X114479647Y-100584988D01*
X114373196Y-100563814D01*
X114272922Y-100522279D01*
X114182672Y-100461976D01*
X114105929Y-100385233D01*
X114045626Y-100294983D01*
X114004091Y-100194709D01*
X113982917Y-100088258D01*
X113982917Y-99979718D01*
X114004091Y-99873267D01*
X114045626Y-99772993D01*
X114105929Y-99682743D01*
X114182672Y-99606000D01*
X114272922Y-99545697D01*
X114373196Y-99504162D01*
X114479647Y-99482988D01*
X114588187Y-99482988D01*
X114694638Y-99504162D01*
X114694638Y-99504162D01*
G37*
G36*
X148035721Y-98595174D02*
X148135995Y-98636709D01*
X148226245Y-98697012D01*
X148302988Y-98773755D01*
X148363291Y-98864005D01*
X148404826Y-98964279D01*
X148426000Y-99070730D01*
X148426000Y-99179270D01*
X148404826Y-99285721D01*
X148363291Y-99385995D01*
X148302988Y-99476245D01*
X148226245Y-99552988D01*
X148135995Y-99613291D01*
X148035721Y-99654826D01*
X147929270Y-99676000D01*
X147820730Y-99676000D01*
X147714279Y-99654826D01*
X147614005Y-99613291D01*
X147523755Y-99552988D01*
X147447012Y-99476245D01*
X147386709Y-99385995D01*
X147345174Y-99285721D01*
X147324000Y-99179270D01*
X147324000Y-99070730D01*
X147345174Y-98964279D01*
X147386709Y-98864005D01*
X147447012Y-98773755D01*
X147523755Y-98697012D01*
X147614005Y-98636709D01*
X147714279Y-98595174D01*
X147820730Y-98574000D01*
X147929270Y-98574000D01*
X148035721Y-98595174D01*
X148035721Y-98595174D01*
G37*
G36*
X151164928Y-98519595D02*
X151265202Y-98561130D01*
X151355452Y-98621433D01*
X151432195Y-98698176D01*
X151492498Y-98788426D01*
X151534033Y-98888700D01*
X151555207Y-98995151D01*
X151555207Y-99103691D01*
X151534033Y-99210142D01*
X151492498Y-99310416D01*
X151432195Y-99400666D01*
X151355452Y-99477409D01*
X151265202Y-99537712D01*
X151164928Y-99579247D01*
X151058477Y-99600421D01*
X150949937Y-99600421D01*
X150843486Y-99579247D01*
X150743212Y-99537712D01*
X150652962Y-99477409D01*
X150576219Y-99400666D01*
X150515916Y-99310416D01*
X150474381Y-99210142D01*
X150453207Y-99103691D01*
X150453207Y-98995151D01*
X150474381Y-98888700D01*
X150515916Y-98788426D01*
X150576219Y-98698176D01*
X150652962Y-98621433D01*
X150743212Y-98561130D01*
X150843486Y-98519595D01*
X150949937Y-98498421D01*
X151058477Y-98498421D01*
X151164928Y-98519595D01*
X151164928Y-98519595D01*
G37*
G36*
X186669136Y-98221331D02*
X186769410Y-98262866D01*
X186859660Y-98323169D01*
X186936403Y-98399912D01*
X186996706Y-98490162D01*
X187038241Y-98590436D01*
X187059415Y-98696887D01*
X187059415Y-98805427D01*
X187038241Y-98911878D01*
X186996706Y-99012152D01*
X186936403Y-99102402D01*
X186859660Y-99179145D01*
X186769410Y-99239448D01*
X186669136Y-99280983D01*
X186562685Y-99302157D01*
X186454145Y-99302157D01*
X186347694Y-99280983D01*
X186247420Y-99239448D01*
X186157170Y-99179145D01*
X186080427Y-99102402D01*
X186020124Y-99012152D01*
X185978589Y-98911878D01*
X185957415Y-98805427D01*
X185957415Y-98696887D01*
X185978589Y-98590436D01*
X186020124Y-98490162D01*
X186080427Y-98399912D01*
X186157170Y-98323169D01*
X186247420Y-98262866D01*
X186347694Y-98221331D01*
X186454145Y-98200157D01*
X186562685Y-98200157D01*
X186669136Y-98221331D01*
X186669136Y-98221331D01*
G37*
G36*
X141464499Y-97353445D02*
X141501993Y-97364819D01*
X141536557Y-97383294D01*
X141566847Y-97408153D01*
X141591706Y-97438443D01*
X141610181Y-97473007D01*
X141621555Y-97510501D01*
X141626000Y-97555638D01*
X141626000Y-98194362D01*
X141621555Y-98239499D01*
X141610181Y-98276993D01*
X141591706Y-98311557D01*
X141566847Y-98341847D01*
X141536557Y-98366706D01*
X141501993Y-98385181D01*
X141464499Y-98396555D01*
X141419362Y-98401000D01*
X140680638Y-98401000D01*
X140635501Y-98396555D01*
X140598007Y-98385181D01*
X140563443Y-98366706D01*
X140533153Y-98341847D01*
X140508294Y-98311557D01*
X140489819Y-98276993D01*
X140478445Y-98239499D01*
X140474000Y-98194362D01*
X140474000Y-97555638D01*
X140478445Y-97510501D01*
X140489819Y-97473007D01*
X140508294Y-97438443D01*
X140533153Y-97408153D01*
X140563443Y-97383294D01*
X140598007Y-97364819D01*
X140635501Y-97353445D01*
X140680638Y-97349000D01*
X141419362Y-97349000D01*
X141464499Y-97353445D01*
X141464499Y-97353445D01*
G37*
G36*
X139714499Y-97353445D02*
X139751993Y-97364819D01*
X139786557Y-97383294D01*
X139816847Y-97408153D01*
X139841706Y-97438443D01*
X139860181Y-97473007D01*
X139871555Y-97510501D01*
X139876000Y-97555638D01*
X139876000Y-98194362D01*
X139871555Y-98239499D01*
X139860181Y-98276993D01*
X139841706Y-98311557D01*
X139816847Y-98341847D01*
X139786557Y-98366706D01*
X139751993Y-98385181D01*
X139714499Y-98396555D01*
X139669362Y-98401000D01*
X138930638Y-98401000D01*
X138885501Y-98396555D01*
X138848007Y-98385181D01*
X138813443Y-98366706D01*
X138783153Y-98341847D01*
X138758294Y-98311557D01*
X138739819Y-98276993D01*
X138728445Y-98239499D01*
X138724000Y-98194362D01*
X138724000Y-97555638D01*
X138728445Y-97510501D01*
X138739819Y-97473007D01*
X138758294Y-97438443D01*
X138783153Y-97408153D01*
X138813443Y-97383294D01*
X138848007Y-97364819D01*
X138885501Y-97353445D01*
X138930638Y-97349000D01*
X139669362Y-97349000D01*
X139714499Y-97353445D01*
X139714499Y-97353445D01*
G37*
G36*
X147401794Y-97235712D02*
X147502068Y-97277247D01*
X147592318Y-97337550D01*
X147669061Y-97414293D01*
X147729364Y-97504543D01*
X147770899Y-97604817D01*
X147792073Y-97711268D01*
X147792073Y-97819808D01*
X147770899Y-97926259D01*
X147729364Y-98026533D01*
X147669061Y-98116783D01*
X147592318Y-98193526D01*
X147502068Y-98253829D01*
X147401794Y-98295364D01*
X147295343Y-98316538D01*
X147186803Y-98316538D01*
X147080352Y-98295364D01*
X146980078Y-98253829D01*
X146889828Y-98193526D01*
X146813085Y-98116783D01*
X146752782Y-98026533D01*
X146711247Y-97926259D01*
X146690073Y-97819808D01*
X146690073Y-97711268D01*
X146711247Y-97604817D01*
X146752782Y-97504543D01*
X146813085Y-97414293D01*
X146889828Y-97337550D01*
X146980078Y-97277247D01*
X147080352Y-97235712D01*
X147186803Y-97214538D01*
X147295343Y-97214538D01*
X147401794Y-97235712D01*
X147401794Y-97235712D01*
G37*
G36*
X150460721Y-97195174D02*
X150560995Y-97236709D01*
X150651245Y-97297012D01*
X150727988Y-97373755D01*
X150788291Y-97464005D01*
X150829826Y-97564279D01*
X150851000Y-97670730D01*
X150851000Y-97779270D01*
X150829826Y-97885721D01*
X150788291Y-97985995D01*
X150727988Y-98076245D01*
X150651245Y-98152988D01*
X150560995Y-98213291D01*
X150460721Y-98254826D01*
X150354270Y-98276000D01*
X150245730Y-98276000D01*
X150139279Y-98254826D01*
X150039005Y-98213291D01*
X149948755Y-98152988D01*
X149872012Y-98076245D01*
X149811709Y-97985995D01*
X149770174Y-97885721D01*
X149749000Y-97779270D01*
X149749000Y-97670730D01*
X149770174Y-97564279D01*
X149811709Y-97464005D01*
X149872012Y-97373755D01*
X149948755Y-97297012D01*
X150039005Y-97236709D01*
X150139279Y-97195174D01*
X150245730Y-97174000D01*
X150354270Y-97174000D01*
X150460721Y-97195174D01*
X150460721Y-97195174D01*
G37*
G36*
X146767866Y-95876251D02*
X146868140Y-95917786D01*
X146958390Y-95978089D01*
X147035133Y-96054832D01*
X147095436Y-96145082D01*
X147136971Y-96245356D01*
X147158145Y-96351807D01*
X147158145Y-96460347D01*
X147136971Y-96566798D01*
X147095436Y-96667072D01*
X147035133Y-96757322D01*
X146958390Y-96834065D01*
X146868140Y-96894368D01*
X146767866Y-96935903D01*
X146661415Y-96957077D01*
X146552875Y-96957077D01*
X146446424Y-96935903D01*
X146346150Y-96894368D01*
X146255900Y-96834065D01*
X146179157Y-96757322D01*
X146118854Y-96667072D01*
X146077319Y-96566798D01*
X146056145Y-96460347D01*
X146056145Y-96351807D01*
X146077319Y-96245356D01*
X146118854Y-96145082D01*
X146179157Y-96054832D01*
X146255900Y-95978089D01*
X146346150Y-95917786D01*
X146446424Y-95876251D01*
X146552875Y-95855077D01*
X146661415Y-95855077D01*
X146767866Y-95876251D01*
X146767866Y-95876251D01*
G37*
G36*
X149756514Y-95870753D02*
X149856788Y-95912288D01*
X149947038Y-95972591D01*
X150023781Y-96049334D01*
X150084084Y-96139584D01*
X150125619Y-96239858D01*
X150146793Y-96346309D01*
X150146793Y-96454849D01*
X150125619Y-96561300D01*
X150084084Y-96661574D01*
X150023781Y-96751824D01*
X149947038Y-96828567D01*
X149856788Y-96888870D01*
X149756514Y-96930405D01*
X149650063Y-96951579D01*
X149541523Y-96951579D01*
X149435072Y-96930405D01*
X149334798Y-96888870D01*
X149244548Y-96828567D01*
X149167805Y-96751824D01*
X149107502Y-96661574D01*
X149065967Y-96561300D01*
X149044793Y-96454849D01*
X149044793Y-96346309D01*
X149065967Y-96239858D01*
X149107502Y-96139584D01*
X149167805Y-96049334D01*
X149244548Y-95972591D01*
X149334798Y-95912288D01*
X149435072Y-95870753D01*
X149541523Y-95849579D01*
X149650063Y-95849579D01*
X149756514Y-95870753D01*
X149756514Y-95870753D01*
G37*
G36*
X141464499Y-95653445D02*
X141501993Y-95664819D01*
X141536557Y-95683294D01*
X141566847Y-95708153D01*
X141591706Y-95738443D01*
X141610181Y-95773007D01*
X141621555Y-95810501D01*
X141626000Y-95855638D01*
X141626000Y-96494362D01*
X141621555Y-96539499D01*
X141610181Y-96576993D01*
X141591706Y-96611557D01*
X141566847Y-96641847D01*
X141536557Y-96666706D01*
X141501993Y-96685181D01*
X141464499Y-96696555D01*
X141419362Y-96701000D01*
X140680638Y-96701000D01*
X140635501Y-96696555D01*
X140598007Y-96685181D01*
X140563443Y-96666706D01*
X140533153Y-96641847D01*
X140508294Y-96611557D01*
X140489819Y-96576993D01*
X140478445Y-96539499D01*
X140474000Y-96494362D01*
X140474000Y-95855638D01*
X140478445Y-95810501D01*
X140489819Y-95773007D01*
X140508294Y-95738443D01*
X140533153Y-95708153D01*
X140563443Y-95683294D01*
X140598007Y-95664819D01*
X140635501Y-95653445D01*
X140680638Y-95649000D01*
X141419362Y-95649000D01*
X141464499Y-95653445D01*
X141464499Y-95653445D01*
G37*
G36*
X139714499Y-95653445D02*
X139751993Y-95664819D01*
X139786557Y-95683294D01*
X139816847Y-95708153D01*
X139841706Y-95738443D01*
X139860181Y-95773007D01*
X139871555Y-95810501D01*
X139876000Y-95855638D01*
X139876000Y-96494362D01*
X139871555Y-96539499D01*
X139860181Y-96576993D01*
X139841706Y-96611557D01*
X139816847Y-96641847D01*
X139786557Y-96666706D01*
X139751993Y-96685181D01*
X139714499Y-96696555D01*
X139669362Y-96701000D01*
X138930638Y-96701000D01*
X138885501Y-96696555D01*
X138848007Y-96685181D01*
X138813443Y-96666706D01*
X138783153Y-96641847D01*
X138758294Y-96611557D01*
X138739819Y-96576993D01*
X138728445Y-96539499D01*
X138724000Y-96494362D01*
X138724000Y-95855638D01*
X138728445Y-95810501D01*
X138739819Y-95773007D01*
X138758294Y-95738443D01*
X138783153Y-95708153D01*
X138813443Y-95683294D01*
X138848007Y-95664819D01*
X138885501Y-95653445D01*
X138930638Y-95649000D01*
X139669362Y-95649000D01*
X139714499Y-95653445D01*
X139714499Y-95653445D01*
G37*
G36*
X149052306Y-94546331D02*
X149152580Y-94587866D01*
X149242830Y-94648169D01*
X149319573Y-94724912D01*
X149379876Y-94815162D01*
X149421411Y-94915436D01*
X149442585Y-95021887D01*
X149442585Y-95130427D01*
X149421411Y-95236878D01*
X149379876Y-95337152D01*
X149319573Y-95427402D01*
X149242830Y-95504145D01*
X149152580Y-95564448D01*
X149052306Y-95605983D01*
X148945855Y-95627157D01*
X148837315Y-95627157D01*
X148730864Y-95605983D01*
X148630590Y-95564448D01*
X148540340Y-95504145D01*
X148463597Y-95427402D01*
X148403294Y-95337152D01*
X148361759Y-95236878D01*
X148340585Y-95130427D01*
X148340585Y-95021887D01*
X148361759Y-94915436D01*
X148403294Y-94815162D01*
X148463597Y-94724912D01*
X148540340Y-94648169D01*
X148630590Y-94587866D01*
X148730864Y-94546331D01*
X148837315Y-94525157D01*
X148945855Y-94525157D01*
X149052306Y-94546331D01*
X149052306Y-94546331D01*
G37*
G36*
X184939499Y-92178445D02*
X184976993Y-92189819D01*
X185011557Y-92208294D01*
X185041847Y-92233153D01*
X185066706Y-92263443D01*
X185085181Y-92298007D01*
X185096555Y-92335501D01*
X185101000Y-92380638D01*
X185101000Y-93019362D01*
X185096555Y-93064499D01*
X185085181Y-93101993D01*
X185066706Y-93136557D01*
X185041847Y-93166847D01*
X185011557Y-93191706D01*
X184976993Y-93210181D01*
X184939499Y-93221555D01*
X184894362Y-93226000D01*
X184155638Y-93226000D01*
X184110501Y-93221555D01*
X184073007Y-93210181D01*
X184038443Y-93191706D01*
X184008153Y-93166847D01*
X183983294Y-93136557D01*
X183964819Y-93101993D01*
X183953445Y-93064499D01*
X183949000Y-93019362D01*
X183949000Y-92380638D01*
X183953445Y-92335501D01*
X183964819Y-92298007D01*
X183983294Y-92263443D01*
X184008153Y-92233153D01*
X184038443Y-92208294D01*
X184073007Y-92189819D01*
X184110501Y-92178445D01*
X184155638Y-92174000D01*
X184894362Y-92174000D01*
X184939499Y-92178445D01*
X184939499Y-92178445D01*
G37*
G36*
X183189499Y-92178445D02*
X183226993Y-92189819D01*
X183261557Y-92208294D01*
X183291847Y-92233153D01*
X183316706Y-92263443D01*
X183335181Y-92298007D01*
X183346555Y-92335501D01*
X183351000Y-92380638D01*
X183351000Y-93019362D01*
X183346555Y-93064499D01*
X183335181Y-93101993D01*
X183316706Y-93136557D01*
X183291847Y-93166847D01*
X183261557Y-93191706D01*
X183226993Y-93210181D01*
X183189499Y-93221555D01*
X183144362Y-93226000D01*
X182405638Y-93226000D01*
X182360501Y-93221555D01*
X182323007Y-93210181D01*
X182288443Y-93191706D01*
X182258153Y-93166847D01*
X182233294Y-93136557D01*
X182214819Y-93101993D01*
X182203445Y-93064499D01*
X182199000Y-93019362D01*
X182199000Y-92380638D01*
X182203445Y-92335501D01*
X182214819Y-92298007D01*
X182233294Y-92263443D01*
X182258153Y-92233153D01*
X182288443Y-92208294D01*
X182323007Y-92189819D01*
X182360501Y-92178445D01*
X182405638Y-92174000D01*
X183144362Y-92174000D01*
X183189499Y-92178445D01*
X183189499Y-92178445D01*
G37*
G36*
X183189499Y-90578445D02*
X183226993Y-90589819D01*
X183261557Y-90608294D01*
X183291847Y-90633153D01*
X183316706Y-90663443D01*
X183335181Y-90698007D01*
X183346555Y-90735501D01*
X183351000Y-90780638D01*
X183351000Y-91419362D01*
X183346555Y-91464499D01*
X183335181Y-91501993D01*
X183316706Y-91536557D01*
X183291847Y-91566847D01*
X183261557Y-91591706D01*
X183226993Y-91610181D01*
X183189499Y-91621555D01*
X183144362Y-91626000D01*
X182405638Y-91626000D01*
X182360501Y-91621555D01*
X182323007Y-91610181D01*
X182288443Y-91591706D01*
X182258153Y-91566847D01*
X182233294Y-91536557D01*
X182214819Y-91501993D01*
X182203445Y-91464499D01*
X182199000Y-91419362D01*
X182199000Y-90780638D01*
X182203445Y-90735501D01*
X182214819Y-90698007D01*
X182233294Y-90663443D01*
X182258153Y-90633153D01*
X182288443Y-90608294D01*
X182323007Y-90589819D01*
X182360501Y-90578445D01*
X182405638Y-90574000D01*
X183144362Y-90574000D01*
X183189499Y-90578445D01*
X183189499Y-90578445D01*
G37*
G36*
X184939499Y-90578445D02*
X184976993Y-90589819D01*
X185011557Y-90608294D01*
X185041847Y-90633153D01*
X185066706Y-90663443D01*
X185085181Y-90698007D01*
X185096555Y-90735501D01*
X185101000Y-90780638D01*
X185101000Y-91419362D01*
X185096555Y-91464499D01*
X185085181Y-91501993D01*
X185066706Y-91536557D01*
X185041847Y-91566847D01*
X185011557Y-91591706D01*
X184976993Y-91610181D01*
X184939499Y-91621555D01*
X184894362Y-91626000D01*
X184155638Y-91626000D01*
X184110501Y-91621555D01*
X184073007Y-91610181D01*
X184038443Y-91591706D01*
X184008153Y-91566847D01*
X183983294Y-91536557D01*
X183964819Y-91501993D01*
X183953445Y-91464499D01*
X183949000Y-91419362D01*
X183949000Y-90780638D01*
X183953445Y-90735501D01*
X183964819Y-90698007D01*
X183983294Y-90663443D01*
X184008153Y-90633153D01*
X184038443Y-90608294D01*
X184073007Y-90589819D01*
X184110501Y-90578445D01*
X184155638Y-90574000D01*
X184894362Y-90574000D01*
X184939499Y-90578445D01*
X184939499Y-90578445D01*
G37*
G36*
X162939499Y-85478445D02*
X162976993Y-85489819D01*
X163011557Y-85508294D01*
X163041847Y-85533153D01*
X163066706Y-85563443D01*
X163085181Y-85598007D01*
X163096555Y-85635501D01*
X163101000Y-85680638D01*
X163101000Y-86319362D01*
X163096555Y-86364499D01*
X163085181Y-86401993D01*
X163066706Y-86436557D01*
X163041847Y-86466847D01*
X163011557Y-86491706D01*
X162976993Y-86510181D01*
X162939499Y-86521555D01*
X162894362Y-86526000D01*
X162155638Y-86526000D01*
X162110501Y-86521555D01*
X162073007Y-86510181D01*
X162038443Y-86491706D01*
X162008153Y-86466847D01*
X161983294Y-86436557D01*
X161964819Y-86401993D01*
X161953445Y-86364499D01*
X161949000Y-86319362D01*
X161949000Y-85680638D01*
X161953445Y-85635501D01*
X161964819Y-85598007D01*
X161983294Y-85563443D01*
X162008153Y-85533153D01*
X162038443Y-85508294D01*
X162073007Y-85489819D01*
X162110501Y-85478445D01*
X162155638Y-85474000D01*
X162894362Y-85474000D01*
X162939499Y-85478445D01*
X162939499Y-85478445D01*
G37*
G36*
X164689499Y-85478445D02*
X164726993Y-85489819D01*
X164761557Y-85508294D01*
X164791847Y-85533153D01*
X164816706Y-85563443D01*
X164835181Y-85598007D01*
X164846555Y-85635501D01*
X164851000Y-85680638D01*
X164851000Y-86319362D01*
X164846555Y-86364499D01*
X164835181Y-86401993D01*
X164816706Y-86436557D01*
X164791847Y-86466847D01*
X164761557Y-86491706D01*
X164726993Y-86510181D01*
X164689499Y-86521555D01*
X164644362Y-86526000D01*
X163905638Y-86526000D01*
X163860501Y-86521555D01*
X163823007Y-86510181D01*
X163788443Y-86491706D01*
X163758153Y-86466847D01*
X163733294Y-86436557D01*
X163714819Y-86401993D01*
X163703445Y-86364499D01*
X163699000Y-86319362D01*
X163699000Y-85680638D01*
X163703445Y-85635501D01*
X163714819Y-85598007D01*
X163733294Y-85563443D01*
X163758153Y-85533153D01*
X163788443Y-85508294D01*
X163823007Y-85489819D01*
X163860501Y-85478445D01*
X163905638Y-85474000D01*
X164644362Y-85474000D01*
X164689499Y-85478445D01*
X164689499Y-85478445D01*
G37*
G36*
X162939499Y-83828445D02*
X162976993Y-83839819D01*
X163011557Y-83858294D01*
X163041847Y-83883153D01*
X163066706Y-83913443D01*
X163085181Y-83948007D01*
X163096555Y-83985501D01*
X163101000Y-84030638D01*
X163101000Y-84669362D01*
X163096555Y-84714499D01*
X163085181Y-84751993D01*
X163066706Y-84786557D01*
X163041847Y-84816847D01*
X163011557Y-84841706D01*
X162976993Y-84860181D01*
X162939499Y-84871555D01*
X162894362Y-84876000D01*
X162155638Y-84876000D01*
X162110501Y-84871555D01*
X162073007Y-84860181D01*
X162038443Y-84841706D01*
X162008153Y-84816847D01*
X161983294Y-84786557D01*
X161964819Y-84751993D01*
X161953445Y-84714499D01*
X161949000Y-84669362D01*
X161949000Y-84030638D01*
X161953445Y-83985501D01*
X161964819Y-83948007D01*
X161983294Y-83913443D01*
X162008153Y-83883153D01*
X162038443Y-83858294D01*
X162073007Y-83839819D01*
X162110501Y-83828445D01*
X162155638Y-83824000D01*
X162894362Y-83824000D01*
X162939499Y-83828445D01*
X162939499Y-83828445D01*
G37*
G36*
X164689499Y-83828445D02*
X164726993Y-83839819D01*
X164761557Y-83858294D01*
X164791847Y-83883153D01*
X164816706Y-83913443D01*
X164835181Y-83948007D01*
X164846555Y-83985501D01*
X164851000Y-84030638D01*
X164851000Y-84669362D01*
X164846555Y-84714499D01*
X164835181Y-84751993D01*
X164816706Y-84786557D01*
X164791847Y-84816847D01*
X164761557Y-84841706D01*
X164726993Y-84860181D01*
X164689499Y-84871555D01*
X164644362Y-84876000D01*
X163905638Y-84876000D01*
X163860501Y-84871555D01*
X163823007Y-84860181D01*
X163788443Y-84841706D01*
X163758153Y-84816847D01*
X163733294Y-84786557D01*
X163714819Y-84751993D01*
X163703445Y-84714499D01*
X163699000Y-84669362D01*
X163699000Y-84030638D01*
X163703445Y-83985501D01*
X163714819Y-83948007D01*
X163733294Y-83913443D01*
X163758153Y-83883153D01*
X163788443Y-83858294D01*
X163823007Y-83839819D01*
X163860501Y-83828445D01*
X163905638Y-83824000D01*
X164644362Y-83824000D01*
X164689499Y-83828445D01*
X164689499Y-83828445D01*
G37*
G36*
X173351000Y-81551000D02*
X170249000Y-81551000D01*
X170249000Y-78449000D01*
X173351000Y-78449000D01*
X173351000Y-81551000D01*
X173351000Y-81551000D01*
G37*
G36*
X175064499Y-80378445D02*
X175101993Y-80389819D01*
X175136557Y-80408294D01*
X175166847Y-80433153D01*
X175191706Y-80463443D01*
X175210181Y-80498007D01*
X175221555Y-80535501D01*
X175226000Y-80580638D01*
X175226000Y-81319362D01*
X175221555Y-81364499D01*
X175210181Y-81401993D01*
X175191706Y-81436557D01*
X175166847Y-81466847D01*
X175136557Y-81491706D01*
X175101993Y-81510181D01*
X175064499Y-81521555D01*
X175019362Y-81526000D01*
X174380638Y-81526000D01*
X174335501Y-81521555D01*
X174298007Y-81510181D01*
X174263443Y-81491706D01*
X174233153Y-81466847D01*
X174208294Y-81436557D01*
X174189819Y-81401993D01*
X174178445Y-81364499D01*
X174174000Y-81319362D01*
X174174000Y-80580638D01*
X174178445Y-80535501D01*
X174189819Y-80498007D01*
X174208294Y-80463443D01*
X174233153Y-80433153D01*
X174263443Y-80408294D01*
X174298007Y-80389819D01*
X174335501Y-80378445D01*
X174380638Y-80374000D01*
X175019362Y-80374000D01*
X175064499Y-80378445D01*
X175064499Y-80378445D01*
G37*
G36*
X176901000Y-81401000D02*
X175899000Y-81401000D01*
X175899000Y-80499000D01*
X176901000Y-80499000D01*
X176901000Y-81401000D01*
X176901000Y-81401000D01*
G37*
G36*
X135951000Y-81051000D02*
X132849000Y-81051000D01*
X132849000Y-77949000D01*
X135951000Y-77949000D01*
X135951000Y-81051000D01*
X135951000Y-81051000D01*
G37*
G36*
X178901000Y-80451000D02*
X177899000Y-80451000D01*
X177899000Y-79549000D01*
X178901000Y-79549000D01*
X178901000Y-80451000D01*
X178901000Y-80451000D01*
G37*
G36*
X175064499Y-78628445D02*
X175101993Y-78639819D01*
X175136557Y-78658294D01*
X175166847Y-78683153D01*
X175191706Y-78713443D01*
X175210181Y-78748007D01*
X175221555Y-78785501D01*
X175226000Y-78830638D01*
X175226000Y-79569362D01*
X175221555Y-79614499D01*
X175210181Y-79651993D01*
X175191706Y-79686557D01*
X175166847Y-79716847D01*
X175136557Y-79741706D01*
X175101993Y-79760181D01*
X175064499Y-79771555D01*
X175019362Y-79776000D01*
X174380638Y-79776000D01*
X174335501Y-79771555D01*
X174298007Y-79760181D01*
X174263443Y-79741706D01*
X174233153Y-79716847D01*
X174208294Y-79686557D01*
X174189819Y-79651993D01*
X174178445Y-79614499D01*
X174174000Y-79569362D01*
X174174000Y-78830638D01*
X174178445Y-78785501D01*
X174189819Y-78748007D01*
X174208294Y-78713443D01*
X174233153Y-78683153D01*
X174263443Y-78658294D01*
X174298007Y-78639819D01*
X174335501Y-78628445D01*
X174380638Y-78624000D01*
X175019362Y-78624000D01*
X175064499Y-78628445D01*
X175064499Y-78628445D01*
G37*
G36*
X176901000Y-79501000D02*
X175899000Y-79501000D01*
X175899000Y-78599000D01*
X176901000Y-78599000D01*
X176901000Y-79501000D01*
X176901000Y-79501000D01*
G37*
G36*
X173351000Y-75651000D02*
X170249000Y-75651000D01*
X170249000Y-72549000D01*
X173351000Y-72549000D01*
X173351000Y-75651000D01*
X173351000Y-75651000D01*
G37*
G36*
X175064499Y-74403445D02*
X175101993Y-74414819D01*
X175136557Y-74433294D01*
X175166847Y-74458153D01*
X175191706Y-74488443D01*
X175210181Y-74523007D01*
X175221555Y-74560501D01*
X175226000Y-74605638D01*
X175226000Y-75344362D01*
X175221555Y-75389499D01*
X175210181Y-75426993D01*
X175191706Y-75461557D01*
X175166847Y-75491847D01*
X175136557Y-75516706D01*
X175101993Y-75535181D01*
X175064499Y-75546555D01*
X175019362Y-75551000D01*
X174380638Y-75551000D01*
X174335501Y-75546555D01*
X174298007Y-75535181D01*
X174263443Y-75516706D01*
X174233153Y-75491847D01*
X174208294Y-75461557D01*
X174189819Y-75426993D01*
X174178445Y-75389499D01*
X174174000Y-75344362D01*
X174174000Y-74605638D01*
X174178445Y-74560501D01*
X174189819Y-74523007D01*
X174208294Y-74488443D01*
X174233153Y-74458153D01*
X174263443Y-74433294D01*
X174298007Y-74414819D01*
X174335501Y-74403445D01*
X174380638Y-74399000D01*
X175019362Y-74399000D01*
X175064499Y-74403445D01*
X175064499Y-74403445D01*
G37*
G36*
X176901000Y-75501000D02*
X175899000Y-75501000D01*
X175899000Y-74599000D01*
X176901000Y-74599000D01*
X176901000Y-75501000D01*
X176901000Y-75501000D01*
G37*
G36*
X119832358Y-73968307D02*
X119932632Y-74009842D01*
X120022882Y-74070145D01*
X120099625Y-74146888D01*
X120159928Y-74237138D01*
X120201463Y-74337412D01*
X120222637Y-74443863D01*
X120222637Y-74552403D01*
X120201463Y-74658854D01*
X120159928Y-74759128D01*
X120099625Y-74849378D01*
X120022882Y-74926121D01*
X119932632Y-74986424D01*
X119832358Y-75027959D01*
X119725907Y-75049133D01*
X119617367Y-75049133D01*
X119510916Y-75027959D01*
X119410642Y-74986424D01*
X119320392Y-74926121D01*
X119243649Y-74849378D01*
X119183346Y-74759128D01*
X119141811Y-74658854D01*
X119120637Y-74552403D01*
X119120637Y-74443863D01*
X119141811Y-74337412D01*
X119183346Y-74237138D01*
X119243649Y-74146888D01*
X119320392Y-74070145D01*
X119410642Y-74009842D01*
X119510916Y-73968307D01*
X119617367Y-73947133D01*
X119725907Y-73947133D01*
X119832358Y-73968307D01*
X119832358Y-73968307D01*
G37*
G36*
X178901000Y-74551000D02*
X177899000Y-74551000D01*
X177899000Y-73649000D01*
X178901000Y-73649000D01*
X178901000Y-74551000D01*
X178901000Y-74551000D01*
G37*
G36*
X120796540Y-72819241D02*
X120896814Y-72860776D01*
X120987064Y-72921079D01*
X121063807Y-72997822D01*
X121124110Y-73088072D01*
X121165645Y-73188346D01*
X121186819Y-73294797D01*
X121186819Y-73403337D01*
X121165645Y-73509788D01*
X121124110Y-73610062D01*
X121063807Y-73700312D01*
X120987064Y-73777055D01*
X120896814Y-73837358D01*
X120796540Y-73878893D01*
X120690089Y-73900067D01*
X120581549Y-73900067D01*
X120475098Y-73878893D01*
X120374824Y-73837358D01*
X120284574Y-73777055D01*
X120207831Y-73700312D01*
X120147528Y-73610062D01*
X120105993Y-73509788D01*
X120084819Y-73403337D01*
X120084819Y-73294797D01*
X120105993Y-73188346D01*
X120147528Y-73088072D01*
X120207831Y-72997822D01*
X120284574Y-72921079D01*
X120374824Y-72860776D01*
X120475098Y-72819241D01*
X120581549Y-72798067D01*
X120690089Y-72798067D01*
X120796540Y-72819241D01*
X120796540Y-72819241D01*
G37*
G36*
X175064499Y-72653445D02*
X175101993Y-72664819D01*
X175136557Y-72683294D01*
X175166847Y-72708153D01*
X175191706Y-72738443D01*
X175210181Y-72773007D01*
X175221555Y-72810501D01*
X175226000Y-72855638D01*
X175226000Y-73594362D01*
X175221555Y-73639499D01*
X175210181Y-73676993D01*
X175191706Y-73711557D01*
X175166847Y-73741847D01*
X175136557Y-73766706D01*
X175101993Y-73785181D01*
X175064499Y-73796555D01*
X175019362Y-73801000D01*
X174380638Y-73801000D01*
X174335501Y-73796555D01*
X174298007Y-73785181D01*
X174263443Y-73766706D01*
X174233153Y-73741847D01*
X174208294Y-73711557D01*
X174189819Y-73676993D01*
X174178445Y-73639499D01*
X174174000Y-73594362D01*
X174174000Y-72855638D01*
X174178445Y-72810501D01*
X174189819Y-72773007D01*
X174208294Y-72738443D01*
X174233153Y-72708153D01*
X174263443Y-72683294D01*
X174298007Y-72664819D01*
X174335501Y-72653445D01*
X174380638Y-72649000D01*
X175019362Y-72649000D01*
X175064499Y-72653445D01*
X175064499Y-72653445D01*
G37*
G36*
X176901000Y-73601000D02*
X175899000Y-73601000D01*
X175899000Y-72699000D01*
X176901000Y-72699000D01*
X176901000Y-73601000D01*
X176901000Y-73601000D01*
G37*
G36*
X141131450Y-72227630D02*
X141231724Y-72269165D01*
X141321974Y-72329468D01*
X141398717Y-72406211D01*
X141459020Y-72496461D01*
X141500555Y-72596735D01*
X141521729Y-72703186D01*
X141521729Y-72811726D01*
X141500555Y-72918177D01*
X141459020Y-73018451D01*
X141398717Y-73108701D01*
X141321974Y-73185444D01*
X141231724Y-73245747D01*
X141131450Y-73287282D01*
X141024999Y-73308456D01*
X140916459Y-73308456D01*
X140810008Y-73287282D01*
X140709734Y-73245747D01*
X140619484Y-73185444D01*
X140542741Y-73108701D01*
X140482438Y-73018451D01*
X140440903Y-72918177D01*
X140419729Y-72811726D01*
X140419729Y-72703186D01*
X140440903Y-72596735D01*
X140482438Y-72496461D01*
X140542741Y-72406211D01*
X140619484Y-72329468D01*
X140709734Y-72269165D01*
X140810008Y-72227630D01*
X140916459Y-72206456D01*
X141024999Y-72206456D01*
X141131450Y-72227630D01*
X141131450Y-72227630D01*
G37*
G36*
X121760721Y-71670174D02*
X121860995Y-71711709D01*
X121951245Y-71772012D01*
X122027988Y-71848755D01*
X122088291Y-71939005D01*
X122129826Y-72039279D01*
X122151000Y-72145730D01*
X122151000Y-72254270D01*
X122129826Y-72360721D01*
X122088291Y-72460995D01*
X122027988Y-72551245D01*
X121951245Y-72627988D01*
X121860995Y-72688291D01*
X121760721Y-72729826D01*
X121654270Y-72751000D01*
X121545730Y-72751000D01*
X121439279Y-72729826D01*
X121339005Y-72688291D01*
X121248755Y-72627988D01*
X121172012Y-72551245D01*
X121111709Y-72460995D01*
X121070174Y-72360721D01*
X121049000Y-72254270D01*
X121049000Y-72145730D01*
X121070174Y-72039279D01*
X121111709Y-71939005D01*
X121172012Y-71848755D01*
X121248755Y-71772012D01*
X121339005Y-71711709D01*
X121439279Y-71670174D01*
X121545730Y-71649000D01*
X121654270Y-71649000D01*
X121760721Y-71670174D01*
X121760721Y-71670174D01*
G37*
G36*
X140271086Y-70998902D02*
X140371360Y-71040437D01*
X140461610Y-71100740D01*
X140538353Y-71177483D01*
X140598656Y-71267733D01*
X140640191Y-71368007D01*
X140661365Y-71474458D01*
X140661365Y-71582998D01*
X140640191Y-71689449D01*
X140598656Y-71789723D01*
X140538353Y-71879973D01*
X140461610Y-71956716D01*
X140371360Y-72017019D01*
X140271086Y-72058554D01*
X140164635Y-72079728D01*
X140056095Y-72079728D01*
X139949644Y-72058554D01*
X139849370Y-72017019D01*
X139759120Y-71956716D01*
X139682377Y-71879973D01*
X139622074Y-71789723D01*
X139580539Y-71689449D01*
X139559365Y-71582998D01*
X139559365Y-71474458D01*
X139580539Y-71368007D01*
X139622074Y-71267733D01*
X139682377Y-71177483D01*
X139759120Y-71100740D01*
X139849370Y-71040437D01*
X139949644Y-70998902D01*
X140056095Y-70977728D01*
X140164635Y-70977728D01*
X140271086Y-70998902D01*
X140271086Y-70998902D01*
G37*
G36*
X122724902Y-70521107D02*
X122825176Y-70562642D01*
X122915426Y-70622945D01*
X122992169Y-70699688D01*
X123052472Y-70789938D01*
X123094007Y-70890212D01*
X123115181Y-70996663D01*
X123115181Y-71105203D01*
X123094007Y-71211654D01*
X123052472Y-71311928D01*
X122992169Y-71402178D01*
X122915426Y-71478921D01*
X122825176Y-71539224D01*
X122724902Y-71580759D01*
X122618451Y-71601933D01*
X122509911Y-71601933D01*
X122403460Y-71580759D01*
X122303186Y-71539224D01*
X122212936Y-71478921D01*
X122136193Y-71402178D01*
X122075890Y-71311928D01*
X122034355Y-71211654D01*
X122013181Y-71105203D01*
X122013181Y-70996663D01*
X122034355Y-70890212D01*
X122075890Y-70789938D01*
X122136193Y-70699688D01*
X122212936Y-70622945D01*
X122303186Y-70562642D01*
X122403460Y-70521107D01*
X122509911Y-70499933D01*
X122618451Y-70499933D01*
X122724902Y-70521107D01*
X122724902Y-70521107D01*
G37*
G36*
X147003576Y-69839097D02*
X147103850Y-69880632D01*
X147194100Y-69940935D01*
X147270843Y-70017678D01*
X147331146Y-70107928D01*
X147372681Y-70208202D01*
X147393855Y-70314653D01*
X147393855Y-70423193D01*
X147372681Y-70529644D01*
X147331146Y-70629918D01*
X147270843Y-70720168D01*
X147194100Y-70796911D01*
X147103850Y-70857214D01*
X147003576Y-70898749D01*
X146897125Y-70919923D01*
X146788585Y-70919923D01*
X146682134Y-70898749D01*
X146581860Y-70857214D01*
X146491610Y-70796911D01*
X146414867Y-70720168D01*
X146354564Y-70629918D01*
X146313029Y-70529644D01*
X146291855Y-70423193D01*
X146291855Y-70314653D01*
X146313029Y-70208202D01*
X146354564Y-70107928D01*
X146414867Y-70017678D01*
X146491610Y-69940935D01*
X146581860Y-69880632D01*
X146682134Y-69839097D01*
X146788585Y-69817923D01*
X146897125Y-69817923D01*
X147003576Y-69839097D01*
X147003576Y-69839097D01*
G37*
G36*
X139410721Y-69770174D02*
X139510995Y-69811709D01*
X139601245Y-69872012D01*
X139677988Y-69948755D01*
X139738291Y-70039005D01*
X139779826Y-70139279D01*
X139801000Y-70245730D01*
X139801000Y-70354270D01*
X139779826Y-70460721D01*
X139738291Y-70560995D01*
X139677988Y-70651245D01*
X139601245Y-70727988D01*
X139510995Y-70788291D01*
X139410721Y-70829826D01*
X139304270Y-70851000D01*
X139195730Y-70851000D01*
X139089279Y-70829826D01*
X138989005Y-70788291D01*
X138898755Y-70727988D01*
X138822012Y-70651245D01*
X138761709Y-70560995D01*
X138720174Y-70460721D01*
X138699000Y-70354270D01*
X138699000Y-70245730D01*
X138720174Y-70139279D01*
X138761709Y-70039005D01*
X138822012Y-69948755D01*
X138898755Y-69872012D01*
X138989005Y-69811709D01*
X139089279Y-69770174D01*
X139195730Y-69749000D01*
X139304270Y-69749000D01*
X139410721Y-69770174D01*
X139410721Y-69770174D01*
G37*
G36*
X123689084Y-69372041D02*
X123789358Y-69413576D01*
X123879608Y-69473879D01*
X123956351Y-69550622D01*
X124016654Y-69640872D01*
X124058189Y-69741146D01*
X124079363Y-69847597D01*
X124079363Y-69956137D01*
X124058189Y-70062588D01*
X124016654Y-70162862D01*
X123956351Y-70253112D01*
X123879608Y-70329855D01*
X123789358Y-70390158D01*
X123689084Y-70431693D01*
X123582633Y-70452867D01*
X123474093Y-70452867D01*
X123367642Y-70431693D01*
X123267368Y-70390158D01*
X123177118Y-70329855D01*
X123100375Y-70253112D01*
X123040072Y-70162862D01*
X122998537Y-70062588D01*
X122977363Y-69956137D01*
X122977363Y-69847597D01*
X122998537Y-69741146D01*
X123040072Y-69640872D01*
X123100375Y-69550622D01*
X123177118Y-69473879D01*
X123267368Y-69413576D01*
X123367642Y-69372041D01*
X123474093Y-69350867D01*
X123582633Y-69350867D01*
X123689084Y-69372041D01*
X123689084Y-69372041D01*
G37*
G36*
X129389499Y-69078445D02*
X129426993Y-69089819D01*
X129461557Y-69108294D01*
X129491847Y-69133153D01*
X129516706Y-69163443D01*
X129535181Y-69198007D01*
X129546555Y-69235501D01*
X129551000Y-69280638D01*
X129551000Y-69919362D01*
X129546555Y-69964499D01*
X129535181Y-70001993D01*
X129516706Y-70036557D01*
X129491847Y-70066847D01*
X129461557Y-70091706D01*
X129426993Y-70110181D01*
X129389499Y-70121555D01*
X129344362Y-70126000D01*
X128605638Y-70126000D01*
X128560501Y-70121555D01*
X128523007Y-70110181D01*
X128488443Y-70091706D01*
X128458153Y-70066847D01*
X128433294Y-70036557D01*
X128414819Y-70001993D01*
X128403445Y-69964499D01*
X128399000Y-69919362D01*
X128399000Y-69280638D01*
X128403445Y-69235501D01*
X128414819Y-69198007D01*
X128433294Y-69163443D01*
X128458153Y-69133153D01*
X128488443Y-69108294D01*
X128523007Y-69089819D01*
X128560501Y-69078445D01*
X128605638Y-69074000D01*
X129344362Y-69074000D01*
X129389499Y-69078445D01*
X129389499Y-69078445D01*
G37*
G36*
X127639499Y-69078445D02*
X127676993Y-69089819D01*
X127711557Y-69108294D01*
X127741847Y-69133153D01*
X127766706Y-69163443D01*
X127785181Y-69198007D01*
X127796555Y-69235501D01*
X127801000Y-69280638D01*
X127801000Y-69919362D01*
X127796555Y-69964499D01*
X127785181Y-70001993D01*
X127766706Y-70036557D01*
X127741847Y-70066847D01*
X127711557Y-70091706D01*
X127676993Y-70110181D01*
X127639499Y-70121555D01*
X127594362Y-70126000D01*
X126855638Y-70126000D01*
X126810501Y-70121555D01*
X126773007Y-70110181D01*
X126738443Y-70091706D01*
X126708153Y-70066847D01*
X126683294Y-70036557D01*
X126664819Y-70001993D01*
X126653445Y-69964499D01*
X126649000Y-69919362D01*
X126649000Y-69280638D01*
X126653445Y-69235501D01*
X126664819Y-69198007D01*
X126683294Y-69163443D01*
X126708153Y-69133153D01*
X126738443Y-69108294D01*
X126773007Y-69089819D01*
X126810501Y-69078445D01*
X126855638Y-69074000D01*
X127594362Y-69074000D01*
X127639499Y-69078445D01*
X127639499Y-69078445D01*
G37*
G36*
X173351000Y-69751000D02*
X170249000Y-69751000D01*
X170249000Y-66649000D01*
X173351000Y-66649000D01*
X173351000Y-69751000D01*
X173351000Y-69751000D01*
G37*
G36*
X175064499Y-68503445D02*
X175101993Y-68514819D01*
X175136557Y-68533294D01*
X175166847Y-68558153D01*
X175191706Y-68588443D01*
X175210181Y-68623007D01*
X175221555Y-68660501D01*
X175226000Y-68705638D01*
X175226000Y-69444362D01*
X175221555Y-69489499D01*
X175210181Y-69526993D01*
X175191706Y-69561557D01*
X175166847Y-69591847D01*
X175136557Y-69616706D01*
X175101993Y-69635181D01*
X175064499Y-69646555D01*
X175019362Y-69651000D01*
X174380638Y-69651000D01*
X174335501Y-69646555D01*
X174298007Y-69635181D01*
X174263443Y-69616706D01*
X174233153Y-69591847D01*
X174208294Y-69561557D01*
X174189819Y-69526993D01*
X174178445Y-69489499D01*
X174174000Y-69444362D01*
X174174000Y-68705638D01*
X174178445Y-68660501D01*
X174189819Y-68623007D01*
X174208294Y-68588443D01*
X174233153Y-68558153D01*
X174263443Y-68533294D01*
X174298007Y-68514819D01*
X174335501Y-68503445D01*
X174380638Y-68499000D01*
X175019362Y-68499000D01*
X175064499Y-68503445D01*
X175064499Y-68503445D01*
G37*
G36*
X138550356Y-68541446D02*
X138650630Y-68582981D01*
X138740880Y-68643284D01*
X138817623Y-68720027D01*
X138877926Y-68810277D01*
X138919461Y-68910551D01*
X138940635Y-69017002D01*
X138940635Y-69125542D01*
X138919461Y-69231993D01*
X138877926Y-69332267D01*
X138817623Y-69422517D01*
X138740880Y-69499260D01*
X138650630Y-69559563D01*
X138550356Y-69601098D01*
X138443905Y-69622272D01*
X138335365Y-69622272D01*
X138228914Y-69601098D01*
X138128640Y-69559563D01*
X138038390Y-69499260D01*
X137961647Y-69422517D01*
X137901344Y-69332267D01*
X137859809Y-69231993D01*
X137838635Y-69125542D01*
X137838635Y-69017002D01*
X137859809Y-68910551D01*
X137901344Y-68810277D01*
X137961647Y-68720027D01*
X138038390Y-68643284D01*
X138128640Y-68582981D01*
X138228914Y-68541446D01*
X138335365Y-68520272D01*
X138443905Y-68520272D01*
X138550356Y-68541446D01*
X138550356Y-68541446D01*
G37*
G36*
X146369648Y-68479636D02*
X146469922Y-68521171D01*
X146560172Y-68581474D01*
X146636915Y-68658217D01*
X146697218Y-68748467D01*
X146738753Y-68848741D01*
X146759927Y-68955192D01*
X146759927Y-69063732D01*
X146738753Y-69170183D01*
X146697218Y-69270457D01*
X146636915Y-69360707D01*
X146560172Y-69437450D01*
X146469922Y-69497753D01*
X146369648Y-69539288D01*
X146263197Y-69560462D01*
X146154657Y-69560462D01*
X146048206Y-69539288D01*
X145947932Y-69497753D01*
X145857682Y-69437450D01*
X145780939Y-69360707D01*
X145720636Y-69270457D01*
X145679101Y-69170183D01*
X145657927Y-69063732D01*
X145657927Y-68955192D01*
X145679101Y-68848741D01*
X145720636Y-68748467D01*
X145780939Y-68658217D01*
X145857682Y-68581474D01*
X145947932Y-68521171D01*
X146048206Y-68479636D01*
X146154657Y-68458462D01*
X146263197Y-68458462D01*
X146369648Y-68479636D01*
X146369648Y-68479636D01*
G37*
G36*
X177101000Y-69551000D02*
X176099000Y-69551000D01*
X176099000Y-68649000D01*
X177101000Y-68649000D01*
X177101000Y-69551000D01*
X177101000Y-69551000D01*
G37*
G36*
X191642866Y-67964097D02*
X191743140Y-68005632D01*
X191833390Y-68065935D01*
X191910133Y-68142678D01*
X191970436Y-68232928D01*
X192011971Y-68333202D01*
X192033145Y-68439653D01*
X192033145Y-68548193D01*
X192011971Y-68654644D01*
X191970436Y-68754918D01*
X191910133Y-68845168D01*
X191833390Y-68921911D01*
X191743140Y-68982214D01*
X191642866Y-69023749D01*
X191536415Y-69044923D01*
X191427875Y-69044923D01*
X191321424Y-69023749D01*
X191221150Y-68982214D01*
X191130900Y-68921911D01*
X191054157Y-68845168D01*
X190993854Y-68754918D01*
X190952319Y-68654644D01*
X190931145Y-68548193D01*
X190931145Y-68439653D01*
X190952319Y-68333202D01*
X190993854Y-68232928D01*
X191054157Y-68142678D01*
X191130900Y-68065935D01*
X191221150Y-68005632D01*
X191321424Y-67964097D01*
X191427875Y-67942923D01*
X191536415Y-67942923D01*
X191642866Y-67964097D01*
X191642866Y-67964097D01*
G37*
G36*
X179101000Y-68601000D02*
X178099000Y-68601000D01*
X178099000Y-67699000D01*
X179101000Y-67699000D01*
X179101000Y-68601000D01*
X179101000Y-68601000D01*
G37*
G36*
X129389499Y-67478445D02*
X129426993Y-67489819D01*
X129461557Y-67508294D01*
X129491847Y-67533153D01*
X129516706Y-67563443D01*
X129535181Y-67598007D01*
X129546555Y-67635501D01*
X129551000Y-67680638D01*
X129551000Y-68319362D01*
X129546555Y-68364499D01*
X129535181Y-68401993D01*
X129516706Y-68436557D01*
X129491847Y-68466847D01*
X129461557Y-68491706D01*
X129426993Y-68510181D01*
X129389499Y-68521555D01*
X129344362Y-68526000D01*
X128605638Y-68526000D01*
X128560501Y-68521555D01*
X128523007Y-68510181D01*
X128488443Y-68491706D01*
X128458153Y-68466847D01*
X128433294Y-68436557D01*
X128414819Y-68401993D01*
X128403445Y-68364499D01*
X128399000Y-68319362D01*
X128399000Y-67680638D01*
X128403445Y-67635501D01*
X128414819Y-67598007D01*
X128433294Y-67563443D01*
X128458153Y-67533153D01*
X128488443Y-67508294D01*
X128523007Y-67489819D01*
X128560501Y-67478445D01*
X128605638Y-67474000D01*
X129344362Y-67474000D01*
X129389499Y-67478445D01*
X129389499Y-67478445D01*
G37*
G36*
X127639499Y-67478445D02*
X127676993Y-67489819D01*
X127711557Y-67508294D01*
X127741847Y-67533153D01*
X127766706Y-67563443D01*
X127785181Y-67598007D01*
X127796555Y-67635501D01*
X127801000Y-67680638D01*
X127801000Y-68319362D01*
X127796555Y-68364499D01*
X127785181Y-68401993D01*
X127766706Y-68436557D01*
X127741847Y-68466847D01*
X127711557Y-68491706D01*
X127676993Y-68510181D01*
X127639499Y-68521555D01*
X127594362Y-68526000D01*
X126855638Y-68526000D01*
X126810501Y-68521555D01*
X126773007Y-68510181D01*
X126738443Y-68491706D01*
X126708153Y-68466847D01*
X126683294Y-68436557D01*
X126664819Y-68401993D01*
X126653445Y-68364499D01*
X126649000Y-68319362D01*
X126649000Y-67680638D01*
X126653445Y-67635501D01*
X126664819Y-67598007D01*
X126683294Y-67563443D01*
X126708153Y-67533153D01*
X126738443Y-67508294D01*
X126773007Y-67489819D01*
X126810501Y-67478445D01*
X126855638Y-67474000D01*
X127594362Y-67474000D01*
X127639499Y-67478445D01*
X127639499Y-67478445D01*
G37*
G36*
X137689992Y-67312718D02*
X137790266Y-67354253D01*
X137880516Y-67414556D01*
X137957259Y-67491299D01*
X138017562Y-67581549D01*
X138059097Y-67681823D01*
X138080271Y-67788274D01*
X138080271Y-67896814D01*
X138059097Y-68003265D01*
X138017562Y-68103539D01*
X137957259Y-68193789D01*
X137880516Y-68270532D01*
X137790266Y-68330835D01*
X137689992Y-68372370D01*
X137583541Y-68393544D01*
X137475001Y-68393544D01*
X137368550Y-68372370D01*
X137268276Y-68330835D01*
X137178026Y-68270532D01*
X137101283Y-68193789D01*
X137040980Y-68103539D01*
X136999445Y-68003265D01*
X136978271Y-67896814D01*
X136978271Y-67788274D01*
X136999445Y-67681823D01*
X137040980Y-67581549D01*
X137101283Y-67491299D01*
X137178026Y-67414556D01*
X137268276Y-67354253D01*
X137368550Y-67312718D01*
X137475001Y-67291544D01*
X137583541Y-67291544D01*
X137689992Y-67312718D01*
X137689992Y-67312718D01*
G37*
G36*
X145735721Y-67120174D02*
X145835995Y-67161709D01*
X145926245Y-67222012D01*
X146002988Y-67298755D01*
X146063291Y-67389005D01*
X146104826Y-67489279D01*
X146126000Y-67595730D01*
X146126000Y-67704270D01*
X146104826Y-67810721D01*
X146063291Y-67910995D01*
X146002988Y-68001245D01*
X145926245Y-68077988D01*
X145835995Y-68138291D01*
X145735721Y-68179826D01*
X145629270Y-68201000D01*
X145520730Y-68201000D01*
X145414279Y-68179826D01*
X145314005Y-68138291D01*
X145223755Y-68077988D01*
X145147012Y-68001245D01*
X145086709Y-67910995D01*
X145045174Y-67810721D01*
X145024000Y-67704270D01*
X145024000Y-67595730D01*
X145045174Y-67489279D01*
X145086709Y-67389005D01*
X145147012Y-67298755D01*
X145223755Y-67222012D01*
X145314005Y-67161709D01*
X145414279Y-67120174D01*
X145520730Y-67099000D01*
X145629270Y-67099000D01*
X145735721Y-67120174D01*
X145735721Y-67120174D01*
G37*
G36*
X175064499Y-66753445D02*
X175101993Y-66764819D01*
X175136557Y-66783294D01*
X175166847Y-66808153D01*
X175191706Y-66838443D01*
X175210181Y-66873007D01*
X175221555Y-66910501D01*
X175226000Y-66955638D01*
X175226000Y-67694362D01*
X175221555Y-67739499D01*
X175210181Y-67776993D01*
X175191706Y-67811557D01*
X175166847Y-67841847D01*
X175136557Y-67866706D01*
X175101993Y-67885181D01*
X175064499Y-67896555D01*
X175019362Y-67901000D01*
X174380638Y-67901000D01*
X174335501Y-67896555D01*
X174298007Y-67885181D01*
X174263443Y-67866706D01*
X174233153Y-67841847D01*
X174208294Y-67811557D01*
X174189819Y-67776993D01*
X174178445Y-67739499D01*
X174174000Y-67694362D01*
X174174000Y-66955638D01*
X174178445Y-66910501D01*
X174189819Y-66873007D01*
X174208294Y-66838443D01*
X174233153Y-66808153D01*
X174263443Y-66783294D01*
X174298007Y-66764819D01*
X174335501Y-66753445D01*
X174380638Y-66749000D01*
X175019362Y-66749000D01*
X175064499Y-66753445D01*
X175064499Y-66753445D01*
G37*
G36*
X192276794Y-66604636D02*
X192377068Y-66646171D01*
X192467318Y-66706474D01*
X192544061Y-66783217D01*
X192604364Y-66873467D01*
X192645899Y-66973741D01*
X192667073Y-67080192D01*
X192667073Y-67188732D01*
X192645899Y-67295183D01*
X192604364Y-67395457D01*
X192544061Y-67485707D01*
X192467318Y-67562450D01*
X192377068Y-67622753D01*
X192276794Y-67664288D01*
X192170343Y-67685462D01*
X192061803Y-67685462D01*
X191955352Y-67664288D01*
X191855078Y-67622753D01*
X191764828Y-67562450D01*
X191688085Y-67485707D01*
X191627782Y-67395457D01*
X191586247Y-67295183D01*
X191565073Y-67188732D01*
X191565073Y-67080192D01*
X191586247Y-66973741D01*
X191627782Y-66873467D01*
X191688085Y-66783217D01*
X191764828Y-66706474D01*
X191855078Y-66646171D01*
X191955352Y-66604636D01*
X192061803Y-66583462D01*
X192170343Y-66583462D01*
X192276794Y-66604636D01*
X192276794Y-66604636D01*
G37*
G36*
X177101000Y-67651000D02*
X176099000Y-67651000D01*
X176099000Y-66749000D01*
X177101000Y-66749000D01*
X177101000Y-67651000D01*
X177101000Y-67651000D01*
G37*
G36*
X145101794Y-65760712D02*
X145202068Y-65802247D01*
X145292318Y-65862550D01*
X145369061Y-65939293D01*
X145429364Y-66029543D01*
X145470899Y-66129817D01*
X145492073Y-66236268D01*
X145492073Y-66344808D01*
X145470899Y-66451259D01*
X145429364Y-66551533D01*
X145369061Y-66641783D01*
X145292318Y-66718526D01*
X145202068Y-66778829D01*
X145101794Y-66820364D01*
X144995343Y-66841538D01*
X144886803Y-66841538D01*
X144780352Y-66820364D01*
X144680078Y-66778829D01*
X144589828Y-66718526D01*
X144513085Y-66641783D01*
X144452782Y-66551533D01*
X144411247Y-66451259D01*
X144390073Y-66344808D01*
X144390073Y-66236268D01*
X144411247Y-66129817D01*
X144452782Y-66029543D01*
X144513085Y-65939293D01*
X144589828Y-65862550D01*
X144680078Y-65802247D01*
X144780352Y-65760712D01*
X144886803Y-65739538D01*
X144995343Y-65739538D01*
X145101794Y-65760712D01*
X145101794Y-65760712D01*
G37*
G36*
X192910721Y-65245174D02*
X193010995Y-65286709D01*
X193101245Y-65347012D01*
X193177988Y-65423755D01*
X193238291Y-65514005D01*
X193279826Y-65614279D01*
X193301000Y-65720730D01*
X193301000Y-65829270D01*
X193279826Y-65935721D01*
X193238291Y-66035995D01*
X193177988Y-66126245D01*
X193101245Y-66202988D01*
X193010995Y-66263291D01*
X192910721Y-66304826D01*
X192804270Y-66326000D01*
X192695730Y-66326000D01*
X192589279Y-66304826D01*
X192489005Y-66263291D01*
X192398755Y-66202988D01*
X192322012Y-66126245D01*
X192261709Y-66035995D01*
X192220174Y-65935721D01*
X192199000Y-65829270D01*
X192199000Y-65720730D01*
X192220174Y-65614279D01*
X192261709Y-65514005D01*
X192322012Y-65423755D01*
X192398755Y-65347012D01*
X192489005Y-65286709D01*
X192589279Y-65245174D01*
X192695730Y-65224000D01*
X192804270Y-65224000D01*
X192910721Y-65245174D01*
X192910721Y-65245174D01*
G37*
G36*
X144467866Y-64401251D02*
X144568140Y-64442786D01*
X144658390Y-64503089D01*
X144735133Y-64579832D01*
X144795436Y-64670082D01*
X144836971Y-64770356D01*
X144858145Y-64876807D01*
X144858145Y-64985347D01*
X144836971Y-65091798D01*
X144795436Y-65192072D01*
X144735133Y-65282322D01*
X144658390Y-65359065D01*
X144568140Y-65419368D01*
X144467866Y-65460903D01*
X144361415Y-65482077D01*
X144252875Y-65482077D01*
X144146424Y-65460903D01*
X144046150Y-65419368D01*
X143955900Y-65359065D01*
X143879157Y-65282322D01*
X143818854Y-65192072D01*
X143777319Y-65091798D01*
X143756145Y-64985347D01*
X143756145Y-64876807D01*
X143777319Y-64770356D01*
X143818854Y-64670082D01*
X143879157Y-64579832D01*
X143955900Y-64503089D01*
X144046150Y-64442786D01*
X144146424Y-64401251D01*
X144252875Y-64380077D01*
X144361415Y-64380077D01*
X144467866Y-64401251D01*
X144467866Y-64401251D01*
G37*
G36*
X193544648Y-63885712D02*
X193644922Y-63927247D01*
X193735172Y-63987550D01*
X193811915Y-64064293D01*
X193872218Y-64154543D01*
X193913753Y-64254817D01*
X193934927Y-64361268D01*
X193934927Y-64469808D01*
X193913753Y-64576259D01*
X193872218Y-64676533D01*
X193811915Y-64766783D01*
X193735172Y-64843526D01*
X193644922Y-64903829D01*
X193544648Y-64945364D01*
X193438197Y-64966538D01*
X193329657Y-64966538D01*
X193223206Y-64945364D01*
X193122932Y-64903829D01*
X193032682Y-64843526D01*
X192955939Y-64766783D01*
X192895636Y-64676533D01*
X192854101Y-64576259D01*
X192832927Y-64469808D01*
X192832927Y-64361268D01*
X192854101Y-64254817D01*
X192895636Y-64154543D01*
X192955939Y-64064293D01*
X193032682Y-63987550D01*
X193122932Y-63927247D01*
X193223206Y-63885712D01*
X193329657Y-63864538D01*
X193438197Y-63864538D01*
X193544648Y-63885712D01*
X193544648Y-63885712D01*
G37*
G36*
X194178576Y-62526251D02*
X194278850Y-62567786D01*
X194369100Y-62628089D01*
X194445843Y-62704832D01*
X194506146Y-62795082D01*
X194547681Y-62895356D01*
X194568855Y-63001807D01*
X194568855Y-63110347D01*
X194547681Y-63216798D01*
X194506146Y-63317072D01*
X194445843Y-63407322D01*
X194369100Y-63484065D01*
X194278850Y-63544368D01*
X194178576Y-63585903D01*
X194072125Y-63607077D01*
X193963585Y-63607077D01*
X193857134Y-63585903D01*
X193756860Y-63544368D01*
X193666610Y-63484065D01*
X193589867Y-63407322D01*
X193529564Y-63317072D01*
X193488029Y-63216798D01*
X193466855Y-63110347D01*
X193466855Y-63001807D01*
X193488029Y-62895356D01*
X193529564Y-62795082D01*
X193589867Y-62704832D01*
X193666610Y-62628089D01*
X193756860Y-62567786D01*
X193857134Y-62526251D01*
X193963585Y-62505077D01*
X194072125Y-62505077D01*
X194178576Y-62526251D01*
X194178576Y-62526251D01*
G37*
G36*
X195664499Y-52428445D02*
X195701993Y-52439819D01*
X195736557Y-52458294D01*
X195766847Y-52483153D01*
X195791706Y-52513443D01*
X195810181Y-52548007D01*
X195821555Y-52585501D01*
X195826000Y-52630638D01*
X195826000Y-53269362D01*
X195821555Y-53314499D01*
X195810181Y-53351993D01*
X195791706Y-53386557D01*
X195766847Y-53416847D01*
X195736557Y-53441706D01*
X195701993Y-53460181D01*
X195664499Y-53471555D01*
X195619362Y-53476000D01*
X194880638Y-53476000D01*
X194835501Y-53471555D01*
X194798007Y-53460181D01*
X194763443Y-53441706D01*
X194733153Y-53416847D01*
X194708294Y-53386557D01*
X194689819Y-53351993D01*
X194678445Y-53314499D01*
X194674000Y-53269362D01*
X194674000Y-52630638D01*
X194678445Y-52585501D01*
X194689819Y-52548007D01*
X194708294Y-52513443D01*
X194733153Y-52483153D01*
X194763443Y-52458294D01*
X194798007Y-52439819D01*
X194835501Y-52428445D01*
X194880638Y-52424000D01*
X195619362Y-52424000D01*
X195664499Y-52428445D01*
X195664499Y-52428445D01*
G37*
G36*
X193914499Y-52428445D02*
X193951993Y-52439819D01*
X193986557Y-52458294D01*
X194016847Y-52483153D01*
X194041706Y-52513443D01*
X194060181Y-52548007D01*
X194071555Y-52585501D01*
X194076000Y-52630638D01*
X194076000Y-53269362D01*
X194071555Y-53314499D01*
X194060181Y-53351993D01*
X194041706Y-53386557D01*
X194016847Y-53416847D01*
X193986557Y-53441706D01*
X193951993Y-53460181D01*
X193914499Y-53471555D01*
X193869362Y-53476000D01*
X193130638Y-53476000D01*
X193085501Y-53471555D01*
X193048007Y-53460181D01*
X193013443Y-53441706D01*
X192983153Y-53416847D01*
X192958294Y-53386557D01*
X192939819Y-53351993D01*
X192928445Y-53314499D01*
X192924000Y-53269362D01*
X192924000Y-52630638D01*
X192928445Y-52585501D01*
X192939819Y-52548007D01*
X192958294Y-52513443D01*
X192983153Y-52483153D01*
X193013443Y-52458294D01*
X193048007Y-52439819D01*
X193085501Y-52428445D01*
X193130638Y-52424000D01*
X193869362Y-52424000D01*
X193914499Y-52428445D01*
X193914499Y-52428445D01*
G37*
G36*
X193889499Y-50728445D02*
X193926993Y-50739819D01*
X193961557Y-50758294D01*
X193991847Y-50783153D01*
X194016706Y-50813443D01*
X194035181Y-50848007D01*
X194046555Y-50885501D01*
X194051000Y-50930638D01*
X194051000Y-51569362D01*
X194046555Y-51614499D01*
X194035181Y-51651993D01*
X194016706Y-51686557D01*
X193991847Y-51716847D01*
X193961557Y-51741706D01*
X193926993Y-51760181D01*
X193889499Y-51771555D01*
X193844362Y-51776000D01*
X193105638Y-51776000D01*
X193060501Y-51771555D01*
X193023007Y-51760181D01*
X192988443Y-51741706D01*
X192958153Y-51716847D01*
X192933294Y-51686557D01*
X192914819Y-51651993D01*
X192903445Y-51614499D01*
X192899000Y-51569362D01*
X192899000Y-50930638D01*
X192903445Y-50885501D01*
X192914819Y-50848007D01*
X192933294Y-50813443D01*
X192958153Y-50783153D01*
X192988443Y-50758294D01*
X193023007Y-50739819D01*
X193060501Y-50728445D01*
X193105638Y-50724000D01*
X193844362Y-50724000D01*
X193889499Y-50728445D01*
X193889499Y-50728445D01*
G37*
G36*
X195639499Y-50728445D02*
X195676993Y-50739819D01*
X195711557Y-50758294D01*
X195741847Y-50783153D01*
X195766706Y-50813443D01*
X195785181Y-50848007D01*
X195796555Y-50885501D01*
X195801000Y-50930638D01*
X195801000Y-51569362D01*
X195796555Y-51614499D01*
X195785181Y-51651993D01*
X195766706Y-51686557D01*
X195741847Y-51716847D01*
X195711557Y-51741706D01*
X195676993Y-51760181D01*
X195639499Y-51771555D01*
X195594362Y-51776000D01*
X194855638Y-51776000D01*
X194810501Y-51771555D01*
X194773007Y-51760181D01*
X194738443Y-51741706D01*
X194708153Y-51716847D01*
X194683294Y-51686557D01*
X194664819Y-51651993D01*
X194653445Y-51614499D01*
X194649000Y-51569362D01*
X194649000Y-50930638D01*
X194653445Y-50885501D01*
X194664819Y-50848007D01*
X194683294Y-50813443D01*
X194708153Y-50783153D01*
X194738443Y-50758294D01*
X194773007Y-50739819D01*
X194810501Y-50728445D01*
X194855638Y-50724000D01*
X195594362Y-50724000D01*
X195639499Y-50728445D01*
X195639499Y-50728445D01*
G37*
M02*
