G04 #@! TF.GenerationSoftware,KiCad,Pcbnew,(5.0.1-3-g963ef8bb5)*
G04 #@! TF.CreationDate,2018-11-10T15:27:12+00:00*
G04 #@! TF.ProjectId,xmas_tree_v0.1,786D61735F747265655F76302E312E6B,rev?*
G04 #@! TF.SameCoordinates,Original*
G04 #@! TF.FileFunction,Legend,Bot*
G04 #@! TF.FilePolarity,Positive*
%FSLAX46Y46*%
G04 Gerber Fmt 4.6, Leading zero omitted, Abs format (unit mm)*
G04 Created by KiCad (PCBNEW (5.0.1-3-g963ef8bb5)) date Saturday, 10 November 2018 at 15:27:12*
%MOMM*%
%LPD*%
G01*
G04 APERTURE LIST*
%ADD10C,0.800000*%
%ADD11C,1.400000*%
%ADD12C,1.500000*%
%ADD13C,1.600000*%
%ADD14C,1.000000*%
%ADD15C,0.002540*%
G04 APERTURE END LIST*
D10*
X161500000Y-51200000D02*
G75*
G03X161500000Y-51200000I-100000J0D01*
G01*
D11*
X163900000Y-71400000D02*
G75*
G03X163900000Y-71400000I-500000J0D01*
G01*
D10*
X171700000Y-131900000D02*
G75*
G03X171700000Y-131900000I-100000J0D01*
G01*
X155400000Y-99000000D02*
G75*
G03X155400000Y-99000000I-100000J0D01*
G01*
X178400000Y-104600000D02*
G75*
G03X178400000Y-104600000I-400000J0D01*
G01*
D12*
X158400000Y-89800000D02*
G75*
G03X158400000Y-89800000I-500000J0D01*
G01*
D10*
X174600000Y-53700000D02*
G75*
G03X174600000Y-53700000I-100000J0D01*
G01*
X148700000Y-62400000D02*
G75*
G03X148700000Y-62400000I-100000J0D01*
G01*
X134900000Y-67500000D02*
G75*
G03X134900000Y-67500000I-100000J0D01*
G01*
X121800000Y-95700000D02*
G75*
G03X121800000Y-95700000I-100000J0D01*
G01*
X111500000Y-145700000D02*
G75*
G03X111500000Y-145700000I-100000J0D01*
G01*
X136700000Y-105700000D02*
G75*
G03X136700000Y-105700000I-100000J0D01*
G01*
D13*
X140400000Y-146500000D02*
G75*
G03X140400000Y-146500000I-300000J0D01*
G01*
X123500000Y-127900000D02*
G75*
G03X123500000Y-127900000I-300000J0D01*
G01*
X137600000Y-87800000D02*
G75*
G03X137600000Y-87800000I-300000J0D01*
G01*
D14*
X150700000Y-80700000D02*
G75*
G02X168900000Y-86300000I4300000J-18400000D01*
G01*
X186100000Y-84100001D02*
G75*
G02X168996860Y-86353612I-9587278J6733403D01*
G01*
X158181598Y-126806257D02*
G75*
G02X169400000Y-125700000I7418403J-17793742D01*
G01*
X184144683Y-123278645D02*
G75*
G02X169400000Y-125700000I-11344684J22978644D01*
G01*
X197796521Y-56868563D02*
G75*
G02X139000000Y-55900000I-25596521J231268563D01*
G01*
X186897857Y-100183771D02*
G75*
G02X143900000Y-86700000I-6997857J52983771D01*
G01*
X149005997Y-81200829D02*
G75*
G02X123908855Y-67735968I5602857J40564860D01*
G01*
X110408524Y-105815311D02*
G75*
G02X152200000Y-105600000I21091476J-37884689D01*
G01*
X131292888Y-113791961D02*
G75*
G02X112500000Y-120400000I-18262046J21909249D01*
G01*
X131300658Y-113801283D02*
G75*
G02X155500000Y-112400000I13684642J-26670881D01*
G01*
X158104771Y-138716732D02*
G75*
G02X105800000Y-136100000I-22304771J78216732D01*
G01*
D15*
G04 #@! TO.C,G\002A\002A\002A*
G36*
X125209320Y-80346200D02*
X125191540Y-80338580D01*
X125158520Y-80315720D01*
X125107720Y-80282700D01*
X125049300Y-80244600D01*
X124988340Y-80203960D01*
X124940080Y-80170940D01*
X124904520Y-80148080D01*
X124891820Y-80140460D01*
X124884200Y-80143000D01*
X124856260Y-80158240D01*
X124815620Y-80178560D01*
X124790220Y-80191260D01*
X124752120Y-80206500D01*
X124734340Y-80211580D01*
X124731800Y-80206500D01*
X124716560Y-80176020D01*
X124696240Y-80127760D01*
X124668300Y-80061720D01*
X124635280Y-79985520D01*
X124599720Y-79904240D01*
X124566700Y-79820420D01*
X124533680Y-79741680D01*
X124503200Y-79668020D01*
X124480340Y-79609600D01*
X124465100Y-79568960D01*
X124457480Y-79551180D01*
X124460020Y-79548640D01*
X124477800Y-79530860D01*
X124510820Y-79505460D01*
X124581940Y-79447040D01*
X124653060Y-79360680D01*
X124696240Y-79261620D01*
X124708940Y-79149860D01*
X124698780Y-79048260D01*
X124658140Y-78951740D01*
X124589560Y-78862840D01*
X124505740Y-78796800D01*
X124409220Y-78756160D01*
X124300000Y-78743460D01*
X124195860Y-78753620D01*
X124096800Y-78794260D01*
X124007900Y-78860300D01*
X123969800Y-78903480D01*
X123919000Y-78994920D01*
X123888520Y-79088900D01*
X123885980Y-79111760D01*
X123891060Y-79218440D01*
X123921540Y-79320040D01*
X123977420Y-79408940D01*
X124053620Y-79482600D01*
X124063780Y-79490220D01*
X124099340Y-79518160D01*
X124124740Y-79535940D01*
X124142520Y-79551180D01*
X124007900Y-79873760D01*
X123987580Y-79924560D01*
X123949480Y-80013460D01*
X123919000Y-80089660D01*
X123891060Y-80150620D01*
X123873280Y-80191260D01*
X123865660Y-80206500D01*
X123852960Y-80209040D01*
X123830100Y-80201420D01*
X123784380Y-80178560D01*
X123753900Y-80163320D01*
X123720880Y-80148080D01*
X123705640Y-80140460D01*
X123690400Y-80148080D01*
X123657380Y-80168400D01*
X123611660Y-80201420D01*
X123553240Y-80239520D01*
X123497360Y-80277620D01*
X123446560Y-80310640D01*
X123411000Y-80336040D01*
X123393220Y-80343660D01*
X123390680Y-80343660D01*
X123372900Y-80336040D01*
X123344960Y-80310640D01*
X123301780Y-80270000D01*
X123238280Y-80209040D01*
X123228120Y-80198880D01*
X123177320Y-80148080D01*
X123136680Y-80102360D01*
X123108740Y-80071880D01*
X123098580Y-80059180D01*
X123108740Y-80041400D01*
X123131600Y-80003300D01*
X123164620Y-79952500D01*
X123205260Y-79891540D01*
X123311940Y-79736600D01*
X123253520Y-79591820D01*
X123235740Y-79546100D01*
X123212880Y-79490220D01*
X123195100Y-79452120D01*
X123187480Y-79434340D01*
X123169700Y-79429260D01*
X123131600Y-79419100D01*
X123073180Y-79408940D01*
X123002060Y-79396240D01*
X122936020Y-79383540D01*
X122877600Y-79370840D01*
X122834420Y-79363220D01*
X122814100Y-79360680D01*
X122809020Y-79355600D01*
X122806480Y-79347980D01*
X122803940Y-79327660D01*
X122801400Y-79289560D01*
X122801400Y-79233680D01*
X122801400Y-79149860D01*
X122801400Y-79142240D01*
X122801400Y-79063500D01*
X122803940Y-79000000D01*
X122806480Y-78961900D01*
X122809020Y-78944120D01*
X122826800Y-78939040D01*
X122869980Y-78931420D01*
X122928400Y-78918720D01*
X122999520Y-78906020D01*
X123004600Y-78906020D01*
X123075720Y-78890780D01*
X123134140Y-78878080D01*
X123177320Y-78870460D01*
X123195100Y-78862840D01*
X123197640Y-78857760D01*
X123212880Y-78829820D01*
X123233200Y-78786640D01*
X123256060Y-78733300D01*
X123278920Y-78677420D01*
X123299240Y-78626620D01*
X123311940Y-78591060D01*
X123317020Y-78573280D01*
X123306860Y-78555500D01*
X123281460Y-78519940D01*
X123245900Y-78469140D01*
X123205260Y-78408180D01*
X123202720Y-78403100D01*
X123162080Y-78342140D01*
X123129060Y-78291340D01*
X123106200Y-78255780D01*
X123098580Y-78240540D01*
X123098580Y-78238000D01*
X123111280Y-78220220D01*
X123141760Y-78187200D01*
X123187480Y-78141480D01*
X123238280Y-78088140D01*
X123256060Y-78072900D01*
X123314480Y-78014480D01*
X123355120Y-77978920D01*
X123380520Y-77958600D01*
X123390680Y-77953520D01*
X123393220Y-77953520D01*
X123411000Y-77963680D01*
X123449100Y-77989080D01*
X123499900Y-78024640D01*
X123560860Y-78065280D01*
X123563400Y-78067820D01*
X123624360Y-78108460D01*
X123675160Y-78144020D01*
X123710720Y-78166880D01*
X123725960Y-78174500D01*
X123728500Y-78174500D01*
X123751360Y-78169420D01*
X123794540Y-78154180D01*
X123847880Y-78133860D01*
X123903760Y-78111000D01*
X123954560Y-78090680D01*
X123990120Y-78072900D01*
X124007900Y-78062740D01*
X124010440Y-78062740D01*
X124015520Y-78039880D01*
X124025680Y-77994160D01*
X124038380Y-77933200D01*
X124053620Y-77859540D01*
X124056160Y-77849380D01*
X124068860Y-77775720D01*
X124079020Y-77717300D01*
X124089180Y-77676660D01*
X124091720Y-77658880D01*
X124101880Y-77658880D01*
X124137440Y-77656340D01*
X124190780Y-77653800D01*
X124256820Y-77653800D01*
X124322860Y-77653800D01*
X124388900Y-77653800D01*
X124444780Y-77656340D01*
X124485420Y-77658880D01*
X124503200Y-77663960D01*
X124508280Y-77686820D01*
X124518440Y-77730000D01*
X124531140Y-77793500D01*
X124546380Y-77867160D01*
X124548920Y-77879860D01*
X124561620Y-77950980D01*
X124574320Y-78009400D01*
X124581940Y-78050040D01*
X124587020Y-78065280D01*
X124592100Y-78067820D01*
X124622580Y-78083060D01*
X124670840Y-78100840D01*
X124729260Y-78126240D01*
X124866420Y-78182120D01*
X125034060Y-78065280D01*
X125049300Y-78055120D01*
X125110260Y-78014480D01*
X125161060Y-77981460D01*
X125196620Y-77958600D01*
X125209320Y-77950980D01*
X125211860Y-77950980D01*
X125227100Y-77966220D01*
X125260120Y-77996700D01*
X125305840Y-78042420D01*
X125359180Y-78093220D01*
X125399820Y-78133860D01*
X125445540Y-78179580D01*
X125473480Y-78212600D01*
X125491260Y-78232920D01*
X125496340Y-78245620D01*
X125493800Y-78253240D01*
X125483640Y-78271020D01*
X125458240Y-78306580D01*
X125425220Y-78359920D01*
X125384580Y-78418340D01*
X125349020Y-78469140D01*
X125313460Y-78525020D01*
X125290600Y-78565660D01*
X125280440Y-78583440D01*
X125282980Y-78593600D01*
X125295680Y-78626620D01*
X125316000Y-78674880D01*
X125341400Y-78735840D01*
X125399820Y-78867920D01*
X125486180Y-78885700D01*
X125539520Y-78895860D01*
X125613180Y-78908560D01*
X125684300Y-78923800D01*
X125796060Y-78944120D01*
X125798600Y-79347980D01*
X125780820Y-79355600D01*
X125765580Y-79360680D01*
X125724940Y-79370840D01*
X125666520Y-79381000D01*
X125597940Y-79393700D01*
X125536980Y-79406400D01*
X125478560Y-79416560D01*
X125435380Y-79424180D01*
X125417600Y-79429260D01*
X125412520Y-79434340D01*
X125397280Y-79464820D01*
X125376960Y-79510540D01*
X125354100Y-79563880D01*
X125328700Y-79622300D01*
X125308380Y-79673100D01*
X125293140Y-79713740D01*
X125288060Y-79734060D01*
X125295680Y-79749300D01*
X125318540Y-79784860D01*
X125351560Y-79835660D01*
X125392200Y-79894080D01*
X125432840Y-79952500D01*
X125465860Y-80003300D01*
X125491260Y-80038860D01*
X125498880Y-80056640D01*
X125493800Y-80066800D01*
X125470940Y-80094740D01*
X125427760Y-80140460D01*
X125361720Y-80206500D01*
X125349020Y-80216660D01*
X125298220Y-80267460D01*
X125252500Y-80308100D01*
X125222020Y-80336040D01*
X125209320Y-80346200D01*
X125209320Y-80346200D01*
G37*
X125209320Y-80346200D02*
X125191540Y-80338580D01*
X125158520Y-80315720D01*
X125107720Y-80282700D01*
X125049300Y-80244600D01*
X124988340Y-80203960D01*
X124940080Y-80170940D01*
X124904520Y-80148080D01*
X124891820Y-80140460D01*
X124884200Y-80143000D01*
X124856260Y-80158240D01*
X124815620Y-80178560D01*
X124790220Y-80191260D01*
X124752120Y-80206500D01*
X124734340Y-80211580D01*
X124731800Y-80206500D01*
X124716560Y-80176020D01*
X124696240Y-80127760D01*
X124668300Y-80061720D01*
X124635280Y-79985520D01*
X124599720Y-79904240D01*
X124566700Y-79820420D01*
X124533680Y-79741680D01*
X124503200Y-79668020D01*
X124480340Y-79609600D01*
X124465100Y-79568960D01*
X124457480Y-79551180D01*
X124460020Y-79548640D01*
X124477800Y-79530860D01*
X124510820Y-79505460D01*
X124581940Y-79447040D01*
X124653060Y-79360680D01*
X124696240Y-79261620D01*
X124708940Y-79149860D01*
X124698780Y-79048260D01*
X124658140Y-78951740D01*
X124589560Y-78862840D01*
X124505740Y-78796800D01*
X124409220Y-78756160D01*
X124300000Y-78743460D01*
X124195860Y-78753620D01*
X124096800Y-78794260D01*
X124007900Y-78860300D01*
X123969800Y-78903480D01*
X123919000Y-78994920D01*
X123888520Y-79088900D01*
X123885980Y-79111760D01*
X123891060Y-79218440D01*
X123921540Y-79320040D01*
X123977420Y-79408940D01*
X124053620Y-79482600D01*
X124063780Y-79490220D01*
X124099340Y-79518160D01*
X124124740Y-79535940D01*
X124142520Y-79551180D01*
X124007900Y-79873760D01*
X123987580Y-79924560D01*
X123949480Y-80013460D01*
X123919000Y-80089660D01*
X123891060Y-80150620D01*
X123873280Y-80191260D01*
X123865660Y-80206500D01*
X123852960Y-80209040D01*
X123830100Y-80201420D01*
X123784380Y-80178560D01*
X123753900Y-80163320D01*
X123720880Y-80148080D01*
X123705640Y-80140460D01*
X123690400Y-80148080D01*
X123657380Y-80168400D01*
X123611660Y-80201420D01*
X123553240Y-80239520D01*
X123497360Y-80277620D01*
X123446560Y-80310640D01*
X123411000Y-80336040D01*
X123393220Y-80343660D01*
X123390680Y-80343660D01*
X123372900Y-80336040D01*
X123344960Y-80310640D01*
X123301780Y-80270000D01*
X123238280Y-80209040D01*
X123228120Y-80198880D01*
X123177320Y-80148080D01*
X123136680Y-80102360D01*
X123108740Y-80071880D01*
X123098580Y-80059180D01*
X123108740Y-80041400D01*
X123131600Y-80003300D01*
X123164620Y-79952500D01*
X123205260Y-79891540D01*
X123311940Y-79736600D01*
X123253520Y-79591820D01*
X123235740Y-79546100D01*
X123212880Y-79490220D01*
X123195100Y-79452120D01*
X123187480Y-79434340D01*
X123169700Y-79429260D01*
X123131600Y-79419100D01*
X123073180Y-79408940D01*
X123002060Y-79396240D01*
X122936020Y-79383540D01*
X122877600Y-79370840D01*
X122834420Y-79363220D01*
X122814100Y-79360680D01*
X122809020Y-79355600D01*
X122806480Y-79347980D01*
X122803940Y-79327660D01*
X122801400Y-79289560D01*
X122801400Y-79233680D01*
X122801400Y-79149860D01*
X122801400Y-79142240D01*
X122801400Y-79063500D01*
X122803940Y-79000000D01*
X122806480Y-78961900D01*
X122809020Y-78944120D01*
X122826800Y-78939040D01*
X122869980Y-78931420D01*
X122928400Y-78918720D01*
X122999520Y-78906020D01*
X123004600Y-78906020D01*
X123075720Y-78890780D01*
X123134140Y-78878080D01*
X123177320Y-78870460D01*
X123195100Y-78862840D01*
X123197640Y-78857760D01*
X123212880Y-78829820D01*
X123233200Y-78786640D01*
X123256060Y-78733300D01*
X123278920Y-78677420D01*
X123299240Y-78626620D01*
X123311940Y-78591060D01*
X123317020Y-78573280D01*
X123306860Y-78555500D01*
X123281460Y-78519940D01*
X123245900Y-78469140D01*
X123205260Y-78408180D01*
X123202720Y-78403100D01*
X123162080Y-78342140D01*
X123129060Y-78291340D01*
X123106200Y-78255780D01*
X123098580Y-78240540D01*
X123098580Y-78238000D01*
X123111280Y-78220220D01*
X123141760Y-78187200D01*
X123187480Y-78141480D01*
X123238280Y-78088140D01*
X123256060Y-78072900D01*
X123314480Y-78014480D01*
X123355120Y-77978920D01*
X123380520Y-77958600D01*
X123390680Y-77953520D01*
X123393220Y-77953520D01*
X123411000Y-77963680D01*
X123449100Y-77989080D01*
X123499900Y-78024640D01*
X123560860Y-78065280D01*
X123563400Y-78067820D01*
X123624360Y-78108460D01*
X123675160Y-78144020D01*
X123710720Y-78166880D01*
X123725960Y-78174500D01*
X123728500Y-78174500D01*
X123751360Y-78169420D01*
X123794540Y-78154180D01*
X123847880Y-78133860D01*
X123903760Y-78111000D01*
X123954560Y-78090680D01*
X123990120Y-78072900D01*
X124007900Y-78062740D01*
X124010440Y-78062740D01*
X124015520Y-78039880D01*
X124025680Y-77994160D01*
X124038380Y-77933200D01*
X124053620Y-77859540D01*
X124056160Y-77849380D01*
X124068860Y-77775720D01*
X124079020Y-77717300D01*
X124089180Y-77676660D01*
X124091720Y-77658880D01*
X124101880Y-77658880D01*
X124137440Y-77656340D01*
X124190780Y-77653800D01*
X124256820Y-77653800D01*
X124322860Y-77653800D01*
X124388900Y-77653800D01*
X124444780Y-77656340D01*
X124485420Y-77658880D01*
X124503200Y-77663960D01*
X124508280Y-77686820D01*
X124518440Y-77730000D01*
X124531140Y-77793500D01*
X124546380Y-77867160D01*
X124548920Y-77879860D01*
X124561620Y-77950980D01*
X124574320Y-78009400D01*
X124581940Y-78050040D01*
X124587020Y-78065280D01*
X124592100Y-78067820D01*
X124622580Y-78083060D01*
X124670840Y-78100840D01*
X124729260Y-78126240D01*
X124866420Y-78182120D01*
X125034060Y-78065280D01*
X125049300Y-78055120D01*
X125110260Y-78014480D01*
X125161060Y-77981460D01*
X125196620Y-77958600D01*
X125209320Y-77950980D01*
X125211860Y-77950980D01*
X125227100Y-77966220D01*
X125260120Y-77996700D01*
X125305840Y-78042420D01*
X125359180Y-78093220D01*
X125399820Y-78133860D01*
X125445540Y-78179580D01*
X125473480Y-78212600D01*
X125491260Y-78232920D01*
X125496340Y-78245620D01*
X125493800Y-78253240D01*
X125483640Y-78271020D01*
X125458240Y-78306580D01*
X125425220Y-78359920D01*
X125384580Y-78418340D01*
X125349020Y-78469140D01*
X125313460Y-78525020D01*
X125290600Y-78565660D01*
X125280440Y-78583440D01*
X125282980Y-78593600D01*
X125295680Y-78626620D01*
X125316000Y-78674880D01*
X125341400Y-78735840D01*
X125399820Y-78867920D01*
X125486180Y-78885700D01*
X125539520Y-78895860D01*
X125613180Y-78908560D01*
X125684300Y-78923800D01*
X125796060Y-78944120D01*
X125798600Y-79347980D01*
X125780820Y-79355600D01*
X125765580Y-79360680D01*
X125724940Y-79370840D01*
X125666520Y-79381000D01*
X125597940Y-79393700D01*
X125536980Y-79406400D01*
X125478560Y-79416560D01*
X125435380Y-79424180D01*
X125417600Y-79429260D01*
X125412520Y-79434340D01*
X125397280Y-79464820D01*
X125376960Y-79510540D01*
X125354100Y-79563880D01*
X125328700Y-79622300D01*
X125308380Y-79673100D01*
X125293140Y-79713740D01*
X125288060Y-79734060D01*
X125295680Y-79749300D01*
X125318540Y-79784860D01*
X125351560Y-79835660D01*
X125392200Y-79894080D01*
X125432840Y-79952500D01*
X125465860Y-80003300D01*
X125491260Y-80038860D01*
X125498880Y-80056640D01*
X125493800Y-80066800D01*
X125470940Y-80094740D01*
X125427760Y-80140460D01*
X125361720Y-80206500D01*
X125349020Y-80216660D01*
X125298220Y-80267460D01*
X125252500Y-80308100D01*
X125222020Y-80336040D01*
X125209320Y-80346200D01*
G36*
X164741152Y-112564455D02*
X164723894Y-112579229D01*
X164684441Y-112620478D01*
X164630809Y-112678352D01*
X164567312Y-112749157D01*
X164503815Y-112819961D01*
X164450183Y-112877835D01*
X164413195Y-112918471D01*
X164398401Y-112932630D01*
X164387928Y-112932623D01*
X164346044Y-112922124D01*
X164285065Y-112908533D01*
X164251803Y-112901119D01*
X164196982Y-112891228D01*
X164171107Y-112892444D01*
X164170486Y-112900452D01*
X164159987Y-112942336D01*
X164148854Y-113013174D01*
X164132778Y-113106186D01*
X164115460Y-113215214D01*
X164097520Y-113332250D01*
X164080196Y-113451751D01*
X164061642Y-113566323D01*
X164048024Y-113669193D01*
X164034419Y-113751118D01*
X164028221Y-113810254D01*
X164026358Y-113834278D01*
X164030052Y-113838593D01*
X164060227Y-113854629D01*
X164110113Y-113876222D01*
X164222815Y-113929273D01*
X164339805Y-114020521D01*
X164428443Y-114134544D01*
X164481334Y-114273187D01*
X164499115Y-114407495D01*
X164478698Y-114546091D01*
X164418854Y-114684046D01*
X164331307Y-114794878D01*
X164219133Y-114880437D01*
X164082955Y-114932714D01*
X163943718Y-114951724D01*
X163802657Y-114931921D01*
X163665316Y-114874542D01*
X163604357Y-114829533D01*
X163508933Y-114730290D01*
X163438776Y-114616894D01*
X163428938Y-114587934D01*
X163399456Y-114448690D01*
X163406321Y-114308237D01*
X163448913Y-114174583D01*
X163525995Y-114053272D01*
X163535859Y-114040342D01*
X163574083Y-113994163D01*
X163598127Y-113964608D01*
X163617857Y-113938747D01*
X163340877Y-113562787D01*
X163297176Y-113503003D01*
X163219618Y-113401923D01*
X163153142Y-113313788D01*
X163101439Y-113242910D01*
X163063890Y-113197299D01*
X163048501Y-113177576D01*
X163033099Y-113178799D01*
X163004132Y-113199110D01*
X162951743Y-113240967D01*
X162917226Y-113270515D01*
X162878394Y-113303757D01*
X162860521Y-113316067D01*
X162840811Y-113310510D01*
X162792155Y-113293846D01*
X162720095Y-113267311D01*
X162633868Y-113236454D01*
X162550107Y-113204983D01*
X162472503Y-113177212D01*
X162418303Y-113159313D01*
X162390585Y-113153135D01*
X162388121Y-113153749D01*
X162371477Y-113170988D01*
X162339417Y-113210394D01*
X162296251Y-113278747D01*
X162237049Y-113377276D01*
X162227799Y-113392671D01*
X162178461Y-113478270D01*
X162138374Y-113548473D01*
X162111238Y-113597123D01*
X162103216Y-113617447D01*
X162121684Y-113639021D01*
X162162934Y-113678473D01*
X162223887Y-113733955D01*
X162294691Y-113797452D01*
X162483094Y-113965135D01*
X162454008Y-114173954D01*
X162445960Y-114236169D01*
X162434205Y-114315015D01*
X162424314Y-114369836D01*
X162417521Y-114395090D01*
X162399648Y-114407399D01*
X162350965Y-114432626D01*
X162278865Y-114468927D01*
X162193828Y-114505835D01*
X162111871Y-114544594D01*
X162039156Y-114578430D01*
X161984930Y-114602422D01*
X161961513Y-114613495D01*
X161957813Y-114619654D01*
X161955956Y-114633205D01*
X161957172Y-114659080D01*
X161968847Y-114705906D01*
X161984817Y-114780457D01*
X162011854Y-114888897D01*
X162014312Y-114898756D01*
X162042585Y-115001652D01*
X162062863Y-115082983D01*
X162078231Y-115134124D01*
X162088076Y-115152611D01*
X162114565Y-115153860D01*
X162171243Y-115150200D01*
X162251946Y-115148402D01*
X162349900Y-115142304D01*
X162354829Y-115141075D01*
X162450319Y-115135591D01*
X162531022Y-115133794D01*
X162588314Y-115132598D01*
X162612338Y-115134462D01*
X162618497Y-115138162D01*
X162647430Y-115170214D01*
X162688673Y-115220139D01*
X162735453Y-115281773D01*
X162782848Y-115345871D01*
X162826549Y-115405655D01*
X162855476Y-115448180D01*
X162865935Y-115469132D01*
X162856679Y-115495000D01*
X162836929Y-115552279D01*
X162808544Y-115627418D01*
X162773987Y-115719802D01*
X162773366Y-115727810D01*
X162738195Y-115817730D01*
X162712888Y-115894719D01*
X162694989Y-115948919D01*
X162690046Y-115971094D01*
X162690661Y-115973558D01*
X162713443Y-115991438D01*
X162763937Y-116025968D01*
X162835369Y-116070984D01*
X162921582Y-116122786D01*
X162948679Y-116136972D01*
X163041050Y-116192474D01*
X163105095Y-116228861D01*
X163145743Y-116244904D01*
X163162374Y-116248611D01*
X163161760Y-116246146D01*
X163183333Y-116227679D01*
X163224635Y-116183350D01*
X163279503Y-116119932D01*
X163345465Y-116048513D01*
X163349165Y-116042355D01*
X163412662Y-115971551D01*
X163465679Y-115911212D01*
X163505132Y-115869963D01*
X163521776Y-115852724D01*
X163526705Y-115851495D01*
X163558738Y-115853980D01*
X163619724Y-115857098D01*
X163693026Y-115867617D01*
X163771872Y-115879372D01*
X163845174Y-115889891D01*
X163899995Y-115899782D01*
X163925249Y-115906575D01*
X163925863Y-115909039D01*
X163942481Y-115933692D01*
X163969551Y-115989768D01*
X164006466Y-116064333D01*
X164047683Y-116156149D01*
X164053834Y-116170322D01*
X164093822Y-116257209D01*
X164127658Y-116329923D01*
X164153500Y-116381071D01*
X164163959Y-116402023D01*
X164176896Y-116401415D01*
X164224337Y-116392204D01*
X164293959Y-116377463D01*
X164377754Y-116356571D01*
X164464013Y-116335064D01*
X164547193Y-116311707D01*
X164620515Y-116290808D01*
X164671657Y-116275439D01*
X164692609Y-116264980D01*
X164694459Y-116261901D01*
X164695093Y-116232947D01*
X164692668Y-116170726D01*
X164690257Y-116087559D01*
X164683544Y-115987140D01*
X164681707Y-115969273D01*
X164676223Y-115873784D01*
X164674426Y-115793081D01*
X164671380Y-115738868D01*
X164673858Y-115717308D01*
X164680022Y-115710535D01*
X164712689Y-115684066D01*
X164768158Y-115644059D01*
X164839036Y-115592356D01*
X164998663Y-115476641D01*
X165253027Y-115572905D01*
X165275816Y-115580312D01*
X165368200Y-115614868D01*
X165442725Y-115640789D01*
X165494460Y-115659303D01*
X165516635Y-115664245D01*
X165533900Y-115638999D01*
X165568430Y-115588505D01*
X165612832Y-115514608D01*
X165662784Y-115431475D01*
X165701635Y-115366815D01*
X165745422Y-115290454D01*
X165775023Y-115241189D01*
X165787981Y-115209163D01*
X165791073Y-115190068D01*
X165786150Y-115180824D01*
X165768297Y-115161716D01*
X165724583Y-115122877D01*
X165663630Y-115067395D01*
X165590361Y-115004513D01*
X165529408Y-114949030D01*
X165464762Y-114889234D01*
X165422283Y-114844852D01*
X165403201Y-114820814D01*
X165403207Y-114810341D01*
X165410013Y-114764143D01*
X165418068Y-114691455D01*
X165431058Y-114607066D01*
X165464445Y-114415498D01*
X165572899Y-114367516D01*
X165638219Y-114335523D01*
X165730035Y-114294306D01*
X165816922Y-114254318D01*
X165952493Y-114189104D01*
X165827152Y-113665390D01*
X165802513Y-113661062D01*
X165778488Y-113659199D01*
X165724275Y-113662245D01*
X165644187Y-113666506D01*
X165551162Y-113671376D01*
X165471074Y-113675638D01*
X165390986Y-113679899D01*
X165334308Y-113683560D01*
X165308433Y-113684775D01*
X165298582Y-113676761D01*
X165269648Y-113644708D01*
X165227790Y-113592318D01*
X165180396Y-113528220D01*
X165133001Y-113464122D01*
X165088686Y-113401874D01*
X165056065Y-113355034D01*
X165041912Y-113329767D01*
X165046854Y-113307593D01*
X165065368Y-113255857D01*
X165091289Y-113181333D01*
X165123996Y-113092028D01*
X165159167Y-113002108D01*
X165184473Y-112925119D01*
X165204838Y-112870304D01*
X165212244Y-112847515D01*
X165201164Y-112834571D01*
X165162372Y-112804977D01*
X165090940Y-112759961D01*
X164983174Y-112695208D01*
X164965314Y-112686572D01*
X164882180Y-112636621D01*
X164810127Y-112599613D01*
X164761477Y-112572476D01*
X164741152Y-112564455D01*
X164741152Y-112564455D01*
G37*
X164741152Y-112564455D02*
X164723894Y-112579229D01*
X164684441Y-112620478D01*
X164630809Y-112678352D01*
X164567312Y-112749157D01*
X164503815Y-112819961D01*
X164450183Y-112877835D01*
X164413195Y-112918471D01*
X164398401Y-112932630D01*
X164387928Y-112932623D01*
X164346044Y-112922124D01*
X164285065Y-112908533D01*
X164251803Y-112901119D01*
X164196982Y-112891228D01*
X164171107Y-112892444D01*
X164170486Y-112900452D01*
X164159987Y-112942336D01*
X164148854Y-113013174D01*
X164132778Y-113106186D01*
X164115460Y-113215214D01*
X164097520Y-113332250D01*
X164080196Y-113451751D01*
X164061642Y-113566323D01*
X164048024Y-113669193D01*
X164034419Y-113751118D01*
X164028221Y-113810254D01*
X164026358Y-113834278D01*
X164030052Y-113838593D01*
X164060227Y-113854629D01*
X164110113Y-113876222D01*
X164222815Y-113929273D01*
X164339805Y-114020521D01*
X164428443Y-114134544D01*
X164481334Y-114273187D01*
X164499115Y-114407495D01*
X164478698Y-114546091D01*
X164418854Y-114684046D01*
X164331307Y-114794878D01*
X164219133Y-114880437D01*
X164082955Y-114932714D01*
X163943718Y-114951724D01*
X163802657Y-114931921D01*
X163665316Y-114874542D01*
X163604357Y-114829533D01*
X163508933Y-114730290D01*
X163438776Y-114616894D01*
X163428938Y-114587934D01*
X163399456Y-114448690D01*
X163406321Y-114308237D01*
X163448913Y-114174583D01*
X163525995Y-114053272D01*
X163535859Y-114040342D01*
X163574083Y-113994163D01*
X163598127Y-113964608D01*
X163617857Y-113938747D01*
X163340877Y-113562787D01*
X163297176Y-113503003D01*
X163219618Y-113401923D01*
X163153142Y-113313788D01*
X163101439Y-113242910D01*
X163063890Y-113197299D01*
X163048501Y-113177576D01*
X163033099Y-113178799D01*
X163004132Y-113199110D01*
X162951743Y-113240967D01*
X162917226Y-113270515D01*
X162878394Y-113303757D01*
X162860521Y-113316067D01*
X162840811Y-113310510D01*
X162792155Y-113293846D01*
X162720095Y-113267311D01*
X162633868Y-113236454D01*
X162550107Y-113204983D01*
X162472503Y-113177212D01*
X162418303Y-113159313D01*
X162390585Y-113153135D01*
X162388121Y-113153749D01*
X162371477Y-113170988D01*
X162339417Y-113210394D01*
X162296251Y-113278747D01*
X162237049Y-113377276D01*
X162227799Y-113392671D01*
X162178461Y-113478270D01*
X162138374Y-113548473D01*
X162111238Y-113597123D01*
X162103216Y-113617447D01*
X162121684Y-113639021D01*
X162162934Y-113678473D01*
X162223887Y-113733955D01*
X162294691Y-113797452D01*
X162483094Y-113965135D01*
X162454008Y-114173954D01*
X162445960Y-114236169D01*
X162434205Y-114315015D01*
X162424314Y-114369836D01*
X162417521Y-114395090D01*
X162399648Y-114407399D01*
X162350965Y-114432626D01*
X162278865Y-114468927D01*
X162193828Y-114505835D01*
X162111871Y-114544594D01*
X162039156Y-114578430D01*
X161984930Y-114602422D01*
X161961513Y-114613495D01*
X161957813Y-114619654D01*
X161955956Y-114633205D01*
X161957172Y-114659080D01*
X161968847Y-114705906D01*
X161984817Y-114780457D01*
X162011854Y-114888897D01*
X162014312Y-114898756D01*
X162042585Y-115001652D01*
X162062863Y-115082983D01*
X162078231Y-115134124D01*
X162088076Y-115152611D01*
X162114565Y-115153860D01*
X162171243Y-115150200D01*
X162251946Y-115148402D01*
X162349900Y-115142304D01*
X162354829Y-115141075D01*
X162450319Y-115135591D01*
X162531022Y-115133794D01*
X162588314Y-115132598D01*
X162612338Y-115134462D01*
X162618497Y-115138162D01*
X162647430Y-115170214D01*
X162688673Y-115220139D01*
X162735453Y-115281773D01*
X162782848Y-115345871D01*
X162826549Y-115405655D01*
X162855476Y-115448180D01*
X162865935Y-115469132D01*
X162856679Y-115495000D01*
X162836929Y-115552279D01*
X162808544Y-115627418D01*
X162773987Y-115719802D01*
X162773366Y-115727810D01*
X162738195Y-115817730D01*
X162712888Y-115894719D01*
X162694989Y-115948919D01*
X162690046Y-115971094D01*
X162690661Y-115973558D01*
X162713443Y-115991438D01*
X162763937Y-116025968D01*
X162835369Y-116070984D01*
X162921582Y-116122786D01*
X162948679Y-116136972D01*
X163041050Y-116192474D01*
X163105095Y-116228861D01*
X163145743Y-116244904D01*
X163162374Y-116248611D01*
X163161760Y-116246146D01*
X163183333Y-116227679D01*
X163224635Y-116183350D01*
X163279503Y-116119932D01*
X163345465Y-116048513D01*
X163349165Y-116042355D01*
X163412662Y-115971551D01*
X163465679Y-115911212D01*
X163505132Y-115869963D01*
X163521776Y-115852724D01*
X163526705Y-115851495D01*
X163558738Y-115853980D01*
X163619724Y-115857098D01*
X163693026Y-115867617D01*
X163771872Y-115879372D01*
X163845174Y-115889891D01*
X163899995Y-115899782D01*
X163925249Y-115906575D01*
X163925863Y-115909039D01*
X163942481Y-115933692D01*
X163969551Y-115989768D01*
X164006466Y-116064333D01*
X164047683Y-116156149D01*
X164053834Y-116170322D01*
X164093822Y-116257209D01*
X164127658Y-116329923D01*
X164153500Y-116381071D01*
X164163959Y-116402023D01*
X164176896Y-116401415D01*
X164224337Y-116392204D01*
X164293959Y-116377463D01*
X164377754Y-116356571D01*
X164464013Y-116335064D01*
X164547193Y-116311707D01*
X164620515Y-116290808D01*
X164671657Y-116275439D01*
X164692609Y-116264980D01*
X164694459Y-116261901D01*
X164695093Y-116232947D01*
X164692668Y-116170726D01*
X164690257Y-116087559D01*
X164683544Y-115987140D01*
X164681707Y-115969273D01*
X164676223Y-115873784D01*
X164674426Y-115793081D01*
X164671380Y-115738868D01*
X164673858Y-115717308D01*
X164680022Y-115710535D01*
X164712689Y-115684066D01*
X164768158Y-115644059D01*
X164839036Y-115592356D01*
X164998663Y-115476641D01*
X165253027Y-115572905D01*
X165275816Y-115580312D01*
X165368200Y-115614868D01*
X165442725Y-115640789D01*
X165494460Y-115659303D01*
X165516635Y-115664245D01*
X165533900Y-115638999D01*
X165568430Y-115588505D01*
X165612832Y-115514608D01*
X165662784Y-115431475D01*
X165701635Y-115366815D01*
X165745422Y-115290454D01*
X165775023Y-115241189D01*
X165787981Y-115209163D01*
X165791073Y-115190068D01*
X165786150Y-115180824D01*
X165768297Y-115161716D01*
X165724583Y-115122877D01*
X165663630Y-115067395D01*
X165590361Y-115004513D01*
X165529408Y-114949030D01*
X165464762Y-114889234D01*
X165422283Y-114844852D01*
X165403201Y-114820814D01*
X165403207Y-114810341D01*
X165410013Y-114764143D01*
X165418068Y-114691455D01*
X165431058Y-114607066D01*
X165464445Y-114415498D01*
X165572899Y-114367516D01*
X165638219Y-114335523D01*
X165730035Y-114294306D01*
X165816922Y-114254318D01*
X165952493Y-114189104D01*
X165827152Y-113665390D01*
X165802513Y-113661062D01*
X165778488Y-113659199D01*
X165724275Y-113662245D01*
X165644187Y-113666506D01*
X165551162Y-113671376D01*
X165471074Y-113675638D01*
X165390986Y-113679899D01*
X165334308Y-113683560D01*
X165308433Y-113684775D01*
X165298582Y-113676761D01*
X165269648Y-113644708D01*
X165227790Y-113592318D01*
X165180396Y-113528220D01*
X165133001Y-113464122D01*
X165088686Y-113401874D01*
X165056065Y-113355034D01*
X165041912Y-113329767D01*
X165046854Y-113307593D01*
X165065368Y-113255857D01*
X165091289Y-113181333D01*
X165123996Y-113092028D01*
X165159167Y-113002108D01*
X165184473Y-112925119D01*
X165204838Y-112870304D01*
X165212244Y-112847515D01*
X165201164Y-112834571D01*
X165162372Y-112804977D01*
X165090940Y-112759961D01*
X164983174Y-112695208D01*
X164965314Y-112686572D01*
X164882180Y-112636621D01*
X164810127Y-112599613D01*
X164761477Y-112572476D01*
X164741152Y-112564455D01*
G36*
X143072482Y-123243207D02*
X143092188Y-123211299D01*
X143129990Y-123139614D01*
X143184958Y-123031621D01*
X143246774Y-122905010D01*
X143309520Y-122774930D01*
X143362289Y-122668208D01*
X143400091Y-122596523D01*
X143416668Y-122569354D01*
X143432406Y-122566134D01*
X143494769Y-122562391D01*
X143586750Y-122559146D01*
X143639974Y-122554813D01*
X143722475Y-122545309D01*
X143757081Y-122534128D01*
X143758600Y-122521519D01*
X143753587Y-122456956D01*
X143741452Y-122349578D01*
X143725076Y-122209453D01*
X143706068Y-122044450D01*
X143682910Y-121867180D01*
X143658482Y-121687709D01*
X143636934Y-121518307D01*
X143617337Y-121362444D01*
X143598512Y-121238398D01*
X143584268Y-121152767D01*
X143577487Y-121115621D01*
X143569278Y-121111562D01*
X143520702Y-121098546D01*
X143439379Y-121089772D01*
X143257776Y-121059706D01*
X143049162Y-120977776D01*
X142875312Y-120849379D01*
X142740625Y-120671975D01*
X142658823Y-120484568D01*
X142631423Y-120274551D01*
X142661307Y-120051992D01*
X142740448Y-119853787D01*
X142866985Y-119686877D01*
X143042190Y-119553460D01*
X143233996Y-119469117D01*
X143447142Y-119436978D01*
X143668432Y-119464663D01*
X143775403Y-119502622D01*
X143955761Y-119606731D01*
X144101604Y-119742499D01*
X144130134Y-119781754D01*
X144228945Y-119968139D01*
X144275552Y-120175866D01*
X144271135Y-120386655D01*
X144210613Y-120591707D01*
X144200635Y-120615066D01*
X144165713Y-120696819D01*
X144141699Y-120751745D01*
X144123943Y-120797192D01*
X144680962Y-121223496D01*
X144769157Y-121289895D01*
X144920578Y-121404844D01*
X145051771Y-121505076D01*
X145158925Y-121583992D01*
X145230361Y-121636603D01*
X145260069Y-121657579D01*
X145262269Y-121656309D01*
X145284606Y-121649278D01*
X145317510Y-121609750D01*
X145375110Y-121526636D01*
X145410463Y-121471029D01*
X145453345Y-121408143D01*
X145473391Y-121381904D01*
X145503938Y-121378933D01*
X145582720Y-121383308D01*
X145697130Y-121393510D01*
X145836416Y-121401081D01*
X145969103Y-121412462D01*
X146090111Y-121418855D01*
X146178033Y-121423819D01*
X146217719Y-121421437D01*
X146222118Y-121418897D01*
X146241824Y-121386989D01*
X146268288Y-121315985D01*
X146301167Y-121200215D01*
X146347993Y-121032399D01*
X146356701Y-121006841D01*
X146392619Y-120865853D01*
X146420759Y-120746953D01*
X146438673Y-120666220D01*
X146442300Y-120631864D01*
X146406923Y-120611228D01*
X146330498Y-120570296D01*
X146222506Y-120515328D01*
X146091155Y-120450382D01*
X145749240Y-120289968D01*
X145706576Y-119977312D01*
X145691652Y-119880343D01*
X145676637Y-119762896D01*
X145667133Y-119680395D01*
X145664751Y-119640709D01*
X145688267Y-119615400D01*
X145746298Y-119558432D01*
X145836054Y-119480215D01*
X145944338Y-119388368D01*
X146046023Y-119300331D01*
X146137979Y-119220843D01*
X146205149Y-119164465D01*
X146234334Y-119138816D01*
X146239323Y-119127137D01*
X146237032Y-119107929D01*
X146221112Y-119070194D01*
X146186481Y-119005132D01*
X146131531Y-118904876D01*
X146048981Y-118761895D01*
X146040091Y-118746497D01*
X145959151Y-118611385D01*
X145894722Y-118504870D01*
X145849682Y-118437019D01*
X145828773Y-118410963D01*
X145790697Y-118421214D01*
X145709217Y-118447726D01*
X145594401Y-118487619D01*
X145457247Y-118534542D01*
X145448449Y-118539622D01*
X145311295Y-118586545D01*
X145197409Y-118622968D01*
X145115929Y-118649480D01*
X145078783Y-118656262D01*
X145067104Y-118651273D01*
X145014967Y-118616850D01*
X144936592Y-118562380D01*
X144841457Y-118494122D01*
X144745982Y-118420195D01*
X144659987Y-118352527D01*
X144601160Y-118301435D01*
X144576781Y-118274450D01*
X144577869Y-118235693D01*
X144582833Y-118147772D01*
X144593625Y-118024224D01*
X144603055Y-117877998D01*
X144604574Y-117865389D01*
X144615275Y-117721363D01*
X144621667Y-117600355D01*
X144623502Y-117517173D01*
X144622390Y-117479687D01*
X144621120Y-117477487D01*
X144579143Y-117460661D01*
X144492061Y-117431749D01*
X144369351Y-117397010D01*
X144227093Y-117358892D01*
X144181987Y-117346806D01*
X144023650Y-117306239D01*
X143916430Y-117283088D01*
X143852116Y-117273293D01*
X143827238Y-117275924D01*
X143826309Y-117279393D01*
X143805673Y-117314771D01*
X143765082Y-117396865D01*
X143711384Y-117507057D01*
X143647708Y-117640607D01*
X143643649Y-117648817D01*
X143578703Y-117780167D01*
X143527204Y-117889089D01*
X143488473Y-117964244D01*
X143470966Y-117994882D01*
X143466567Y-117997422D01*
X143418422Y-118010554D01*
X143328392Y-118027337D01*
X143217885Y-118044212D01*
X143099508Y-118062697D01*
X142989929Y-118076102D01*
X142908358Y-118082136D01*
X142867402Y-118082318D01*
X142865202Y-118083588D01*
X142832614Y-118052543D01*
X142769296Y-117983514D01*
X142686339Y-117890628D01*
X142588482Y-117777015D01*
X142572653Y-117759758D01*
X142478266Y-117647075D01*
X142400049Y-117557318D01*
X142344011Y-117495818D01*
X142319632Y-117468832D01*
X142300764Y-117476792D01*
X142236632Y-117507953D01*
X142141705Y-117556893D01*
X142029520Y-117621663D01*
X141912935Y-117688973D01*
X141799821Y-117757213D01*
X141705574Y-117817493D01*
X141637723Y-117862532D01*
X141610737Y-117886911D01*
X141612007Y-117889111D01*
X141622599Y-117932856D01*
X141649451Y-118020005D01*
X141689684Y-118140491D01*
X141739147Y-118282044D01*
X141748718Y-118308781D01*
X141797841Y-118444664D01*
X141834264Y-118558550D01*
X141858236Y-118635631D01*
X141868147Y-118668037D01*
X141859688Y-118678787D01*
X141823065Y-118732194D01*
X141758526Y-118813449D01*
X141679270Y-118914934D01*
X141497582Y-119148881D01*
X141091651Y-119116347D01*
X141055095Y-119113990D01*
X140907599Y-119102360D01*
X140788790Y-119094697D01*
X140705609Y-119092862D01*
X140672522Y-119091434D01*
X140671592Y-119094904D01*
X140656966Y-119135611D01*
X140631524Y-119223623D01*
X140596784Y-119346333D01*
X140556467Y-119489861D01*
X140527646Y-119597422D01*
X140495447Y-119724531D01*
X140476603Y-119808733D01*
X140468327Y-119860439D01*
X140470029Y-119888786D01*
X140483318Y-119901644D01*
X140517426Y-119920080D01*
X140598250Y-119958471D01*
X140709712Y-120014369D01*
X140838522Y-120074916D01*
X140948714Y-120128614D01*
X141068386Y-120188571D01*
X141148620Y-120236101D01*
X141183068Y-120260207D01*
X141187559Y-120278145D01*
X141200782Y-120346767D01*
X141215116Y-120452876D01*
X141230812Y-120581662D01*
X141262976Y-120871051D01*
X141127706Y-120987277D01*
X141047678Y-121056945D01*
X140931866Y-121156071D01*
X140822652Y-121251388D01*
X140652868Y-121399273D01*
X141051399Y-122104789D01*
X141089815Y-122100207D01*
X141123491Y-122092496D01*
X141202772Y-122067254D01*
X141315388Y-122028631D01*
X141446872Y-121982048D01*
X141561688Y-121942155D01*
X141674304Y-121903533D01*
X141756714Y-121873551D01*
X141793520Y-121861100D01*
X141806469Y-121868289D01*
X141862076Y-121903642D01*
X141945191Y-121961241D01*
X142039395Y-122032969D01*
X142138340Y-122107825D01*
X142225605Y-122177693D01*
X142292641Y-122232844D01*
X142321760Y-122262959D01*
X142323802Y-122296975D01*
X142319767Y-122381427D01*
X142312105Y-122500236D01*
X142302334Y-122640792D01*
X142291634Y-122784818D01*
X142281772Y-122904897D01*
X142276807Y-122992818D01*
X142277919Y-123030304D01*
X142298148Y-123045022D01*
X142365683Y-123070555D01*
X142488392Y-123105294D01*
X142668817Y-123153639D01*
X142698774Y-123159807D01*
X142839762Y-123195725D01*
X142957392Y-123221665D01*
X143038125Y-123239579D01*
X143072482Y-123243207D01*
X143072482Y-123243207D01*
G37*
X143072482Y-123243207D02*
X143092188Y-123211299D01*
X143129990Y-123139614D01*
X143184958Y-123031621D01*
X143246774Y-122905010D01*
X143309520Y-122774930D01*
X143362289Y-122668208D01*
X143400091Y-122596523D01*
X143416668Y-122569354D01*
X143432406Y-122566134D01*
X143494769Y-122562391D01*
X143586750Y-122559146D01*
X143639974Y-122554813D01*
X143722475Y-122545309D01*
X143757081Y-122534128D01*
X143758600Y-122521519D01*
X143753587Y-122456956D01*
X143741452Y-122349578D01*
X143725076Y-122209453D01*
X143706068Y-122044450D01*
X143682910Y-121867180D01*
X143658482Y-121687709D01*
X143636934Y-121518307D01*
X143617337Y-121362444D01*
X143598512Y-121238398D01*
X143584268Y-121152767D01*
X143577487Y-121115621D01*
X143569278Y-121111562D01*
X143520702Y-121098546D01*
X143439379Y-121089772D01*
X143257776Y-121059706D01*
X143049162Y-120977776D01*
X142875312Y-120849379D01*
X142740625Y-120671975D01*
X142658823Y-120484568D01*
X142631423Y-120274551D01*
X142661307Y-120051992D01*
X142740448Y-119853787D01*
X142866985Y-119686877D01*
X143042190Y-119553460D01*
X143233996Y-119469117D01*
X143447142Y-119436978D01*
X143668432Y-119464663D01*
X143775403Y-119502622D01*
X143955761Y-119606731D01*
X144101604Y-119742499D01*
X144130134Y-119781754D01*
X144228945Y-119968139D01*
X144275552Y-120175866D01*
X144271135Y-120386655D01*
X144210613Y-120591707D01*
X144200635Y-120615066D01*
X144165713Y-120696819D01*
X144141699Y-120751745D01*
X144123943Y-120797192D01*
X144680962Y-121223496D01*
X144769157Y-121289895D01*
X144920578Y-121404844D01*
X145051771Y-121505076D01*
X145158925Y-121583992D01*
X145230361Y-121636603D01*
X145260069Y-121657579D01*
X145262269Y-121656309D01*
X145284606Y-121649278D01*
X145317510Y-121609750D01*
X145375110Y-121526636D01*
X145410463Y-121471029D01*
X145453345Y-121408143D01*
X145473391Y-121381904D01*
X145503938Y-121378933D01*
X145582720Y-121383308D01*
X145697130Y-121393510D01*
X145836416Y-121401081D01*
X145969103Y-121412462D01*
X146090111Y-121418855D01*
X146178033Y-121423819D01*
X146217719Y-121421437D01*
X146222118Y-121418897D01*
X146241824Y-121386989D01*
X146268288Y-121315985D01*
X146301167Y-121200215D01*
X146347993Y-121032399D01*
X146356701Y-121006841D01*
X146392619Y-120865853D01*
X146420759Y-120746953D01*
X146438673Y-120666220D01*
X146442300Y-120631864D01*
X146406923Y-120611228D01*
X146330498Y-120570296D01*
X146222506Y-120515328D01*
X146091155Y-120450382D01*
X145749240Y-120289968D01*
X145706576Y-119977312D01*
X145691652Y-119880343D01*
X145676637Y-119762896D01*
X145667133Y-119680395D01*
X145664751Y-119640709D01*
X145688267Y-119615400D01*
X145746298Y-119558432D01*
X145836054Y-119480215D01*
X145944338Y-119388368D01*
X146046023Y-119300331D01*
X146137979Y-119220843D01*
X146205149Y-119164465D01*
X146234334Y-119138816D01*
X146239323Y-119127137D01*
X146237032Y-119107929D01*
X146221112Y-119070194D01*
X146186481Y-119005132D01*
X146131531Y-118904876D01*
X146048981Y-118761895D01*
X146040091Y-118746497D01*
X145959151Y-118611385D01*
X145894722Y-118504870D01*
X145849682Y-118437019D01*
X145828773Y-118410963D01*
X145790697Y-118421214D01*
X145709217Y-118447726D01*
X145594401Y-118487619D01*
X145457247Y-118534542D01*
X145448449Y-118539622D01*
X145311295Y-118586545D01*
X145197409Y-118622968D01*
X145115929Y-118649480D01*
X145078783Y-118656262D01*
X145067104Y-118651273D01*
X145014967Y-118616850D01*
X144936592Y-118562380D01*
X144841457Y-118494122D01*
X144745982Y-118420195D01*
X144659987Y-118352527D01*
X144601160Y-118301435D01*
X144576781Y-118274450D01*
X144577869Y-118235693D01*
X144582833Y-118147772D01*
X144593625Y-118024224D01*
X144603055Y-117877998D01*
X144604574Y-117865389D01*
X144615275Y-117721363D01*
X144621667Y-117600355D01*
X144623502Y-117517173D01*
X144622390Y-117479687D01*
X144621120Y-117477487D01*
X144579143Y-117460661D01*
X144492061Y-117431749D01*
X144369351Y-117397010D01*
X144227093Y-117358892D01*
X144181987Y-117346806D01*
X144023650Y-117306239D01*
X143916430Y-117283088D01*
X143852116Y-117273293D01*
X143827238Y-117275924D01*
X143826309Y-117279393D01*
X143805673Y-117314771D01*
X143765082Y-117396865D01*
X143711384Y-117507057D01*
X143647708Y-117640607D01*
X143643649Y-117648817D01*
X143578703Y-117780167D01*
X143527204Y-117889089D01*
X143488473Y-117964244D01*
X143470966Y-117994882D01*
X143466567Y-117997422D01*
X143418422Y-118010554D01*
X143328392Y-118027337D01*
X143217885Y-118044212D01*
X143099508Y-118062697D01*
X142989929Y-118076102D01*
X142908358Y-118082136D01*
X142867402Y-118082318D01*
X142865202Y-118083588D01*
X142832614Y-118052543D01*
X142769296Y-117983514D01*
X142686339Y-117890628D01*
X142588482Y-117777015D01*
X142572653Y-117759758D01*
X142478266Y-117647075D01*
X142400049Y-117557318D01*
X142344011Y-117495818D01*
X142319632Y-117468832D01*
X142300764Y-117476792D01*
X142236632Y-117507953D01*
X142141705Y-117556893D01*
X142029520Y-117621663D01*
X141912935Y-117688973D01*
X141799821Y-117757213D01*
X141705574Y-117817493D01*
X141637723Y-117862532D01*
X141610737Y-117886911D01*
X141612007Y-117889111D01*
X141622599Y-117932856D01*
X141649451Y-118020005D01*
X141689684Y-118140491D01*
X141739147Y-118282044D01*
X141748718Y-118308781D01*
X141797841Y-118444664D01*
X141834264Y-118558550D01*
X141858236Y-118635631D01*
X141868147Y-118668037D01*
X141859688Y-118678787D01*
X141823065Y-118732194D01*
X141758526Y-118813449D01*
X141679270Y-118914934D01*
X141497582Y-119148881D01*
X141091651Y-119116347D01*
X141055095Y-119113990D01*
X140907599Y-119102360D01*
X140788790Y-119094697D01*
X140705609Y-119092862D01*
X140672522Y-119091434D01*
X140671592Y-119094904D01*
X140656966Y-119135611D01*
X140631524Y-119223623D01*
X140596784Y-119346333D01*
X140556467Y-119489861D01*
X140527646Y-119597422D01*
X140495447Y-119724531D01*
X140476603Y-119808733D01*
X140468327Y-119860439D01*
X140470029Y-119888786D01*
X140483318Y-119901644D01*
X140517426Y-119920080D01*
X140598250Y-119958471D01*
X140709712Y-120014369D01*
X140838522Y-120074916D01*
X140948714Y-120128614D01*
X141068386Y-120188571D01*
X141148620Y-120236101D01*
X141183068Y-120260207D01*
X141187559Y-120278145D01*
X141200782Y-120346767D01*
X141215116Y-120452876D01*
X141230812Y-120581662D01*
X141262976Y-120871051D01*
X141127706Y-120987277D01*
X141047678Y-121056945D01*
X140931866Y-121156071D01*
X140822652Y-121251388D01*
X140652868Y-121399273D01*
X141051399Y-122104789D01*
X141089815Y-122100207D01*
X141123491Y-122092496D01*
X141202772Y-122067254D01*
X141315388Y-122028631D01*
X141446872Y-121982048D01*
X141561688Y-121942155D01*
X141674304Y-121903533D01*
X141756714Y-121873551D01*
X141793520Y-121861100D01*
X141806469Y-121868289D01*
X141862076Y-121903642D01*
X141945191Y-121961241D01*
X142039395Y-122032969D01*
X142138340Y-122107825D01*
X142225605Y-122177693D01*
X142292641Y-122232844D01*
X142321760Y-122262959D01*
X142323802Y-122296975D01*
X142319767Y-122381427D01*
X142312105Y-122500236D01*
X142302334Y-122640792D01*
X142291634Y-122784818D01*
X142281772Y-122904897D01*
X142276807Y-122992818D01*
X142277919Y-123030304D01*
X142298148Y-123045022D01*
X142365683Y-123070555D01*
X142488392Y-123105294D01*
X142668817Y-123153639D01*
X142698774Y-123159807D01*
X142839762Y-123195725D01*
X142957392Y-123221665D01*
X143038125Y-123239579D01*
X143072482Y-123243207D01*
G36*
X186390680Y-63653800D02*
X186408460Y-63661420D01*
X186441480Y-63684280D01*
X186492280Y-63717300D01*
X186550700Y-63755400D01*
X186611660Y-63796040D01*
X186659920Y-63829060D01*
X186695480Y-63851920D01*
X186708180Y-63859540D01*
X186715800Y-63857000D01*
X186743740Y-63841760D01*
X186784380Y-63821440D01*
X186809780Y-63808740D01*
X186847880Y-63793500D01*
X186865660Y-63788420D01*
X186868200Y-63793500D01*
X186883440Y-63823980D01*
X186903760Y-63872240D01*
X186931700Y-63938280D01*
X186964720Y-64014480D01*
X187000280Y-64095760D01*
X187033300Y-64179580D01*
X187066320Y-64258320D01*
X187096800Y-64331980D01*
X187119660Y-64390400D01*
X187134900Y-64431040D01*
X187142520Y-64448820D01*
X187139980Y-64451360D01*
X187122200Y-64469140D01*
X187089180Y-64494540D01*
X187018060Y-64552960D01*
X186946940Y-64639320D01*
X186903760Y-64738380D01*
X186891060Y-64850140D01*
X186901220Y-64951740D01*
X186941860Y-65048260D01*
X187010440Y-65137160D01*
X187094260Y-65203200D01*
X187190780Y-65243840D01*
X187300000Y-65256540D01*
X187404140Y-65246380D01*
X187503200Y-65205740D01*
X187592100Y-65139700D01*
X187630200Y-65096520D01*
X187681000Y-65005080D01*
X187711480Y-64911100D01*
X187714020Y-64888240D01*
X187708940Y-64781560D01*
X187678460Y-64679960D01*
X187622580Y-64591060D01*
X187546380Y-64517400D01*
X187536220Y-64509780D01*
X187500660Y-64481840D01*
X187475260Y-64464060D01*
X187457480Y-64448820D01*
X187592100Y-64126240D01*
X187612420Y-64075440D01*
X187650520Y-63986540D01*
X187681000Y-63910340D01*
X187708940Y-63849380D01*
X187726720Y-63808740D01*
X187734340Y-63793500D01*
X187747040Y-63790960D01*
X187769900Y-63798580D01*
X187815620Y-63821440D01*
X187846100Y-63836680D01*
X187879120Y-63851920D01*
X187894360Y-63859540D01*
X187909600Y-63851920D01*
X187942620Y-63831600D01*
X187988340Y-63798580D01*
X188046760Y-63760480D01*
X188102640Y-63722380D01*
X188153440Y-63689360D01*
X188189000Y-63663960D01*
X188206780Y-63656340D01*
X188209320Y-63656340D01*
X188227100Y-63663960D01*
X188255040Y-63689360D01*
X188298220Y-63730000D01*
X188361720Y-63790960D01*
X188371880Y-63801120D01*
X188422680Y-63851920D01*
X188463320Y-63897640D01*
X188491260Y-63928120D01*
X188501420Y-63940820D01*
X188491260Y-63958600D01*
X188468400Y-63996700D01*
X188435380Y-64047500D01*
X188394740Y-64108460D01*
X188288060Y-64263400D01*
X188346480Y-64408180D01*
X188364260Y-64453900D01*
X188387120Y-64509780D01*
X188404900Y-64547880D01*
X188412520Y-64565660D01*
X188430300Y-64570740D01*
X188468400Y-64580900D01*
X188526820Y-64591060D01*
X188597940Y-64603760D01*
X188663980Y-64616460D01*
X188722400Y-64629160D01*
X188765580Y-64636780D01*
X188785900Y-64639320D01*
X188790980Y-64644400D01*
X188793520Y-64652020D01*
X188796060Y-64672340D01*
X188798600Y-64710440D01*
X188798600Y-64766320D01*
X188798600Y-64850140D01*
X188798600Y-64857760D01*
X188798600Y-64936500D01*
X188796060Y-65000000D01*
X188793520Y-65038100D01*
X188790980Y-65055880D01*
X188773200Y-65060960D01*
X188730020Y-65068580D01*
X188671600Y-65081280D01*
X188600480Y-65093980D01*
X188595400Y-65093980D01*
X188524280Y-65109220D01*
X188465860Y-65121920D01*
X188422680Y-65129540D01*
X188404900Y-65137160D01*
X188402360Y-65142240D01*
X188387120Y-65170180D01*
X188366800Y-65213360D01*
X188343940Y-65266700D01*
X188321080Y-65322580D01*
X188300760Y-65373380D01*
X188288060Y-65408940D01*
X188282980Y-65426720D01*
X188293140Y-65444500D01*
X188318540Y-65480060D01*
X188354100Y-65530860D01*
X188394740Y-65591820D01*
X188397280Y-65596900D01*
X188437920Y-65657860D01*
X188470940Y-65708660D01*
X188493800Y-65744220D01*
X188501420Y-65759460D01*
X188501420Y-65762000D01*
X188488720Y-65779780D01*
X188458240Y-65812800D01*
X188412520Y-65858520D01*
X188361720Y-65911860D01*
X188343940Y-65927100D01*
X188285520Y-65985520D01*
X188244880Y-66021080D01*
X188219480Y-66041400D01*
X188209320Y-66046480D01*
X188206780Y-66046480D01*
X188189000Y-66036320D01*
X188150900Y-66010920D01*
X188100100Y-65975360D01*
X188039140Y-65934720D01*
X188036600Y-65932180D01*
X187975640Y-65891540D01*
X187924840Y-65855980D01*
X187889280Y-65833120D01*
X187874040Y-65825500D01*
X187871500Y-65825500D01*
X187848640Y-65830580D01*
X187805460Y-65845820D01*
X187752120Y-65866140D01*
X187696240Y-65889000D01*
X187645440Y-65909320D01*
X187609880Y-65927100D01*
X187592100Y-65937260D01*
X187589560Y-65937260D01*
X187584480Y-65960120D01*
X187574320Y-66005840D01*
X187561620Y-66066800D01*
X187546380Y-66140460D01*
X187543840Y-66150620D01*
X187531140Y-66224280D01*
X187520980Y-66282700D01*
X187510820Y-66323340D01*
X187508280Y-66341120D01*
X187498120Y-66341120D01*
X187462560Y-66343660D01*
X187409220Y-66346200D01*
X187343180Y-66346200D01*
X187277140Y-66346200D01*
X187211100Y-66346200D01*
X187155220Y-66343660D01*
X187114580Y-66341120D01*
X187096800Y-66336040D01*
X187091720Y-66313180D01*
X187081560Y-66270000D01*
X187068860Y-66206500D01*
X187053620Y-66132840D01*
X187051080Y-66120140D01*
X187038380Y-66049020D01*
X187025680Y-65990600D01*
X187018060Y-65949960D01*
X187012980Y-65934720D01*
X187007900Y-65932180D01*
X186977420Y-65916940D01*
X186929160Y-65899160D01*
X186870740Y-65873760D01*
X186733580Y-65817880D01*
X186565940Y-65934720D01*
X186550700Y-65944880D01*
X186489740Y-65985520D01*
X186438940Y-66018540D01*
X186403380Y-66041400D01*
X186390680Y-66049020D01*
X186388140Y-66049020D01*
X186372900Y-66033780D01*
X186339880Y-66003300D01*
X186294160Y-65957580D01*
X186240820Y-65906780D01*
X186200180Y-65866140D01*
X186154460Y-65820420D01*
X186126520Y-65787400D01*
X186108740Y-65767080D01*
X186103660Y-65754380D01*
X186106200Y-65746760D01*
X186116360Y-65728980D01*
X186141760Y-65693420D01*
X186174780Y-65640080D01*
X186215420Y-65581660D01*
X186250980Y-65530860D01*
X186286540Y-65474980D01*
X186309400Y-65434340D01*
X186319560Y-65416560D01*
X186317020Y-65406400D01*
X186304320Y-65373380D01*
X186284000Y-65325120D01*
X186258600Y-65264160D01*
X186200180Y-65132080D01*
X186113820Y-65114300D01*
X186060480Y-65104140D01*
X185986820Y-65091440D01*
X185915700Y-65076200D01*
X185803940Y-65055880D01*
X185801400Y-64652020D01*
X185819180Y-64644400D01*
X185834420Y-64639320D01*
X185875060Y-64629160D01*
X185933480Y-64619000D01*
X186002060Y-64606300D01*
X186063020Y-64593600D01*
X186121440Y-64583440D01*
X186164620Y-64575820D01*
X186182400Y-64570740D01*
X186187480Y-64565660D01*
X186202720Y-64535180D01*
X186223040Y-64489460D01*
X186245900Y-64436120D01*
X186271300Y-64377700D01*
X186291620Y-64326900D01*
X186306860Y-64286260D01*
X186311940Y-64265940D01*
X186304320Y-64250700D01*
X186281460Y-64215140D01*
X186248440Y-64164340D01*
X186207800Y-64105920D01*
X186167160Y-64047500D01*
X186134140Y-63996700D01*
X186108740Y-63961140D01*
X186101120Y-63943360D01*
X186106200Y-63933200D01*
X186129060Y-63905260D01*
X186172240Y-63859540D01*
X186238280Y-63793500D01*
X186250980Y-63783340D01*
X186301780Y-63732540D01*
X186347500Y-63691900D01*
X186377980Y-63663960D01*
X186390680Y-63653800D01*
X186390680Y-63653800D01*
G37*
X186390680Y-63653800D02*
X186408460Y-63661420D01*
X186441480Y-63684280D01*
X186492280Y-63717300D01*
X186550700Y-63755400D01*
X186611660Y-63796040D01*
X186659920Y-63829060D01*
X186695480Y-63851920D01*
X186708180Y-63859540D01*
X186715800Y-63857000D01*
X186743740Y-63841760D01*
X186784380Y-63821440D01*
X186809780Y-63808740D01*
X186847880Y-63793500D01*
X186865660Y-63788420D01*
X186868200Y-63793500D01*
X186883440Y-63823980D01*
X186903760Y-63872240D01*
X186931700Y-63938280D01*
X186964720Y-64014480D01*
X187000280Y-64095760D01*
X187033300Y-64179580D01*
X187066320Y-64258320D01*
X187096800Y-64331980D01*
X187119660Y-64390400D01*
X187134900Y-64431040D01*
X187142520Y-64448820D01*
X187139980Y-64451360D01*
X187122200Y-64469140D01*
X187089180Y-64494540D01*
X187018060Y-64552960D01*
X186946940Y-64639320D01*
X186903760Y-64738380D01*
X186891060Y-64850140D01*
X186901220Y-64951740D01*
X186941860Y-65048260D01*
X187010440Y-65137160D01*
X187094260Y-65203200D01*
X187190780Y-65243840D01*
X187300000Y-65256540D01*
X187404140Y-65246380D01*
X187503200Y-65205740D01*
X187592100Y-65139700D01*
X187630200Y-65096520D01*
X187681000Y-65005080D01*
X187711480Y-64911100D01*
X187714020Y-64888240D01*
X187708940Y-64781560D01*
X187678460Y-64679960D01*
X187622580Y-64591060D01*
X187546380Y-64517400D01*
X187536220Y-64509780D01*
X187500660Y-64481840D01*
X187475260Y-64464060D01*
X187457480Y-64448820D01*
X187592100Y-64126240D01*
X187612420Y-64075440D01*
X187650520Y-63986540D01*
X187681000Y-63910340D01*
X187708940Y-63849380D01*
X187726720Y-63808740D01*
X187734340Y-63793500D01*
X187747040Y-63790960D01*
X187769900Y-63798580D01*
X187815620Y-63821440D01*
X187846100Y-63836680D01*
X187879120Y-63851920D01*
X187894360Y-63859540D01*
X187909600Y-63851920D01*
X187942620Y-63831600D01*
X187988340Y-63798580D01*
X188046760Y-63760480D01*
X188102640Y-63722380D01*
X188153440Y-63689360D01*
X188189000Y-63663960D01*
X188206780Y-63656340D01*
X188209320Y-63656340D01*
X188227100Y-63663960D01*
X188255040Y-63689360D01*
X188298220Y-63730000D01*
X188361720Y-63790960D01*
X188371880Y-63801120D01*
X188422680Y-63851920D01*
X188463320Y-63897640D01*
X188491260Y-63928120D01*
X188501420Y-63940820D01*
X188491260Y-63958600D01*
X188468400Y-63996700D01*
X188435380Y-64047500D01*
X188394740Y-64108460D01*
X188288060Y-64263400D01*
X188346480Y-64408180D01*
X188364260Y-64453900D01*
X188387120Y-64509780D01*
X188404900Y-64547880D01*
X188412520Y-64565660D01*
X188430300Y-64570740D01*
X188468400Y-64580900D01*
X188526820Y-64591060D01*
X188597940Y-64603760D01*
X188663980Y-64616460D01*
X188722400Y-64629160D01*
X188765580Y-64636780D01*
X188785900Y-64639320D01*
X188790980Y-64644400D01*
X188793520Y-64652020D01*
X188796060Y-64672340D01*
X188798600Y-64710440D01*
X188798600Y-64766320D01*
X188798600Y-64850140D01*
X188798600Y-64857760D01*
X188798600Y-64936500D01*
X188796060Y-65000000D01*
X188793520Y-65038100D01*
X188790980Y-65055880D01*
X188773200Y-65060960D01*
X188730020Y-65068580D01*
X188671600Y-65081280D01*
X188600480Y-65093980D01*
X188595400Y-65093980D01*
X188524280Y-65109220D01*
X188465860Y-65121920D01*
X188422680Y-65129540D01*
X188404900Y-65137160D01*
X188402360Y-65142240D01*
X188387120Y-65170180D01*
X188366800Y-65213360D01*
X188343940Y-65266700D01*
X188321080Y-65322580D01*
X188300760Y-65373380D01*
X188288060Y-65408940D01*
X188282980Y-65426720D01*
X188293140Y-65444500D01*
X188318540Y-65480060D01*
X188354100Y-65530860D01*
X188394740Y-65591820D01*
X188397280Y-65596900D01*
X188437920Y-65657860D01*
X188470940Y-65708660D01*
X188493800Y-65744220D01*
X188501420Y-65759460D01*
X188501420Y-65762000D01*
X188488720Y-65779780D01*
X188458240Y-65812800D01*
X188412520Y-65858520D01*
X188361720Y-65911860D01*
X188343940Y-65927100D01*
X188285520Y-65985520D01*
X188244880Y-66021080D01*
X188219480Y-66041400D01*
X188209320Y-66046480D01*
X188206780Y-66046480D01*
X188189000Y-66036320D01*
X188150900Y-66010920D01*
X188100100Y-65975360D01*
X188039140Y-65934720D01*
X188036600Y-65932180D01*
X187975640Y-65891540D01*
X187924840Y-65855980D01*
X187889280Y-65833120D01*
X187874040Y-65825500D01*
X187871500Y-65825500D01*
X187848640Y-65830580D01*
X187805460Y-65845820D01*
X187752120Y-65866140D01*
X187696240Y-65889000D01*
X187645440Y-65909320D01*
X187609880Y-65927100D01*
X187592100Y-65937260D01*
X187589560Y-65937260D01*
X187584480Y-65960120D01*
X187574320Y-66005840D01*
X187561620Y-66066800D01*
X187546380Y-66140460D01*
X187543840Y-66150620D01*
X187531140Y-66224280D01*
X187520980Y-66282700D01*
X187510820Y-66323340D01*
X187508280Y-66341120D01*
X187498120Y-66341120D01*
X187462560Y-66343660D01*
X187409220Y-66346200D01*
X187343180Y-66346200D01*
X187277140Y-66346200D01*
X187211100Y-66346200D01*
X187155220Y-66343660D01*
X187114580Y-66341120D01*
X187096800Y-66336040D01*
X187091720Y-66313180D01*
X187081560Y-66270000D01*
X187068860Y-66206500D01*
X187053620Y-66132840D01*
X187051080Y-66120140D01*
X187038380Y-66049020D01*
X187025680Y-65990600D01*
X187018060Y-65949960D01*
X187012980Y-65934720D01*
X187007900Y-65932180D01*
X186977420Y-65916940D01*
X186929160Y-65899160D01*
X186870740Y-65873760D01*
X186733580Y-65817880D01*
X186565940Y-65934720D01*
X186550700Y-65944880D01*
X186489740Y-65985520D01*
X186438940Y-66018540D01*
X186403380Y-66041400D01*
X186390680Y-66049020D01*
X186388140Y-66049020D01*
X186372900Y-66033780D01*
X186339880Y-66003300D01*
X186294160Y-65957580D01*
X186240820Y-65906780D01*
X186200180Y-65866140D01*
X186154460Y-65820420D01*
X186126520Y-65787400D01*
X186108740Y-65767080D01*
X186103660Y-65754380D01*
X186106200Y-65746760D01*
X186116360Y-65728980D01*
X186141760Y-65693420D01*
X186174780Y-65640080D01*
X186215420Y-65581660D01*
X186250980Y-65530860D01*
X186286540Y-65474980D01*
X186309400Y-65434340D01*
X186319560Y-65416560D01*
X186317020Y-65406400D01*
X186304320Y-65373380D01*
X186284000Y-65325120D01*
X186258600Y-65264160D01*
X186200180Y-65132080D01*
X186113820Y-65114300D01*
X186060480Y-65104140D01*
X185986820Y-65091440D01*
X185915700Y-65076200D01*
X185803940Y-65055880D01*
X185801400Y-64652020D01*
X185819180Y-64644400D01*
X185834420Y-64639320D01*
X185875060Y-64629160D01*
X185933480Y-64619000D01*
X186002060Y-64606300D01*
X186063020Y-64593600D01*
X186121440Y-64583440D01*
X186164620Y-64575820D01*
X186182400Y-64570740D01*
X186187480Y-64565660D01*
X186202720Y-64535180D01*
X186223040Y-64489460D01*
X186245900Y-64436120D01*
X186271300Y-64377700D01*
X186291620Y-64326900D01*
X186306860Y-64286260D01*
X186311940Y-64265940D01*
X186304320Y-64250700D01*
X186281460Y-64215140D01*
X186248440Y-64164340D01*
X186207800Y-64105920D01*
X186167160Y-64047500D01*
X186134140Y-63996700D01*
X186108740Y-63961140D01*
X186101120Y-63943360D01*
X186106200Y-63933200D01*
X186129060Y-63905260D01*
X186172240Y-63859540D01*
X186238280Y-63793500D01*
X186250980Y-63783340D01*
X186301780Y-63732540D01*
X186347500Y-63691900D01*
X186377980Y-63663960D01*
X186390680Y-63653800D01*
G04 #@! TD*
M02*
