M48
INCH,TZ
T1C0.0157
%
G90
G05
T1
X40546Y-58548
X42244Y-56220
X43898Y-57087
X43921Y-54331
X44055Y-53346
X45157Y-56063
X45315Y-58189
X45709Y-51063
X46102Y-50394
X46850Y-47953
X47087Y-56142
X47126Y-57677
X48071Y-57953
X49094Y-55915
X49449Y-35787
X50079Y-30630
X51398Y-56831
X52323Y-55906
X53740Y-31299
X53819Y-57795
X54685Y-36969
X54803Y-30630
X54921Y-57913
X56417Y-47598
X57677Y-21811
X58307Y-55709
X58346Y-20748
X60000Y-20669
X60738Y-57864
X61535Y-30827
X64278Y-31929
X64370Y-44567
X65335Y-33209
X67362Y-37835
X67677Y-21811
X68701Y-43504
X68780Y-28346
X68780Y-30630
X68780Y-49134
X68780Y-50827
X69528Y-26024
X70709Y-29173
X70709Y-37323
X70827Y-26811
X71102Y-31496
X73307Y-24055
X77520Y-20197
T0
M30
