M48
INCH,TZ
T1C0.0390
T2C0.0394
%
G90
G05
T1
X42460Y-58075
X42860Y-56075
X43260Y-58075
T2
X47115Y-29330
X47494Y-28878
X47874Y-28425
X48254Y-27973
X48633Y-27520
X58619Y-37432
X58896Y-37953
X59173Y-38474
X59450Y-38996
X59728Y-39517
X43806Y-41365
X44127Y-40869
X44449Y-40374
X44770Y-39879
X45092Y-39383
X60838Y-48309
X61241Y-48741
X61644Y-49173
X62046Y-49605
X62449Y-50037
X57719Y-37955
X57969Y-38490
X58219Y-39026
X58468Y-39561
X58718Y-40096
X68781Y-52257
X69120Y-51773
X69459Y-51289
X69797Y-50806
X70136Y-50322
X75387Y-26966
X75636Y-26431
X75886Y-25896
X76135Y-25360
X76385Y-24825
X42001Y-53196
X42250Y-52661
X42500Y-52126
X42750Y-51591
X42999Y-51056
X72320Y-40964
X72597Y-40443
X72874Y-39921
X73151Y-39400
X73429Y-38878
X56814Y-25563
X57063Y-26099
X57313Y-26634
X57563Y-27169
X57812Y-27704
X54145Y-26710
X54484Y-27193
X54823Y-27677
X55162Y-28161
X55500Y-28645
X59429Y-48752
X59631Y-49307
X59833Y-49862
X60035Y-50417
X60237Y-50972
T0
M30
