G04 #@! TF.GenerationSoftware,KiCad,Pcbnew,(5.0.1-3-g963ef8bb5)*
G04 #@! TF.CreationDate,2018-11-10T15:27:12+00:00*
G04 #@! TF.ProjectId,xmas_tree_v0.1,786D61735F747265655F76302E312E6B,rev?*
G04 #@! TF.SameCoordinates,Original*
G04 #@! TF.FileFunction,Soldermask,Top*
G04 #@! TF.FilePolarity,Negative*
%FSLAX46Y46*%
G04 Gerber Fmt 4.6, Leading zero omitted, Abs format (unit mm)*
G04 Created by KiCad (PCBNEW (5.0.1-3-g963ef8bb5)) date Saturday, 10 November 2018 at 15:27:12*
%MOMM*%
%LPD*%
G01*
G04 APERTURE LIST*
%ADD10C,0.100000*%
G04 APERTURE END LIST*
D10*
G36*
X101839372Y-147612951D02*
X101881889Y-147628742D01*
X102455960Y-147908735D01*
X102494588Y-147932522D01*
X102523302Y-147959182D01*
X102546270Y-147990939D01*
X102562596Y-148026558D01*
X102571660Y-148064680D01*
X102573113Y-148103840D01*
X102566898Y-148142534D01*
X102551107Y-148185051D01*
X102526401Y-148235705D01*
X102526401Y-148235706D01*
X102305384Y-148688859D01*
X102227277Y-148849001D01*
X102203490Y-148887629D01*
X102176830Y-148916343D01*
X102145073Y-148939311D01*
X102109454Y-148955637D01*
X102071332Y-148964701D01*
X102032172Y-148966154D01*
X101993478Y-148959939D01*
X101950961Y-148944148D01*
X101376890Y-148664155D01*
X101338262Y-148640368D01*
X101309548Y-148613708D01*
X101286580Y-148581951D01*
X101270254Y-148546332D01*
X101261190Y-148508210D01*
X101259737Y-148469050D01*
X101265952Y-148430356D01*
X101281743Y-148387839D01*
X101339528Y-148269362D01*
X101580869Y-147774539D01*
X101580871Y-147774536D01*
X101605573Y-147723889D01*
X101629360Y-147685261D01*
X101656020Y-147656547D01*
X101687777Y-147633579D01*
X101723396Y-147617253D01*
X101761518Y-147608189D01*
X101800678Y-147606736D01*
X101839372Y-147612951D01*
X101839372Y-147612951D01*
G37*
G36*
X119089499Y-147578445D02*
X119126993Y-147589819D01*
X119161557Y-147608294D01*
X119191847Y-147633153D01*
X119216706Y-147663443D01*
X119235181Y-147698007D01*
X119246555Y-147735501D01*
X119251000Y-147780638D01*
X119251000Y-148419362D01*
X119246555Y-148464499D01*
X119235181Y-148501993D01*
X119216706Y-148536557D01*
X119191847Y-148566847D01*
X119161557Y-148591706D01*
X119126993Y-148610181D01*
X119089499Y-148621555D01*
X119044362Y-148626000D01*
X118305638Y-148626000D01*
X118260501Y-148621555D01*
X118223007Y-148610181D01*
X118188443Y-148591706D01*
X118158153Y-148566847D01*
X118133294Y-148536557D01*
X118114819Y-148501993D01*
X118103445Y-148464499D01*
X118099000Y-148419362D01*
X118099000Y-147780638D01*
X118103445Y-147735501D01*
X118114819Y-147698007D01*
X118133294Y-147663443D01*
X118158153Y-147633153D01*
X118188443Y-147608294D01*
X118223007Y-147589819D01*
X118260501Y-147578445D01*
X118305638Y-147574000D01*
X119044362Y-147574000D01*
X119089499Y-147578445D01*
X119089499Y-147578445D01*
G37*
G36*
X117339499Y-147578445D02*
X117376993Y-147589819D01*
X117411557Y-147608294D01*
X117441847Y-147633153D01*
X117466706Y-147663443D01*
X117485181Y-147698007D01*
X117496555Y-147735501D01*
X117501000Y-147780638D01*
X117501000Y-148419362D01*
X117496555Y-148464499D01*
X117485181Y-148501993D01*
X117466706Y-148536557D01*
X117441847Y-148566847D01*
X117411557Y-148591706D01*
X117376993Y-148610181D01*
X117339499Y-148621555D01*
X117294362Y-148626000D01*
X116555638Y-148626000D01*
X116510501Y-148621555D01*
X116473007Y-148610181D01*
X116438443Y-148591706D01*
X116408153Y-148566847D01*
X116383294Y-148536557D01*
X116364819Y-148501993D01*
X116353445Y-148464499D01*
X116349000Y-148419362D01*
X116349000Y-147780638D01*
X116353445Y-147735501D01*
X116364819Y-147698007D01*
X116383294Y-147663443D01*
X116408153Y-147633153D01*
X116438443Y-147608294D01*
X116473007Y-147589819D01*
X116510501Y-147578445D01*
X116555638Y-147574000D01*
X117294362Y-147574000D01*
X117339499Y-147578445D01*
X117339499Y-147578445D01*
G37*
G36*
X125989499Y-147453445D02*
X126026993Y-147464819D01*
X126061557Y-147483294D01*
X126091847Y-147508153D01*
X126116706Y-147538443D01*
X126135181Y-147573007D01*
X126146555Y-147610501D01*
X126151000Y-147655638D01*
X126151000Y-148294362D01*
X126146555Y-148339499D01*
X126135181Y-148376993D01*
X126116706Y-148411557D01*
X126091847Y-148441847D01*
X126061557Y-148466706D01*
X126026993Y-148485181D01*
X125989499Y-148496555D01*
X125944362Y-148501000D01*
X125205638Y-148501000D01*
X125160501Y-148496555D01*
X125123007Y-148485181D01*
X125088443Y-148466706D01*
X125058153Y-148441847D01*
X125033294Y-148411557D01*
X125014819Y-148376993D01*
X125003445Y-148339499D01*
X124999000Y-148294362D01*
X124999000Y-147655638D01*
X125003445Y-147610501D01*
X125014819Y-147573007D01*
X125033294Y-147538443D01*
X125058153Y-147508153D01*
X125088443Y-147483294D01*
X125123007Y-147464819D01*
X125160501Y-147453445D01*
X125205638Y-147449000D01*
X125944362Y-147449000D01*
X125989499Y-147453445D01*
X125989499Y-147453445D01*
G37*
G36*
X124239499Y-147453445D02*
X124276993Y-147464819D01*
X124311557Y-147483294D01*
X124341847Y-147508153D01*
X124366706Y-147538443D01*
X124385181Y-147573007D01*
X124396555Y-147610501D01*
X124401000Y-147655638D01*
X124401000Y-148294362D01*
X124396555Y-148339499D01*
X124385181Y-148376993D01*
X124366706Y-148411557D01*
X124341847Y-148441847D01*
X124311557Y-148466706D01*
X124276993Y-148485181D01*
X124239499Y-148496555D01*
X124194362Y-148501000D01*
X123455638Y-148501000D01*
X123410501Y-148496555D01*
X123373007Y-148485181D01*
X123338443Y-148466706D01*
X123308153Y-148441847D01*
X123283294Y-148411557D01*
X123264819Y-148376993D01*
X123253445Y-148339499D01*
X123249000Y-148294362D01*
X123249000Y-147655638D01*
X123253445Y-147610501D01*
X123264819Y-147573007D01*
X123283294Y-147538443D01*
X123308153Y-147508153D01*
X123338443Y-147483294D01*
X123373007Y-147464819D01*
X123410501Y-147453445D01*
X123455638Y-147449000D01*
X124194362Y-147449000D01*
X124239499Y-147453445D01*
X124239499Y-147453445D01*
G37*
G36*
X146131000Y-148481000D02*
X140469000Y-148481000D01*
X140469000Y-145779000D01*
X146131000Y-145779000D01*
X146131000Y-148481000D01*
X146131000Y-148481000D01*
G37*
G36*
X128014499Y-147428445D02*
X128051993Y-147439819D01*
X128086557Y-147458294D01*
X128116847Y-147483153D01*
X128141706Y-147513443D01*
X128160181Y-147548007D01*
X128171555Y-147585501D01*
X128176000Y-147630638D01*
X128176000Y-148269362D01*
X128171555Y-148314499D01*
X128160181Y-148351993D01*
X128141706Y-148386557D01*
X128116847Y-148416847D01*
X128086557Y-148441706D01*
X128051993Y-148460181D01*
X128014499Y-148471555D01*
X127969362Y-148476000D01*
X127230638Y-148476000D01*
X127185501Y-148471555D01*
X127148007Y-148460181D01*
X127113443Y-148441706D01*
X127083153Y-148416847D01*
X127058294Y-148386557D01*
X127039819Y-148351993D01*
X127028445Y-148314499D01*
X127024000Y-148269362D01*
X127024000Y-147630638D01*
X127028445Y-147585501D01*
X127039819Y-147548007D01*
X127058294Y-147513443D01*
X127083153Y-147483153D01*
X127113443Y-147458294D01*
X127148007Y-147439819D01*
X127185501Y-147428445D01*
X127230638Y-147424000D01*
X127969362Y-147424000D01*
X128014499Y-147428445D01*
X128014499Y-147428445D01*
G37*
G36*
X129764499Y-147428445D02*
X129801993Y-147439819D01*
X129836557Y-147458294D01*
X129866847Y-147483153D01*
X129891706Y-147513443D01*
X129910181Y-147548007D01*
X129921555Y-147585501D01*
X129926000Y-147630638D01*
X129926000Y-148269362D01*
X129921555Y-148314499D01*
X129910181Y-148351993D01*
X129891706Y-148386557D01*
X129866847Y-148416847D01*
X129836557Y-148441706D01*
X129801993Y-148460181D01*
X129764499Y-148471555D01*
X129719362Y-148476000D01*
X128980638Y-148476000D01*
X128935501Y-148471555D01*
X128898007Y-148460181D01*
X128863443Y-148441706D01*
X128833153Y-148416847D01*
X128808294Y-148386557D01*
X128789819Y-148351993D01*
X128778445Y-148314499D01*
X128774000Y-148269362D01*
X128774000Y-147630638D01*
X128778445Y-147585501D01*
X128789819Y-147548007D01*
X128808294Y-147513443D01*
X128833153Y-147483153D01*
X128863443Y-147458294D01*
X128898007Y-147439819D01*
X128935501Y-147428445D01*
X128980638Y-147424000D01*
X129719362Y-147424000D01*
X129764499Y-147428445D01*
X129764499Y-147428445D01*
G37*
G36*
X135951000Y-148351000D02*
X132849000Y-148351000D01*
X132849000Y-145249000D01*
X135951000Y-145249000D01*
X135951000Y-148351000D01*
X135951000Y-148351000D01*
G37*
G36*
X108008350Y-146984694D02*
X108107770Y-147025875D01*
X108197249Y-147085663D01*
X108273337Y-147161751D01*
X108333125Y-147251230D01*
X108374306Y-147350650D01*
X108395300Y-147456194D01*
X108395300Y-147563806D01*
X108374306Y-147669350D01*
X108333125Y-147768770D01*
X108273337Y-147858249D01*
X108197249Y-147934337D01*
X108107770Y-147994125D01*
X108008350Y-148035306D01*
X107902806Y-148056300D01*
X107795194Y-148056300D01*
X107689650Y-148035306D01*
X107590230Y-147994125D01*
X107500751Y-147934337D01*
X107424663Y-147858249D01*
X107364875Y-147768770D01*
X107323694Y-147669350D01*
X107302700Y-147563806D01*
X107302700Y-147456194D01*
X107323694Y-147350650D01*
X107364875Y-147251230D01*
X107424663Y-147161751D01*
X107500751Y-147085663D01*
X107590230Y-147025875D01*
X107689650Y-146984694D01*
X107795194Y-146963700D01*
X107902806Y-146963700D01*
X108008350Y-146984694D01*
X108008350Y-146984694D01*
G37*
G36*
X110040350Y-146984694D02*
X110139770Y-147025875D01*
X110229249Y-147085663D01*
X110305337Y-147161751D01*
X110365125Y-147251230D01*
X110406306Y-147350650D01*
X110427300Y-147456194D01*
X110427300Y-147563806D01*
X110406306Y-147669350D01*
X110365125Y-147768770D01*
X110305337Y-147858249D01*
X110229249Y-147934337D01*
X110139770Y-147994125D01*
X110040350Y-148035306D01*
X109934806Y-148056300D01*
X109827194Y-148056300D01*
X109721650Y-148035306D01*
X109622230Y-147994125D01*
X109532751Y-147934337D01*
X109456663Y-147858249D01*
X109396875Y-147768770D01*
X109355694Y-147669350D01*
X109334700Y-147563806D01*
X109334700Y-147456194D01*
X109355694Y-147350650D01*
X109396875Y-147251230D01*
X109456663Y-147161751D01*
X109532751Y-147085663D01*
X109622230Y-147025875D01*
X109721650Y-146984694D01*
X109827194Y-146963700D01*
X109934806Y-146963700D01*
X110040350Y-146984694D01*
X110040350Y-146984694D01*
G37*
G36*
X102606522Y-146040061D02*
X102649039Y-146055852D01*
X103223110Y-146335845D01*
X103261738Y-146359632D01*
X103290452Y-146386292D01*
X103313420Y-146418049D01*
X103329746Y-146453668D01*
X103338810Y-146491790D01*
X103340263Y-146530950D01*
X103334048Y-146569644D01*
X103318257Y-146612161D01*
X103293551Y-146662815D01*
X103293551Y-146662816D01*
X103072534Y-147115969D01*
X102994427Y-147276111D01*
X102970640Y-147314739D01*
X102943980Y-147343453D01*
X102912223Y-147366421D01*
X102876604Y-147382747D01*
X102838482Y-147391811D01*
X102799322Y-147393264D01*
X102760628Y-147387049D01*
X102718111Y-147371258D01*
X102144040Y-147091265D01*
X102105412Y-147067478D01*
X102076698Y-147040818D01*
X102053730Y-147009061D01*
X102037404Y-146973442D01*
X102028340Y-146935320D01*
X102026887Y-146896160D01*
X102033102Y-146857466D01*
X102048893Y-146814949D01*
X102112420Y-146684700D01*
X102348019Y-146201649D01*
X102348021Y-146201646D01*
X102372723Y-146150999D01*
X102396510Y-146112371D01*
X102423170Y-146083657D01*
X102454927Y-146060689D01*
X102490546Y-146044363D01*
X102528668Y-146035299D01*
X102567828Y-146033846D01*
X102606522Y-146040061D01*
X102606522Y-146040061D01*
G37*
G36*
X119089499Y-145978445D02*
X119126993Y-145989819D01*
X119161557Y-146008294D01*
X119191847Y-146033153D01*
X119216706Y-146063443D01*
X119235181Y-146098007D01*
X119246555Y-146135501D01*
X119251000Y-146180638D01*
X119251000Y-146819362D01*
X119246555Y-146864498D01*
X119235181Y-146901993D01*
X119216706Y-146936557D01*
X119191847Y-146966847D01*
X119161557Y-146991706D01*
X119126993Y-147010181D01*
X119089499Y-147021555D01*
X119044362Y-147026000D01*
X118305638Y-147026000D01*
X118260501Y-147021555D01*
X118223007Y-147010181D01*
X118188443Y-146991706D01*
X118158153Y-146966847D01*
X118133294Y-146936557D01*
X118114819Y-146901993D01*
X118103445Y-146864498D01*
X118099000Y-146819362D01*
X118099000Y-146180638D01*
X118103445Y-146135501D01*
X118114819Y-146098007D01*
X118133294Y-146063443D01*
X118158153Y-146033153D01*
X118188443Y-146008294D01*
X118223007Y-145989819D01*
X118260501Y-145978445D01*
X118305638Y-145974000D01*
X119044362Y-145974000D01*
X119089499Y-145978445D01*
X119089499Y-145978445D01*
G37*
G36*
X117339499Y-145978445D02*
X117376993Y-145989819D01*
X117411557Y-146008294D01*
X117441847Y-146033153D01*
X117466706Y-146063443D01*
X117485181Y-146098007D01*
X117496555Y-146135501D01*
X117501000Y-146180638D01*
X117501000Y-146819362D01*
X117496555Y-146864498D01*
X117485181Y-146901993D01*
X117466706Y-146936557D01*
X117441847Y-146966847D01*
X117411557Y-146991706D01*
X117376993Y-147010181D01*
X117339499Y-147021555D01*
X117294362Y-147026000D01*
X116555638Y-147026000D01*
X116510501Y-147021555D01*
X116473007Y-147010181D01*
X116438443Y-146991706D01*
X116408153Y-146966847D01*
X116383294Y-146936557D01*
X116364819Y-146901993D01*
X116353445Y-146864498D01*
X116349000Y-146819362D01*
X116349000Y-146180638D01*
X116353445Y-146135501D01*
X116364819Y-146098007D01*
X116383294Y-146063443D01*
X116408153Y-146033153D01*
X116438443Y-146008294D01*
X116473007Y-145989819D01*
X116510501Y-145978445D01*
X116555638Y-145974000D01*
X117294362Y-145974000D01*
X117339499Y-145978445D01*
X117339499Y-145978445D01*
G37*
G36*
X129901000Y-146826000D02*
X128999000Y-146826000D01*
X128999000Y-145824000D01*
X129901000Y-145824000D01*
X129901000Y-146826000D01*
X129901000Y-146826000D01*
G37*
G36*
X128001000Y-146826000D02*
X127099000Y-146826000D01*
X127099000Y-145824000D01*
X128001000Y-145824000D01*
X128001000Y-146826000D01*
X128001000Y-146826000D01*
G37*
G36*
X126101000Y-146826000D02*
X125199000Y-146826000D01*
X125199000Y-145824000D01*
X126101000Y-145824000D01*
X126101000Y-146826000D01*
X126101000Y-146826000D01*
G37*
G36*
X124201000Y-146826000D02*
X123299000Y-146826000D01*
X123299000Y-145824000D01*
X124201000Y-145824000D01*
X124201000Y-146826000D01*
X124201000Y-146826000D01*
G37*
G36*
X109629714Y-145812389D02*
X109710644Y-145845911D01*
X109783483Y-145894581D01*
X109845419Y-145956517D01*
X109894089Y-146029356D01*
X109927611Y-146110286D01*
X109944700Y-146196199D01*
X109944700Y-146283801D01*
X109927611Y-146369714D01*
X109894089Y-146450644D01*
X109845419Y-146523483D01*
X109783483Y-146585419D01*
X109710644Y-146634089D01*
X109629714Y-146667611D01*
X109543801Y-146684700D01*
X109456199Y-146684700D01*
X109370286Y-146667611D01*
X109289356Y-146634089D01*
X109216517Y-146585419D01*
X109154581Y-146523483D01*
X109105911Y-146450644D01*
X109072389Y-146369714D01*
X109055300Y-146283801D01*
X109055300Y-146196199D01*
X109072389Y-146110286D01*
X109105911Y-146029356D01*
X109154581Y-145956517D01*
X109216517Y-145894581D01*
X109289356Y-145845911D01*
X109370286Y-145812389D01*
X109456199Y-145795300D01*
X109543801Y-145795300D01*
X109629714Y-145812389D01*
X109629714Y-145812389D01*
G37*
G36*
X108359714Y-145812389D02*
X108440644Y-145845911D01*
X108513483Y-145894581D01*
X108575419Y-145956517D01*
X108624089Y-146029356D01*
X108657611Y-146110286D01*
X108674700Y-146196199D01*
X108674700Y-146283801D01*
X108657611Y-146369714D01*
X108624089Y-146450644D01*
X108575419Y-146523483D01*
X108513483Y-146585419D01*
X108440644Y-146634089D01*
X108359714Y-146667611D01*
X108273801Y-146684700D01*
X108186199Y-146684700D01*
X108100286Y-146667611D01*
X108019356Y-146634089D01*
X107946517Y-146585419D01*
X107884581Y-146523483D01*
X107835911Y-146450644D01*
X107802389Y-146369714D01*
X107785300Y-146283801D01*
X107785300Y-146196199D01*
X107802389Y-146110286D01*
X107835911Y-146029356D01*
X107884581Y-145956517D01*
X107946517Y-145894581D01*
X108019356Y-145845911D01*
X108100286Y-145812389D01*
X108186199Y-145795300D01*
X108273801Y-145795300D01*
X108359714Y-145812389D01*
X108359714Y-145812389D01*
G37*
G36*
X152939499Y-145278445D02*
X152976993Y-145289819D01*
X153011557Y-145308294D01*
X153041847Y-145333153D01*
X153066706Y-145363443D01*
X153085181Y-145398007D01*
X153096555Y-145435501D01*
X153101000Y-145480638D01*
X153101000Y-146119362D01*
X153096555Y-146164499D01*
X153085181Y-146201993D01*
X153066706Y-146236557D01*
X153041847Y-146266847D01*
X153011557Y-146291706D01*
X152976993Y-146310181D01*
X152939499Y-146321555D01*
X152894362Y-146326000D01*
X152155638Y-146326000D01*
X152110501Y-146321555D01*
X152073007Y-146310181D01*
X152038443Y-146291706D01*
X152008153Y-146266847D01*
X151983294Y-146236557D01*
X151964819Y-146201993D01*
X151953445Y-146164499D01*
X151949000Y-146119362D01*
X151949000Y-145480638D01*
X151953445Y-145435501D01*
X151964819Y-145398007D01*
X151983294Y-145363443D01*
X152008153Y-145333153D01*
X152038443Y-145308294D01*
X152073007Y-145289819D01*
X152110501Y-145278445D01*
X152155638Y-145274000D01*
X152894362Y-145274000D01*
X152939499Y-145278445D01*
X152939499Y-145278445D01*
G37*
G36*
X154689499Y-145278445D02*
X154726993Y-145289819D01*
X154761557Y-145308294D01*
X154791847Y-145333153D01*
X154816706Y-145363443D01*
X154835181Y-145398007D01*
X154846555Y-145435501D01*
X154851000Y-145480638D01*
X154851000Y-146119362D01*
X154846555Y-146164499D01*
X154835181Y-146201993D01*
X154816706Y-146236557D01*
X154791847Y-146266847D01*
X154761557Y-146291706D01*
X154726993Y-146310181D01*
X154689499Y-146321555D01*
X154644362Y-146326000D01*
X153905638Y-146326000D01*
X153860501Y-146321555D01*
X153823007Y-146310181D01*
X153788443Y-146291706D01*
X153758153Y-146266847D01*
X153733294Y-146236557D01*
X153714819Y-146201993D01*
X153703445Y-146164499D01*
X153699000Y-146119362D01*
X153699000Y-145480638D01*
X153703445Y-145435501D01*
X153714819Y-145398007D01*
X153733294Y-145363443D01*
X153758153Y-145333153D01*
X153788443Y-145308294D01*
X153823007Y-145289819D01*
X153860501Y-145278445D01*
X153905638Y-145274000D01*
X154644362Y-145274000D01*
X154689499Y-145278445D01*
X154689499Y-145278445D01*
G37*
G36*
X103539372Y-144155179D02*
X103581889Y-144170970D01*
X104155960Y-144450963D01*
X104194588Y-144474750D01*
X104223302Y-144501410D01*
X104246270Y-144533167D01*
X104262596Y-144568786D01*
X104271660Y-144606908D01*
X104273113Y-144646068D01*
X104266898Y-144684762D01*
X104251107Y-144727279D01*
X104226401Y-144777933D01*
X104226401Y-144777934D01*
X103982286Y-145278445D01*
X103927277Y-145391229D01*
X103903490Y-145429857D01*
X103876830Y-145458571D01*
X103845073Y-145481539D01*
X103809454Y-145497865D01*
X103771332Y-145506929D01*
X103732172Y-145508382D01*
X103693478Y-145502167D01*
X103650961Y-145486376D01*
X103076890Y-145206383D01*
X103038262Y-145182596D01*
X103009548Y-145155936D01*
X102986580Y-145124179D01*
X102970254Y-145088560D01*
X102961190Y-145050438D01*
X102959737Y-145011278D01*
X102965952Y-144972584D01*
X102981743Y-144930067D01*
X103104344Y-144678698D01*
X103280869Y-144316767D01*
X103280871Y-144316764D01*
X103305573Y-144266117D01*
X103329360Y-144227489D01*
X103356020Y-144198775D01*
X103387777Y-144175807D01*
X103423396Y-144159481D01*
X103461518Y-144150417D01*
X103500678Y-144148964D01*
X103539372Y-144155179D01*
X103539372Y-144155179D01*
G37*
G36*
X109629714Y-144542389D02*
X109710644Y-144575911D01*
X109783483Y-144624581D01*
X109845419Y-144686517D01*
X109894089Y-144759356D01*
X109927611Y-144840286D01*
X109944700Y-144926199D01*
X109944700Y-145013801D01*
X109927611Y-145099714D01*
X109894089Y-145180644D01*
X109845419Y-145253483D01*
X109783483Y-145315419D01*
X109710644Y-145364089D01*
X109629714Y-145397611D01*
X109543801Y-145414700D01*
X109456199Y-145414700D01*
X109370286Y-145397611D01*
X109289356Y-145364089D01*
X109216517Y-145315419D01*
X109154581Y-145253483D01*
X109105911Y-145180644D01*
X109072389Y-145099714D01*
X109055300Y-145013801D01*
X109055300Y-144926199D01*
X109072389Y-144840286D01*
X109105911Y-144759356D01*
X109154581Y-144686517D01*
X109216517Y-144624581D01*
X109289356Y-144575911D01*
X109370286Y-144542389D01*
X109456199Y-144525300D01*
X109543801Y-144525300D01*
X109629714Y-144542389D01*
X109629714Y-144542389D01*
G37*
G36*
X108359714Y-144542389D02*
X108440644Y-144575911D01*
X108513483Y-144624581D01*
X108575419Y-144686517D01*
X108624089Y-144759356D01*
X108657611Y-144840286D01*
X108674700Y-144926199D01*
X108674700Y-145013801D01*
X108657611Y-145099714D01*
X108624089Y-145180644D01*
X108575419Y-145253483D01*
X108513483Y-145315419D01*
X108440644Y-145364089D01*
X108359714Y-145397611D01*
X108273801Y-145414700D01*
X108186199Y-145414700D01*
X108100286Y-145397611D01*
X108019356Y-145364089D01*
X107946517Y-145315419D01*
X107884581Y-145253483D01*
X107835911Y-145180644D01*
X107802389Y-145099714D01*
X107785300Y-145013801D01*
X107785300Y-144926199D01*
X107802389Y-144840286D01*
X107835911Y-144759356D01*
X107884581Y-144686517D01*
X107946517Y-144624581D01*
X108019356Y-144575911D01*
X108100286Y-144542389D01*
X108186199Y-144525300D01*
X108273801Y-144525300D01*
X108359714Y-144542389D01*
X108359714Y-144542389D01*
G37*
G36*
X117551000Y-145301000D02*
X116849000Y-145301000D01*
X116849000Y-143699000D01*
X117551000Y-143699000D01*
X117551000Y-145301000D01*
X117551000Y-145301000D01*
G37*
G36*
X113741000Y-145301000D02*
X113039000Y-145301000D01*
X113039000Y-143699000D01*
X113741000Y-143699000D01*
X113741000Y-145301000D01*
X113741000Y-145301000D01*
G37*
G36*
X115011000Y-145301000D02*
X114309000Y-145301000D01*
X114309000Y-143699000D01*
X115011000Y-143699000D01*
X115011000Y-145301000D01*
X115011000Y-145301000D01*
G37*
G36*
X118821000Y-145301000D02*
X118119000Y-145301000D01*
X118119000Y-143699000D01*
X118821000Y-143699000D01*
X118821000Y-145301000D01*
X118821000Y-145301000D01*
G37*
G36*
X120091000Y-145301000D02*
X119389000Y-145301000D01*
X119389000Y-143699000D01*
X120091000Y-143699000D01*
X120091000Y-145301000D01*
X120091000Y-145301000D01*
G37*
G36*
X121361000Y-145301000D02*
X120659000Y-145301000D01*
X120659000Y-143699000D01*
X121361000Y-143699000D01*
X121361000Y-145301000D01*
X121361000Y-145301000D01*
G37*
G36*
X116281000Y-145301000D02*
X115579000Y-145301000D01*
X115579000Y-143699000D01*
X116281000Y-143699000D01*
X116281000Y-145301000D01*
X116281000Y-145301000D01*
G37*
G36*
X125151000Y-144826000D02*
X124249000Y-144826000D01*
X124249000Y-143824000D01*
X125151000Y-143824000D01*
X125151000Y-144826000D01*
X125151000Y-144826000D01*
G37*
G36*
X128951000Y-144826000D02*
X128049000Y-144826000D01*
X128049000Y-143824000D01*
X128951000Y-143824000D01*
X128951000Y-144826000D01*
X128951000Y-144826000D01*
G37*
G36*
X154689499Y-143528445D02*
X154726993Y-143539819D01*
X154761557Y-143558294D01*
X154791847Y-143583153D01*
X154816706Y-143613443D01*
X154835181Y-143648007D01*
X154846555Y-143685501D01*
X154851000Y-143730638D01*
X154851000Y-144369362D01*
X154846555Y-144414499D01*
X154835181Y-144451993D01*
X154816706Y-144486557D01*
X154791847Y-144516847D01*
X154761557Y-144541706D01*
X154726993Y-144560181D01*
X154689499Y-144571555D01*
X154644362Y-144576000D01*
X153905638Y-144576000D01*
X153860501Y-144571555D01*
X153823007Y-144560181D01*
X153788443Y-144541706D01*
X153758153Y-144516847D01*
X153733294Y-144486557D01*
X153714819Y-144451993D01*
X153703445Y-144414499D01*
X153699000Y-144369362D01*
X153699000Y-143730638D01*
X153703445Y-143685501D01*
X153714819Y-143648007D01*
X153733294Y-143613443D01*
X153758153Y-143583153D01*
X153788443Y-143558294D01*
X153823007Y-143539819D01*
X153860501Y-143528445D01*
X153905638Y-143524000D01*
X154644362Y-143524000D01*
X154689499Y-143528445D01*
X154689499Y-143528445D01*
G37*
G36*
X152939499Y-143528445D02*
X152976993Y-143539819D01*
X153011557Y-143558294D01*
X153041847Y-143583153D01*
X153066706Y-143613443D01*
X153085181Y-143648007D01*
X153096555Y-143685501D01*
X153101000Y-143730638D01*
X153101000Y-144369362D01*
X153096555Y-144414499D01*
X153085181Y-144451993D01*
X153066706Y-144486557D01*
X153041847Y-144516847D01*
X153011557Y-144541706D01*
X152976993Y-144560181D01*
X152939499Y-144571555D01*
X152894362Y-144576000D01*
X152155638Y-144576000D01*
X152110501Y-144571555D01*
X152073007Y-144560181D01*
X152038443Y-144541706D01*
X152008153Y-144516847D01*
X151983294Y-144486557D01*
X151964819Y-144451993D01*
X151953445Y-144414499D01*
X151949000Y-144369362D01*
X151949000Y-143730638D01*
X151953445Y-143685501D01*
X151964819Y-143648007D01*
X151983294Y-143613443D01*
X152008153Y-143583153D01*
X152038443Y-143558294D01*
X152073007Y-143539819D01*
X152110501Y-143528445D01*
X152155638Y-143524000D01*
X152894362Y-143524000D01*
X152939499Y-143528445D01*
X152939499Y-143528445D01*
G37*
G36*
X108359714Y-143272389D02*
X108440644Y-143305911D01*
X108513483Y-143354581D01*
X108575419Y-143416517D01*
X108624089Y-143489356D01*
X108657611Y-143570286D01*
X108674700Y-143656199D01*
X108674700Y-143743801D01*
X108657611Y-143829714D01*
X108624089Y-143910644D01*
X108575419Y-143983483D01*
X108513483Y-144045419D01*
X108440644Y-144094089D01*
X108359714Y-144127611D01*
X108273801Y-144144700D01*
X108186199Y-144144700D01*
X108100286Y-144127611D01*
X108019356Y-144094089D01*
X107946517Y-144045419D01*
X107884581Y-143983483D01*
X107835911Y-143910644D01*
X107802389Y-143829714D01*
X107785300Y-143743801D01*
X107785300Y-143656199D01*
X107802389Y-143570286D01*
X107835911Y-143489356D01*
X107884581Y-143416517D01*
X107946517Y-143354581D01*
X108019356Y-143305911D01*
X108100286Y-143272389D01*
X108186199Y-143255300D01*
X108273801Y-143255300D01*
X108359714Y-143272389D01*
X108359714Y-143272389D01*
G37*
G36*
X109629714Y-143272389D02*
X109710644Y-143305911D01*
X109783483Y-143354581D01*
X109845419Y-143416517D01*
X109894089Y-143489356D01*
X109927611Y-143570286D01*
X109944700Y-143656199D01*
X109944700Y-143743801D01*
X109927611Y-143829714D01*
X109894089Y-143910644D01*
X109845419Y-143983483D01*
X109783483Y-144045419D01*
X109710644Y-144094089D01*
X109629714Y-144127611D01*
X109543801Y-144144700D01*
X109456199Y-144144700D01*
X109370286Y-144127611D01*
X109289356Y-144094089D01*
X109216517Y-144045419D01*
X109154581Y-143983483D01*
X109105911Y-143910644D01*
X109072389Y-143829714D01*
X109055300Y-143743801D01*
X109055300Y-143656199D01*
X109072389Y-143570286D01*
X109105911Y-143489356D01*
X109154581Y-143416517D01*
X109216517Y-143354581D01*
X109289356Y-143305911D01*
X109370286Y-143272389D01*
X109456199Y-143255300D01*
X109543801Y-143255300D01*
X109629714Y-143272389D01*
X109629714Y-143272389D01*
G37*
G36*
X104306522Y-142582289D02*
X104349039Y-142598080D01*
X104923110Y-142878073D01*
X104961738Y-142901860D01*
X104990452Y-142928520D01*
X105013420Y-142960277D01*
X105029746Y-142995896D01*
X105038810Y-143034018D01*
X105040263Y-143073178D01*
X105034048Y-143111872D01*
X105018257Y-143154389D01*
X104993551Y-143205043D01*
X104993551Y-143205044D01*
X104758801Y-143686354D01*
X104694427Y-143818339D01*
X104670640Y-143856967D01*
X104643980Y-143885681D01*
X104612223Y-143908649D01*
X104576604Y-143924975D01*
X104538482Y-143934039D01*
X104499322Y-143935492D01*
X104460628Y-143929277D01*
X104418111Y-143913486D01*
X103844040Y-143633493D01*
X103805412Y-143609706D01*
X103776698Y-143583046D01*
X103753730Y-143551289D01*
X103737404Y-143515670D01*
X103728340Y-143477548D01*
X103726887Y-143438388D01*
X103733102Y-143399694D01*
X103748893Y-143357177D01*
X103871494Y-143105808D01*
X104048019Y-142743877D01*
X104048021Y-142743874D01*
X104072723Y-142693227D01*
X104096510Y-142654599D01*
X104123170Y-142625885D01*
X104154927Y-142602917D01*
X104190546Y-142586591D01*
X104228668Y-142577527D01*
X104267828Y-142576074D01*
X104306522Y-142582289D01*
X104306522Y-142582289D01*
G37*
G36*
X109024350Y-141904694D02*
X109123770Y-141945875D01*
X109213249Y-142005663D01*
X109289337Y-142081751D01*
X109349125Y-142171230D01*
X109390306Y-142270650D01*
X109411300Y-142376194D01*
X109411300Y-142483806D01*
X109390306Y-142589350D01*
X109349125Y-142688770D01*
X109289337Y-142778249D01*
X109213249Y-142854337D01*
X109142126Y-142901860D01*
X109123770Y-142914125D01*
X109024350Y-142955306D01*
X108918806Y-142976300D01*
X108811194Y-142976300D01*
X108705650Y-142955306D01*
X108606230Y-142914125D01*
X108587874Y-142901860D01*
X108516751Y-142854337D01*
X108440663Y-142778249D01*
X108380875Y-142688770D01*
X108339694Y-142589350D01*
X108318700Y-142483806D01*
X108318700Y-142376194D01*
X108339694Y-142270650D01*
X108380875Y-142171230D01*
X108440663Y-142081751D01*
X108516751Y-142005663D01*
X108606230Y-141945875D01*
X108705650Y-141904694D01*
X108811194Y-141883700D01*
X108918806Y-141883700D01*
X109024350Y-141904694D01*
X109024350Y-141904694D01*
G37*
G36*
X113741000Y-139901000D02*
X113039000Y-139901000D01*
X113039000Y-138299000D01*
X113741000Y-138299000D01*
X113741000Y-139901000D01*
X113741000Y-139901000D01*
G37*
G36*
X115011000Y-139901000D02*
X114309000Y-139901000D01*
X114309000Y-138299000D01*
X115011000Y-138299000D01*
X115011000Y-139901000D01*
X115011000Y-139901000D01*
G37*
G36*
X116281000Y-139901000D02*
X115579000Y-139901000D01*
X115579000Y-138299000D01*
X116281000Y-138299000D01*
X116281000Y-139901000D01*
X116281000Y-139901000D01*
G37*
G36*
X117551000Y-139901000D02*
X116849000Y-139901000D01*
X116849000Y-138299000D01*
X117551000Y-138299000D01*
X117551000Y-139901000D01*
X117551000Y-139901000D01*
G37*
G36*
X118821000Y-139901000D02*
X118119000Y-139901000D01*
X118119000Y-138299000D01*
X118821000Y-138299000D01*
X118821000Y-139901000D01*
X118821000Y-139901000D01*
G37*
G36*
X120091000Y-139901000D02*
X119389000Y-139901000D01*
X119389000Y-138299000D01*
X120091000Y-138299000D01*
X120091000Y-139901000D01*
X120091000Y-139901000D01*
G37*
G36*
X121361000Y-139901000D02*
X120659000Y-139901000D01*
X120659000Y-138299000D01*
X121361000Y-138299000D01*
X121361000Y-139901000D01*
X121361000Y-139901000D01*
G37*
G36*
X146131000Y-139276000D02*
X140469000Y-139276000D01*
X140469000Y-131174000D01*
X146131000Y-131174000D01*
X146131000Y-139276000D01*
X146131000Y-139276000D01*
G37*
G36*
X113764499Y-136703445D02*
X113801993Y-136714819D01*
X113836557Y-136733294D01*
X113866847Y-136758153D01*
X113891706Y-136788443D01*
X113910181Y-136823007D01*
X113921555Y-136860501D01*
X113926000Y-136905638D01*
X113926000Y-137644362D01*
X113921555Y-137689499D01*
X113910181Y-137726993D01*
X113891706Y-137761557D01*
X113866847Y-137791847D01*
X113836557Y-137816706D01*
X113801993Y-137835181D01*
X113764499Y-137846555D01*
X113719362Y-137851000D01*
X113080638Y-137851000D01*
X113035501Y-137846555D01*
X112998007Y-137835181D01*
X112963443Y-137816706D01*
X112933153Y-137791847D01*
X112908294Y-137761557D01*
X112889819Y-137726993D01*
X112878445Y-137689499D01*
X112874000Y-137644362D01*
X112874000Y-136905638D01*
X112878445Y-136860501D01*
X112889819Y-136823007D01*
X112908294Y-136788443D01*
X112933153Y-136758153D01*
X112963443Y-136733294D01*
X112998007Y-136714819D01*
X113035501Y-136703445D01*
X113080638Y-136699000D01*
X113719362Y-136699000D01*
X113764499Y-136703445D01*
X113764499Y-136703445D01*
G37*
G36*
X113764499Y-134953445D02*
X113801993Y-134964819D01*
X113836557Y-134983294D01*
X113866847Y-135008153D01*
X113891706Y-135038443D01*
X113910181Y-135073007D01*
X113921555Y-135110501D01*
X113926000Y-135155638D01*
X113926000Y-135894362D01*
X113921555Y-135939499D01*
X113910181Y-135976993D01*
X113891706Y-136011557D01*
X113866847Y-136041847D01*
X113836557Y-136066706D01*
X113801993Y-136085181D01*
X113764499Y-136096555D01*
X113719362Y-136101000D01*
X113080638Y-136101000D01*
X113035501Y-136096555D01*
X112998007Y-136085181D01*
X112963443Y-136066706D01*
X112933153Y-136041847D01*
X112908294Y-136011557D01*
X112889819Y-135976993D01*
X112878445Y-135939499D01*
X112874000Y-135894362D01*
X112874000Y-135155638D01*
X112878445Y-135110501D01*
X112889819Y-135073007D01*
X112908294Y-135038443D01*
X112933153Y-135008153D01*
X112963443Y-134983294D01*
X112998007Y-134964819D01*
X113035501Y-134953445D01*
X113080638Y-134949000D01*
X113719362Y-134949000D01*
X113764499Y-134953445D01*
X113764499Y-134953445D01*
G37*
G36*
X106842866Y-134589097D02*
X106943140Y-134630632D01*
X107033390Y-134690935D01*
X107110133Y-134767678D01*
X107170436Y-134857928D01*
X107211971Y-134958202D01*
X107233145Y-135064653D01*
X107233145Y-135173193D01*
X107211971Y-135279644D01*
X107170436Y-135379918D01*
X107110133Y-135470168D01*
X107033390Y-135546911D01*
X106943140Y-135607214D01*
X106842866Y-135648749D01*
X106736415Y-135669923D01*
X106627875Y-135669923D01*
X106521424Y-135648749D01*
X106421150Y-135607214D01*
X106330900Y-135546911D01*
X106254157Y-135470168D01*
X106193854Y-135379918D01*
X106152319Y-135279644D01*
X106131145Y-135173193D01*
X106131145Y-135064653D01*
X106152319Y-134958202D01*
X106193854Y-134857928D01*
X106254157Y-134767678D01*
X106330900Y-134690935D01*
X106421150Y-134630632D01*
X106521424Y-134589097D01*
X106627875Y-134567923D01*
X106736415Y-134567923D01*
X106842866Y-134589097D01*
X106842866Y-134589097D01*
G37*
G36*
X129851000Y-135151000D02*
X126749000Y-135151000D01*
X126749000Y-132049000D01*
X129851000Y-132049000D01*
X129851000Y-135151000D01*
X129851000Y-135151000D01*
G37*
G36*
X107476794Y-133229636D02*
X107577068Y-133271171D01*
X107667318Y-133331474D01*
X107744061Y-133408217D01*
X107804364Y-133498467D01*
X107845899Y-133598741D01*
X107867073Y-133705192D01*
X107867073Y-133813732D01*
X107845899Y-133920183D01*
X107804364Y-134020457D01*
X107744061Y-134110707D01*
X107667318Y-134187450D01*
X107577068Y-134247753D01*
X107476794Y-134289288D01*
X107370343Y-134310462D01*
X107261803Y-134310462D01*
X107155352Y-134289288D01*
X107055078Y-134247753D01*
X106964828Y-134187450D01*
X106888085Y-134110707D01*
X106827782Y-134020457D01*
X106786247Y-133920183D01*
X106765073Y-133813732D01*
X106765073Y-133705192D01*
X106786247Y-133598741D01*
X106827782Y-133498467D01*
X106888085Y-133408217D01*
X106964828Y-133331474D01*
X107055078Y-133271171D01*
X107155352Y-133229636D01*
X107261803Y-133208462D01*
X107370343Y-133208462D01*
X107476794Y-133229636D01*
X107476794Y-133229636D01*
G37*
G36*
X174864992Y-132202630D02*
X174965266Y-132244165D01*
X175055516Y-132304468D01*
X175132259Y-132381211D01*
X175192562Y-132471461D01*
X175234097Y-132571735D01*
X175255271Y-132678186D01*
X175255271Y-132786726D01*
X175234097Y-132893177D01*
X175192562Y-132993451D01*
X175132259Y-133083701D01*
X175055516Y-133160444D01*
X174965266Y-133220747D01*
X174864992Y-133262282D01*
X174758541Y-133283456D01*
X174650001Y-133283456D01*
X174543550Y-133262282D01*
X174443276Y-133220747D01*
X174353026Y-133160444D01*
X174276283Y-133083701D01*
X174215980Y-132993451D01*
X174174445Y-132893177D01*
X174153271Y-132786726D01*
X174153271Y-132678186D01*
X174174445Y-132571735D01*
X174215980Y-132471461D01*
X174276283Y-132381211D01*
X174353026Y-132304468D01*
X174443276Y-132244165D01*
X174543550Y-132202630D01*
X174650001Y-132181456D01*
X174758541Y-132181456D01*
X174864992Y-132202630D01*
X174864992Y-132202630D01*
G37*
G36*
X108110721Y-131870174D02*
X108210995Y-131911709D01*
X108301245Y-131972012D01*
X108377988Y-132048755D01*
X108438291Y-132139005D01*
X108479826Y-132239279D01*
X108501000Y-132345730D01*
X108501000Y-132454270D01*
X108479826Y-132560721D01*
X108438291Y-132660995D01*
X108377988Y-132751245D01*
X108301245Y-132827988D01*
X108210995Y-132888291D01*
X108110721Y-132929826D01*
X108004270Y-132951000D01*
X107895730Y-132951000D01*
X107789279Y-132929826D01*
X107689005Y-132888291D01*
X107598755Y-132827988D01*
X107522012Y-132751245D01*
X107461709Y-132660995D01*
X107420174Y-132560721D01*
X107399000Y-132454270D01*
X107399000Y-132345730D01*
X107420174Y-132239279D01*
X107461709Y-132139005D01*
X107522012Y-132048755D01*
X107598755Y-131972012D01*
X107689005Y-131911709D01*
X107789279Y-131870174D01*
X107895730Y-131849000D01*
X108004270Y-131849000D01*
X108110721Y-131870174D01*
X108110721Y-131870174D01*
G37*
G36*
X175725356Y-130973902D02*
X175825630Y-131015437D01*
X175915880Y-131075740D01*
X175992623Y-131152483D01*
X176052926Y-131242733D01*
X176094461Y-131343007D01*
X176115635Y-131449458D01*
X176115635Y-131557998D01*
X176094461Y-131664449D01*
X176052926Y-131764723D01*
X175992623Y-131854973D01*
X175915880Y-131931716D01*
X175825630Y-131992019D01*
X175725356Y-132033554D01*
X175618905Y-132054728D01*
X175510365Y-132054728D01*
X175403914Y-132033554D01*
X175303640Y-131992019D01*
X175213390Y-131931716D01*
X175136647Y-131854973D01*
X175076344Y-131764723D01*
X175034809Y-131664449D01*
X175013635Y-131557998D01*
X175013635Y-131449458D01*
X175034809Y-131343007D01*
X175076344Y-131242733D01*
X175136647Y-131152483D01*
X175213390Y-131075740D01*
X175303640Y-131015437D01*
X175403914Y-130973902D01*
X175510365Y-130952728D01*
X175618905Y-130952728D01*
X175725356Y-130973902D01*
X175725356Y-130973902D01*
G37*
G36*
X108744648Y-130510712D02*
X108844922Y-130552247D01*
X108935172Y-130612550D01*
X109011915Y-130689293D01*
X109072218Y-130779543D01*
X109113753Y-130879817D01*
X109134927Y-130986268D01*
X109134927Y-131094808D01*
X109113753Y-131201259D01*
X109072218Y-131301533D01*
X109011915Y-131391783D01*
X108935172Y-131468526D01*
X108844922Y-131528829D01*
X108744648Y-131570364D01*
X108638197Y-131591538D01*
X108529657Y-131591538D01*
X108423206Y-131570364D01*
X108322932Y-131528829D01*
X108232682Y-131468526D01*
X108155939Y-131391783D01*
X108095636Y-131301533D01*
X108054101Y-131201259D01*
X108032927Y-131094808D01*
X108032927Y-130986268D01*
X108054101Y-130879817D01*
X108095636Y-130779543D01*
X108155939Y-130689293D01*
X108232682Y-130612550D01*
X108322932Y-130552247D01*
X108423206Y-130510712D01*
X108529657Y-130489538D01*
X108638197Y-130489538D01*
X108744648Y-130510712D01*
X108744648Y-130510712D01*
G37*
G36*
X176585721Y-129745174D02*
X176685995Y-129786709D01*
X176776245Y-129847012D01*
X176852988Y-129923755D01*
X176913291Y-130014005D01*
X176954826Y-130114279D01*
X176976000Y-130220730D01*
X176976000Y-130329270D01*
X176954826Y-130435721D01*
X176913291Y-130535995D01*
X176852988Y-130626245D01*
X176776245Y-130702988D01*
X176685995Y-130763291D01*
X176585721Y-130804826D01*
X176479270Y-130826000D01*
X176370730Y-130826000D01*
X176264279Y-130804826D01*
X176164005Y-130763291D01*
X176073755Y-130702988D01*
X175997012Y-130626245D01*
X175936709Y-130535995D01*
X175895174Y-130435721D01*
X175874000Y-130329270D01*
X175874000Y-130220730D01*
X175895174Y-130114279D01*
X175936709Y-130014005D01*
X175997012Y-129923755D01*
X176073755Y-129847012D01*
X176164005Y-129786709D01*
X176264279Y-129745174D01*
X176370730Y-129724000D01*
X176479270Y-129724000D01*
X176585721Y-129745174D01*
X176585721Y-129745174D01*
G37*
G36*
X109378576Y-129151251D02*
X109478850Y-129192786D01*
X109569100Y-129253089D01*
X109645843Y-129329832D01*
X109706146Y-129420082D01*
X109747681Y-129520356D01*
X109768855Y-129626807D01*
X109768855Y-129735347D01*
X109747681Y-129841798D01*
X109706146Y-129942072D01*
X109645843Y-130032322D01*
X109569100Y-130109065D01*
X109478850Y-130169368D01*
X109378576Y-130210903D01*
X109272125Y-130232077D01*
X109163585Y-130232077D01*
X109057134Y-130210903D01*
X108956860Y-130169368D01*
X108866610Y-130109065D01*
X108789867Y-130032322D01*
X108729564Y-129942072D01*
X108688029Y-129841798D01*
X108666855Y-129735347D01*
X108666855Y-129626807D01*
X108688029Y-129520356D01*
X108729564Y-129420082D01*
X108789867Y-129329832D01*
X108866610Y-129253089D01*
X108956860Y-129192786D01*
X109057134Y-129151251D01*
X109163585Y-129130077D01*
X109272125Y-129130077D01*
X109378576Y-129151251D01*
X109378576Y-129151251D01*
G37*
G36*
X113589499Y-129178445D02*
X113626993Y-129189819D01*
X113661557Y-129208294D01*
X113691847Y-129233153D01*
X113716706Y-129263443D01*
X113735181Y-129298007D01*
X113746555Y-129335501D01*
X113751000Y-129380638D01*
X113751000Y-130019362D01*
X113746555Y-130064499D01*
X113735181Y-130101993D01*
X113716706Y-130136557D01*
X113691847Y-130166847D01*
X113661557Y-130191706D01*
X113626993Y-130210181D01*
X113589499Y-130221555D01*
X113544362Y-130226000D01*
X112805638Y-130226000D01*
X112760501Y-130221555D01*
X112723007Y-130210181D01*
X112688443Y-130191706D01*
X112658153Y-130166847D01*
X112633294Y-130136557D01*
X112614819Y-130101993D01*
X112603445Y-130064499D01*
X112599000Y-130019362D01*
X112599000Y-129380638D01*
X112603445Y-129335501D01*
X112614819Y-129298007D01*
X112633294Y-129263443D01*
X112658153Y-129233153D01*
X112688443Y-129208294D01*
X112723007Y-129189819D01*
X112760501Y-129178445D01*
X112805638Y-129174000D01*
X113544362Y-129174000D01*
X113589499Y-129178445D01*
X113589499Y-129178445D01*
G37*
G36*
X115339499Y-129178445D02*
X115376993Y-129189819D01*
X115411557Y-129208294D01*
X115441847Y-129233153D01*
X115466706Y-129263443D01*
X115485181Y-129298007D01*
X115496555Y-129335501D01*
X115501000Y-129380638D01*
X115501000Y-130019362D01*
X115496555Y-130064499D01*
X115485181Y-130101993D01*
X115466706Y-130136557D01*
X115441847Y-130166847D01*
X115411557Y-130191706D01*
X115376993Y-130210181D01*
X115339499Y-130221555D01*
X115294362Y-130226000D01*
X114555638Y-130226000D01*
X114510501Y-130221555D01*
X114473007Y-130210181D01*
X114438443Y-130191706D01*
X114408153Y-130166847D01*
X114383294Y-130136557D01*
X114364819Y-130101993D01*
X114353445Y-130064499D01*
X114349000Y-130019362D01*
X114349000Y-129380638D01*
X114353445Y-129335501D01*
X114364819Y-129298007D01*
X114383294Y-129263443D01*
X114408153Y-129233153D01*
X114438443Y-129208294D01*
X114473007Y-129189819D01*
X114510501Y-129178445D01*
X114555638Y-129174000D01*
X115294362Y-129174000D01*
X115339499Y-129178445D01*
X115339499Y-129178445D01*
G37*
G36*
X153161781Y-128939252D02*
X153262055Y-128980787D01*
X153352305Y-129041090D01*
X153429048Y-129117833D01*
X153489351Y-129208083D01*
X153530886Y-129308357D01*
X153552060Y-129414808D01*
X153552060Y-129523348D01*
X153530886Y-129629799D01*
X153489351Y-129730073D01*
X153429048Y-129820323D01*
X153352305Y-129897066D01*
X153262055Y-129957369D01*
X153161781Y-129998904D01*
X153055330Y-130020078D01*
X152946790Y-130020078D01*
X152840339Y-129998904D01*
X152740065Y-129957369D01*
X152649815Y-129897066D01*
X152573072Y-129820323D01*
X152512769Y-129730073D01*
X152471234Y-129629799D01*
X152450060Y-129523348D01*
X152450060Y-129414808D01*
X152471234Y-129308357D01*
X152512769Y-129208083D01*
X152573072Y-129117833D01*
X152649815Y-129041090D01*
X152740065Y-128980787D01*
X152840339Y-128939252D01*
X152946790Y-128918078D01*
X153055330Y-128918078D01*
X153161781Y-128939252D01*
X153161781Y-128939252D01*
G37*
G36*
X177446086Y-128516446D02*
X177546360Y-128557981D01*
X177636610Y-128618284D01*
X177713353Y-128695027D01*
X177773656Y-128785277D01*
X177815191Y-128885551D01*
X177836365Y-128992002D01*
X177836365Y-129100542D01*
X177815191Y-129206993D01*
X177773656Y-129307267D01*
X177713353Y-129397517D01*
X177636610Y-129474260D01*
X177546360Y-129534563D01*
X177446086Y-129576098D01*
X177339635Y-129597272D01*
X177231095Y-129597272D01*
X177124644Y-129576098D01*
X177024370Y-129534563D01*
X176934120Y-129474260D01*
X176857377Y-129397517D01*
X176797074Y-129307267D01*
X176755539Y-129206993D01*
X176734365Y-129100542D01*
X176734365Y-128992002D01*
X176755539Y-128885551D01*
X176797074Y-128785277D01*
X176857377Y-128695027D01*
X176934120Y-128618284D01*
X177024370Y-128557981D01*
X177124644Y-128516446D01*
X177231095Y-128495272D01*
X177339635Y-128495272D01*
X177446086Y-128516446D01*
X177446086Y-128516446D01*
G37*
G36*
X129851000Y-129251000D02*
X126749000Y-129251000D01*
X126749000Y-126149000D01*
X129851000Y-126149000D01*
X129851000Y-129251000D01*
X129851000Y-129251000D01*
G37*
G36*
X152648751Y-127529713D02*
X152749025Y-127571248D01*
X152839275Y-127631551D01*
X152916018Y-127708294D01*
X152976321Y-127798544D01*
X153017856Y-127898818D01*
X153039030Y-128005269D01*
X153039030Y-128113809D01*
X153017856Y-128220260D01*
X152976321Y-128320534D01*
X152916018Y-128410784D01*
X152839275Y-128487527D01*
X152749025Y-128547830D01*
X152648751Y-128589365D01*
X152542300Y-128610539D01*
X152433760Y-128610539D01*
X152327309Y-128589365D01*
X152227035Y-128547830D01*
X152136785Y-128487527D01*
X152060042Y-128410784D01*
X151999739Y-128320534D01*
X151958204Y-128220260D01*
X151937030Y-128113809D01*
X151937030Y-128005269D01*
X151958204Y-127898818D01*
X151999739Y-127798544D01*
X152060042Y-127708294D01*
X152136785Y-127631551D01*
X152227035Y-127571248D01*
X152327309Y-127529713D01*
X152433760Y-127508539D01*
X152542300Y-127508539D01*
X152648751Y-127529713D01*
X152648751Y-127529713D01*
G37*
G36*
X173339499Y-127478445D02*
X173376993Y-127489819D01*
X173411557Y-127508294D01*
X173441847Y-127533153D01*
X173466706Y-127563443D01*
X173485181Y-127598007D01*
X173496555Y-127635501D01*
X173501000Y-127680638D01*
X173501000Y-128319362D01*
X173496555Y-128364499D01*
X173485181Y-128401993D01*
X173466706Y-128436557D01*
X173441847Y-128466847D01*
X173411557Y-128491706D01*
X173376993Y-128510181D01*
X173339499Y-128521555D01*
X173294362Y-128526000D01*
X172555638Y-128526000D01*
X172510501Y-128521555D01*
X172473007Y-128510181D01*
X172438443Y-128491706D01*
X172408153Y-128466847D01*
X172383294Y-128436557D01*
X172364819Y-128401993D01*
X172353445Y-128364499D01*
X172349000Y-128319362D01*
X172349000Y-127680638D01*
X172353445Y-127635501D01*
X172364819Y-127598007D01*
X172383294Y-127563443D01*
X172408153Y-127533153D01*
X172438443Y-127508294D01*
X172473007Y-127489819D01*
X172510501Y-127478445D01*
X172555638Y-127474000D01*
X173294362Y-127474000D01*
X173339499Y-127478445D01*
X173339499Y-127478445D01*
G37*
G36*
X175089499Y-127478445D02*
X175126993Y-127489819D01*
X175161557Y-127508294D01*
X175191847Y-127533153D01*
X175216706Y-127563443D01*
X175235181Y-127598007D01*
X175246555Y-127635501D01*
X175251000Y-127680638D01*
X175251000Y-128319362D01*
X175246555Y-128364499D01*
X175235181Y-128401993D01*
X175216706Y-128436557D01*
X175191847Y-128466847D01*
X175161557Y-128491706D01*
X175126993Y-128510181D01*
X175089499Y-128521555D01*
X175044362Y-128526000D01*
X174305638Y-128526000D01*
X174260501Y-128521555D01*
X174223007Y-128510181D01*
X174188443Y-128491706D01*
X174158153Y-128466847D01*
X174133294Y-128436557D01*
X174114819Y-128401993D01*
X174103445Y-128364499D01*
X174099000Y-128319362D01*
X174099000Y-127680638D01*
X174103445Y-127635501D01*
X174114819Y-127598007D01*
X174133294Y-127563443D01*
X174158153Y-127533153D01*
X174188443Y-127508294D01*
X174223007Y-127489819D01*
X174260501Y-127478445D01*
X174305638Y-127474000D01*
X175044362Y-127474000D01*
X175089499Y-127478445D01*
X175089499Y-127478445D01*
G37*
G36*
X115389499Y-127478445D02*
X115426993Y-127489819D01*
X115461557Y-127508294D01*
X115491847Y-127533153D01*
X115516706Y-127563443D01*
X115535181Y-127598007D01*
X115546555Y-127635501D01*
X115551000Y-127680638D01*
X115551000Y-128319362D01*
X115546555Y-128364499D01*
X115535181Y-128401993D01*
X115516706Y-128436557D01*
X115491847Y-128466847D01*
X115461557Y-128491706D01*
X115426993Y-128510181D01*
X115389499Y-128521555D01*
X115344362Y-128526000D01*
X114605638Y-128526000D01*
X114560501Y-128521555D01*
X114523007Y-128510181D01*
X114488443Y-128491706D01*
X114458153Y-128466847D01*
X114433294Y-128436557D01*
X114414819Y-128401993D01*
X114403445Y-128364499D01*
X114399000Y-128319362D01*
X114399000Y-127680638D01*
X114403445Y-127635501D01*
X114414819Y-127598007D01*
X114433294Y-127563443D01*
X114458153Y-127533153D01*
X114488443Y-127508294D01*
X114523007Y-127489819D01*
X114560501Y-127478445D01*
X114605638Y-127474000D01*
X115344362Y-127474000D01*
X115389499Y-127478445D01*
X115389499Y-127478445D01*
G37*
G36*
X113639499Y-127478445D02*
X113676993Y-127489819D01*
X113711557Y-127508294D01*
X113741847Y-127533153D01*
X113766706Y-127563443D01*
X113785181Y-127598007D01*
X113796555Y-127635501D01*
X113801000Y-127680638D01*
X113801000Y-128319362D01*
X113796555Y-128364499D01*
X113785181Y-128401993D01*
X113766706Y-128436557D01*
X113741847Y-128466847D01*
X113711557Y-128491706D01*
X113676993Y-128510181D01*
X113639499Y-128521555D01*
X113594362Y-128526000D01*
X112855638Y-128526000D01*
X112810501Y-128521555D01*
X112773007Y-128510181D01*
X112738443Y-128491706D01*
X112708153Y-128466847D01*
X112683294Y-128436557D01*
X112664819Y-128401993D01*
X112653445Y-128364499D01*
X112649000Y-128319362D01*
X112649000Y-127680638D01*
X112653445Y-127635501D01*
X112664819Y-127598007D01*
X112683294Y-127563443D01*
X112708153Y-127533153D01*
X112738443Y-127508294D01*
X112773007Y-127489819D01*
X112810501Y-127478445D01*
X112855638Y-127474000D01*
X113594362Y-127474000D01*
X113639499Y-127478445D01*
X113639499Y-127478445D01*
G37*
G36*
X178306450Y-127287718D02*
X178406724Y-127329253D01*
X178496974Y-127389556D01*
X178573717Y-127466299D01*
X178634020Y-127556549D01*
X178675555Y-127656823D01*
X178696729Y-127763274D01*
X178696729Y-127871814D01*
X178675555Y-127978265D01*
X178634020Y-128078539D01*
X178573717Y-128168789D01*
X178496974Y-128245532D01*
X178406724Y-128305835D01*
X178306450Y-128347370D01*
X178199999Y-128368544D01*
X178091459Y-128368544D01*
X177985008Y-128347370D01*
X177884734Y-128305835D01*
X177794484Y-128245532D01*
X177717741Y-128168789D01*
X177657438Y-128078539D01*
X177615903Y-127978265D01*
X177594729Y-127871814D01*
X177594729Y-127763274D01*
X177615903Y-127656823D01*
X177657438Y-127556549D01*
X177717741Y-127466299D01*
X177794484Y-127389556D01*
X177884734Y-127329253D01*
X177985008Y-127287718D01*
X178091459Y-127266544D01*
X178199999Y-127266544D01*
X178306450Y-127287718D01*
X178306450Y-127287718D01*
G37*
G36*
X158781716Y-126564235D02*
X158881990Y-126605770D01*
X158972240Y-126666073D01*
X159048983Y-126742816D01*
X159109286Y-126833066D01*
X159150821Y-126933340D01*
X159171995Y-127039791D01*
X159171995Y-127148331D01*
X159150821Y-127254782D01*
X159109286Y-127355056D01*
X159048983Y-127445306D01*
X158972240Y-127522049D01*
X158881990Y-127582352D01*
X158781716Y-127623887D01*
X158675265Y-127645061D01*
X158566725Y-127645061D01*
X158460274Y-127623887D01*
X158360000Y-127582352D01*
X158269750Y-127522049D01*
X158193007Y-127445306D01*
X158132704Y-127355056D01*
X158091169Y-127254782D01*
X158069995Y-127148331D01*
X158069995Y-127039791D01*
X158091169Y-126933340D01*
X158132704Y-126833066D01*
X158193007Y-126742816D01*
X158269750Y-126666073D01*
X158360000Y-126605770D01*
X158460274Y-126564235D01*
X158566725Y-126543061D01*
X158675265Y-126543061D01*
X158781716Y-126564235D01*
X158781716Y-126564235D01*
G37*
G36*
X152135721Y-126120174D02*
X152235995Y-126161709D01*
X152326245Y-126222012D01*
X152402988Y-126298755D01*
X152463291Y-126389005D01*
X152504826Y-126489279D01*
X152526000Y-126595730D01*
X152526000Y-126704270D01*
X152504826Y-126810721D01*
X152463291Y-126910995D01*
X152402988Y-127001245D01*
X152326245Y-127077988D01*
X152235995Y-127138291D01*
X152135721Y-127179826D01*
X152029270Y-127201000D01*
X151920730Y-127201000D01*
X151814279Y-127179826D01*
X151714005Y-127138291D01*
X151623755Y-127077988D01*
X151547012Y-127001245D01*
X151486709Y-126910995D01*
X151445174Y-126810721D01*
X151424000Y-126704270D01*
X151424000Y-126595730D01*
X151445174Y-126489279D01*
X151486709Y-126389005D01*
X151547012Y-126298755D01*
X151623755Y-126222012D01*
X151714005Y-126161709D01*
X151814279Y-126120174D01*
X151920730Y-126099000D01*
X152029270Y-126099000D01*
X152135721Y-126120174D01*
X152135721Y-126120174D01*
G37*
G36*
X173389499Y-125828445D02*
X173426993Y-125839819D01*
X173461557Y-125858294D01*
X173491847Y-125883153D01*
X173516706Y-125913443D01*
X173535181Y-125948007D01*
X173546555Y-125985501D01*
X173551000Y-126030638D01*
X173551000Y-126669362D01*
X173546555Y-126714499D01*
X173535181Y-126751993D01*
X173516706Y-126786557D01*
X173491847Y-126816847D01*
X173461557Y-126841706D01*
X173426993Y-126860181D01*
X173389499Y-126871555D01*
X173344362Y-126876000D01*
X172605638Y-126876000D01*
X172560501Y-126871555D01*
X172523007Y-126860181D01*
X172488443Y-126841706D01*
X172458153Y-126816847D01*
X172433294Y-126786557D01*
X172414819Y-126751993D01*
X172403445Y-126714499D01*
X172399000Y-126669362D01*
X172399000Y-126030638D01*
X172403445Y-125985501D01*
X172414819Y-125948007D01*
X172433294Y-125913443D01*
X172458153Y-125883153D01*
X172488443Y-125858294D01*
X172523007Y-125839819D01*
X172560501Y-125828445D01*
X172605638Y-125824000D01*
X173344362Y-125824000D01*
X173389499Y-125828445D01*
X173389499Y-125828445D01*
G37*
G36*
X175139499Y-125828445D02*
X175176993Y-125839819D01*
X175211557Y-125858294D01*
X175241847Y-125883153D01*
X175266706Y-125913443D01*
X175285181Y-125948007D01*
X175296555Y-125985501D01*
X175301000Y-126030638D01*
X175301000Y-126669362D01*
X175296555Y-126714499D01*
X175285181Y-126751993D01*
X175266706Y-126786557D01*
X175241847Y-126816847D01*
X175211557Y-126841706D01*
X175176993Y-126860181D01*
X175139499Y-126871555D01*
X175094362Y-126876000D01*
X174355638Y-126876000D01*
X174310501Y-126871555D01*
X174273007Y-126860181D01*
X174238443Y-126841706D01*
X174208153Y-126816847D01*
X174183294Y-126786557D01*
X174164819Y-126751993D01*
X174153445Y-126714499D01*
X174149000Y-126669362D01*
X174149000Y-126030638D01*
X174153445Y-125985501D01*
X174164819Y-125948007D01*
X174183294Y-125913443D01*
X174208153Y-125883153D01*
X174238443Y-125858294D01*
X174273007Y-125839819D01*
X174310501Y-125828445D01*
X174355638Y-125824000D01*
X175094362Y-125824000D01*
X175139499Y-125828445D01*
X175139499Y-125828445D01*
G37*
G36*
X157758719Y-125467205D02*
X157858993Y-125508740D01*
X157949243Y-125569043D01*
X158025986Y-125645786D01*
X158086289Y-125736036D01*
X158127824Y-125836310D01*
X158148998Y-125942761D01*
X158148998Y-126051301D01*
X158127824Y-126157752D01*
X158086289Y-126258026D01*
X158025986Y-126348276D01*
X157949243Y-126425019D01*
X157858993Y-126485322D01*
X157758719Y-126526857D01*
X157652268Y-126548031D01*
X157543728Y-126548031D01*
X157437277Y-126526857D01*
X157337003Y-126485322D01*
X157246753Y-126425019D01*
X157170010Y-126348276D01*
X157109707Y-126258026D01*
X157068172Y-126157752D01*
X157046998Y-126051301D01*
X157046998Y-125942761D01*
X157068172Y-125836310D01*
X157109707Y-125736036D01*
X157170010Y-125645786D01*
X157246753Y-125569043D01*
X157337003Y-125508740D01*
X157437277Y-125467205D01*
X157543728Y-125446031D01*
X157652268Y-125446031D01*
X157758719Y-125467205D01*
X157758719Y-125467205D01*
G37*
G36*
X151622691Y-124710635D02*
X151722965Y-124752170D01*
X151813215Y-124812473D01*
X151889958Y-124889216D01*
X151950261Y-124979466D01*
X151991796Y-125079740D01*
X152012970Y-125186191D01*
X152012970Y-125294731D01*
X151991796Y-125401182D01*
X151950261Y-125501456D01*
X151889958Y-125591706D01*
X151813215Y-125668449D01*
X151722965Y-125728752D01*
X151622691Y-125770287D01*
X151516240Y-125791461D01*
X151407700Y-125791461D01*
X151301249Y-125770287D01*
X151200975Y-125728752D01*
X151110725Y-125668449D01*
X151033982Y-125591706D01*
X150973679Y-125501456D01*
X150932144Y-125401182D01*
X150910970Y-125294731D01*
X150910970Y-125186191D01*
X150932144Y-125079740D01*
X150973679Y-124979466D01*
X151033982Y-124889216D01*
X151110725Y-124812473D01*
X151200975Y-124752170D01*
X151301249Y-124710635D01*
X151407700Y-124689461D01*
X151516240Y-124689461D01*
X151622691Y-124710635D01*
X151622691Y-124710635D01*
G37*
G36*
X156735721Y-124370174D02*
X156835995Y-124411709D01*
X156926245Y-124472012D01*
X157002988Y-124548755D01*
X157063291Y-124639005D01*
X157104826Y-124739279D01*
X157126000Y-124845730D01*
X157126000Y-124954270D01*
X157104826Y-125060721D01*
X157063291Y-125160995D01*
X157002988Y-125251245D01*
X156926245Y-125327988D01*
X156835995Y-125388291D01*
X156735721Y-125429826D01*
X156629270Y-125451000D01*
X156520730Y-125451000D01*
X156414279Y-125429826D01*
X156314005Y-125388291D01*
X156223755Y-125327988D01*
X156147012Y-125251245D01*
X156086709Y-125160995D01*
X156045174Y-125060721D01*
X156024000Y-124954270D01*
X156024000Y-124845730D01*
X156045174Y-124739279D01*
X156086709Y-124639005D01*
X156147012Y-124548755D01*
X156223755Y-124472012D01*
X156314005Y-124411709D01*
X156414279Y-124370174D01*
X156520730Y-124349000D01*
X156629270Y-124349000D01*
X156735721Y-124370174D01*
X156735721Y-124370174D01*
G37*
G36*
X146131000Y-124671000D02*
X140469000Y-124671000D01*
X140469000Y-121969000D01*
X146131000Y-121969000D01*
X146131000Y-124671000D01*
X146131000Y-124671000D01*
G37*
G36*
X151109661Y-123301096D02*
X151209935Y-123342631D01*
X151300185Y-123402934D01*
X151376928Y-123479677D01*
X151437231Y-123569927D01*
X151478766Y-123670201D01*
X151499940Y-123776652D01*
X151499940Y-123885192D01*
X151478766Y-123991643D01*
X151437231Y-124091917D01*
X151376928Y-124182167D01*
X151300185Y-124258910D01*
X151209935Y-124319213D01*
X151109661Y-124360748D01*
X151003210Y-124381922D01*
X150894670Y-124381922D01*
X150788219Y-124360748D01*
X150687945Y-124319213D01*
X150597695Y-124258910D01*
X150520952Y-124182167D01*
X150460649Y-124091917D01*
X150419114Y-123991643D01*
X150397940Y-123885192D01*
X150397940Y-123776652D01*
X150419114Y-123670201D01*
X150460649Y-123569927D01*
X150520952Y-123479677D01*
X150597695Y-123402934D01*
X150687945Y-123342631D01*
X150788219Y-123301096D01*
X150894670Y-123279922D01*
X151003210Y-123279922D01*
X151109661Y-123301096D01*
X151109661Y-123301096D01*
G37*
G36*
X155712723Y-123273143D02*
X155812997Y-123314678D01*
X155903247Y-123374981D01*
X155979990Y-123451724D01*
X156040293Y-123541974D01*
X156081828Y-123642248D01*
X156103002Y-123748699D01*
X156103002Y-123857239D01*
X156081828Y-123963690D01*
X156040293Y-124063964D01*
X155979990Y-124154214D01*
X155903247Y-124230957D01*
X155812997Y-124291260D01*
X155712723Y-124332795D01*
X155606272Y-124353969D01*
X155497732Y-124353969D01*
X155391281Y-124332795D01*
X155291007Y-124291260D01*
X155200757Y-124230957D01*
X155124014Y-124154214D01*
X155063711Y-124063964D01*
X155022176Y-123963690D01*
X155001002Y-123857239D01*
X155001002Y-123748699D01*
X155022176Y-123642248D01*
X155063711Y-123541974D01*
X155124014Y-123451724D01*
X155200757Y-123374981D01*
X155291007Y-123314678D01*
X155391281Y-123273143D01*
X155497732Y-123251969D01*
X155606272Y-123251969D01*
X155712723Y-123273143D01*
X155712723Y-123273143D01*
G37*
G36*
X129851000Y-123351000D02*
X126749000Y-123351000D01*
X126749000Y-120249000D01*
X129851000Y-120249000D01*
X129851000Y-123351000D01*
X129851000Y-123351000D01*
G37*
G36*
X154689726Y-122176113D02*
X154790000Y-122217648D01*
X154880250Y-122277951D01*
X154956993Y-122354694D01*
X155017296Y-122444944D01*
X155058831Y-122545218D01*
X155080005Y-122651669D01*
X155080005Y-122760209D01*
X155058831Y-122866660D01*
X155017296Y-122966934D01*
X154956993Y-123057184D01*
X154880250Y-123133927D01*
X154790000Y-123194230D01*
X154689726Y-123235765D01*
X154583275Y-123256939D01*
X154474735Y-123256939D01*
X154368284Y-123235765D01*
X154268010Y-123194230D01*
X154177760Y-123133927D01*
X154101017Y-123057184D01*
X154040714Y-122966934D01*
X153999179Y-122866660D01*
X153978005Y-122760209D01*
X153978005Y-122651669D01*
X153999179Y-122545218D01*
X154040714Y-122444944D01*
X154101017Y-122354694D01*
X154177760Y-122277951D01*
X154268010Y-122217648D01*
X154368284Y-122176113D01*
X154474735Y-122154939D01*
X154583275Y-122154939D01*
X154689726Y-122176113D01*
X154689726Y-122176113D01*
G37*
G36*
X167651000Y-122051000D02*
X164549000Y-122051000D01*
X164549000Y-118949000D01*
X167651000Y-118949000D01*
X167651000Y-122051000D01*
X167651000Y-122051000D01*
G37*
G36*
X163939499Y-111628445D02*
X163976993Y-111639819D01*
X164011557Y-111658294D01*
X164041847Y-111683153D01*
X164066706Y-111713443D01*
X164085181Y-111748007D01*
X164096555Y-111785501D01*
X164101000Y-111830638D01*
X164101000Y-112469362D01*
X164096555Y-112514499D01*
X164085181Y-112551993D01*
X164066706Y-112586557D01*
X164041847Y-112616847D01*
X164011557Y-112641706D01*
X163976993Y-112660181D01*
X163939499Y-112671555D01*
X163894362Y-112676000D01*
X163155638Y-112676000D01*
X163110501Y-112671555D01*
X163073007Y-112660181D01*
X163038443Y-112641706D01*
X163008153Y-112616847D01*
X162983294Y-112586557D01*
X162964819Y-112551993D01*
X162953445Y-112514499D01*
X162949000Y-112469362D01*
X162949000Y-111830638D01*
X162953445Y-111785501D01*
X162964819Y-111748007D01*
X162983294Y-111713443D01*
X163008153Y-111683153D01*
X163038443Y-111658294D01*
X163073007Y-111639819D01*
X163110501Y-111628445D01*
X163155638Y-111624000D01*
X163894362Y-111624000D01*
X163939499Y-111628445D01*
X163939499Y-111628445D01*
G37*
G36*
X162189499Y-111628445D02*
X162226993Y-111639819D01*
X162261557Y-111658294D01*
X162291847Y-111683153D01*
X162316706Y-111713443D01*
X162335181Y-111748007D01*
X162346555Y-111785501D01*
X162351000Y-111830638D01*
X162351000Y-112469362D01*
X162346555Y-112514499D01*
X162335181Y-112551993D01*
X162316706Y-112586557D01*
X162291847Y-112616847D01*
X162261557Y-112641706D01*
X162226993Y-112660181D01*
X162189499Y-112671555D01*
X162144362Y-112676000D01*
X161405638Y-112676000D01*
X161360501Y-112671555D01*
X161323007Y-112660181D01*
X161288443Y-112641706D01*
X161258153Y-112616847D01*
X161233294Y-112586557D01*
X161214819Y-112551993D01*
X161203445Y-112514499D01*
X161199000Y-112469362D01*
X161199000Y-111830638D01*
X161203445Y-111785501D01*
X161214819Y-111748007D01*
X161233294Y-111713443D01*
X161258153Y-111683153D01*
X161288443Y-111658294D01*
X161323007Y-111639819D01*
X161360501Y-111628445D01*
X161405638Y-111624000D01*
X162144362Y-111624000D01*
X162189499Y-111628445D01*
X162189499Y-111628445D01*
G37*
G36*
X163939499Y-109978445D02*
X163976993Y-109989819D01*
X164011557Y-110008294D01*
X164041847Y-110033153D01*
X164066706Y-110063443D01*
X164085181Y-110098007D01*
X164096555Y-110135501D01*
X164101000Y-110180638D01*
X164101000Y-110819362D01*
X164096555Y-110864499D01*
X164085181Y-110901993D01*
X164066706Y-110936557D01*
X164041847Y-110966847D01*
X164011557Y-110991706D01*
X163976993Y-111010181D01*
X163939499Y-111021555D01*
X163894362Y-111026000D01*
X163155638Y-111026000D01*
X163110501Y-111021555D01*
X163073007Y-111010181D01*
X163038443Y-110991706D01*
X163008153Y-110966847D01*
X162983294Y-110936557D01*
X162964819Y-110901993D01*
X162953445Y-110864499D01*
X162949000Y-110819362D01*
X162949000Y-110180638D01*
X162953445Y-110135501D01*
X162964819Y-110098007D01*
X162983294Y-110063443D01*
X163008153Y-110033153D01*
X163038443Y-110008294D01*
X163073007Y-109989819D01*
X163110501Y-109978445D01*
X163155638Y-109974000D01*
X163894362Y-109974000D01*
X163939499Y-109978445D01*
X163939499Y-109978445D01*
G37*
G36*
X162189499Y-109978445D02*
X162226993Y-109989819D01*
X162261557Y-110008294D01*
X162291847Y-110033153D01*
X162316706Y-110063443D01*
X162335181Y-110098007D01*
X162346555Y-110135501D01*
X162351000Y-110180638D01*
X162351000Y-110819362D01*
X162346555Y-110864499D01*
X162335181Y-110901993D01*
X162316706Y-110936557D01*
X162291847Y-110966847D01*
X162261557Y-110991706D01*
X162226993Y-111010181D01*
X162189499Y-111021555D01*
X162144362Y-111026000D01*
X161405638Y-111026000D01*
X161360501Y-111021555D01*
X161323007Y-111010181D01*
X161288443Y-110991706D01*
X161258153Y-110966847D01*
X161233294Y-110936557D01*
X161214819Y-110901993D01*
X161203445Y-110864499D01*
X161199000Y-110819362D01*
X161199000Y-110180638D01*
X161203445Y-110135501D01*
X161214819Y-110098007D01*
X161233294Y-110063443D01*
X161258153Y-110033153D01*
X161288443Y-110008294D01*
X161323007Y-109989819D01*
X161360501Y-109978445D01*
X161405638Y-109974000D01*
X162144362Y-109974000D01*
X162189499Y-109978445D01*
X162189499Y-109978445D01*
G37*
G36*
X111426804Y-104536186D02*
X111527078Y-104577721D01*
X111617328Y-104638024D01*
X111694071Y-104714767D01*
X111754374Y-104805017D01*
X111795909Y-104905291D01*
X111817083Y-105011742D01*
X111817083Y-105120282D01*
X111795909Y-105226733D01*
X111754374Y-105327007D01*
X111694071Y-105417257D01*
X111617328Y-105494000D01*
X111527078Y-105554303D01*
X111426804Y-105595838D01*
X111320353Y-105617012D01*
X111211813Y-105617012D01*
X111105362Y-105595838D01*
X111005088Y-105554303D01*
X110914838Y-105494000D01*
X110838095Y-105417257D01*
X110777792Y-105327007D01*
X110736257Y-105226733D01*
X110715083Y-105120282D01*
X110715083Y-105011742D01*
X110736257Y-104905291D01*
X110777792Y-104805017D01*
X110838095Y-104714767D01*
X110914838Y-104638024D01*
X111005088Y-104577721D01*
X111105362Y-104536186D01*
X111211813Y-104515012D01*
X111320353Y-104515012D01*
X111426804Y-104536186D01*
X111426804Y-104536186D01*
G37*
G36*
X183852306Y-103519017D02*
X183952580Y-103560552D01*
X184042830Y-103620855D01*
X184119573Y-103697598D01*
X184179876Y-103787848D01*
X184221411Y-103888122D01*
X184242585Y-103994573D01*
X184242585Y-104103113D01*
X184221411Y-104209564D01*
X184179876Y-104309838D01*
X184119573Y-104400088D01*
X184042830Y-104476831D01*
X183952580Y-104537134D01*
X183852306Y-104578669D01*
X183745855Y-104599843D01*
X183637315Y-104599843D01*
X183530864Y-104578669D01*
X183430590Y-104537134D01*
X183340340Y-104476831D01*
X183263597Y-104400088D01*
X183203294Y-104309838D01*
X183161759Y-104209564D01*
X183140585Y-104103113D01*
X183140585Y-103994573D01*
X183161759Y-103888122D01*
X183203294Y-103787848D01*
X183263597Y-103697598D01*
X183340340Y-103620855D01*
X183430590Y-103560552D01*
X183530864Y-103519017D01*
X183637315Y-103497843D01*
X183745855Y-103497843D01*
X183852306Y-103519017D01*
X183852306Y-103519017D01*
G37*
G36*
X112243762Y-103278180D02*
X112344036Y-103319715D01*
X112434286Y-103380018D01*
X112511029Y-103456761D01*
X112571332Y-103547011D01*
X112612867Y-103647285D01*
X112634041Y-103753736D01*
X112634041Y-103862276D01*
X112612867Y-103968727D01*
X112571332Y-104069001D01*
X112511029Y-104159251D01*
X112434286Y-104235994D01*
X112344036Y-104296297D01*
X112243762Y-104337832D01*
X112137311Y-104359006D01*
X112028771Y-104359006D01*
X111922320Y-104337832D01*
X111822046Y-104296297D01*
X111731796Y-104235994D01*
X111655053Y-104159251D01*
X111594750Y-104069001D01*
X111553215Y-103968727D01*
X111532041Y-103862276D01*
X111532041Y-103753736D01*
X111553215Y-103647285D01*
X111594750Y-103547011D01*
X111655053Y-103456761D01*
X111731796Y-103380018D01*
X111822046Y-103319715D01*
X111922320Y-103278180D01*
X112028771Y-103257006D01*
X112137311Y-103257006D01*
X112243762Y-103278180D01*
X112243762Y-103278180D01*
G37*
G36*
X184556514Y-102194595D02*
X184656788Y-102236130D01*
X184747038Y-102296433D01*
X184823781Y-102373176D01*
X184884084Y-102463426D01*
X184925619Y-102563700D01*
X184946793Y-102670151D01*
X184946793Y-102778691D01*
X184925619Y-102885142D01*
X184884084Y-102985416D01*
X184823781Y-103075666D01*
X184747038Y-103152409D01*
X184656788Y-103212712D01*
X184556514Y-103254247D01*
X184450063Y-103275421D01*
X184341523Y-103275421D01*
X184235072Y-103254247D01*
X184134798Y-103212712D01*
X184044548Y-103152409D01*
X183967805Y-103075666D01*
X183907502Y-102985416D01*
X183865967Y-102885142D01*
X183844793Y-102778691D01*
X183844793Y-102670151D01*
X183865967Y-102563700D01*
X183907502Y-102463426D01*
X183967805Y-102373176D01*
X184044548Y-102296433D01*
X184134798Y-102236130D01*
X184235072Y-102194595D01*
X184341523Y-102173421D01*
X184450063Y-102173421D01*
X184556514Y-102194595D01*
X184556514Y-102194595D01*
G37*
G36*
X113060721Y-102020174D02*
X113160995Y-102061709D01*
X113251245Y-102122012D01*
X113327988Y-102198755D01*
X113388291Y-102289005D01*
X113429826Y-102389279D01*
X113451000Y-102495730D01*
X113451000Y-102604270D01*
X113429826Y-102710721D01*
X113388291Y-102810995D01*
X113327988Y-102901245D01*
X113251245Y-102977988D01*
X113160995Y-103038291D01*
X113060721Y-103079826D01*
X112954270Y-103101000D01*
X112845730Y-103101000D01*
X112739279Y-103079826D01*
X112639005Y-103038291D01*
X112548755Y-102977988D01*
X112472012Y-102901245D01*
X112411709Y-102810995D01*
X112370174Y-102710721D01*
X112349000Y-102604270D01*
X112349000Y-102495730D01*
X112370174Y-102389279D01*
X112411709Y-102289005D01*
X112472012Y-102198755D01*
X112548755Y-102122012D01*
X112639005Y-102061709D01*
X112739279Y-102020174D01*
X112845730Y-101999000D01*
X112954270Y-101999000D01*
X113060721Y-102020174D01*
X113060721Y-102020174D01*
G37*
G36*
X149303576Y-101314097D02*
X149403850Y-101355632D01*
X149494100Y-101415935D01*
X149570843Y-101492678D01*
X149631146Y-101582928D01*
X149672681Y-101683202D01*
X149693855Y-101789653D01*
X149693855Y-101898193D01*
X149672681Y-102004644D01*
X149631146Y-102104918D01*
X149570843Y-102195168D01*
X149494100Y-102271911D01*
X149403850Y-102332214D01*
X149303576Y-102373749D01*
X149197125Y-102394923D01*
X149088585Y-102394923D01*
X148982134Y-102373749D01*
X148881860Y-102332214D01*
X148791610Y-102271911D01*
X148714867Y-102195168D01*
X148654564Y-102104918D01*
X148613029Y-102004644D01*
X148591855Y-101898193D01*
X148591855Y-101789653D01*
X148613029Y-101683202D01*
X148654564Y-101582928D01*
X148714867Y-101492678D01*
X148791610Y-101415935D01*
X148881860Y-101355632D01*
X148982134Y-101314097D01*
X149088585Y-101292923D01*
X149197125Y-101292923D01*
X149303576Y-101314097D01*
X149303576Y-101314097D01*
G37*
G36*
X185260721Y-100870174D02*
X185360995Y-100911709D01*
X185451245Y-100972012D01*
X185527988Y-101048755D01*
X185588291Y-101139005D01*
X185629826Y-101239279D01*
X185651000Y-101345730D01*
X185651000Y-101454270D01*
X185629826Y-101560721D01*
X185588291Y-101660995D01*
X185527988Y-101751245D01*
X185451245Y-101827988D01*
X185360995Y-101888291D01*
X185260721Y-101929826D01*
X185154270Y-101951000D01*
X185045730Y-101951000D01*
X184939279Y-101929826D01*
X184839005Y-101888291D01*
X184748755Y-101827988D01*
X184672012Y-101751245D01*
X184611709Y-101660995D01*
X184570174Y-101560721D01*
X184549000Y-101454270D01*
X184549000Y-101345730D01*
X184570174Y-101239279D01*
X184611709Y-101139005D01*
X184672012Y-101048755D01*
X184748755Y-100972012D01*
X184839005Y-100911709D01*
X184939279Y-100870174D01*
X185045730Y-100849000D01*
X185154270Y-100849000D01*
X185260721Y-100870174D01*
X185260721Y-100870174D01*
G37*
G36*
X113877680Y-100762168D02*
X113977954Y-100803703D01*
X114068204Y-100864006D01*
X114144947Y-100940749D01*
X114205250Y-101030999D01*
X114246785Y-101131273D01*
X114267959Y-101237724D01*
X114267959Y-101346264D01*
X114246785Y-101452715D01*
X114205250Y-101552989D01*
X114144947Y-101643239D01*
X114068204Y-101719982D01*
X113977954Y-101780285D01*
X113877680Y-101821820D01*
X113771229Y-101842994D01*
X113662689Y-101842994D01*
X113556238Y-101821820D01*
X113455964Y-101780285D01*
X113365714Y-101719982D01*
X113288971Y-101643239D01*
X113228668Y-101552989D01*
X113187133Y-101452715D01*
X113165959Y-101346264D01*
X113165959Y-101237724D01*
X113187133Y-101131273D01*
X113228668Y-101030999D01*
X113288971Y-100940749D01*
X113365714Y-100864006D01*
X113455964Y-100803703D01*
X113556238Y-100762168D01*
X113662689Y-100740994D01*
X113771229Y-100740994D01*
X113877680Y-100762168D01*
X113877680Y-100762168D01*
G37*
G36*
X148669648Y-99954636D02*
X148769922Y-99996171D01*
X148860172Y-100056474D01*
X148936915Y-100133217D01*
X148997218Y-100223467D01*
X149038753Y-100323741D01*
X149059927Y-100430192D01*
X149059927Y-100538732D01*
X149038753Y-100645183D01*
X148997218Y-100745457D01*
X148936915Y-100835707D01*
X148860172Y-100912450D01*
X148769922Y-100972753D01*
X148669648Y-101014288D01*
X148563197Y-101035462D01*
X148454657Y-101035462D01*
X148348206Y-101014288D01*
X148247932Y-100972753D01*
X148157682Y-100912450D01*
X148080939Y-100835707D01*
X148020636Y-100745457D01*
X147979101Y-100645183D01*
X147957927Y-100538732D01*
X147957927Y-100430192D01*
X147979101Y-100323741D01*
X148020636Y-100223467D01*
X148080939Y-100133217D01*
X148157682Y-100056474D01*
X148247932Y-99996171D01*
X148348206Y-99954636D01*
X148454657Y-99933462D01*
X148563197Y-99933462D01*
X148669648Y-99954636D01*
X148669648Y-99954636D01*
G37*
G36*
X151869136Y-99844017D02*
X151969410Y-99885552D01*
X152059660Y-99945855D01*
X152136403Y-100022598D01*
X152196706Y-100112848D01*
X152238241Y-100213122D01*
X152259415Y-100319573D01*
X152259415Y-100428113D01*
X152238241Y-100534564D01*
X152196706Y-100634838D01*
X152136403Y-100725088D01*
X152059660Y-100801831D01*
X151969410Y-100862134D01*
X151869136Y-100903669D01*
X151762685Y-100924843D01*
X151654145Y-100924843D01*
X151547694Y-100903669D01*
X151447420Y-100862134D01*
X151357170Y-100801831D01*
X151280427Y-100725088D01*
X151220124Y-100634838D01*
X151178589Y-100534564D01*
X151157415Y-100428113D01*
X151157415Y-100319573D01*
X151178589Y-100213122D01*
X151220124Y-100112848D01*
X151280427Y-100022598D01*
X151357170Y-99945855D01*
X151447420Y-99885552D01*
X151547694Y-99844017D01*
X151654145Y-99822843D01*
X151762685Y-99822843D01*
X151869136Y-99844017D01*
X151869136Y-99844017D01*
G37*
G36*
X185964928Y-99545753D02*
X186065202Y-99587288D01*
X186155452Y-99647591D01*
X186232195Y-99724334D01*
X186292498Y-99814584D01*
X186334033Y-99914858D01*
X186355207Y-100021309D01*
X186355207Y-100129849D01*
X186334033Y-100236300D01*
X186292498Y-100336574D01*
X186232195Y-100426824D01*
X186155452Y-100503567D01*
X186065202Y-100563870D01*
X185964928Y-100605405D01*
X185858477Y-100626579D01*
X185749937Y-100626579D01*
X185643486Y-100605405D01*
X185543212Y-100563870D01*
X185452962Y-100503567D01*
X185376219Y-100426824D01*
X185315916Y-100336574D01*
X185274381Y-100236300D01*
X185253207Y-100129849D01*
X185253207Y-100021309D01*
X185274381Y-99914858D01*
X185315916Y-99814584D01*
X185376219Y-99724334D01*
X185452962Y-99647591D01*
X185543212Y-99587288D01*
X185643486Y-99545753D01*
X185749937Y-99524579D01*
X185858477Y-99524579D01*
X185964928Y-99545753D01*
X185964928Y-99545753D01*
G37*
G36*
X114694638Y-99504162D02*
X114794912Y-99545697D01*
X114885162Y-99606000D01*
X114961905Y-99682743D01*
X115022208Y-99772993D01*
X115063743Y-99873267D01*
X115084917Y-99979718D01*
X115084917Y-100088258D01*
X115063743Y-100194709D01*
X115022208Y-100294983D01*
X114961905Y-100385233D01*
X114885162Y-100461976D01*
X114794912Y-100522279D01*
X114694638Y-100563814D01*
X114588187Y-100584988D01*
X114479647Y-100584988D01*
X114373196Y-100563814D01*
X114272922Y-100522279D01*
X114182672Y-100461976D01*
X114105929Y-100385233D01*
X114045626Y-100294983D01*
X114004091Y-100194709D01*
X113982917Y-100088258D01*
X113982917Y-99979718D01*
X114004091Y-99873267D01*
X114045626Y-99772993D01*
X114105929Y-99682743D01*
X114182672Y-99606000D01*
X114272922Y-99545697D01*
X114373196Y-99504162D01*
X114479647Y-99482988D01*
X114588187Y-99482988D01*
X114694638Y-99504162D01*
X114694638Y-99504162D01*
G37*
G36*
X148035721Y-98595174D02*
X148135995Y-98636709D01*
X148226245Y-98697012D01*
X148302988Y-98773755D01*
X148363291Y-98864005D01*
X148404826Y-98964279D01*
X148426000Y-99070730D01*
X148426000Y-99179270D01*
X148404826Y-99285721D01*
X148363291Y-99385995D01*
X148302988Y-99476245D01*
X148226245Y-99552988D01*
X148135995Y-99613291D01*
X148035721Y-99654826D01*
X147929270Y-99676000D01*
X147820730Y-99676000D01*
X147714279Y-99654826D01*
X147614005Y-99613291D01*
X147523755Y-99552988D01*
X147447012Y-99476245D01*
X147386709Y-99385995D01*
X147345174Y-99285721D01*
X147324000Y-99179270D01*
X147324000Y-99070730D01*
X147345174Y-98964279D01*
X147386709Y-98864005D01*
X147447012Y-98773755D01*
X147523755Y-98697012D01*
X147614005Y-98636709D01*
X147714279Y-98595174D01*
X147820730Y-98574000D01*
X147929270Y-98574000D01*
X148035721Y-98595174D01*
X148035721Y-98595174D01*
G37*
G36*
X151164928Y-98519595D02*
X151265202Y-98561130D01*
X151355452Y-98621433D01*
X151432195Y-98698176D01*
X151492498Y-98788426D01*
X151534033Y-98888700D01*
X151555207Y-98995151D01*
X151555207Y-99103691D01*
X151534033Y-99210142D01*
X151492498Y-99310416D01*
X151432195Y-99400666D01*
X151355452Y-99477409D01*
X151265202Y-99537712D01*
X151164928Y-99579247D01*
X151058477Y-99600421D01*
X150949937Y-99600421D01*
X150843486Y-99579247D01*
X150743212Y-99537712D01*
X150652962Y-99477409D01*
X150576219Y-99400666D01*
X150515916Y-99310416D01*
X150474381Y-99210142D01*
X150453207Y-99103691D01*
X150453207Y-98995151D01*
X150474381Y-98888700D01*
X150515916Y-98788426D01*
X150576219Y-98698176D01*
X150652962Y-98621433D01*
X150743212Y-98561130D01*
X150843486Y-98519595D01*
X150949937Y-98498421D01*
X151058477Y-98498421D01*
X151164928Y-98519595D01*
X151164928Y-98519595D01*
G37*
G36*
X186669136Y-98221331D02*
X186769410Y-98262866D01*
X186859660Y-98323169D01*
X186936403Y-98399912D01*
X186996706Y-98490162D01*
X187038241Y-98590436D01*
X187059415Y-98696887D01*
X187059415Y-98805427D01*
X187038241Y-98911878D01*
X186996706Y-99012152D01*
X186936403Y-99102402D01*
X186859660Y-99179145D01*
X186769410Y-99239448D01*
X186669136Y-99280983D01*
X186562685Y-99302157D01*
X186454145Y-99302157D01*
X186347694Y-99280983D01*
X186247420Y-99239448D01*
X186157170Y-99179145D01*
X186080427Y-99102402D01*
X186020124Y-99012152D01*
X185978589Y-98911878D01*
X185957415Y-98805427D01*
X185957415Y-98696887D01*
X185978589Y-98590436D01*
X186020124Y-98490162D01*
X186080427Y-98399912D01*
X186157170Y-98323169D01*
X186247420Y-98262866D01*
X186347694Y-98221331D01*
X186454145Y-98200157D01*
X186562685Y-98200157D01*
X186669136Y-98221331D01*
X186669136Y-98221331D01*
G37*
G36*
X147401794Y-97235712D02*
X147502068Y-97277247D01*
X147592318Y-97337550D01*
X147669061Y-97414293D01*
X147729364Y-97504543D01*
X147770899Y-97604817D01*
X147792073Y-97711268D01*
X147792073Y-97819808D01*
X147770899Y-97926259D01*
X147729364Y-98026533D01*
X147669061Y-98116783D01*
X147592318Y-98193526D01*
X147502068Y-98253829D01*
X147401794Y-98295364D01*
X147295343Y-98316538D01*
X147186803Y-98316538D01*
X147080352Y-98295364D01*
X146980078Y-98253829D01*
X146889828Y-98193526D01*
X146813085Y-98116783D01*
X146752782Y-98026533D01*
X146711247Y-97926259D01*
X146690073Y-97819808D01*
X146690073Y-97711268D01*
X146711247Y-97604817D01*
X146752782Y-97504543D01*
X146813085Y-97414293D01*
X146889828Y-97337550D01*
X146980078Y-97277247D01*
X147080352Y-97235712D01*
X147186803Y-97214538D01*
X147295343Y-97214538D01*
X147401794Y-97235712D01*
X147401794Y-97235712D01*
G37*
G36*
X150460721Y-97195174D02*
X150560995Y-97236709D01*
X150651245Y-97297012D01*
X150727988Y-97373755D01*
X150788291Y-97464005D01*
X150829826Y-97564279D01*
X150851000Y-97670730D01*
X150851000Y-97779270D01*
X150829826Y-97885721D01*
X150788291Y-97985995D01*
X150727988Y-98076245D01*
X150651245Y-98152988D01*
X150560995Y-98213291D01*
X150460721Y-98254826D01*
X150354270Y-98276000D01*
X150245730Y-98276000D01*
X150139279Y-98254826D01*
X150039005Y-98213291D01*
X149948755Y-98152988D01*
X149872012Y-98076245D01*
X149811709Y-97985995D01*
X149770174Y-97885721D01*
X149749000Y-97779270D01*
X149749000Y-97670730D01*
X149770174Y-97564279D01*
X149811709Y-97464005D01*
X149872012Y-97373755D01*
X149948755Y-97297012D01*
X150039005Y-97236709D01*
X150139279Y-97195174D01*
X150245730Y-97174000D01*
X150354270Y-97174000D01*
X150460721Y-97195174D01*
X150460721Y-97195174D01*
G37*
G36*
X146767866Y-95876251D02*
X146868140Y-95917786D01*
X146958390Y-95978089D01*
X147035133Y-96054832D01*
X147095436Y-96145082D01*
X147136971Y-96245356D01*
X147158145Y-96351807D01*
X147158145Y-96460347D01*
X147136971Y-96566798D01*
X147095436Y-96667072D01*
X147035133Y-96757322D01*
X146958390Y-96834065D01*
X146868140Y-96894368D01*
X146767866Y-96935903D01*
X146661415Y-96957077D01*
X146552875Y-96957077D01*
X146446424Y-96935903D01*
X146346150Y-96894368D01*
X146255900Y-96834065D01*
X146179157Y-96757322D01*
X146118854Y-96667072D01*
X146077319Y-96566798D01*
X146056145Y-96460347D01*
X146056145Y-96351807D01*
X146077319Y-96245356D01*
X146118854Y-96145082D01*
X146179157Y-96054832D01*
X146255900Y-95978089D01*
X146346150Y-95917786D01*
X146446424Y-95876251D01*
X146552875Y-95855077D01*
X146661415Y-95855077D01*
X146767866Y-95876251D01*
X146767866Y-95876251D01*
G37*
G36*
X149756514Y-95870753D02*
X149856788Y-95912288D01*
X149947038Y-95972591D01*
X150023781Y-96049334D01*
X150084084Y-96139584D01*
X150125619Y-96239858D01*
X150146793Y-96346309D01*
X150146793Y-96454849D01*
X150125619Y-96561300D01*
X150084084Y-96661574D01*
X150023781Y-96751824D01*
X149947038Y-96828567D01*
X149856788Y-96888870D01*
X149756514Y-96930405D01*
X149650063Y-96951579D01*
X149541523Y-96951579D01*
X149435072Y-96930405D01*
X149334798Y-96888870D01*
X149244548Y-96828567D01*
X149167805Y-96751824D01*
X149107502Y-96661574D01*
X149065967Y-96561300D01*
X149044793Y-96454849D01*
X149044793Y-96346309D01*
X149065967Y-96239858D01*
X149107502Y-96139584D01*
X149167805Y-96049334D01*
X149244548Y-95972591D01*
X149334798Y-95912288D01*
X149435072Y-95870753D01*
X149541523Y-95849579D01*
X149650063Y-95849579D01*
X149756514Y-95870753D01*
X149756514Y-95870753D01*
G37*
G36*
X149052306Y-94546331D02*
X149152580Y-94587866D01*
X149242830Y-94648169D01*
X149319573Y-94724912D01*
X149379876Y-94815162D01*
X149421411Y-94915436D01*
X149442585Y-95021887D01*
X149442585Y-95130427D01*
X149421411Y-95236878D01*
X149379876Y-95337152D01*
X149319573Y-95427402D01*
X149242830Y-95504145D01*
X149152580Y-95564448D01*
X149052306Y-95605983D01*
X148945855Y-95627157D01*
X148837315Y-95627157D01*
X148730864Y-95605983D01*
X148630590Y-95564448D01*
X148540340Y-95504145D01*
X148463597Y-95427402D01*
X148403294Y-95337152D01*
X148361759Y-95236878D01*
X148340585Y-95130427D01*
X148340585Y-95021887D01*
X148361759Y-94915436D01*
X148403294Y-94815162D01*
X148463597Y-94724912D01*
X148540340Y-94648169D01*
X148630590Y-94587866D01*
X148730864Y-94546331D01*
X148837315Y-94525157D01*
X148945855Y-94525157D01*
X149052306Y-94546331D01*
X149052306Y-94546331D01*
G37*
G36*
X124789499Y-91978445D02*
X124826993Y-91989819D01*
X124861557Y-92008294D01*
X124891847Y-92033153D01*
X124916706Y-92063443D01*
X124935181Y-92098007D01*
X124946555Y-92135501D01*
X124951000Y-92180638D01*
X124951000Y-92819362D01*
X124946555Y-92864499D01*
X124935181Y-92901993D01*
X124916706Y-92936557D01*
X124891847Y-92966847D01*
X124861557Y-92991706D01*
X124826993Y-93010181D01*
X124789499Y-93021555D01*
X124744362Y-93026000D01*
X124005638Y-93026000D01*
X123960501Y-93021555D01*
X123923007Y-93010181D01*
X123888443Y-92991706D01*
X123858153Y-92966847D01*
X123833294Y-92936557D01*
X123814819Y-92901993D01*
X123803445Y-92864499D01*
X123799000Y-92819362D01*
X123799000Y-92180638D01*
X123803445Y-92135501D01*
X123814819Y-92098007D01*
X123833294Y-92063443D01*
X123858153Y-92033153D01*
X123888443Y-92008294D01*
X123923007Y-91989819D01*
X123960501Y-91978445D01*
X124005638Y-91974000D01*
X124744362Y-91974000D01*
X124789499Y-91978445D01*
X124789499Y-91978445D01*
G37*
G36*
X123039499Y-91978445D02*
X123076993Y-91989819D01*
X123111557Y-92008294D01*
X123141847Y-92033153D01*
X123166706Y-92063443D01*
X123185181Y-92098007D01*
X123196555Y-92135501D01*
X123201000Y-92180638D01*
X123201000Y-92819362D01*
X123196555Y-92864499D01*
X123185181Y-92901993D01*
X123166706Y-92936557D01*
X123141847Y-92966847D01*
X123111557Y-92991706D01*
X123076993Y-93010181D01*
X123039499Y-93021555D01*
X122994362Y-93026000D01*
X122255638Y-93026000D01*
X122210501Y-93021555D01*
X122173007Y-93010181D01*
X122138443Y-92991706D01*
X122108153Y-92966847D01*
X122083294Y-92936557D01*
X122064819Y-92901993D01*
X122053445Y-92864499D01*
X122049000Y-92819362D01*
X122049000Y-92180638D01*
X122053445Y-92135501D01*
X122064819Y-92098007D01*
X122083294Y-92063443D01*
X122108153Y-92033153D01*
X122138443Y-92008294D01*
X122173007Y-91989819D01*
X122210501Y-91978445D01*
X122255638Y-91974000D01*
X122994362Y-91974000D01*
X123039499Y-91978445D01*
X123039499Y-91978445D01*
G37*
G36*
X124814499Y-90328445D02*
X124851993Y-90339819D01*
X124886557Y-90358294D01*
X124916847Y-90383153D01*
X124941706Y-90413443D01*
X124960181Y-90448007D01*
X124971555Y-90485501D01*
X124976000Y-90530638D01*
X124976000Y-91169362D01*
X124971555Y-91214499D01*
X124960181Y-91251993D01*
X124941706Y-91286557D01*
X124916847Y-91316847D01*
X124886557Y-91341706D01*
X124851993Y-91360181D01*
X124814499Y-91371555D01*
X124769362Y-91376000D01*
X124030638Y-91376000D01*
X123985501Y-91371555D01*
X123948007Y-91360181D01*
X123913443Y-91341706D01*
X123883153Y-91316847D01*
X123858294Y-91286557D01*
X123839819Y-91251993D01*
X123828445Y-91214499D01*
X123824000Y-91169362D01*
X123824000Y-90530638D01*
X123828445Y-90485501D01*
X123839819Y-90448007D01*
X123858294Y-90413443D01*
X123883153Y-90383153D01*
X123913443Y-90358294D01*
X123948007Y-90339819D01*
X123985501Y-90328445D01*
X124030638Y-90324000D01*
X124769362Y-90324000D01*
X124814499Y-90328445D01*
X124814499Y-90328445D01*
G37*
G36*
X123064499Y-90328445D02*
X123101993Y-90339819D01*
X123136557Y-90358294D01*
X123166847Y-90383153D01*
X123191706Y-90413443D01*
X123210181Y-90448007D01*
X123221555Y-90485501D01*
X123226000Y-90530638D01*
X123226000Y-91169362D01*
X123221555Y-91214499D01*
X123210181Y-91251993D01*
X123191706Y-91286557D01*
X123166847Y-91316847D01*
X123136557Y-91341706D01*
X123101993Y-91360181D01*
X123064499Y-91371555D01*
X123019362Y-91376000D01*
X122280638Y-91376000D01*
X122235501Y-91371555D01*
X122198007Y-91360181D01*
X122163443Y-91341706D01*
X122133153Y-91316847D01*
X122108294Y-91286557D01*
X122089819Y-91251993D01*
X122078445Y-91214499D01*
X122074000Y-91169362D01*
X122074000Y-90530638D01*
X122078445Y-90485501D01*
X122089819Y-90448007D01*
X122108294Y-90413443D01*
X122133153Y-90383153D01*
X122163443Y-90358294D01*
X122198007Y-90339819D01*
X122235501Y-90328445D01*
X122280638Y-90324000D01*
X123019362Y-90324000D01*
X123064499Y-90328445D01*
X123064499Y-90328445D01*
G37*
G36*
X142764499Y-78978445D02*
X142801993Y-78989819D01*
X142836557Y-79008294D01*
X142866847Y-79033153D01*
X142891706Y-79063443D01*
X142910181Y-79098007D01*
X142921555Y-79135501D01*
X142926000Y-79180638D01*
X142926000Y-79819362D01*
X142921555Y-79864499D01*
X142910181Y-79901993D01*
X142891706Y-79936557D01*
X142866847Y-79966847D01*
X142836557Y-79991706D01*
X142801993Y-80010181D01*
X142764499Y-80021555D01*
X142719362Y-80026000D01*
X141980638Y-80026000D01*
X141935501Y-80021555D01*
X141898007Y-80010181D01*
X141863443Y-79991706D01*
X141833153Y-79966847D01*
X141808294Y-79936557D01*
X141789819Y-79901993D01*
X141778445Y-79864499D01*
X141774000Y-79819362D01*
X141774000Y-79180638D01*
X141778445Y-79135501D01*
X141789819Y-79098007D01*
X141808294Y-79063443D01*
X141833153Y-79033153D01*
X141863443Y-79008294D01*
X141898007Y-78989819D01*
X141935501Y-78978445D01*
X141980638Y-78974000D01*
X142719362Y-78974000D01*
X142764499Y-78978445D01*
X142764499Y-78978445D01*
G37*
G36*
X141014499Y-78978445D02*
X141051993Y-78989819D01*
X141086557Y-79008294D01*
X141116847Y-79033153D01*
X141141706Y-79063443D01*
X141160181Y-79098007D01*
X141171555Y-79135501D01*
X141176000Y-79180638D01*
X141176000Y-79819362D01*
X141171555Y-79864499D01*
X141160181Y-79901993D01*
X141141706Y-79936557D01*
X141116847Y-79966847D01*
X141086557Y-79991706D01*
X141051993Y-80010181D01*
X141014499Y-80021555D01*
X140969362Y-80026000D01*
X140230638Y-80026000D01*
X140185501Y-80021555D01*
X140148007Y-80010181D01*
X140113443Y-79991706D01*
X140083153Y-79966847D01*
X140058294Y-79936557D01*
X140039819Y-79901993D01*
X140028445Y-79864499D01*
X140024000Y-79819362D01*
X140024000Y-79180638D01*
X140028445Y-79135501D01*
X140039819Y-79098007D01*
X140058294Y-79063443D01*
X140083153Y-79033153D01*
X140113443Y-79008294D01*
X140148007Y-78989819D01*
X140185501Y-78978445D01*
X140230638Y-78974000D01*
X140969362Y-78974000D01*
X141014499Y-78978445D01*
X141014499Y-78978445D01*
G37*
G36*
X141014499Y-77278445D02*
X141051993Y-77289819D01*
X141086557Y-77308294D01*
X141116847Y-77333153D01*
X141141706Y-77363443D01*
X141160181Y-77398007D01*
X141171555Y-77435501D01*
X141176000Y-77480638D01*
X141176000Y-78119362D01*
X141171555Y-78164499D01*
X141160181Y-78201993D01*
X141141706Y-78236557D01*
X141116847Y-78266847D01*
X141086557Y-78291706D01*
X141051993Y-78310181D01*
X141014499Y-78321555D01*
X140969362Y-78326000D01*
X140230638Y-78326000D01*
X140185501Y-78321555D01*
X140148007Y-78310181D01*
X140113443Y-78291706D01*
X140083153Y-78266847D01*
X140058294Y-78236557D01*
X140039819Y-78201993D01*
X140028445Y-78164499D01*
X140024000Y-78119362D01*
X140024000Y-77480638D01*
X140028445Y-77435501D01*
X140039819Y-77398007D01*
X140058294Y-77363443D01*
X140083153Y-77333153D01*
X140113443Y-77308294D01*
X140148007Y-77289819D01*
X140185501Y-77278445D01*
X140230638Y-77274000D01*
X140969362Y-77274000D01*
X141014499Y-77278445D01*
X141014499Y-77278445D01*
G37*
G36*
X142764499Y-77278445D02*
X142801993Y-77289819D01*
X142836557Y-77308294D01*
X142866847Y-77333153D01*
X142891706Y-77363443D01*
X142910181Y-77398007D01*
X142921555Y-77435501D01*
X142926000Y-77480638D01*
X142926000Y-78119362D01*
X142921555Y-78164499D01*
X142910181Y-78201993D01*
X142891706Y-78236557D01*
X142866847Y-78266847D01*
X142836557Y-78291706D01*
X142801993Y-78310181D01*
X142764499Y-78321555D01*
X142719362Y-78326000D01*
X141980638Y-78326000D01*
X141935501Y-78321555D01*
X141898007Y-78310181D01*
X141863443Y-78291706D01*
X141833153Y-78266847D01*
X141808294Y-78236557D01*
X141789819Y-78201993D01*
X141778445Y-78164499D01*
X141774000Y-78119362D01*
X141774000Y-77480638D01*
X141778445Y-77435501D01*
X141789819Y-77398007D01*
X141808294Y-77363443D01*
X141833153Y-77333153D01*
X141863443Y-77308294D01*
X141898007Y-77289819D01*
X141935501Y-77278445D01*
X141980638Y-77274000D01*
X142719362Y-77274000D01*
X142764499Y-77278445D01*
X142764499Y-77278445D01*
G37*
G36*
X159131000Y-77631000D02*
X153469000Y-77631000D01*
X153469000Y-74929000D01*
X159131000Y-74929000D01*
X159131000Y-77631000D01*
X159131000Y-77631000D01*
G37*
G36*
X119832358Y-73968307D02*
X119932632Y-74009842D01*
X120022882Y-74070145D01*
X120099625Y-74146888D01*
X120159928Y-74237138D01*
X120201463Y-74337412D01*
X120222637Y-74443863D01*
X120222637Y-74552403D01*
X120201463Y-74658854D01*
X120159928Y-74759128D01*
X120099625Y-74849378D01*
X120022882Y-74926121D01*
X119932632Y-74986424D01*
X119832358Y-75027959D01*
X119725907Y-75049133D01*
X119617367Y-75049133D01*
X119510916Y-75027959D01*
X119410642Y-74986424D01*
X119320392Y-74926121D01*
X119243649Y-74849378D01*
X119183346Y-74759128D01*
X119141811Y-74658854D01*
X119120637Y-74552403D01*
X119120637Y-74443863D01*
X119141811Y-74337412D01*
X119183346Y-74237138D01*
X119243649Y-74146888D01*
X119320392Y-74070145D01*
X119410642Y-74009842D01*
X119510916Y-73968307D01*
X119617367Y-73947133D01*
X119725907Y-73947133D01*
X119832358Y-73968307D01*
X119832358Y-73968307D01*
G37*
G36*
X120796540Y-72819241D02*
X120896814Y-72860776D01*
X120987064Y-72921079D01*
X121063807Y-72997822D01*
X121124110Y-73088072D01*
X121165645Y-73188346D01*
X121186819Y-73294797D01*
X121186819Y-73403337D01*
X121165645Y-73509788D01*
X121124110Y-73610062D01*
X121063807Y-73700312D01*
X120987064Y-73777055D01*
X120896814Y-73837358D01*
X120796540Y-73878893D01*
X120690089Y-73900067D01*
X120581549Y-73900067D01*
X120475098Y-73878893D01*
X120374824Y-73837358D01*
X120284574Y-73777055D01*
X120207831Y-73700312D01*
X120147528Y-73610062D01*
X120105993Y-73509788D01*
X120084819Y-73403337D01*
X120084819Y-73294797D01*
X120105993Y-73188346D01*
X120147528Y-73088072D01*
X120207831Y-72997822D01*
X120284574Y-72921079D01*
X120374824Y-72860776D01*
X120475098Y-72819241D01*
X120581549Y-72798067D01*
X120690089Y-72798067D01*
X120796540Y-72819241D01*
X120796540Y-72819241D01*
G37*
G36*
X141131450Y-72227630D02*
X141231724Y-72269165D01*
X141321974Y-72329468D01*
X141398717Y-72406211D01*
X141459020Y-72496461D01*
X141500555Y-72596735D01*
X141521729Y-72703186D01*
X141521729Y-72811726D01*
X141500555Y-72918177D01*
X141459020Y-73018451D01*
X141398717Y-73108701D01*
X141321974Y-73185444D01*
X141231724Y-73245747D01*
X141131450Y-73287282D01*
X141024999Y-73308456D01*
X140916459Y-73308456D01*
X140810008Y-73287282D01*
X140709734Y-73245747D01*
X140619484Y-73185444D01*
X140542741Y-73108701D01*
X140482438Y-73018451D01*
X140440903Y-72918177D01*
X140419729Y-72811726D01*
X140419729Y-72703186D01*
X140440903Y-72596735D01*
X140482438Y-72496461D01*
X140542741Y-72406211D01*
X140619484Y-72329468D01*
X140709734Y-72269165D01*
X140810008Y-72227630D01*
X140916459Y-72206456D01*
X141024999Y-72206456D01*
X141131450Y-72227630D01*
X141131450Y-72227630D01*
G37*
G36*
X121760721Y-71670174D02*
X121860995Y-71711709D01*
X121951245Y-71772012D01*
X122027988Y-71848755D01*
X122088291Y-71939005D01*
X122129826Y-72039279D01*
X122151000Y-72145730D01*
X122151000Y-72254270D01*
X122129826Y-72360721D01*
X122088291Y-72460995D01*
X122027988Y-72551245D01*
X121951245Y-72627988D01*
X121860995Y-72688291D01*
X121760721Y-72729826D01*
X121654270Y-72751000D01*
X121545730Y-72751000D01*
X121439279Y-72729826D01*
X121339005Y-72688291D01*
X121248755Y-72627988D01*
X121172012Y-72551245D01*
X121111709Y-72460995D01*
X121070174Y-72360721D01*
X121049000Y-72254270D01*
X121049000Y-72145730D01*
X121070174Y-72039279D01*
X121111709Y-71939005D01*
X121172012Y-71848755D01*
X121248755Y-71772012D01*
X121339005Y-71711709D01*
X121439279Y-71670174D01*
X121545730Y-71649000D01*
X121654270Y-71649000D01*
X121760721Y-71670174D01*
X121760721Y-71670174D01*
G37*
G36*
X140271086Y-70998902D02*
X140371360Y-71040437D01*
X140461610Y-71100740D01*
X140538353Y-71177483D01*
X140598656Y-71267733D01*
X140640191Y-71368007D01*
X140661365Y-71474458D01*
X140661365Y-71582998D01*
X140640191Y-71689449D01*
X140598656Y-71789723D01*
X140538353Y-71879973D01*
X140461610Y-71956716D01*
X140371360Y-72017019D01*
X140271086Y-72058554D01*
X140164635Y-72079728D01*
X140056095Y-72079728D01*
X139949644Y-72058554D01*
X139849370Y-72017019D01*
X139759120Y-71956716D01*
X139682377Y-71879973D01*
X139622074Y-71789723D01*
X139580539Y-71689449D01*
X139559365Y-71582998D01*
X139559365Y-71474458D01*
X139580539Y-71368007D01*
X139622074Y-71267733D01*
X139682377Y-71177483D01*
X139759120Y-71100740D01*
X139849370Y-71040437D01*
X139949644Y-70998902D01*
X140056095Y-70977728D01*
X140164635Y-70977728D01*
X140271086Y-70998902D01*
X140271086Y-70998902D01*
G37*
G36*
X122724902Y-70521107D02*
X122825176Y-70562642D01*
X122915426Y-70622945D01*
X122992169Y-70699688D01*
X123052472Y-70789938D01*
X123094007Y-70890212D01*
X123115181Y-70996663D01*
X123115181Y-71105203D01*
X123094007Y-71211654D01*
X123052472Y-71311928D01*
X122992169Y-71402178D01*
X122915426Y-71478921D01*
X122825176Y-71539224D01*
X122724902Y-71580759D01*
X122618451Y-71601933D01*
X122509911Y-71601933D01*
X122403460Y-71580759D01*
X122303186Y-71539224D01*
X122212936Y-71478921D01*
X122136193Y-71402178D01*
X122075890Y-71311928D01*
X122034355Y-71211654D01*
X122013181Y-71105203D01*
X122013181Y-70996663D01*
X122034355Y-70890212D01*
X122075890Y-70789938D01*
X122136193Y-70699688D01*
X122212936Y-70622945D01*
X122303186Y-70562642D01*
X122403460Y-70521107D01*
X122509911Y-70499933D01*
X122618451Y-70499933D01*
X122724902Y-70521107D01*
X122724902Y-70521107D01*
G37*
G36*
X147003576Y-69839097D02*
X147103850Y-69880632D01*
X147194100Y-69940935D01*
X147270843Y-70017678D01*
X147331146Y-70107928D01*
X147372681Y-70208202D01*
X147393855Y-70314653D01*
X147393855Y-70423193D01*
X147372681Y-70529644D01*
X147331146Y-70629918D01*
X147270843Y-70720168D01*
X147194100Y-70796911D01*
X147103850Y-70857214D01*
X147003576Y-70898749D01*
X146897125Y-70919923D01*
X146788585Y-70919923D01*
X146682134Y-70898749D01*
X146581860Y-70857214D01*
X146491610Y-70796911D01*
X146414867Y-70720168D01*
X146354564Y-70629918D01*
X146313029Y-70529644D01*
X146291855Y-70423193D01*
X146291855Y-70314653D01*
X146313029Y-70208202D01*
X146354564Y-70107928D01*
X146414867Y-70017678D01*
X146491610Y-69940935D01*
X146581860Y-69880632D01*
X146682134Y-69839097D01*
X146788585Y-69817923D01*
X146897125Y-69817923D01*
X147003576Y-69839097D01*
X147003576Y-69839097D01*
G37*
G36*
X139410721Y-69770174D02*
X139510995Y-69811709D01*
X139601245Y-69872012D01*
X139677988Y-69948755D01*
X139738291Y-70039005D01*
X139779826Y-70139279D01*
X139801000Y-70245730D01*
X139801000Y-70354270D01*
X139779826Y-70460721D01*
X139738291Y-70560995D01*
X139677988Y-70651245D01*
X139601245Y-70727988D01*
X139510995Y-70788291D01*
X139410721Y-70829826D01*
X139304270Y-70851000D01*
X139195730Y-70851000D01*
X139089279Y-70829826D01*
X138989005Y-70788291D01*
X138898755Y-70727988D01*
X138822012Y-70651245D01*
X138761709Y-70560995D01*
X138720174Y-70460721D01*
X138699000Y-70354270D01*
X138699000Y-70245730D01*
X138720174Y-70139279D01*
X138761709Y-70039005D01*
X138822012Y-69948755D01*
X138898755Y-69872012D01*
X138989005Y-69811709D01*
X139089279Y-69770174D01*
X139195730Y-69749000D01*
X139304270Y-69749000D01*
X139410721Y-69770174D01*
X139410721Y-69770174D01*
G37*
G36*
X123689084Y-69372041D02*
X123789358Y-69413576D01*
X123879608Y-69473879D01*
X123956351Y-69550622D01*
X124016654Y-69640872D01*
X124058189Y-69741146D01*
X124079363Y-69847597D01*
X124079363Y-69956137D01*
X124058189Y-70062588D01*
X124016654Y-70162862D01*
X123956351Y-70253112D01*
X123879608Y-70329855D01*
X123789358Y-70390158D01*
X123689084Y-70431693D01*
X123582633Y-70452867D01*
X123474093Y-70452867D01*
X123367642Y-70431693D01*
X123267368Y-70390158D01*
X123177118Y-70329855D01*
X123100375Y-70253112D01*
X123040072Y-70162862D01*
X122998537Y-70062588D01*
X122977363Y-69956137D01*
X122977363Y-69847597D01*
X122998537Y-69741146D01*
X123040072Y-69640872D01*
X123100375Y-69550622D01*
X123177118Y-69473879D01*
X123267368Y-69413576D01*
X123367642Y-69372041D01*
X123474093Y-69350867D01*
X123582633Y-69350867D01*
X123689084Y-69372041D01*
X123689084Y-69372041D01*
G37*
G36*
X138550356Y-68541446D02*
X138650630Y-68582981D01*
X138740880Y-68643284D01*
X138817623Y-68720027D01*
X138877926Y-68810277D01*
X138919461Y-68910551D01*
X138940635Y-69017002D01*
X138940635Y-69125542D01*
X138919461Y-69231993D01*
X138877926Y-69332267D01*
X138817623Y-69422517D01*
X138740880Y-69499260D01*
X138650630Y-69559563D01*
X138550356Y-69601098D01*
X138443905Y-69622272D01*
X138335365Y-69622272D01*
X138228914Y-69601098D01*
X138128640Y-69559563D01*
X138038390Y-69499260D01*
X137961647Y-69422517D01*
X137901344Y-69332267D01*
X137859809Y-69231993D01*
X137838635Y-69125542D01*
X137838635Y-69017002D01*
X137859809Y-68910551D01*
X137901344Y-68810277D01*
X137961647Y-68720027D01*
X138038390Y-68643284D01*
X138128640Y-68582981D01*
X138228914Y-68541446D01*
X138335365Y-68520272D01*
X138443905Y-68520272D01*
X138550356Y-68541446D01*
X138550356Y-68541446D01*
G37*
G36*
X146369648Y-68479636D02*
X146469922Y-68521171D01*
X146560172Y-68581474D01*
X146636915Y-68658217D01*
X146697218Y-68748467D01*
X146738753Y-68848741D01*
X146759927Y-68955192D01*
X146759927Y-69063732D01*
X146738753Y-69170183D01*
X146697218Y-69270457D01*
X146636915Y-69360707D01*
X146560172Y-69437450D01*
X146469922Y-69497753D01*
X146369648Y-69539288D01*
X146263197Y-69560462D01*
X146154657Y-69560462D01*
X146048206Y-69539288D01*
X145947932Y-69497753D01*
X145857682Y-69437450D01*
X145780939Y-69360707D01*
X145720636Y-69270457D01*
X145679101Y-69170183D01*
X145657927Y-69063732D01*
X145657927Y-68955192D01*
X145679101Y-68848741D01*
X145720636Y-68748467D01*
X145780939Y-68658217D01*
X145857682Y-68581474D01*
X145947932Y-68521171D01*
X146048206Y-68479636D01*
X146154657Y-68458462D01*
X146263197Y-68458462D01*
X146369648Y-68479636D01*
X146369648Y-68479636D01*
G37*
G36*
X191642866Y-67964097D02*
X191743140Y-68005632D01*
X191833390Y-68065935D01*
X191910133Y-68142678D01*
X191970436Y-68232928D01*
X192011971Y-68333202D01*
X192033145Y-68439653D01*
X192033145Y-68548193D01*
X192011971Y-68654644D01*
X191970436Y-68754918D01*
X191910133Y-68845168D01*
X191833390Y-68921911D01*
X191743140Y-68982214D01*
X191642866Y-69023749D01*
X191536415Y-69044923D01*
X191427875Y-69044923D01*
X191321424Y-69023749D01*
X191221150Y-68982214D01*
X191130900Y-68921911D01*
X191054157Y-68845168D01*
X190993854Y-68754918D01*
X190952319Y-68654644D01*
X190931145Y-68548193D01*
X190931145Y-68439653D01*
X190952319Y-68333202D01*
X190993854Y-68232928D01*
X191054157Y-68142678D01*
X191130900Y-68065935D01*
X191221150Y-68005632D01*
X191321424Y-67964097D01*
X191427875Y-67942923D01*
X191536415Y-67942923D01*
X191642866Y-67964097D01*
X191642866Y-67964097D01*
G37*
G36*
X159131000Y-68426000D02*
X153469000Y-68426000D01*
X153469000Y-60324000D01*
X159131000Y-60324000D01*
X159131000Y-68426000D01*
X159131000Y-68426000D01*
G37*
G36*
X137689992Y-67312718D02*
X137790266Y-67354253D01*
X137880516Y-67414556D01*
X137957259Y-67491299D01*
X138017562Y-67581549D01*
X138059097Y-67681823D01*
X138080271Y-67788274D01*
X138080271Y-67896814D01*
X138059097Y-68003265D01*
X138017562Y-68103539D01*
X137957259Y-68193789D01*
X137880516Y-68270532D01*
X137790266Y-68330835D01*
X137689992Y-68372370D01*
X137583541Y-68393544D01*
X137475001Y-68393544D01*
X137368550Y-68372370D01*
X137268276Y-68330835D01*
X137178026Y-68270532D01*
X137101283Y-68193789D01*
X137040980Y-68103539D01*
X136999445Y-68003265D01*
X136978271Y-67896814D01*
X136978271Y-67788274D01*
X136999445Y-67681823D01*
X137040980Y-67581549D01*
X137101283Y-67491299D01*
X137178026Y-67414556D01*
X137268276Y-67354253D01*
X137368550Y-67312718D01*
X137475001Y-67291544D01*
X137583541Y-67291544D01*
X137689992Y-67312718D01*
X137689992Y-67312718D01*
G37*
G36*
X145735721Y-67120174D02*
X145835995Y-67161709D01*
X145926245Y-67222012D01*
X146002988Y-67298755D01*
X146063291Y-67389005D01*
X146104826Y-67489279D01*
X146126000Y-67595730D01*
X146126000Y-67704270D01*
X146104826Y-67810721D01*
X146063291Y-67910995D01*
X146002988Y-68001245D01*
X145926245Y-68077988D01*
X145835995Y-68138291D01*
X145735721Y-68179826D01*
X145629270Y-68201000D01*
X145520730Y-68201000D01*
X145414279Y-68179826D01*
X145314005Y-68138291D01*
X145223755Y-68077988D01*
X145147012Y-68001245D01*
X145086709Y-67910995D01*
X145045174Y-67810721D01*
X145024000Y-67704270D01*
X145024000Y-67595730D01*
X145045174Y-67489279D01*
X145086709Y-67389005D01*
X145147012Y-67298755D01*
X145223755Y-67222012D01*
X145314005Y-67161709D01*
X145414279Y-67120174D01*
X145520730Y-67099000D01*
X145629270Y-67099000D01*
X145735721Y-67120174D01*
X145735721Y-67120174D01*
G37*
G36*
X192276794Y-66604636D02*
X192377068Y-66646171D01*
X192467318Y-66706474D01*
X192544061Y-66783217D01*
X192604364Y-66873467D01*
X192645899Y-66973741D01*
X192667073Y-67080192D01*
X192667073Y-67188732D01*
X192645899Y-67295183D01*
X192604364Y-67395457D01*
X192544061Y-67485707D01*
X192467318Y-67562450D01*
X192377068Y-67622753D01*
X192276794Y-67664288D01*
X192170343Y-67685462D01*
X192061803Y-67685462D01*
X191955352Y-67664288D01*
X191855078Y-67622753D01*
X191764828Y-67562450D01*
X191688085Y-67485707D01*
X191627782Y-67395457D01*
X191586247Y-67295183D01*
X191565073Y-67188732D01*
X191565073Y-67080192D01*
X191586247Y-66973741D01*
X191627782Y-66873467D01*
X191688085Y-66783217D01*
X191764828Y-66706474D01*
X191855078Y-66646171D01*
X191955352Y-66604636D01*
X192061803Y-66583462D01*
X192170343Y-66583462D01*
X192276794Y-66604636D01*
X192276794Y-66604636D01*
G37*
G36*
X145101794Y-65760712D02*
X145202068Y-65802247D01*
X145292318Y-65862550D01*
X145369061Y-65939293D01*
X145429364Y-66029543D01*
X145470899Y-66129817D01*
X145492073Y-66236268D01*
X145492073Y-66344808D01*
X145470899Y-66451259D01*
X145429364Y-66551533D01*
X145369061Y-66641783D01*
X145292318Y-66718526D01*
X145202068Y-66778829D01*
X145101794Y-66820364D01*
X144995343Y-66841538D01*
X144886803Y-66841538D01*
X144780352Y-66820364D01*
X144680078Y-66778829D01*
X144589828Y-66718526D01*
X144513085Y-66641783D01*
X144452782Y-66551533D01*
X144411247Y-66451259D01*
X144390073Y-66344808D01*
X144390073Y-66236268D01*
X144411247Y-66129817D01*
X144452782Y-66029543D01*
X144513085Y-65939293D01*
X144589828Y-65862550D01*
X144680078Y-65802247D01*
X144780352Y-65760712D01*
X144886803Y-65739538D01*
X144995343Y-65739538D01*
X145101794Y-65760712D01*
X145101794Y-65760712D01*
G37*
G36*
X192910721Y-65245174D02*
X193010995Y-65286709D01*
X193101245Y-65347012D01*
X193177988Y-65423755D01*
X193238291Y-65514005D01*
X193279826Y-65614279D01*
X193301000Y-65720730D01*
X193301000Y-65829270D01*
X193279826Y-65935721D01*
X193238291Y-66035995D01*
X193177988Y-66126245D01*
X193101245Y-66202988D01*
X193010995Y-66263291D01*
X192910721Y-66304826D01*
X192804270Y-66326000D01*
X192695730Y-66326000D01*
X192589279Y-66304826D01*
X192489005Y-66263291D01*
X192398755Y-66202988D01*
X192322012Y-66126245D01*
X192261709Y-66035995D01*
X192220174Y-65935721D01*
X192199000Y-65829270D01*
X192199000Y-65720730D01*
X192220174Y-65614279D01*
X192261709Y-65514005D01*
X192322012Y-65423755D01*
X192398755Y-65347012D01*
X192489005Y-65286709D01*
X192589279Y-65245174D01*
X192695730Y-65224000D01*
X192804270Y-65224000D01*
X192910721Y-65245174D01*
X192910721Y-65245174D01*
G37*
G36*
X144467866Y-64401251D02*
X144568140Y-64442786D01*
X144658390Y-64503089D01*
X144735133Y-64579832D01*
X144795436Y-64670082D01*
X144836971Y-64770356D01*
X144858145Y-64876807D01*
X144858145Y-64985347D01*
X144836971Y-65091798D01*
X144795436Y-65192072D01*
X144735133Y-65282322D01*
X144658390Y-65359065D01*
X144568140Y-65419368D01*
X144467866Y-65460903D01*
X144361415Y-65482077D01*
X144252875Y-65482077D01*
X144146424Y-65460903D01*
X144046150Y-65419368D01*
X143955900Y-65359065D01*
X143879157Y-65282322D01*
X143818854Y-65192072D01*
X143777319Y-65091798D01*
X143756145Y-64985347D01*
X143756145Y-64876807D01*
X143777319Y-64770356D01*
X143818854Y-64670082D01*
X143879157Y-64579832D01*
X143955900Y-64503089D01*
X144046150Y-64442786D01*
X144146424Y-64401251D01*
X144252875Y-64380077D01*
X144361415Y-64380077D01*
X144467866Y-64401251D01*
X144467866Y-64401251D01*
G37*
G36*
X193544648Y-63885712D02*
X193644922Y-63927247D01*
X193735172Y-63987550D01*
X193811915Y-64064293D01*
X193872218Y-64154543D01*
X193913753Y-64254817D01*
X193934927Y-64361268D01*
X193934927Y-64469808D01*
X193913753Y-64576259D01*
X193872218Y-64676533D01*
X193811915Y-64766783D01*
X193735172Y-64843526D01*
X193644922Y-64903829D01*
X193544648Y-64945364D01*
X193438197Y-64966538D01*
X193329657Y-64966538D01*
X193223206Y-64945364D01*
X193122932Y-64903829D01*
X193032682Y-64843526D01*
X192955939Y-64766783D01*
X192895636Y-64676533D01*
X192854101Y-64576259D01*
X192832927Y-64469808D01*
X192832927Y-64361268D01*
X192854101Y-64254817D01*
X192895636Y-64154543D01*
X192955939Y-64064293D01*
X193032682Y-63987550D01*
X193122932Y-63927247D01*
X193223206Y-63885712D01*
X193329657Y-63864538D01*
X193438197Y-63864538D01*
X193544648Y-63885712D01*
X193544648Y-63885712D01*
G37*
G36*
X184914499Y-63278445D02*
X184951993Y-63289819D01*
X184986557Y-63308294D01*
X185016847Y-63333153D01*
X185041706Y-63363443D01*
X185060181Y-63398007D01*
X185071555Y-63435501D01*
X185076000Y-63480638D01*
X185076000Y-64119362D01*
X185071555Y-64164499D01*
X185060181Y-64201993D01*
X185041706Y-64236557D01*
X185016847Y-64266847D01*
X184986557Y-64291706D01*
X184951993Y-64310181D01*
X184914499Y-64321555D01*
X184869362Y-64326000D01*
X184130638Y-64326000D01*
X184085501Y-64321555D01*
X184048007Y-64310181D01*
X184013443Y-64291706D01*
X183983153Y-64266847D01*
X183958294Y-64236557D01*
X183939819Y-64201993D01*
X183928445Y-64164499D01*
X183924000Y-64119362D01*
X183924000Y-63480638D01*
X183928445Y-63435501D01*
X183939819Y-63398007D01*
X183958294Y-63363443D01*
X183983153Y-63333153D01*
X184013443Y-63308294D01*
X184048007Y-63289819D01*
X184085501Y-63278445D01*
X184130638Y-63274000D01*
X184869362Y-63274000D01*
X184914499Y-63278445D01*
X184914499Y-63278445D01*
G37*
G36*
X186664499Y-63278445D02*
X186701993Y-63289819D01*
X186736557Y-63308294D01*
X186766847Y-63333153D01*
X186791706Y-63363443D01*
X186810181Y-63398007D01*
X186821555Y-63435501D01*
X186826000Y-63480638D01*
X186826000Y-64119362D01*
X186821555Y-64164499D01*
X186810181Y-64201993D01*
X186791706Y-64236557D01*
X186766847Y-64266847D01*
X186736557Y-64291706D01*
X186701993Y-64310181D01*
X186664499Y-64321555D01*
X186619362Y-64326000D01*
X185880638Y-64326000D01*
X185835501Y-64321555D01*
X185798007Y-64310181D01*
X185763443Y-64291706D01*
X185733153Y-64266847D01*
X185708294Y-64236557D01*
X185689819Y-64201993D01*
X185678445Y-64164499D01*
X185674000Y-64119362D01*
X185674000Y-63480638D01*
X185678445Y-63435501D01*
X185689819Y-63398007D01*
X185708294Y-63363443D01*
X185733153Y-63333153D01*
X185763443Y-63308294D01*
X185798007Y-63289819D01*
X185835501Y-63278445D01*
X185880638Y-63274000D01*
X186619362Y-63274000D01*
X186664499Y-63278445D01*
X186664499Y-63278445D01*
G37*
G36*
X194178576Y-62526251D02*
X194278850Y-62567786D01*
X194369100Y-62628089D01*
X194445843Y-62704832D01*
X194506146Y-62795082D01*
X194547681Y-62895356D01*
X194568855Y-63001807D01*
X194568855Y-63110347D01*
X194547681Y-63216798D01*
X194506146Y-63317072D01*
X194445843Y-63407322D01*
X194369100Y-63484065D01*
X194278850Y-63544368D01*
X194178576Y-63585903D01*
X194072125Y-63607077D01*
X193963585Y-63607077D01*
X193857134Y-63585903D01*
X193756860Y-63544368D01*
X193666610Y-63484065D01*
X193589867Y-63407322D01*
X193529564Y-63317072D01*
X193488029Y-63216798D01*
X193466855Y-63110347D01*
X193466855Y-63001807D01*
X193488029Y-62895356D01*
X193529564Y-62795082D01*
X193589867Y-62704832D01*
X193666610Y-62628089D01*
X193756860Y-62567786D01*
X193857134Y-62526251D01*
X193963585Y-62505077D01*
X194072125Y-62505077D01*
X194178576Y-62526251D01*
X194178576Y-62526251D01*
G37*
G36*
X184889499Y-61628445D02*
X184926993Y-61639819D01*
X184961557Y-61658294D01*
X184991847Y-61683153D01*
X185016706Y-61713443D01*
X185035181Y-61748007D01*
X185046555Y-61785501D01*
X185051000Y-61830638D01*
X185051000Y-62469362D01*
X185046555Y-62514499D01*
X185035181Y-62551993D01*
X185016706Y-62586557D01*
X184991847Y-62616847D01*
X184961557Y-62641706D01*
X184926993Y-62660181D01*
X184889499Y-62671555D01*
X184844362Y-62676000D01*
X184105638Y-62676000D01*
X184060501Y-62671555D01*
X184023007Y-62660181D01*
X183988443Y-62641706D01*
X183958153Y-62616847D01*
X183933294Y-62586557D01*
X183914819Y-62551993D01*
X183903445Y-62514499D01*
X183899000Y-62469362D01*
X183899000Y-61830638D01*
X183903445Y-61785501D01*
X183914819Y-61748007D01*
X183933294Y-61713443D01*
X183958153Y-61683153D01*
X183988443Y-61658294D01*
X184023007Y-61639819D01*
X184060501Y-61628445D01*
X184105638Y-61624000D01*
X184844362Y-61624000D01*
X184889499Y-61628445D01*
X184889499Y-61628445D01*
G37*
G36*
X186639499Y-61628445D02*
X186676993Y-61639819D01*
X186711557Y-61658294D01*
X186741847Y-61683153D01*
X186766706Y-61713443D01*
X186785181Y-61748007D01*
X186796555Y-61785501D01*
X186801000Y-61830638D01*
X186801000Y-62469362D01*
X186796555Y-62514499D01*
X186785181Y-62551993D01*
X186766706Y-62586557D01*
X186741847Y-62616847D01*
X186711557Y-62641706D01*
X186676993Y-62660181D01*
X186639499Y-62671555D01*
X186594362Y-62676000D01*
X185855638Y-62676000D01*
X185810501Y-62671555D01*
X185773007Y-62660181D01*
X185738443Y-62641706D01*
X185708153Y-62616847D01*
X185683294Y-62586557D01*
X185664819Y-62551993D01*
X185653445Y-62514499D01*
X185649000Y-62469362D01*
X185649000Y-61830638D01*
X185653445Y-61785501D01*
X185664819Y-61748007D01*
X185683294Y-61713443D01*
X185708153Y-61683153D01*
X185738443Y-61658294D01*
X185773007Y-61639819D01*
X185810501Y-61628445D01*
X185855638Y-61624000D01*
X186594362Y-61624000D01*
X186639499Y-61628445D01*
X186639499Y-61628445D01*
G37*
G36*
X145189499Y-53728445D02*
X145226993Y-53739819D01*
X145261557Y-53758294D01*
X145291847Y-53783153D01*
X145316706Y-53813443D01*
X145335181Y-53848007D01*
X145346555Y-53885501D01*
X145351000Y-53930638D01*
X145351000Y-54569362D01*
X145346555Y-54614499D01*
X145335181Y-54651993D01*
X145316706Y-54686557D01*
X145291847Y-54716847D01*
X145261557Y-54741706D01*
X145226993Y-54760181D01*
X145189499Y-54771555D01*
X145144362Y-54776000D01*
X144405638Y-54776000D01*
X144360501Y-54771555D01*
X144323007Y-54760181D01*
X144288443Y-54741706D01*
X144258153Y-54716847D01*
X144233294Y-54686557D01*
X144214819Y-54651993D01*
X144203445Y-54614499D01*
X144199000Y-54569362D01*
X144199000Y-53930638D01*
X144203445Y-53885501D01*
X144214819Y-53848007D01*
X144233294Y-53813443D01*
X144258153Y-53783153D01*
X144288443Y-53758294D01*
X144323007Y-53739819D01*
X144360501Y-53728445D01*
X144405638Y-53724000D01*
X145144362Y-53724000D01*
X145189499Y-53728445D01*
X145189499Y-53728445D01*
G37*
G36*
X146939499Y-53728445D02*
X146976993Y-53739819D01*
X147011557Y-53758294D01*
X147041847Y-53783153D01*
X147066706Y-53813443D01*
X147085181Y-53848007D01*
X147096555Y-53885501D01*
X147101000Y-53930638D01*
X147101000Y-54569362D01*
X147096555Y-54614499D01*
X147085181Y-54651993D01*
X147066706Y-54686557D01*
X147041847Y-54716847D01*
X147011557Y-54741706D01*
X146976993Y-54760181D01*
X146939499Y-54771555D01*
X146894362Y-54776000D01*
X146155638Y-54776000D01*
X146110501Y-54771555D01*
X146073007Y-54760181D01*
X146038443Y-54741706D01*
X146008153Y-54716847D01*
X145983294Y-54686557D01*
X145964819Y-54651993D01*
X145953445Y-54614499D01*
X145949000Y-54569362D01*
X145949000Y-53930638D01*
X145953445Y-53885501D01*
X145964819Y-53848007D01*
X145983294Y-53813443D01*
X146008153Y-53783153D01*
X146038443Y-53758294D01*
X146073007Y-53739819D01*
X146110501Y-53728445D01*
X146155638Y-53724000D01*
X146894362Y-53724000D01*
X146939499Y-53728445D01*
X146939499Y-53728445D01*
G37*
G36*
X173451000Y-54751000D02*
X170349000Y-54751000D01*
X170349000Y-51649000D01*
X173451000Y-51649000D01*
X173451000Y-54751000D01*
X173451000Y-54751000D01*
G37*
G36*
X159131000Y-53821000D02*
X153469000Y-53821000D01*
X153469000Y-51119000D01*
X159131000Y-51119000D01*
X159131000Y-53821000D01*
X159131000Y-53821000D01*
G37*
G36*
X146939499Y-52078445D02*
X146976993Y-52089819D01*
X147011557Y-52108294D01*
X147041847Y-52133153D01*
X147066706Y-52163443D01*
X147085181Y-52198007D01*
X147096555Y-52235501D01*
X147101000Y-52280638D01*
X147101000Y-52919362D01*
X147096555Y-52964499D01*
X147085181Y-53001993D01*
X147066706Y-53036557D01*
X147041847Y-53066847D01*
X147011557Y-53091706D01*
X146976993Y-53110181D01*
X146939499Y-53121555D01*
X146894362Y-53126000D01*
X146155638Y-53126000D01*
X146110501Y-53121555D01*
X146073007Y-53110181D01*
X146038443Y-53091706D01*
X146008153Y-53066847D01*
X145983294Y-53036557D01*
X145964819Y-53001993D01*
X145953445Y-52964499D01*
X145949000Y-52919362D01*
X145949000Y-52280638D01*
X145953445Y-52235501D01*
X145964819Y-52198007D01*
X145983294Y-52163443D01*
X146008153Y-52133153D01*
X146038443Y-52108294D01*
X146073007Y-52089819D01*
X146110501Y-52078445D01*
X146155638Y-52074000D01*
X146894362Y-52074000D01*
X146939499Y-52078445D01*
X146939499Y-52078445D01*
G37*
G36*
X145189499Y-52078445D02*
X145226993Y-52089819D01*
X145261557Y-52108294D01*
X145291847Y-52133153D01*
X145316706Y-52163443D01*
X145335181Y-52198007D01*
X145346555Y-52235501D01*
X145351000Y-52280638D01*
X145351000Y-52919362D01*
X145346555Y-52964499D01*
X145335181Y-53001993D01*
X145316706Y-53036557D01*
X145291847Y-53066847D01*
X145261557Y-53091706D01*
X145226993Y-53110181D01*
X145189499Y-53121555D01*
X145144362Y-53126000D01*
X144405638Y-53126000D01*
X144360501Y-53121555D01*
X144323007Y-53110181D01*
X144288443Y-53091706D01*
X144258153Y-53066847D01*
X144233294Y-53036557D01*
X144214819Y-53001993D01*
X144203445Y-52964499D01*
X144199000Y-52919362D01*
X144199000Y-52280638D01*
X144203445Y-52235501D01*
X144214819Y-52198007D01*
X144233294Y-52163443D01*
X144258153Y-52133153D01*
X144288443Y-52108294D01*
X144323007Y-52089819D01*
X144360501Y-52078445D01*
X144405638Y-52074000D01*
X145144362Y-52074000D01*
X145189499Y-52078445D01*
X145189499Y-52078445D01*
G37*
M02*
