G04 #@! TF.GenerationSoftware,KiCad,Pcbnew,(5.0.1-3-g963ef8bb5)*
G04 #@! TF.CreationDate,2018-11-10T15:27:12+00:00*
G04 #@! TF.ProjectId,xmas_tree_v0.1,786D61735F747265655F76302E312E6B,rev?*
G04 #@! TF.SameCoordinates,Original*
G04 #@! TF.FileFunction,Copper,L2,Bot,Signal*
G04 #@! TF.FilePolarity,Positive*
%FSLAX46Y46*%
G04 Gerber Fmt 4.6, Leading zero omitted, Abs format (unit mm)*
G04 Created by KiCad (PCBNEW (5.0.1-3-g963ef8bb5)) date Saturday, 10 November 2018 at 15:27:12*
%MOMM*%
%LPD*%
G01*
G04 APERTURE LIST*
G04 #@! TA.AperFunction,SMDPad,CuDef*
%ADD10R,1.550000X1.300000*%
G04 #@! TD*
G04 #@! TA.AperFunction,SMDPad,CuDef*
%ADD11R,0.900000X0.800000*%
G04 #@! TD*
G04 #@! TA.AperFunction,SMDPad,CuDef*
%ADD12R,0.800000X0.900000*%
G04 #@! TD*
G04 #@! TA.AperFunction,Conductor*
%ADD13C,0.100000*%
G04 #@! TD*
G04 #@! TA.AperFunction,SMDPad,CuDef*
%ADD14C,0.950000*%
G04 #@! TD*
G04 #@! TA.AperFunction,SMDPad,CuDef*
%ADD15R,3.000000X3.000000*%
G04 #@! TD*
G04 #@! TA.AperFunction,ViaPad*
%ADD16C,0.800000*%
G04 #@! TD*
G04 #@! TA.AperFunction,Conductor*
%ADD17C,0.250000*%
G04 #@! TD*
G04 #@! TA.AperFunction,Conductor*
%ADD18C,0.254000*%
G04 #@! TD*
G04 APERTURE END LIST*
D10*
G04 #@! TO.P,SW1,2*
G04 #@! TO.N,Net-(R25-Pad1)*
X156575000Y-143250000D03*
X148625000Y-143250000D03*
G04 #@! TO.P,SW1,1*
G04 #@! TO.N,+BATT*
X156575000Y-147750000D03*
X148625000Y-147750000D03*
G04 #@! TD*
D11*
G04 #@! TO.P,Q6,3*
G04 #@! TO.N,Net-(Q6-Pad3)*
X178400000Y-80000000D03*
G04 #@! TO.P,Q6,2*
G04 #@! TO.N,/GND2*
X176400000Y-79050000D03*
G04 #@! TO.P,Q6,1*
G04 #@! TO.N,/LED_YEL2*
X176400000Y-80950000D03*
G04 #@! TD*
G04 #@! TO.P,Q4,3*
G04 #@! TO.N,Net-(Q4-Pad3)*
X178600000Y-68150000D03*
G04 #@! TO.P,Q4,2*
G04 #@! TO.N,/GND2*
X176600000Y-67200000D03*
G04 #@! TO.P,Q4,1*
G04 #@! TO.N,/LED_RED2*
X176600000Y-69100000D03*
G04 #@! TD*
D12*
G04 #@! TO.P,Q5,3*
G04 #@! TO.N,Net-(Q5-Pad3)*
X126600000Y-144350000D03*
G04 #@! TO.P,Q5,2*
G04 #@! TO.N,GND*
X125650000Y-146350000D03*
G04 #@! TO.P,Q5,1*
G04 #@! TO.N,/LED_YEL1*
X127550000Y-146350000D03*
G04 #@! TD*
D11*
G04 #@! TO.P,Q1,3*
G04 #@! TO.N,Net-(Q1-Pad3)*
X178400000Y-74100000D03*
G04 #@! TO.P,Q1,2*
G04 #@! TO.N,/GND2*
X176400000Y-73150000D03*
G04 #@! TO.P,Q1,1*
G04 #@! TO.N,/LED_GRN1*
X176400000Y-75050000D03*
G04 #@! TD*
D13*
G04 #@! TO.N,/GND2*
G04 #@! TO.C,R14*
G36*
X174960779Y-66801144D02*
X174983834Y-66804563D01*
X175006443Y-66810227D01*
X175028387Y-66818079D01*
X175049457Y-66828044D01*
X175069448Y-66840026D01*
X175088168Y-66853910D01*
X175105438Y-66869562D01*
X175121090Y-66886832D01*
X175134974Y-66905552D01*
X175146956Y-66925543D01*
X175156921Y-66946613D01*
X175164773Y-66968557D01*
X175170437Y-66991166D01*
X175173856Y-67014221D01*
X175175000Y-67037500D01*
X175175000Y-67612500D01*
X175173856Y-67635779D01*
X175170437Y-67658834D01*
X175164773Y-67681443D01*
X175156921Y-67703387D01*
X175146956Y-67724457D01*
X175134974Y-67744448D01*
X175121090Y-67763168D01*
X175105438Y-67780438D01*
X175088168Y-67796090D01*
X175069448Y-67809974D01*
X175049457Y-67821956D01*
X175028387Y-67831921D01*
X175006443Y-67839773D01*
X174983834Y-67845437D01*
X174960779Y-67848856D01*
X174937500Y-67850000D01*
X174462500Y-67850000D01*
X174439221Y-67848856D01*
X174416166Y-67845437D01*
X174393557Y-67839773D01*
X174371613Y-67831921D01*
X174350543Y-67821956D01*
X174330552Y-67809974D01*
X174311832Y-67796090D01*
X174294562Y-67780438D01*
X174278910Y-67763168D01*
X174265026Y-67744448D01*
X174253044Y-67724457D01*
X174243079Y-67703387D01*
X174235227Y-67681443D01*
X174229563Y-67658834D01*
X174226144Y-67635779D01*
X174225000Y-67612500D01*
X174225000Y-67037500D01*
X174226144Y-67014221D01*
X174229563Y-66991166D01*
X174235227Y-66968557D01*
X174243079Y-66946613D01*
X174253044Y-66925543D01*
X174265026Y-66905552D01*
X174278910Y-66886832D01*
X174294562Y-66869562D01*
X174311832Y-66853910D01*
X174330552Y-66840026D01*
X174350543Y-66828044D01*
X174371613Y-66818079D01*
X174393557Y-66810227D01*
X174416166Y-66804563D01*
X174439221Y-66801144D01*
X174462500Y-66800000D01*
X174937500Y-66800000D01*
X174960779Y-66801144D01*
X174960779Y-66801144D01*
G37*
D14*
G04 #@! TD*
G04 #@! TO.P,R14,2*
G04 #@! TO.N,/GND2*
X174700000Y-67325000D03*
D13*
G04 #@! TO.N,/LED_RED2*
G04 #@! TO.C,R14*
G36*
X174960779Y-68551144D02*
X174983834Y-68554563D01*
X175006443Y-68560227D01*
X175028387Y-68568079D01*
X175049457Y-68578044D01*
X175069448Y-68590026D01*
X175088168Y-68603910D01*
X175105438Y-68619562D01*
X175121090Y-68636832D01*
X175134974Y-68655552D01*
X175146956Y-68675543D01*
X175156921Y-68696613D01*
X175164773Y-68718557D01*
X175170437Y-68741166D01*
X175173856Y-68764221D01*
X175175000Y-68787500D01*
X175175000Y-69362500D01*
X175173856Y-69385779D01*
X175170437Y-69408834D01*
X175164773Y-69431443D01*
X175156921Y-69453387D01*
X175146956Y-69474457D01*
X175134974Y-69494448D01*
X175121090Y-69513168D01*
X175105438Y-69530438D01*
X175088168Y-69546090D01*
X175069448Y-69559974D01*
X175049457Y-69571956D01*
X175028387Y-69581921D01*
X175006443Y-69589773D01*
X174983834Y-69595437D01*
X174960779Y-69598856D01*
X174937500Y-69600000D01*
X174462500Y-69600000D01*
X174439221Y-69598856D01*
X174416166Y-69595437D01*
X174393557Y-69589773D01*
X174371613Y-69581921D01*
X174350543Y-69571956D01*
X174330552Y-69559974D01*
X174311832Y-69546090D01*
X174294562Y-69530438D01*
X174278910Y-69513168D01*
X174265026Y-69494448D01*
X174253044Y-69474457D01*
X174243079Y-69453387D01*
X174235227Y-69431443D01*
X174229563Y-69408834D01*
X174226144Y-69385779D01*
X174225000Y-69362500D01*
X174225000Y-68787500D01*
X174226144Y-68764221D01*
X174229563Y-68741166D01*
X174235227Y-68718557D01*
X174243079Y-68696613D01*
X174253044Y-68675543D01*
X174265026Y-68655552D01*
X174278910Y-68636832D01*
X174294562Y-68619562D01*
X174311832Y-68603910D01*
X174330552Y-68590026D01*
X174350543Y-68578044D01*
X174371613Y-68568079D01*
X174393557Y-68560227D01*
X174416166Y-68554563D01*
X174439221Y-68551144D01*
X174462500Y-68550000D01*
X174937500Y-68550000D01*
X174960779Y-68551144D01*
X174960779Y-68551144D01*
G37*
D14*
G04 #@! TD*
G04 #@! TO.P,R14,1*
G04 #@! TO.N,/LED_RED2*
X174700000Y-69075000D03*
D13*
G04 #@! TO.N,Net-(Q4-Pad3)*
G04 #@! TO.C,R16*
G36*
X158910779Y-121826144D02*
X158933834Y-121829563D01*
X158956443Y-121835227D01*
X158978387Y-121843079D01*
X158999457Y-121853044D01*
X159019448Y-121865026D01*
X159038168Y-121878910D01*
X159055438Y-121894562D01*
X159071090Y-121911832D01*
X159084974Y-121930552D01*
X159096956Y-121950543D01*
X159106921Y-121971613D01*
X159114773Y-121993557D01*
X159120437Y-122016166D01*
X159123856Y-122039221D01*
X159125000Y-122062500D01*
X159125000Y-122537500D01*
X159123856Y-122560779D01*
X159120437Y-122583834D01*
X159114773Y-122606443D01*
X159106921Y-122628387D01*
X159096956Y-122649457D01*
X159084974Y-122669448D01*
X159071090Y-122688168D01*
X159055438Y-122705438D01*
X159038168Y-122721090D01*
X159019448Y-122734974D01*
X158999457Y-122746956D01*
X158978387Y-122756921D01*
X158956443Y-122764773D01*
X158933834Y-122770437D01*
X158910779Y-122773856D01*
X158887500Y-122775000D01*
X158312500Y-122775000D01*
X158289221Y-122773856D01*
X158266166Y-122770437D01*
X158243557Y-122764773D01*
X158221613Y-122756921D01*
X158200543Y-122746956D01*
X158180552Y-122734974D01*
X158161832Y-122721090D01*
X158144562Y-122705438D01*
X158128910Y-122688168D01*
X158115026Y-122669448D01*
X158103044Y-122649457D01*
X158093079Y-122628387D01*
X158085227Y-122606443D01*
X158079563Y-122583834D01*
X158076144Y-122560779D01*
X158075000Y-122537500D01*
X158075000Y-122062500D01*
X158076144Y-122039221D01*
X158079563Y-122016166D01*
X158085227Y-121993557D01*
X158093079Y-121971613D01*
X158103044Y-121950543D01*
X158115026Y-121930552D01*
X158128910Y-121911832D01*
X158144562Y-121894562D01*
X158161832Y-121878910D01*
X158180552Y-121865026D01*
X158200543Y-121853044D01*
X158221613Y-121843079D01*
X158243557Y-121835227D01*
X158266166Y-121829563D01*
X158289221Y-121826144D01*
X158312500Y-121825000D01*
X158887500Y-121825000D01*
X158910779Y-121826144D01*
X158910779Y-121826144D01*
G37*
D14*
G04 #@! TD*
G04 #@! TO.P,R16,2*
G04 #@! TO.N,Net-(Q4-Pad3)*
X158600000Y-122300000D03*
D13*
G04 #@! TO.N,Net-(DR5-Pad1)*
G04 #@! TO.C,R16*
G36*
X160660779Y-121826144D02*
X160683834Y-121829563D01*
X160706443Y-121835227D01*
X160728387Y-121843079D01*
X160749457Y-121853044D01*
X160769448Y-121865026D01*
X160788168Y-121878910D01*
X160805438Y-121894562D01*
X160821090Y-121911832D01*
X160834974Y-121930552D01*
X160846956Y-121950543D01*
X160856921Y-121971613D01*
X160864773Y-121993557D01*
X160870437Y-122016166D01*
X160873856Y-122039221D01*
X160875000Y-122062500D01*
X160875000Y-122537500D01*
X160873856Y-122560779D01*
X160870437Y-122583834D01*
X160864773Y-122606443D01*
X160856921Y-122628387D01*
X160846956Y-122649457D01*
X160834974Y-122669448D01*
X160821090Y-122688168D01*
X160805438Y-122705438D01*
X160788168Y-122721090D01*
X160769448Y-122734974D01*
X160749457Y-122746956D01*
X160728387Y-122756921D01*
X160706443Y-122764773D01*
X160683834Y-122770437D01*
X160660779Y-122773856D01*
X160637500Y-122775000D01*
X160062500Y-122775000D01*
X160039221Y-122773856D01*
X160016166Y-122770437D01*
X159993557Y-122764773D01*
X159971613Y-122756921D01*
X159950543Y-122746956D01*
X159930552Y-122734974D01*
X159911832Y-122721090D01*
X159894562Y-122705438D01*
X159878910Y-122688168D01*
X159865026Y-122669448D01*
X159853044Y-122649457D01*
X159843079Y-122628387D01*
X159835227Y-122606443D01*
X159829563Y-122583834D01*
X159826144Y-122560779D01*
X159825000Y-122537500D01*
X159825000Y-122062500D01*
X159826144Y-122039221D01*
X159829563Y-122016166D01*
X159835227Y-121993557D01*
X159843079Y-121971613D01*
X159853044Y-121950543D01*
X159865026Y-121930552D01*
X159878910Y-121911832D01*
X159894562Y-121894562D01*
X159911832Y-121878910D01*
X159930552Y-121865026D01*
X159950543Y-121853044D01*
X159971613Y-121843079D01*
X159993557Y-121835227D01*
X160016166Y-121829563D01*
X160039221Y-121826144D01*
X160062500Y-121825000D01*
X160637500Y-121825000D01*
X160660779Y-121826144D01*
X160660779Y-121826144D01*
G37*
D14*
G04 #@! TD*
G04 #@! TO.P,R16,1*
G04 #@! TO.N,Net-(DR5-Pad1)*
X160350000Y-122300000D03*
D13*
G04 #@! TO.N,Net-(Q1-Pad3)*
G04 #@! TO.C,R2*
G36*
X184835779Y-92226144D02*
X184858834Y-92229563D01*
X184881443Y-92235227D01*
X184903387Y-92243079D01*
X184924457Y-92253044D01*
X184944448Y-92265026D01*
X184963168Y-92278910D01*
X184980438Y-92294562D01*
X184996090Y-92311832D01*
X185009974Y-92330552D01*
X185021956Y-92350543D01*
X185031921Y-92371613D01*
X185039773Y-92393557D01*
X185045437Y-92416166D01*
X185048856Y-92439221D01*
X185050000Y-92462500D01*
X185050000Y-92937500D01*
X185048856Y-92960779D01*
X185045437Y-92983834D01*
X185039773Y-93006443D01*
X185031921Y-93028387D01*
X185021956Y-93049457D01*
X185009974Y-93069448D01*
X184996090Y-93088168D01*
X184980438Y-93105438D01*
X184963168Y-93121090D01*
X184944448Y-93134974D01*
X184924457Y-93146956D01*
X184903387Y-93156921D01*
X184881443Y-93164773D01*
X184858834Y-93170437D01*
X184835779Y-93173856D01*
X184812500Y-93175000D01*
X184237500Y-93175000D01*
X184214221Y-93173856D01*
X184191166Y-93170437D01*
X184168557Y-93164773D01*
X184146613Y-93156921D01*
X184125543Y-93146956D01*
X184105552Y-93134974D01*
X184086832Y-93121090D01*
X184069562Y-93105438D01*
X184053910Y-93088168D01*
X184040026Y-93069448D01*
X184028044Y-93049457D01*
X184018079Y-93028387D01*
X184010227Y-93006443D01*
X184004563Y-92983834D01*
X184001144Y-92960779D01*
X184000000Y-92937500D01*
X184000000Y-92462500D01*
X184001144Y-92439221D01*
X184004563Y-92416166D01*
X184010227Y-92393557D01*
X184018079Y-92371613D01*
X184028044Y-92350543D01*
X184040026Y-92330552D01*
X184053910Y-92311832D01*
X184069562Y-92294562D01*
X184086832Y-92278910D01*
X184105552Y-92265026D01*
X184125543Y-92253044D01*
X184146613Y-92243079D01*
X184168557Y-92235227D01*
X184191166Y-92229563D01*
X184214221Y-92226144D01*
X184237500Y-92225000D01*
X184812500Y-92225000D01*
X184835779Y-92226144D01*
X184835779Y-92226144D01*
G37*
D14*
G04 #@! TD*
G04 #@! TO.P,R2,2*
G04 #@! TO.N,Net-(Q1-Pad3)*
X184525000Y-92700000D03*
D13*
G04 #@! TO.N,Net-(DG1-Pad1)*
G04 #@! TO.C,R2*
G36*
X183085779Y-92226144D02*
X183108834Y-92229563D01*
X183131443Y-92235227D01*
X183153387Y-92243079D01*
X183174457Y-92253044D01*
X183194448Y-92265026D01*
X183213168Y-92278910D01*
X183230438Y-92294562D01*
X183246090Y-92311832D01*
X183259974Y-92330552D01*
X183271956Y-92350543D01*
X183281921Y-92371613D01*
X183289773Y-92393557D01*
X183295437Y-92416166D01*
X183298856Y-92439221D01*
X183300000Y-92462500D01*
X183300000Y-92937500D01*
X183298856Y-92960779D01*
X183295437Y-92983834D01*
X183289773Y-93006443D01*
X183281921Y-93028387D01*
X183271956Y-93049457D01*
X183259974Y-93069448D01*
X183246090Y-93088168D01*
X183230438Y-93105438D01*
X183213168Y-93121090D01*
X183194448Y-93134974D01*
X183174457Y-93146956D01*
X183153387Y-93156921D01*
X183131443Y-93164773D01*
X183108834Y-93170437D01*
X183085779Y-93173856D01*
X183062500Y-93175000D01*
X182487500Y-93175000D01*
X182464221Y-93173856D01*
X182441166Y-93170437D01*
X182418557Y-93164773D01*
X182396613Y-93156921D01*
X182375543Y-93146956D01*
X182355552Y-93134974D01*
X182336832Y-93121090D01*
X182319562Y-93105438D01*
X182303910Y-93088168D01*
X182290026Y-93069448D01*
X182278044Y-93049457D01*
X182268079Y-93028387D01*
X182260227Y-93006443D01*
X182254563Y-92983834D01*
X182251144Y-92960779D01*
X182250000Y-92937500D01*
X182250000Y-92462500D01*
X182251144Y-92439221D01*
X182254563Y-92416166D01*
X182260227Y-92393557D01*
X182268079Y-92371613D01*
X182278044Y-92350543D01*
X182290026Y-92330552D01*
X182303910Y-92311832D01*
X182319562Y-92294562D01*
X182336832Y-92278910D01*
X182355552Y-92265026D01*
X182375543Y-92253044D01*
X182396613Y-92243079D01*
X182418557Y-92235227D01*
X182441166Y-92229563D01*
X182464221Y-92226144D01*
X182487500Y-92225000D01*
X183062500Y-92225000D01*
X183085779Y-92226144D01*
X183085779Y-92226144D01*
G37*
D14*
G04 #@! TD*
G04 #@! TO.P,R2,1*
G04 #@! TO.N,Net-(DG1-Pad1)*
X182775000Y-92700000D03*
D13*
G04 #@! TO.N,GND*
G04 #@! TO.C,R25*
G36*
X146860779Y-140926144D02*
X146883834Y-140929563D01*
X146906443Y-140935227D01*
X146928387Y-140943079D01*
X146949457Y-140953044D01*
X146969448Y-140965026D01*
X146988168Y-140978910D01*
X147005438Y-140994562D01*
X147021090Y-141011832D01*
X147034974Y-141030552D01*
X147046956Y-141050543D01*
X147056921Y-141071613D01*
X147064773Y-141093557D01*
X147070437Y-141116166D01*
X147073856Y-141139221D01*
X147075000Y-141162500D01*
X147075000Y-141737500D01*
X147073856Y-141760779D01*
X147070437Y-141783834D01*
X147064773Y-141806443D01*
X147056921Y-141828387D01*
X147046956Y-141849457D01*
X147034974Y-141869448D01*
X147021090Y-141888168D01*
X147005438Y-141905438D01*
X146988168Y-141921090D01*
X146969448Y-141934974D01*
X146949457Y-141946956D01*
X146928387Y-141956921D01*
X146906443Y-141964773D01*
X146883834Y-141970437D01*
X146860779Y-141973856D01*
X146837500Y-141975000D01*
X146362500Y-141975000D01*
X146339221Y-141973856D01*
X146316166Y-141970437D01*
X146293557Y-141964773D01*
X146271613Y-141956921D01*
X146250543Y-141946956D01*
X146230552Y-141934974D01*
X146211832Y-141921090D01*
X146194562Y-141905438D01*
X146178910Y-141888168D01*
X146165026Y-141869448D01*
X146153044Y-141849457D01*
X146143079Y-141828387D01*
X146135227Y-141806443D01*
X146129563Y-141783834D01*
X146126144Y-141760779D01*
X146125000Y-141737500D01*
X146125000Y-141162500D01*
X146126144Y-141139221D01*
X146129563Y-141116166D01*
X146135227Y-141093557D01*
X146143079Y-141071613D01*
X146153044Y-141050543D01*
X146165026Y-141030552D01*
X146178910Y-141011832D01*
X146194562Y-140994562D01*
X146211832Y-140978910D01*
X146230552Y-140965026D01*
X146250543Y-140953044D01*
X146271613Y-140943079D01*
X146293557Y-140935227D01*
X146316166Y-140929563D01*
X146339221Y-140926144D01*
X146362500Y-140925000D01*
X146837500Y-140925000D01*
X146860779Y-140926144D01*
X146860779Y-140926144D01*
G37*
D14*
G04 #@! TD*
G04 #@! TO.P,R25,2*
G04 #@! TO.N,GND*
X146600000Y-141450000D03*
D13*
G04 #@! TO.N,Net-(R25-Pad1)*
G04 #@! TO.C,R25*
G36*
X146860779Y-142676144D02*
X146883834Y-142679563D01*
X146906443Y-142685227D01*
X146928387Y-142693079D01*
X146949457Y-142703044D01*
X146969448Y-142715026D01*
X146988168Y-142728910D01*
X147005438Y-142744562D01*
X147021090Y-142761832D01*
X147034974Y-142780552D01*
X147046956Y-142800543D01*
X147056921Y-142821613D01*
X147064773Y-142843557D01*
X147070437Y-142866166D01*
X147073856Y-142889221D01*
X147075000Y-142912500D01*
X147075000Y-143487500D01*
X147073856Y-143510779D01*
X147070437Y-143533834D01*
X147064773Y-143556443D01*
X147056921Y-143578387D01*
X147046956Y-143599457D01*
X147034974Y-143619448D01*
X147021090Y-143638168D01*
X147005438Y-143655438D01*
X146988168Y-143671090D01*
X146969448Y-143684974D01*
X146949457Y-143696956D01*
X146928387Y-143706921D01*
X146906443Y-143714773D01*
X146883834Y-143720437D01*
X146860779Y-143723856D01*
X146837500Y-143725000D01*
X146362500Y-143725000D01*
X146339221Y-143723856D01*
X146316166Y-143720437D01*
X146293557Y-143714773D01*
X146271613Y-143706921D01*
X146250543Y-143696956D01*
X146230552Y-143684974D01*
X146211832Y-143671090D01*
X146194562Y-143655438D01*
X146178910Y-143638168D01*
X146165026Y-143619448D01*
X146153044Y-143599457D01*
X146143079Y-143578387D01*
X146135227Y-143556443D01*
X146129563Y-143533834D01*
X146126144Y-143510779D01*
X146125000Y-143487500D01*
X146125000Y-142912500D01*
X146126144Y-142889221D01*
X146129563Y-142866166D01*
X146135227Y-142843557D01*
X146143079Y-142821613D01*
X146153044Y-142800543D01*
X146165026Y-142780552D01*
X146178910Y-142761832D01*
X146194562Y-142744562D01*
X146211832Y-142728910D01*
X146230552Y-142715026D01*
X146250543Y-142703044D01*
X146271613Y-142693079D01*
X146293557Y-142685227D01*
X146316166Y-142679563D01*
X146339221Y-142676144D01*
X146362500Y-142675000D01*
X146837500Y-142675000D01*
X146860779Y-142676144D01*
X146860779Y-142676144D01*
G37*
D14*
G04 #@! TD*
G04 #@! TO.P,R25,1*
G04 #@! TO.N,Net-(R25-Pad1)*
X146600000Y-143200000D03*
D13*
G04 #@! TO.N,Net-(Q2-Pad3)*
G04 #@! TO.C,R7*
G36*
X127535779Y-69126144D02*
X127558834Y-69129563D01*
X127581443Y-69135227D01*
X127603387Y-69143079D01*
X127624457Y-69153044D01*
X127644448Y-69165026D01*
X127663168Y-69178910D01*
X127680438Y-69194562D01*
X127696090Y-69211832D01*
X127709974Y-69230552D01*
X127721956Y-69250543D01*
X127731921Y-69271613D01*
X127739773Y-69293557D01*
X127745437Y-69316166D01*
X127748856Y-69339221D01*
X127750000Y-69362500D01*
X127750000Y-69837500D01*
X127748856Y-69860779D01*
X127745437Y-69883834D01*
X127739773Y-69906443D01*
X127731921Y-69928387D01*
X127721956Y-69949457D01*
X127709974Y-69969448D01*
X127696090Y-69988168D01*
X127680438Y-70005438D01*
X127663168Y-70021090D01*
X127644448Y-70034974D01*
X127624457Y-70046956D01*
X127603387Y-70056921D01*
X127581443Y-70064773D01*
X127558834Y-70070437D01*
X127535779Y-70073856D01*
X127512500Y-70075000D01*
X126937500Y-70075000D01*
X126914221Y-70073856D01*
X126891166Y-70070437D01*
X126868557Y-70064773D01*
X126846613Y-70056921D01*
X126825543Y-70046956D01*
X126805552Y-70034974D01*
X126786832Y-70021090D01*
X126769562Y-70005438D01*
X126753910Y-69988168D01*
X126740026Y-69969448D01*
X126728044Y-69949457D01*
X126718079Y-69928387D01*
X126710227Y-69906443D01*
X126704563Y-69883834D01*
X126701144Y-69860779D01*
X126700000Y-69837500D01*
X126700000Y-69362500D01*
X126701144Y-69339221D01*
X126704563Y-69316166D01*
X126710227Y-69293557D01*
X126718079Y-69271613D01*
X126728044Y-69250543D01*
X126740026Y-69230552D01*
X126753910Y-69211832D01*
X126769562Y-69194562D01*
X126786832Y-69178910D01*
X126805552Y-69165026D01*
X126825543Y-69153044D01*
X126846613Y-69143079D01*
X126868557Y-69135227D01*
X126891166Y-69129563D01*
X126914221Y-69126144D01*
X126937500Y-69125000D01*
X127512500Y-69125000D01*
X127535779Y-69126144D01*
X127535779Y-69126144D01*
G37*
D14*
G04 #@! TD*
G04 #@! TO.P,R7,2*
G04 #@! TO.N,Net-(Q2-Pad3)*
X127225000Y-69600000D03*
D13*
G04 #@! TO.N,Net-(DG5-Pad1)*
G04 #@! TO.C,R7*
G36*
X129285779Y-69126144D02*
X129308834Y-69129563D01*
X129331443Y-69135227D01*
X129353387Y-69143079D01*
X129374457Y-69153044D01*
X129394448Y-69165026D01*
X129413168Y-69178910D01*
X129430438Y-69194562D01*
X129446090Y-69211832D01*
X129459974Y-69230552D01*
X129471956Y-69250543D01*
X129481921Y-69271613D01*
X129489773Y-69293557D01*
X129495437Y-69316166D01*
X129498856Y-69339221D01*
X129500000Y-69362500D01*
X129500000Y-69837500D01*
X129498856Y-69860779D01*
X129495437Y-69883834D01*
X129489773Y-69906443D01*
X129481921Y-69928387D01*
X129471956Y-69949457D01*
X129459974Y-69969448D01*
X129446090Y-69988168D01*
X129430438Y-70005438D01*
X129413168Y-70021090D01*
X129394448Y-70034974D01*
X129374457Y-70046956D01*
X129353387Y-70056921D01*
X129331443Y-70064773D01*
X129308834Y-70070437D01*
X129285779Y-70073856D01*
X129262500Y-70075000D01*
X128687500Y-70075000D01*
X128664221Y-70073856D01*
X128641166Y-70070437D01*
X128618557Y-70064773D01*
X128596613Y-70056921D01*
X128575543Y-70046956D01*
X128555552Y-70034974D01*
X128536832Y-70021090D01*
X128519562Y-70005438D01*
X128503910Y-69988168D01*
X128490026Y-69969448D01*
X128478044Y-69949457D01*
X128468079Y-69928387D01*
X128460227Y-69906443D01*
X128454563Y-69883834D01*
X128451144Y-69860779D01*
X128450000Y-69837500D01*
X128450000Y-69362500D01*
X128451144Y-69339221D01*
X128454563Y-69316166D01*
X128460227Y-69293557D01*
X128468079Y-69271613D01*
X128478044Y-69250543D01*
X128490026Y-69230552D01*
X128503910Y-69211832D01*
X128519562Y-69194562D01*
X128536832Y-69178910D01*
X128555552Y-69165026D01*
X128575543Y-69153044D01*
X128596613Y-69143079D01*
X128618557Y-69135227D01*
X128641166Y-69129563D01*
X128664221Y-69126144D01*
X128687500Y-69125000D01*
X129262500Y-69125000D01*
X129285779Y-69126144D01*
X129285779Y-69126144D01*
G37*
D14*
G04 #@! TD*
G04 #@! TO.P,R7,1*
G04 #@! TO.N,Net-(DG5-Pad1)*
X128975000Y-69600000D03*
D13*
G04 #@! TO.N,Net-(Q3-Pad3)*
G04 #@! TO.C,R13*
G36*
X141360779Y-95701144D02*
X141383834Y-95704563D01*
X141406443Y-95710227D01*
X141428387Y-95718079D01*
X141449457Y-95728044D01*
X141469448Y-95740026D01*
X141488168Y-95753910D01*
X141505438Y-95769562D01*
X141521090Y-95786832D01*
X141534974Y-95805552D01*
X141546956Y-95825543D01*
X141556921Y-95846613D01*
X141564773Y-95868557D01*
X141570437Y-95891166D01*
X141573856Y-95914221D01*
X141575000Y-95937500D01*
X141575000Y-96412500D01*
X141573856Y-96435779D01*
X141570437Y-96458834D01*
X141564773Y-96481443D01*
X141556921Y-96503387D01*
X141546956Y-96524457D01*
X141534974Y-96544448D01*
X141521090Y-96563168D01*
X141505438Y-96580438D01*
X141488168Y-96596090D01*
X141469448Y-96609974D01*
X141449457Y-96621956D01*
X141428387Y-96631921D01*
X141406443Y-96639773D01*
X141383834Y-96645437D01*
X141360779Y-96648856D01*
X141337500Y-96650000D01*
X140762500Y-96650000D01*
X140739221Y-96648856D01*
X140716166Y-96645437D01*
X140693557Y-96639773D01*
X140671613Y-96631921D01*
X140650543Y-96621956D01*
X140630552Y-96609974D01*
X140611832Y-96596090D01*
X140594562Y-96580438D01*
X140578910Y-96563168D01*
X140565026Y-96544448D01*
X140553044Y-96524457D01*
X140543079Y-96503387D01*
X140535227Y-96481443D01*
X140529563Y-96458834D01*
X140526144Y-96435779D01*
X140525000Y-96412500D01*
X140525000Y-95937500D01*
X140526144Y-95914221D01*
X140529563Y-95891166D01*
X140535227Y-95868557D01*
X140543079Y-95846613D01*
X140553044Y-95825543D01*
X140565026Y-95805552D01*
X140578910Y-95786832D01*
X140594562Y-95769562D01*
X140611832Y-95753910D01*
X140630552Y-95740026D01*
X140650543Y-95728044D01*
X140671613Y-95718079D01*
X140693557Y-95710227D01*
X140716166Y-95704563D01*
X140739221Y-95701144D01*
X140762500Y-95700000D01*
X141337500Y-95700000D01*
X141360779Y-95701144D01*
X141360779Y-95701144D01*
G37*
D14*
G04 #@! TD*
G04 #@! TO.P,R13,2*
G04 #@! TO.N,Net-(Q3-Pad3)*
X141050000Y-96175000D03*
D13*
G04 #@! TO.N,Net-(DR3-Pad1)*
G04 #@! TO.C,R13*
G36*
X139610779Y-95701144D02*
X139633834Y-95704563D01*
X139656443Y-95710227D01*
X139678387Y-95718079D01*
X139699457Y-95728044D01*
X139719448Y-95740026D01*
X139738168Y-95753910D01*
X139755438Y-95769562D01*
X139771090Y-95786832D01*
X139784974Y-95805552D01*
X139796956Y-95825543D01*
X139806921Y-95846613D01*
X139814773Y-95868557D01*
X139820437Y-95891166D01*
X139823856Y-95914221D01*
X139825000Y-95937500D01*
X139825000Y-96412500D01*
X139823856Y-96435779D01*
X139820437Y-96458834D01*
X139814773Y-96481443D01*
X139806921Y-96503387D01*
X139796956Y-96524457D01*
X139784974Y-96544448D01*
X139771090Y-96563168D01*
X139755438Y-96580438D01*
X139738168Y-96596090D01*
X139719448Y-96609974D01*
X139699457Y-96621956D01*
X139678387Y-96631921D01*
X139656443Y-96639773D01*
X139633834Y-96645437D01*
X139610779Y-96648856D01*
X139587500Y-96650000D01*
X139012500Y-96650000D01*
X138989221Y-96648856D01*
X138966166Y-96645437D01*
X138943557Y-96639773D01*
X138921613Y-96631921D01*
X138900543Y-96621956D01*
X138880552Y-96609974D01*
X138861832Y-96596090D01*
X138844562Y-96580438D01*
X138828910Y-96563168D01*
X138815026Y-96544448D01*
X138803044Y-96524457D01*
X138793079Y-96503387D01*
X138785227Y-96481443D01*
X138779563Y-96458834D01*
X138776144Y-96435779D01*
X138775000Y-96412500D01*
X138775000Y-95937500D01*
X138776144Y-95914221D01*
X138779563Y-95891166D01*
X138785227Y-95868557D01*
X138793079Y-95846613D01*
X138803044Y-95825543D01*
X138815026Y-95805552D01*
X138828910Y-95786832D01*
X138844562Y-95769562D01*
X138861832Y-95753910D01*
X138880552Y-95740026D01*
X138900543Y-95728044D01*
X138921613Y-95718079D01*
X138943557Y-95710227D01*
X138966166Y-95704563D01*
X138989221Y-95701144D01*
X139012500Y-95700000D01*
X139587500Y-95700000D01*
X139610779Y-95701144D01*
X139610779Y-95701144D01*
G37*
D14*
G04 #@! TD*
G04 #@! TO.P,R13,1*
G04 #@! TO.N,Net-(DR3-Pad1)*
X139300000Y-96175000D03*
D13*
G04 #@! TO.N,Net-(Q5-Pad3)*
G04 #@! TO.C,R17*
G36*
X122385779Y-114576144D02*
X122408834Y-114579563D01*
X122431443Y-114585227D01*
X122453387Y-114593079D01*
X122474457Y-114603044D01*
X122494448Y-114615026D01*
X122513168Y-114628910D01*
X122530438Y-114644562D01*
X122546090Y-114661832D01*
X122559974Y-114680552D01*
X122571956Y-114700543D01*
X122581921Y-114721613D01*
X122589773Y-114743557D01*
X122595437Y-114766166D01*
X122598856Y-114789221D01*
X122600000Y-114812500D01*
X122600000Y-115287500D01*
X122598856Y-115310779D01*
X122595437Y-115333834D01*
X122589773Y-115356443D01*
X122581921Y-115378387D01*
X122571956Y-115399457D01*
X122559974Y-115419448D01*
X122546090Y-115438168D01*
X122530438Y-115455438D01*
X122513168Y-115471090D01*
X122494448Y-115484974D01*
X122474457Y-115496956D01*
X122453387Y-115506921D01*
X122431443Y-115514773D01*
X122408834Y-115520437D01*
X122385779Y-115523856D01*
X122362500Y-115525000D01*
X121787500Y-115525000D01*
X121764221Y-115523856D01*
X121741166Y-115520437D01*
X121718557Y-115514773D01*
X121696613Y-115506921D01*
X121675543Y-115496956D01*
X121655552Y-115484974D01*
X121636832Y-115471090D01*
X121619562Y-115455438D01*
X121603910Y-115438168D01*
X121590026Y-115419448D01*
X121578044Y-115399457D01*
X121568079Y-115378387D01*
X121560227Y-115356443D01*
X121554563Y-115333834D01*
X121551144Y-115310779D01*
X121550000Y-115287500D01*
X121550000Y-114812500D01*
X121551144Y-114789221D01*
X121554563Y-114766166D01*
X121560227Y-114743557D01*
X121568079Y-114721613D01*
X121578044Y-114700543D01*
X121590026Y-114680552D01*
X121603910Y-114661832D01*
X121619562Y-114644562D01*
X121636832Y-114628910D01*
X121655552Y-114615026D01*
X121675543Y-114603044D01*
X121696613Y-114593079D01*
X121718557Y-114585227D01*
X121741166Y-114579563D01*
X121764221Y-114576144D01*
X121787500Y-114575000D01*
X122362500Y-114575000D01*
X122385779Y-114576144D01*
X122385779Y-114576144D01*
G37*
D14*
G04 #@! TD*
G04 #@! TO.P,R17,2*
G04 #@! TO.N,Net-(Q5-Pad3)*
X122075000Y-115050000D03*
D13*
G04 #@! TO.N,Net-(DY1-Pad1)*
G04 #@! TO.C,R17*
G36*
X120635779Y-114576144D02*
X120658834Y-114579563D01*
X120681443Y-114585227D01*
X120703387Y-114593079D01*
X120724457Y-114603044D01*
X120744448Y-114615026D01*
X120763168Y-114628910D01*
X120780438Y-114644562D01*
X120796090Y-114661832D01*
X120809974Y-114680552D01*
X120821956Y-114700543D01*
X120831921Y-114721613D01*
X120839773Y-114743557D01*
X120845437Y-114766166D01*
X120848856Y-114789221D01*
X120850000Y-114812500D01*
X120850000Y-115287500D01*
X120848856Y-115310779D01*
X120845437Y-115333834D01*
X120839773Y-115356443D01*
X120831921Y-115378387D01*
X120821956Y-115399457D01*
X120809974Y-115419448D01*
X120796090Y-115438168D01*
X120780438Y-115455438D01*
X120763168Y-115471090D01*
X120744448Y-115484974D01*
X120724457Y-115496956D01*
X120703387Y-115506921D01*
X120681443Y-115514773D01*
X120658834Y-115520437D01*
X120635779Y-115523856D01*
X120612500Y-115525000D01*
X120037500Y-115525000D01*
X120014221Y-115523856D01*
X119991166Y-115520437D01*
X119968557Y-115514773D01*
X119946613Y-115506921D01*
X119925543Y-115496956D01*
X119905552Y-115484974D01*
X119886832Y-115471090D01*
X119869562Y-115455438D01*
X119853910Y-115438168D01*
X119840026Y-115419448D01*
X119828044Y-115399457D01*
X119818079Y-115378387D01*
X119810227Y-115356443D01*
X119804563Y-115333834D01*
X119801144Y-115310779D01*
X119800000Y-115287500D01*
X119800000Y-114812500D01*
X119801144Y-114789221D01*
X119804563Y-114766166D01*
X119810227Y-114743557D01*
X119818079Y-114721613D01*
X119828044Y-114700543D01*
X119840026Y-114680552D01*
X119853910Y-114661832D01*
X119869562Y-114644562D01*
X119886832Y-114628910D01*
X119905552Y-114615026D01*
X119925543Y-114603044D01*
X119946613Y-114593079D01*
X119968557Y-114585227D01*
X119991166Y-114579563D01*
X120014221Y-114576144D01*
X120037500Y-114575000D01*
X120612500Y-114575000D01*
X120635779Y-114576144D01*
X120635779Y-114576144D01*
G37*
D14*
G04 #@! TD*
G04 #@! TO.P,R17,1*
G04 #@! TO.N,Net-(DY1-Pad1)*
X120325000Y-115050000D03*
D13*
G04 #@! TO.N,Net-(Q1-Pad3)*
G04 #@! TO.C,R4*
G36*
X164585779Y-83876144D02*
X164608834Y-83879563D01*
X164631443Y-83885227D01*
X164653387Y-83893079D01*
X164674457Y-83903044D01*
X164694448Y-83915026D01*
X164713168Y-83928910D01*
X164730438Y-83944562D01*
X164746090Y-83961832D01*
X164759974Y-83980552D01*
X164771956Y-84000543D01*
X164781921Y-84021613D01*
X164789773Y-84043557D01*
X164795437Y-84066166D01*
X164798856Y-84089221D01*
X164800000Y-84112500D01*
X164800000Y-84587500D01*
X164798856Y-84610779D01*
X164795437Y-84633834D01*
X164789773Y-84656443D01*
X164781921Y-84678387D01*
X164771956Y-84699457D01*
X164759974Y-84719448D01*
X164746090Y-84738168D01*
X164730438Y-84755438D01*
X164713168Y-84771090D01*
X164694448Y-84784974D01*
X164674457Y-84796956D01*
X164653387Y-84806921D01*
X164631443Y-84814773D01*
X164608834Y-84820437D01*
X164585779Y-84823856D01*
X164562500Y-84825000D01*
X163987500Y-84825000D01*
X163964221Y-84823856D01*
X163941166Y-84820437D01*
X163918557Y-84814773D01*
X163896613Y-84806921D01*
X163875543Y-84796956D01*
X163855552Y-84784974D01*
X163836832Y-84771090D01*
X163819562Y-84755438D01*
X163803910Y-84738168D01*
X163790026Y-84719448D01*
X163778044Y-84699457D01*
X163768079Y-84678387D01*
X163760227Y-84656443D01*
X163754563Y-84633834D01*
X163751144Y-84610779D01*
X163750000Y-84587500D01*
X163750000Y-84112500D01*
X163751144Y-84089221D01*
X163754563Y-84066166D01*
X163760227Y-84043557D01*
X163768079Y-84021613D01*
X163778044Y-84000543D01*
X163790026Y-83980552D01*
X163803910Y-83961832D01*
X163819562Y-83944562D01*
X163836832Y-83928910D01*
X163855552Y-83915026D01*
X163875543Y-83903044D01*
X163896613Y-83893079D01*
X163918557Y-83885227D01*
X163941166Y-83879563D01*
X163964221Y-83876144D01*
X163987500Y-83875000D01*
X164562500Y-83875000D01*
X164585779Y-83876144D01*
X164585779Y-83876144D01*
G37*
D14*
G04 #@! TD*
G04 #@! TO.P,R4,2*
G04 #@! TO.N,Net-(Q1-Pad3)*
X164275000Y-84350000D03*
D13*
G04 #@! TO.N,Net-(DG3-Pad1)*
G04 #@! TO.C,R4*
G36*
X162835779Y-83876144D02*
X162858834Y-83879563D01*
X162881443Y-83885227D01*
X162903387Y-83893079D01*
X162924457Y-83903044D01*
X162944448Y-83915026D01*
X162963168Y-83928910D01*
X162980438Y-83944562D01*
X162996090Y-83961832D01*
X163009974Y-83980552D01*
X163021956Y-84000543D01*
X163031921Y-84021613D01*
X163039773Y-84043557D01*
X163045437Y-84066166D01*
X163048856Y-84089221D01*
X163050000Y-84112500D01*
X163050000Y-84587500D01*
X163048856Y-84610779D01*
X163045437Y-84633834D01*
X163039773Y-84656443D01*
X163031921Y-84678387D01*
X163021956Y-84699457D01*
X163009974Y-84719448D01*
X162996090Y-84738168D01*
X162980438Y-84755438D01*
X162963168Y-84771090D01*
X162944448Y-84784974D01*
X162924457Y-84796956D01*
X162903387Y-84806921D01*
X162881443Y-84814773D01*
X162858834Y-84820437D01*
X162835779Y-84823856D01*
X162812500Y-84825000D01*
X162237500Y-84825000D01*
X162214221Y-84823856D01*
X162191166Y-84820437D01*
X162168557Y-84814773D01*
X162146613Y-84806921D01*
X162125543Y-84796956D01*
X162105552Y-84784974D01*
X162086832Y-84771090D01*
X162069562Y-84755438D01*
X162053910Y-84738168D01*
X162040026Y-84719448D01*
X162028044Y-84699457D01*
X162018079Y-84678387D01*
X162010227Y-84656443D01*
X162004563Y-84633834D01*
X162001144Y-84610779D01*
X162000000Y-84587500D01*
X162000000Y-84112500D01*
X162001144Y-84089221D01*
X162004563Y-84066166D01*
X162010227Y-84043557D01*
X162018079Y-84021613D01*
X162028044Y-84000543D01*
X162040026Y-83980552D01*
X162053910Y-83961832D01*
X162069562Y-83944562D01*
X162086832Y-83928910D01*
X162105552Y-83915026D01*
X162125543Y-83903044D01*
X162146613Y-83893079D01*
X162168557Y-83885227D01*
X162191166Y-83879563D01*
X162214221Y-83876144D01*
X162237500Y-83875000D01*
X162812500Y-83875000D01*
X162835779Y-83876144D01*
X162835779Y-83876144D01*
G37*
D14*
G04 #@! TD*
G04 #@! TO.P,R4,1*
G04 #@! TO.N,Net-(DG3-Pad1)*
X162525000Y-84350000D03*
D13*
G04 #@! TO.N,Net-(Q5-Pad3)*
G04 #@! TO.C,R20*
G36*
X143435779Y-127926144D02*
X143458834Y-127929563D01*
X143481443Y-127935227D01*
X143503387Y-127943079D01*
X143524457Y-127953044D01*
X143544448Y-127965026D01*
X143563168Y-127978910D01*
X143580438Y-127994562D01*
X143596090Y-128011832D01*
X143609974Y-128030552D01*
X143621956Y-128050543D01*
X143631921Y-128071613D01*
X143639773Y-128093557D01*
X143645437Y-128116166D01*
X143648856Y-128139221D01*
X143650000Y-128162500D01*
X143650000Y-128637500D01*
X143648856Y-128660779D01*
X143645437Y-128683834D01*
X143639773Y-128706443D01*
X143631921Y-128728387D01*
X143621956Y-128749457D01*
X143609974Y-128769448D01*
X143596090Y-128788168D01*
X143580438Y-128805438D01*
X143563168Y-128821090D01*
X143544448Y-128834974D01*
X143524457Y-128846956D01*
X143503387Y-128856921D01*
X143481443Y-128864773D01*
X143458834Y-128870437D01*
X143435779Y-128873856D01*
X143412500Y-128875000D01*
X142837500Y-128875000D01*
X142814221Y-128873856D01*
X142791166Y-128870437D01*
X142768557Y-128864773D01*
X142746613Y-128856921D01*
X142725543Y-128846956D01*
X142705552Y-128834974D01*
X142686832Y-128821090D01*
X142669562Y-128805438D01*
X142653910Y-128788168D01*
X142640026Y-128769448D01*
X142628044Y-128749457D01*
X142618079Y-128728387D01*
X142610227Y-128706443D01*
X142604563Y-128683834D01*
X142601144Y-128660779D01*
X142600000Y-128637500D01*
X142600000Y-128162500D01*
X142601144Y-128139221D01*
X142604563Y-128116166D01*
X142610227Y-128093557D01*
X142618079Y-128071613D01*
X142628044Y-128050543D01*
X142640026Y-128030552D01*
X142653910Y-128011832D01*
X142669562Y-127994562D01*
X142686832Y-127978910D01*
X142705552Y-127965026D01*
X142725543Y-127953044D01*
X142746613Y-127943079D01*
X142768557Y-127935227D01*
X142791166Y-127929563D01*
X142814221Y-127926144D01*
X142837500Y-127925000D01*
X143412500Y-127925000D01*
X143435779Y-127926144D01*
X143435779Y-127926144D01*
G37*
D14*
G04 #@! TD*
G04 #@! TO.P,R20,2*
G04 #@! TO.N,Net-(Q5-Pad3)*
X143125000Y-128400000D03*
D13*
G04 #@! TO.N,Net-(DY3-Pad1)*
G04 #@! TO.C,R20*
G36*
X145185779Y-127926144D02*
X145208834Y-127929563D01*
X145231443Y-127935227D01*
X145253387Y-127943079D01*
X145274457Y-127953044D01*
X145294448Y-127965026D01*
X145313168Y-127978910D01*
X145330438Y-127994562D01*
X145346090Y-128011832D01*
X145359974Y-128030552D01*
X145371956Y-128050543D01*
X145381921Y-128071613D01*
X145389773Y-128093557D01*
X145395437Y-128116166D01*
X145398856Y-128139221D01*
X145400000Y-128162500D01*
X145400000Y-128637500D01*
X145398856Y-128660779D01*
X145395437Y-128683834D01*
X145389773Y-128706443D01*
X145381921Y-128728387D01*
X145371956Y-128749457D01*
X145359974Y-128769448D01*
X145346090Y-128788168D01*
X145330438Y-128805438D01*
X145313168Y-128821090D01*
X145294448Y-128834974D01*
X145274457Y-128846956D01*
X145253387Y-128856921D01*
X145231443Y-128864773D01*
X145208834Y-128870437D01*
X145185779Y-128873856D01*
X145162500Y-128875000D01*
X144587500Y-128875000D01*
X144564221Y-128873856D01*
X144541166Y-128870437D01*
X144518557Y-128864773D01*
X144496613Y-128856921D01*
X144475543Y-128846956D01*
X144455552Y-128834974D01*
X144436832Y-128821090D01*
X144419562Y-128805438D01*
X144403910Y-128788168D01*
X144390026Y-128769448D01*
X144378044Y-128749457D01*
X144368079Y-128728387D01*
X144360227Y-128706443D01*
X144354563Y-128683834D01*
X144351144Y-128660779D01*
X144350000Y-128637500D01*
X144350000Y-128162500D01*
X144351144Y-128139221D01*
X144354563Y-128116166D01*
X144360227Y-128093557D01*
X144368079Y-128071613D01*
X144378044Y-128050543D01*
X144390026Y-128030552D01*
X144403910Y-128011832D01*
X144419562Y-127994562D01*
X144436832Y-127978910D01*
X144455552Y-127965026D01*
X144475543Y-127953044D01*
X144496613Y-127943079D01*
X144518557Y-127935227D01*
X144541166Y-127929563D01*
X144564221Y-127926144D01*
X144587500Y-127925000D01*
X145162500Y-127925000D01*
X145185779Y-127926144D01*
X145185779Y-127926144D01*
G37*
D14*
G04 #@! TD*
G04 #@! TO.P,R20,1*
G04 #@! TO.N,Net-(DY3-Pad1)*
X144875000Y-128400000D03*
D13*
G04 #@! TO.N,/GND2*
G04 #@! TO.C,R1*
G36*
X174960779Y-72701144D02*
X174983834Y-72704563D01*
X175006443Y-72710227D01*
X175028387Y-72718079D01*
X175049457Y-72728044D01*
X175069448Y-72740026D01*
X175088168Y-72753910D01*
X175105438Y-72769562D01*
X175121090Y-72786832D01*
X175134974Y-72805552D01*
X175146956Y-72825543D01*
X175156921Y-72846613D01*
X175164773Y-72868557D01*
X175170437Y-72891166D01*
X175173856Y-72914221D01*
X175175000Y-72937500D01*
X175175000Y-73512500D01*
X175173856Y-73535779D01*
X175170437Y-73558834D01*
X175164773Y-73581443D01*
X175156921Y-73603387D01*
X175146956Y-73624457D01*
X175134974Y-73644448D01*
X175121090Y-73663168D01*
X175105438Y-73680438D01*
X175088168Y-73696090D01*
X175069448Y-73709974D01*
X175049457Y-73721956D01*
X175028387Y-73731921D01*
X175006443Y-73739773D01*
X174983834Y-73745437D01*
X174960779Y-73748856D01*
X174937500Y-73750000D01*
X174462500Y-73750000D01*
X174439221Y-73748856D01*
X174416166Y-73745437D01*
X174393557Y-73739773D01*
X174371613Y-73731921D01*
X174350543Y-73721956D01*
X174330552Y-73709974D01*
X174311832Y-73696090D01*
X174294562Y-73680438D01*
X174278910Y-73663168D01*
X174265026Y-73644448D01*
X174253044Y-73624457D01*
X174243079Y-73603387D01*
X174235227Y-73581443D01*
X174229563Y-73558834D01*
X174226144Y-73535779D01*
X174225000Y-73512500D01*
X174225000Y-72937500D01*
X174226144Y-72914221D01*
X174229563Y-72891166D01*
X174235227Y-72868557D01*
X174243079Y-72846613D01*
X174253044Y-72825543D01*
X174265026Y-72805552D01*
X174278910Y-72786832D01*
X174294562Y-72769562D01*
X174311832Y-72753910D01*
X174330552Y-72740026D01*
X174350543Y-72728044D01*
X174371613Y-72718079D01*
X174393557Y-72710227D01*
X174416166Y-72704563D01*
X174439221Y-72701144D01*
X174462500Y-72700000D01*
X174937500Y-72700000D01*
X174960779Y-72701144D01*
X174960779Y-72701144D01*
G37*
D14*
G04 #@! TD*
G04 #@! TO.P,R1,2*
G04 #@! TO.N,/GND2*
X174700000Y-73225000D03*
D13*
G04 #@! TO.N,/LED_GRN1*
G04 #@! TO.C,R1*
G36*
X174960779Y-74451144D02*
X174983834Y-74454563D01*
X175006443Y-74460227D01*
X175028387Y-74468079D01*
X175049457Y-74478044D01*
X175069448Y-74490026D01*
X175088168Y-74503910D01*
X175105438Y-74519562D01*
X175121090Y-74536832D01*
X175134974Y-74555552D01*
X175146956Y-74575543D01*
X175156921Y-74596613D01*
X175164773Y-74618557D01*
X175170437Y-74641166D01*
X175173856Y-74664221D01*
X175175000Y-74687500D01*
X175175000Y-75262500D01*
X175173856Y-75285779D01*
X175170437Y-75308834D01*
X175164773Y-75331443D01*
X175156921Y-75353387D01*
X175146956Y-75374457D01*
X175134974Y-75394448D01*
X175121090Y-75413168D01*
X175105438Y-75430438D01*
X175088168Y-75446090D01*
X175069448Y-75459974D01*
X175049457Y-75471956D01*
X175028387Y-75481921D01*
X175006443Y-75489773D01*
X174983834Y-75495437D01*
X174960779Y-75498856D01*
X174937500Y-75500000D01*
X174462500Y-75500000D01*
X174439221Y-75498856D01*
X174416166Y-75495437D01*
X174393557Y-75489773D01*
X174371613Y-75481921D01*
X174350543Y-75471956D01*
X174330552Y-75459974D01*
X174311832Y-75446090D01*
X174294562Y-75430438D01*
X174278910Y-75413168D01*
X174265026Y-75394448D01*
X174253044Y-75374457D01*
X174243079Y-75353387D01*
X174235227Y-75331443D01*
X174229563Y-75308834D01*
X174226144Y-75285779D01*
X174225000Y-75262500D01*
X174225000Y-74687500D01*
X174226144Y-74664221D01*
X174229563Y-74641166D01*
X174235227Y-74618557D01*
X174243079Y-74596613D01*
X174253044Y-74575543D01*
X174265026Y-74555552D01*
X174278910Y-74536832D01*
X174294562Y-74519562D01*
X174311832Y-74503910D01*
X174330552Y-74490026D01*
X174350543Y-74478044D01*
X174371613Y-74468079D01*
X174393557Y-74460227D01*
X174416166Y-74454563D01*
X174439221Y-74451144D01*
X174462500Y-74450000D01*
X174937500Y-74450000D01*
X174960779Y-74451144D01*
X174960779Y-74451144D01*
G37*
D14*
G04 #@! TD*
G04 #@! TO.P,R1,1*
G04 #@! TO.N,/LED_GRN1*
X174700000Y-74975000D03*
D13*
G04 #@! TO.N,GND*
G04 #@! TO.C,R18*
G36*
X126110779Y-147501144D02*
X126133834Y-147504563D01*
X126156443Y-147510227D01*
X126178387Y-147518079D01*
X126199457Y-147528044D01*
X126219448Y-147540026D01*
X126238168Y-147553910D01*
X126255438Y-147569562D01*
X126271090Y-147586832D01*
X126284974Y-147605552D01*
X126296956Y-147625543D01*
X126306921Y-147646613D01*
X126314773Y-147668557D01*
X126320437Y-147691166D01*
X126323856Y-147714221D01*
X126325000Y-147737500D01*
X126325000Y-148212500D01*
X126323856Y-148235779D01*
X126320437Y-148258834D01*
X126314773Y-148281443D01*
X126306921Y-148303387D01*
X126296956Y-148324457D01*
X126284974Y-148344448D01*
X126271090Y-148363168D01*
X126255438Y-148380438D01*
X126238168Y-148396090D01*
X126219448Y-148409974D01*
X126199457Y-148421956D01*
X126178387Y-148431921D01*
X126156443Y-148439773D01*
X126133834Y-148445437D01*
X126110779Y-148448856D01*
X126087500Y-148450000D01*
X125512500Y-148450000D01*
X125489221Y-148448856D01*
X125466166Y-148445437D01*
X125443557Y-148439773D01*
X125421613Y-148431921D01*
X125400543Y-148421956D01*
X125380552Y-148409974D01*
X125361832Y-148396090D01*
X125344562Y-148380438D01*
X125328910Y-148363168D01*
X125315026Y-148344448D01*
X125303044Y-148324457D01*
X125293079Y-148303387D01*
X125285227Y-148281443D01*
X125279563Y-148258834D01*
X125276144Y-148235779D01*
X125275000Y-148212500D01*
X125275000Y-147737500D01*
X125276144Y-147714221D01*
X125279563Y-147691166D01*
X125285227Y-147668557D01*
X125293079Y-147646613D01*
X125303044Y-147625543D01*
X125315026Y-147605552D01*
X125328910Y-147586832D01*
X125344562Y-147569562D01*
X125361832Y-147553910D01*
X125380552Y-147540026D01*
X125400543Y-147528044D01*
X125421613Y-147518079D01*
X125443557Y-147510227D01*
X125466166Y-147504563D01*
X125489221Y-147501144D01*
X125512500Y-147500000D01*
X126087500Y-147500000D01*
X126110779Y-147501144D01*
X126110779Y-147501144D01*
G37*
D14*
G04 #@! TD*
G04 #@! TO.P,R18,2*
G04 #@! TO.N,GND*
X125800000Y-147975000D03*
D13*
G04 #@! TO.N,/LED_YEL1*
G04 #@! TO.C,R18*
G36*
X127860779Y-147501144D02*
X127883834Y-147504563D01*
X127906443Y-147510227D01*
X127928387Y-147518079D01*
X127949457Y-147528044D01*
X127969448Y-147540026D01*
X127988168Y-147553910D01*
X128005438Y-147569562D01*
X128021090Y-147586832D01*
X128034974Y-147605552D01*
X128046956Y-147625543D01*
X128056921Y-147646613D01*
X128064773Y-147668557D01*
X128070437Y-147691166D01*
X128073856Y-147714221D01*
X128075000Y-147737500D01*
X128075000Y-148212500D01*
X128073856Y-148235779D01*
X128070437Y-148258834D01*
X128064773Y-148281443D01*
X128056921Y-148303387D01*
X128046956Y-148324457D01*
X128034974Y-148344448D01*
X128021090Y-148363168D01*
X128005438Y-148380438D01*
X127988168Y-148396090D01*
X127969448Y-148409974D01*
X127949457Y-148421956D01*
X127928387Y-148431921D01*
X127906443Y-148439773D01*
X127883834Y-148445437D01*
X127860779Y-148448856D01*
X127837500Y-148450000D01*
X127262500Y-148450000D01*
X127239221Y-148448856D01*
X127216166Y-148445437D01*
X127193557Y-148439773D01*
X127171613Y-148431921D01*
X127150543Y-148421956D01*
X127130552Y-148409974D01*
X127111832Y-148396090D01*
X127094562Y-148380438D01*
X127078910Y-148363168D01*
X127065026Y-148344448D01*
X127053044Y-148324457D01*
X127043079Y-148303387D01*
X127035227Y-148281443D01*
X127029563Y-148258834D01*
X127026144Y-148235779D01*
X127025000Y-148212500D01*
X127025000Y-147737500D01*
X127026144Y-147714221D01*
X127029563Y-147691166D01*
X127035227Y-147668557D01*
X127043079Y-147646613D01*
X127053044Y-147625543D01*
X127065026Y-147605552D01*
X127078910Y-147586832D01*
X127094562Y-147569562D01*
X127111832Y-147553910D01*
X127130552Y-147540026D01*
X127150543Y-147528044D01*
X127171613Y-147518079D01*
X127193557Y-147510227D01*
X127216166Y-147504563D01*
X127239221Y-147501144D01*
X127262500Y-147500000D01*
X127837500Y-147500000D01*
X127860779Y-147501144D01*
X127860779Y-147501144D01*
G37*
D14*
G04 #@! TD*
G04 #@! TO.P,R18,1*
G04 #@! TO.N,/LED_YEL1*
X127550000Y-147975000D03*
D13*
G04 #@! TO.N,/GND2*
G04 #@! TO.C,R22*
G36*
X174960779Y-78676144D02*
X174983834Y-78679563D01*
X175006443Y-78685227D01*
X175028387Y-78693079D01*
X175049457Y-78703044D01*
X175069448Y-78715026D01*
X175088168Y-78728910D01*
X175105438Y-78744562D01*
X175121090Y-78761832D01*
X175134974Y-78780552D01*
X175146956Y-78800543D01*
X175156921Y-78821613D01*
X175164773Y-78843557D01*
X175170437Y-78866166D01*
X175173856Y-78889221D01*
X175175000Y-78912500D01*
X175175000Y-79487500D01*
X175173856Y-79510779D01*
X175170437Y-79533834D01*
X175164773Y-79556443D01*
X175156921Y-79578387D01*
X175146956Y-79599457D01*
X175134974Y-79619448D01*
X175121090Y-79638168D01*
X175105438Y-79655438D01*
X175088168Y-79671090D01*
X175069448Y-79684974D01*
X175049457Y-79696956D01*
X175028387Y-79706921D01*
X175006443Y-79714773D01*
X174983834Y-79720437D01*
X174960779Y-79723856D01*
X174937500Y-79725000D01*
X174462500Y-79725000D01*
X174439221Y-79723856D01*
X174416166Y-79720437D01*
X174393557Y-79714773D01*
X174371613Y-79706921D01*
X174350543Y-79696956D01*
X174330552Y-79684974D01*
X174311832Y-79671090D01*
X174294562Y-79655438D01*
X174278910Y-79638168D01*
X174265026Y-79619448D01*
X174253044Y-79599457D01*
X174243079Y-79578387D01*
X174235227Y-79556443D01*
X174229563Y-79533834D01*
X174226144Y-79510779D01*
X174225000Y-79487500D01*
X174225000Y-78912500D01*
X174226144Y-78889221D01*
X174229563Y-78866166D01*
X174235227Y-78843557D01*
X174243079Y-78821613D01*
X174253044Y-78800543D01*
X174265026Y-78780552D01*
X174278910Y-78761832D01*
X174294562Y-78744562D01*
X174311832Y-78728910D01*
X174330552Y-78715026D01*
X174350543Y-78703044D01*
X174371613Y-78693079D01*
X174393557Y-78685227D01*
X174416166Y-78679563D01*
X174439221Y-78676144D01*
X174462500Y-78675000D01*
X174937500Y-78675000D01*
X174960779Y-78676144D01*
X174960779Y-78676144D01*
G37*
D14*
G04 #@! TD*
G04 #@! TO.P,R22,2*
G04 #@! TO.N,/GND2*
X174700000Y-79200000D03*
D13*
G04 #@! TO.N,/LED_YEL2*
G04 #@! TO.C,R22*
G36*
X174960779Y-80426144D02*
X174983834Y-80429563D01*
X175006443Y-80435227D01*
X175028387Y-80443079D01*
X175049457Y-80453044D01*
X175069448Y-80465026D01*
X175088168Y-80478910D01*
X175105438Y-80494562D01*
X175121090Y-80511832D01*
X175134974Y-80530552D01*
X175146956Y-80550543D01*
X175156921Y-80571613D01*
X175164773Y-80593557D01*
X175170437Y-80616166D01*
X175173856Y-80639221D01*
X175175000Y-80662500D01*
X175175000Y-81237500D01*
X175173856Y-81260779D01*
X175170437Y-81283834D01*
X175164773Y-81306443D01*
X175156921Y-81328387D01*
X175146956Y-81349457D01*
X175134974Y-81369448D01*
X175121090Y-81388168D01*
X175105438Y-81405438D01*
X175088168Y-81421090D01*
X175069448Y-81434974D01*
X175049457Y-81446956D01*
X175028387Y-81456921D01*
X175006443Y-81464773D01*
X174983834Y-81470437D01*
X174960779Y-81473856D01*
X174937500Y-81475000D01*
X174462500Y-81475000D01*
X174439221Y-81473856D01*
X174416166Y-81470437D01*
X174393557Y-81464773D01*
X174371613Y-81456921D01*
X174350543Y-81446956D01*
X174330552Y-81434974D01*
X174311832Y-81421090D01*
X174294562Y-81405438D01*
X174278910Y-81388168D01*
X174265026Y-81369448D01*
X174253044Y-81349457D01*
X174243079Y-81328387D01*
X174235227Y-81306443D01*
X174229563Y-81283834D01*
X174226144Y-81260779D01*
X174225000Y-81237500D01*
X174225000Y-80662500D01*
X174226144Y-80639221D01*
X174229563Y-80616166D01*
X174235227Y-80593557D01*
X174243079Y-80571613D01*
X174253044Y-80550543D01*
X174265026Y-80530552D01*
X174278910Y-80511832D01*
X174294562Y-80494562D01*
X174311832Y-80478910D01*
X174330552Y-80465026D01*
X174350543Y-80453044D01*
X174371613Y-80443079D01*
X174393557Y-80435227D01*
X174416166Y-80429563D01*
X174439221Y-80426144D01*
X174462500Y-80425000D01*
X174937500Y-80425000D01*
X174960779Y-80426144D01*
X174960779Y-80426144D01*
G37*
D14*
G04 #@! TD*
G04 #@! TO.P,R22,1*
G04 #@! TO.N,/LED_YEL2*
X174700000Y-80950000D03*
D13*
G04 #@! TO.N,Net-(Q6-Pad3)*
G04 #@! TO.C,R24*
G36*
X195535779Y-50776144D02*
X195558834Y-50779563D01*
X195581443Y-50785227D01*
X195603387Y-50793079D01*
X195624457Y-50803044D01*
X195644448Y-50815026D01*
X195663168Y-50828910D01*
X195680438Y-50844562D01*
X195696090Y-50861832D01*
X195709974Y-50880552D01*
X195721956Y-50900543D01*
X195731921Y-50921613D01*
X195739773Y-50943557D01*
X195745437Y-50966166D01*
X195748856Y-50989221D01*
X195750000Y-51012500D01*
X195750000Y-51487500D01*
X195748856Y-51510779D01*
X195745437Y-51533834D01*
X195739773Y-51556443D01*
X195731921Y-51578387D01*
X195721956Y-51599457D01*
X195709974Y-51619448D01*
X195696090Y-51638168D01*
X195680438Y-51655438D01*
X195663168Y-51671090D01*
X195644448Y-51684974D01*
X195624457Y-51696956D01*
X195603387Y-51706921D01*
X195581443Y-51714773D01*
X195558834Y-51720437D01*
X195535779Y-51723856D01*
X195512500Y-51725000D01*
X194937500Y-51725000D01*
X194914221Y-51723856D01*
X194891166Y-51720437D01*
X194868557Y-51714773D01*
X194846613Y-51706921D01*
X194825543Y-51696956D01*
X194805552Y-51684974D01*
X194786832Y-51671090D01*
X194769562Y-51655438D01*
X194753910Y-51638168D01*
X194740026Y-51619448D01*
X194728044Y-51599457D01*
X194718079Y-51578387D01*
X194710227Y-51556443D01*
X194704563Y-51533834D01*
X194701144Y-51510779D01*
X194700000Y-51487500D01*
X194700000Y-51012500D01*
X194701144Y-50989221D01*
X194704563Y-50966166D01*
X194710227Y-50943557D01*
X194718079Y-50921613D01*
X194728044Y-50900543D01*
X194740026Y-50880552D01*
X194753910Y-50861832D01*
X194769562Y-50844562D01*
X194786832Y-50828910D01*
X194805552Y-50815026D01*
X194825543Y-50803044D01*
X194846613Y-50793079D01*
X194868557Y-50785227D01*
X194891166Y-50779563D01*
X194914221Y-50776144D01*
X194937500Y-50775000D01*
X195512500Y-50775000D01*
X195535779Y-50776144D01*
X195535779Y-50776144D01*
G37*
D14*
G04 #@! TD*
G04 #@! TO.P,R24,2*
G04 #@! TO.N,Net-(Q6-Pad3)*
X195225000Y-51250000D03*
D13*
G04 #@! TO.N,Net-(DY6-Pad1)*
G04 #@! TO.C,R24*
G36*
X193785779Y-50776144D02*
X193808834Y-50779563D01*
X193831443Y-50785227D01*
X193853387Y-50793079D01*
X193874457Y-50803044D01*
X193894448Y-50815026D01*
X193913168Y-50828910D01*
X193930438Y-50844562D01*
X193946090Y-50861832D01*
X193959974Y-50880552D01*
X193971956Y-50900543D01*
X193981921Y-50921613D01*
X193989773Y-50943557D01*
X193995437Y-50966166D01*
X193998856Y-50989221D01*
X194000000Y-51012500D01*
X194000000Y-51487500D01*
X193998856Y-51510779D01*
X193995437Y-51533834D01*
X193989773Y-51556443D01*
X193981921Y-51578387D01*
X193971956Y-51599457D01*
X193959974Y-51619448D01*
X193946090Y-51638168D01*
X193930438Y-51655438D01*
X193913168Y-51671090D01*
X193894448Y-51684974D01*
X193874457Y-51696956D01*
X193853387Y-51706921D01*
X193831443Y-51714773D01*
X193808834Y-51720437D01*
X193785779Y-51723856D01*
X193762500Y-51725000D01*
X193187500Y-51725000D01*
X193164221Y-51723856D01*
X193141166Y-51720437D01*
X193118557Y-51714773D01*
X193096613Y-51706921D01*
X193075543Y-51696956D01*
X193055552Y-51684974D01*
X193036832Y-51671090D01*
X193019562Y-51655438D01*
X193003910Y-51638168D01*
X192990026Y-51619448D01*
X192978044Y-51599457D01*
X192968079Y-51578387D01*
X192960227Y-51556443D01*
X192954563Y-51533834D01*
X192951144Y-51510779D01*
X192950000Y-51487500D01*
X192950000Y-51012500D01*
X192951144Y-50989221D01*
X192954563Y-50966166D01*
X192960227Y-50943557D01*
X192968079Y-50921613D01*
X192978044Y-50900543D01*
X192990026Y-50880552D01*
X193003910Y-50861832D01*
X193019562Y-50844562D01*
X193036832Y-50828910D01*
X193055552Y-50815026D01*
X193075543Y-50803044D01*
X193096613Y-50793079D01*
X193118557Y-50785227D01*
X193141166Y-50779563D01*
X193164221Y-50776144D01*
X193187500Y-50775000D01*
X193762500Y-50775000D01*
X193785779Y-50776144D01*
X193785779Y-50776144D01*
G37*
D14*
G04 #@! TD*
G04 #@! TO.P,R24,1*
G04 #@! TO.N,Net-(DY6-Pad1)*
X193475000Y-51250000D03*
D13*
G04 #@! TO.N,+BATT*
G04 #@! TO.C,DY3*
G36*
X143435779Y-129626144D02*
X143458834Y-129629563D01*
X143481443Y-129635227D01*
X143503387Y-129643079D01*
X143524457Y-129653044D01*
X143544448Y-129665026D01*
X143563168Y-129678910D01*
X143580438Y-129694562D01*
X143596090Y-129711832D01*
X143609974Y-129730552D01*
X143621956Y-129750543D01*
X143631921Y-129771613D01*
X143639773Y-129793557D01*
X143645437Y-129816166D01*
X143648856Y-129839221D01*
X143650000Y-129862500D01*
X143650000Y-130337500D01*
X143648856Y-130360779D01*
X143645437Y-130383834D01*
X143639773Y-130406443D01*
X143631921Y-130428387D01*
X143621956Y-130449457D01*
X143609974Y-130469448D01*
X143596090Y-130488168D01*
X143580438Y-130505438D01*
X143563168Y-130521090D01*
X143544448Y-130534974D01*
X143524457Y-130546956D01*
X143503387Y-130556921D01*
X143481443Y-130564773D01*
X143458834Y-130570437D01*
X143435779Y-130573856D01*
X143412500Y-130575000D01*
X142837500Y-130575000D01*
X142814221Y-130573856D01*
X142791166Y-130570437D01*
X142768557Y-130564773D01*
X142746613Y-130556921D01*
X142725543Y-130546956D01*
X142705552Y-130534974D01*
X142686832Y-130521090D01*
X142669562Y-130505438D01*
X142653910Y-130488168D01*
X142640026Y-130469448D01*
X142628044Y-130449457D01*
X142618079Y-130428387D01*
X142610227Y-130406443D01*
X142604563Y-130383834D01*
X142601144Y-130360779D01*
X142600000Y-130337500D01*
X142600000Y-129862500D01*
X142601144Y-129839221D01*
X142604563Y-129816166D01*
X142610227Y-129793557D01*
X142618079Y-129771613D01*
X142628044Y-129750543D01*
X142640026Y-129730552D01*
X142653910Y-129711832D01*
X142669562Y-129694562D01*
X142686832Y-129678910D01*
X142705552Y-129665026D01*
X142725543Y-129653044D01*
X142746613Y-129643079D01*
X142768557Y-129635227D01*
X142791166Y-129629563D01*
X142814221Y-129626144D01*
X142837500Y-129625000D01*
X143412500Y-129625000D01*
X143435779Y-129626144D01*
X143435779Y-129626144D01*
G37*
D14*
G04 #@! TD*
G04 #@! TO.P,DY3,2*
G04 #@! TO.N,+BATT*
X143125000Y-130100000D03*
D13*
G04 #@! TO.N,Net-(DY3-Pad1)*
G04 #@! TO.C,DY3*
G36*
X145185779Y-129626144D02*
X145208834Y-129629563D01*
X145231443Y-129635227D01*
X145253387Y-129643079D01*
X145274457Y-129653044D01*
X145294448Y-129665026D01*
X145313168Y-129678910D01*
X145330438Y-129694562D01*
X145346090Y-129711832D01*
X145359974Y-129730552D01*
X145371956Y-129750543D01*
X145381921Y-129771613D01*
X145389773Y-129793557D01*
X145395437Y-129816166D01*
X145398856Y-129839221D01*
X145400000Y-129862500D01*
X145400000Y-130337500D01*
X145398856Y-130360779D01*
X145395437Y-130383834D01*
X145389773Y-130406443D01*
X145381921Y-130428387D01*
X145371956Y-130449457D01*
X145359974Y-130469448D01*
X145346090Y-130488168D01*
X145330438Y-130505438D01*
X145313168Y-130521090D01*
X145294448Y-130534974D01*
X145274457Y-130546956D01*
X145253387Y-130556921D01*
X145231443Y-130564773D01*
X145208834Y-130570437D01*
X145185779Y-130573856D01*
X145162500Y-130575000D01*
X144587500Y-130575000D01*
X144564221Y-130573856D01*
X144541166Y-130570437D01*
X144518557Y-130564773D01*
X144496613Y-130556921D01*
X144475543Y-130546956D01*
X144455552Y-130534974D01*
X144436832Y-130521090D01*
X144419562Y-130505438D01*
X144403910Y-130488168D01*
X144390026Y-130469448D01*
X144378044Y-130449457D01*
X144368079Y-130428387D01*
X144360227Y-130406443D01*
X144354563Y-130383834D01*
X144351144Y-130360779D01*
X144350000Y-130337500D01*
X144350000Y-129862500D01*
X144351144Y-129839221D01*
X144354563Y-129816166D01*
X144360227Y-129793557D01*
X144368079Y-129771613D01*
X144378044Y-129750543D01*
X144390026Y-129730552D01*
X144403910Y-129711832D01*
X144419562Y-129694562D01*
X144436832Y-129678910D01*
X144455552Y-129665026D01*
X144475543Y-129653044D01*
X144496613Y-129643079D01*
X144518557Y-129635227D01*
X144541166Y-129629563D01*
X144564221Y-129626144D01*
X144587500Y-129625000D01*
X145162500Y-129625000D01*
X145185779Y-129626144D01*
X145185779Y-129626144D01*
G37*
D14*
G04 #@! TD*
G04 #@! TO.P,DY3,1*
G04 #@! TO.N,Net-(DY3-Pad1)*
X144875000Y-130100000D03*
D13*
G04 #@! TO.N,/BATT2*
G04 #@! TO.C,DR5*
G36*
X158935779Y-120226144D02*
X158958834Y-120229563D01*
X158981443Y-120235227D01*
X159003387Y-120243079D01*
X159024457Y-120253044D01*
X159044448Y-120265026D01*
X159063168Y-120278910D01*
X159080438Y-120294562D01*
X159096090Y-120311832D01*
X159109974Y-120330552D01*
X159121956Y-120350543D01*
X159131921Y-120371613D01*
X159139773Y-120393557D01*
X159145437Y-120416166D01*
X159148856Y-120439221D01*
X159150000Y-120462500D01*
X159150000Y-120937500D01*
X159148856Y-120960779D01*
X159145437Y-120983834D01*
X159139773Y-121006443D01*
X159131921Y-121028387D01*
X159121956Y-121049457D01*
X159109974Y-121069448D01*
X159096090Y-121088168D01*
X159080438Y-121105438D01*
X159063168Y-121121090D01*
X159044448Y-121134974D01*
X159024457Y-121146956D01*
X159003387Y-121156921D01*
X158981443Y-121164773D01*
X158958834Y-121170437D01*
X158935779Y-121173856D01*
X158912500Y-121175000D01*
X158337500Y-121175000D01*
X158314221Y-121173856D01*
X158291166Y-121170437D01*
X158268557Y-121164773D01*
X158246613Y-121156921D01*
X158225543Y-121146956D01*
X158205552Y-121134974D01*
X158186832Y-121121090D01*
X158169562Y-121105438D01*
X158153910Y-121088168D01*
X158140026Y-121069448D01*
X158128044Y-121049457D01*
X158118079Y-121028387D01*
X158110227Y-121006443D01*
X158104563Y-120983834D01*
X158101144Y-120960779D01*
X158100000Y-120937500D01*
X158100000Y-120462500D01*
X158101144Y-120439221D01*
X158104563Y-120416166D01*
X158110227Y-120393557D01*
X158118079Y-120371613D01*
X158128044Y-120350543D01*
X158140026Y-120330552D01*
X158153910Y-120311832D01*
X158169562Y-120294562D01*
X158186832Y-120278910D01*
X158205552Y-120265026D01*
X158225543Y-120253044D01*
X158246613Y-120243079D01*
X158268557Y-120235227D01*
X158291166Y-120229563D01*
X158314221Y-120226144D01*
X158337500Y-120225000D01*
X158912500Y-120225000D01*
X158935779Y-120226144D01*
X158935779Y-120226144D01*
G37*
D14*
G04 #@! TD*
G04 #@! TO.P,DR5,2*
G04 #@! TO.N,/BATT2*
X158625000Y-120700000D03*
D13*
G04 #@! TO.N,Net-(DR5-Pad1)*
G04 #@! TO.C,DR5*
G36*
X160685779Y-120226144D02*
X160708834Y-120229563D01*
X160731443Y-120235227D01*
X160753387Y-120243079D01*
X160774457Y-120253044D01*
X160794448Y-120265026D01*
X160813168Y-120278910D01*
X160830438Y-120294562D01*
X160846090Y-120311832D01*
X160859974Y-120330552D01*
X160871956Y-120350543D01*
X160881921Y-120371613D01*
X160889773Y-120393557D01*
X160895437Y-120416166D01*
X160898856Y-120439221D01*
X160900000Y-120462500D01*
X160900000Y-120937500D01*
X160898856Y-120960779D01*
X160895437Y-120983834D01*
X160889773Y-121006443D01*
X160881921Y-121028387D01*
X160871956Y-121049457D01*
X160859974Y-121069448D01*
X160846090Y-121088168D01*
X160830438Y-121105438D01*
X160813168Y-121121090D01*
X160794448Y-121134974D01*
X160774457Y-121146956D01*
X160753387Y-121156921D01*
X160731443Y-121164773D01*
X160708834Y-121170437D01*
X160685779Y-121173856D01*
X160662500Y-121175000D01*
X160087500Y-121175000D01*
X160064221Y-121173856D01*
X160041166Y-121170437D01*
X160018557Y-121164773D01*
X159996613Y-121156921D01*
X159975543Y-121146956D01*
X159955552Y-121134974D01*
X159936832Y-121121090D01*
X159919562Y-121105438D01*
X159903910Y-121088168D01*
X159890026Y-121069448D01*
X159878044Y-121049457D01*
X159868079Y-121028387D01*
X159860227Y-121006443D01*
X159854563Y-120983834D01*
X159851144Y-120960779D01*
X159850000Y-120937500D01*
X159850000Y-120462500D01*
X159851144Y-120439221D01*
X159854563Y-120416166D01*
X159860227Y-120393557D01*
X159868079Y-120371613D01*
X159878044Y-120350543D01*
X159890026Y-120330552D01*
X159903910Y-120311832D01*
X159919562Y-120294562D01*
X159936832Y-120278910D01*
X159955552Y-120265026D01*
X159975543Y-120253044D01*
X159996613Y-120243079D01*
X160018557Y-120235227D01*
X160041166Y-120229563D01*
X160064221Y-120226144D01*
X160087500Y-120225000D01*
X160662500Y-120225000D01*
X160685779Y-120226144D01*
X160685779Y-120226144D01*
G37*
D14*
G04 #@! TD*
G04 #@! TO.P,DR5,1*
G04 #@! TO.N,Net-(DR5-Pad1)*
X160375000Y-120700000D03*
D13*
G04 #@! TO.N,/BATT2*
G04 #@! TO.C,DG3*
G36*
X164585779Y-85526144D02*
X164608834Y-85529563D01*
X164631443Y-85535227D01*
X164653387Y-85543079D01*
X164674457Y-85553044D01*
X164694448Y-85565026D01*
X164713168Y-85578910D01*
X164730438Y-85594562D01*
X164746090Y-85611832D01*
X164759974Y-85630552D01*
X164771956Y-85650543D01*
X164781921Y-85671613D01*
X164789773Y-85693557D01*
X164795437Y-85716166D01*
X164798856Y-85739221D01*
X164800000Y-85762500D01*
X164800000Y-86237500D01*
X164798856Y-86260779D01*
X164795437Y-86283834D01*
X164789773Y-86306443D01*
X164781921Y-86328387D01*
X164771956Y-86349457D01*
X164759974Y-86369448D01*
X164746090Y-86388168D01*
X164730438Y-86405438D01*
X164713168Y-86421090D01*
X164694448Y-86434974D01*
X164674457Y-86446956D01*
X164653387Y-86456921D01*
X164631443Y-86464773D01*
X164608834Y-86470437D01*
X164585779Y-86473856D01*
X164562500Y-86475000D01*
X163987500Y-86475000D01*
X163964221Y-86473856D01*
X163941166Y-86470437D01*
X163918557Y-86464773D01*
X163896613Y-86456921D01*
X163875543Y-86446956D01*
X163855552Y-86434974D01*
X163836832Y-86421090D01*
X163819562Y-86405438D01*
X163803910Y-86388168D01*
X163790026Y-86369448D01*
X163778044Y-86349457D01*
X163768079Y-86328387D01*
X163760227Y-86306443D01*
X163754563Y-86283834D01*
X163751144Y-86260779D01*
X163750000Y-86237500D01*
X163750000Y-85762500D01*
X163751144Y-85739221D01*
X163754563Y-85716166D01*
X163760227Y-85693557D01*
X163768079Y-85671613D01*
X163778044Y-85650543D01*
X163790026Y-85630552D01*
X163803910Y-85611832D01*
X163819562Y-85594562D01*
X163836832Y-85578910D01*
X163855552Y-85565026D01*
X163875543Y-85553044D01*
X163896613Y-85543079D01*
X163918557Y-85535227D01*
X163941166Y-85529563D01*
X163964221Y-85526144D01*
X163987500Y-85525000D01*
X164562500Y-85525000D01*
X164585779Y-85526144D01*
X164585779Y-85526144D01*
G37*
D14*
G04 #@! TD*
G04 #@! TO.P,DG3,2*
G04 #@! TO.N,/BATT2*
X164275000Y-86000000D03*
D13*
G04 #@! TO.N,Net-(DG3-Pad1)*
G04 #@! TO.C,DG3*
G36*
X162835779Y-85526144D02*
X162858834Y-85529563D01*
X162881443Y-85535227D01*
X162903387Y-85543079D01*
X162924457Y-85553044D01*
X162944448Y-85565026D01*
X162963168Y-85578910D01*
X162980438Y-85594562D01*
X162996090Y-85611832D01*
X163009974Y-85630552D01*
X163021956Y-85650543D01*
X163031921Y-85671613D01*
X163039773Y-85693557D01*
X163045437Y-85716166D01*
X163048856Y-85739221D01*
X163050000Y-85762500D01*
X163050000Y-86237500D01*
X163048856Y-86260779D01*
X163045437Y-86283834D01*
X163039773Y-86306443D01*
X163031921Y-86328387D01*
X163021956Y-86349457D01*
X163009974Y-86369448D01*
X162996090Y-86388168D01*
X162980438Y-86405438D01*
X162963168Y-86421090D01*
X162944448Y-86434974D01*
X162924457Y-86446956D01*
X162903387Y-86456921D01*
X162881443Y-86464773D01*
X162858834Y-86470437D01*
X162835779Y-86473856D01*
X162812500Y-86475000D01*
X162237500Y-86475000D01*
X162214221Y-86473856D01*
X162191166Y-86470437D01*
X162168557Y-86464773D01*
X162146613Y-86456921D01*
X162125543Y-86446956D01*
X162105552Y-86434974D01*
X162086832Y-86421090D01*
X162069562Y-86405438D01*
X162053910Y-86388168D01*
X162040026Y-86369448D01*
X162028044Y-86349457D01*
X162018079Y-86328387D01*
X162010227Y-86306443D01*
X162004563Y-86283834D01*
X162001144Y-86260779D01*
X162000000Y-86237500D01*
X162000000Y-85762500D01*
X162001144Y-85739221D01*
X162004563Y-85716166D01*
X162010227Y-85693557D01*
X162018079Y-85671613D01*
X162028044Y-85650543D01*
X162040026Y-85630552D01*
X162053910Y-85611832D01*
X162069562Y-85594562D01*
X162086832Y-85578910D01*
X162105552Y-85565026D01*
X162125543Y-85553044D01*
X162146613Y-85543079D01*
X162168557Y-85535227D01*
X162191166Y-85529563D01*
X162214221Y-85526144D01*
X162237500Y-85525000D01*
X162812500Y-85525000D01*
X162835779Y-85526144D01*
X162835779Y-85526144D01*
G37*
D14*
G04 #@! TD*
G04 #@! TO.P,DG3,1*
G04 #@! TO.N,Net-(DG3-Pad1)*
X162525000Y-86000000D03*
D13*
G04 #@! TO.N,+BATT*
G04 #@! TO.C,DY1*
G36*
X122435779Y-116376144D02*
X122458834Y-116379563D01*
X122481443Y-116385227D01*
X122503387Y-116393079D01*
X122524457Y-116403044D01*
X122544448Y-116415026D01*
X122563168Y-116428910D01*
X122580438Y-116444562D01*
X122596090Y-116461832D01*
X122609974Y-116480552D01*
X122621956Y-116500543D01*
X122631921Y-116521613D01*
X122639773Y-116543557D01*
X122645437Y-116566166D01*
X122648856Y-116589221D01*
X122650000Y-116612500D01*
X122650000Y-117087500D01*
X122648856Y-117110779D01*
X122645437Y-117133834D01*
X122639773Y-117156443D01*
X122631921Y-117178387D01*
X122621956Y-117199457D01*
X122609974Y-117219448D01*
X122596090Y-117238168D01*
X122580438Y-117255438D01*
X122563168Y-117271090D01*
X122544448Y-117284974D01*
X122524457Y-117296956D01*
X122503387Y-117306921D01*
X122481443Y-117314773D01*
X122458834Y-117320437D01*
X122435779Y-117323856D01*
X122412500Y-117325000D01*
X121837500Y-117325000D01*
X121814221Y-117323856D01*
X121791166Y-117320437D01*
X121768557Y-117314773D01*
X121746613Y-117306921D01*
X121725543Y-117296956D01*
X121705552Y-117284974D01*
X121686832Y-117271090D01*
X121669562Y-117255438D01*
X121653910Y-117238168D01*
X121640026Y-117219448D01*
X121628044Y-117199457D01*
X121618079Y-117178387D01*
X121610227Y-117156443D01*
X121604563Y-117133834D01*
X121601144Y-117110779D01*
X121600000Y-117087500D01*
X121600000Y-116612500D01*
X121601144Y-116589221D01*
X121604563Y-116566166D01*
X121610227Y-116543557D01*
X121618079Y-116521613D01*
X121628044Y-116500543D01*
X121640026Y-116480552D01*
X121653910Y-116461832D01*
X121669562Y-116444562D01*
X121686832Y-116428910D01*
X121705552Y-116415026D01*
X121725543Y-116403044D01*
X121746613Y-116393079D01*
X121768557Y-116385227D01*
X121791166Y-116379563D01*
X121814221Y-116376144D01*
X121837500Y-116375000D01*
X122412500Y-116375000D01*
X122435779Y-116376144D01*
X122435779Y-116376144D01*
G37*
D14*
G04 #@! TD*
G04 #@! TO.P,DY1,2*
G04 #@! TO.N,+BATT*
X122125000Y-116850000D03*
D13*
G04 #@! TO.N,Net-(DY1-Pad1)*
G04 #@! TO.C,DY1*
G36*
X120685779Y-116376144D02*
X120708834Y-116379563D01*
X120731443Y-116385227D01*
X120753387Y-116393079D01*
X120774457Y-116403044D01*
X120794448Y-116415026D01*
X120813168Y-116428910D01*
X120830438Y-116444562D01*
X120846090Y-116461832D01*
X120859974Y-116480552D01*
X120871956Y-116500543D01*
X120881921Y-116521613D01*
X120889773Y-116543557D01*
X120895437Y-116566166D01*
X120898856Y-116589221D01*
X120900000Y-116612500D01*
X120900000Y-117087500D01*
X120898856Y-117110779D01*
X120895437Y-117133834D01*
X120889773Y-117156443D01*
X120881921Y-117178387D01*
X120871956Y-117199457D01*
X120859974Y-117219448D01*
X120846090Y-117238168D01*
X120830438Y-117255438D01*
X120813168Y-117271090D01*
X120794448Y-117284974D01*
X120774457Y-117296956D01*
X120753387Y-117306921D01*
X120731443Y-117314773D01*
X120708834Y-117320437D01*
X120685779Y-117323856D01*
X120662500Y-117325000D01*
X120087500Y-117325000D01*
X120064221Y-117323856D01*
X120041166Y-117320437D01*
X120018557Y-117314773D01*
X119996613Y-117306921D01*
X119975543Y-117296956D01*
X119955552Y-117284974D01*
X119936832Y-117271090D01*
X119919562Y-117255438D01*
X119903910Y-117238168D01*
X119890026Y-117219448D01*
X119878044Y-117199457D01*
X119868079Y-117178387D01*
X119860227Y-117156443D01*
X119854563Y-117133834D01*
X119851144Y-117110779D01*
X119850000Y-117087500D01*
X119850000Y-116612500D01*
X119851144Y-116589221D01*
X119854563Y-116566166D01*
X119860227Y-116543557D01*
X119868079Y-116521613D01*
X119878044Y-116500543D01*
X119890026Y-116480552D01*
X119903910Y-116461832D01*
X119919562Y-116444562D01*
X119936832Y-116428910D01*
X119955552Y-116415026D01*
X119975543Y-116403044D01*
X119996613Y-116393079D01*
X120018557Y-116385227D01*
X120041166Y-116379563D01*
X120064221Y-116376144D01*
X120087500Y-116375000D01*
X120662500Y-116375000D01*
X120685779Y-116376144D01*
X120685779Y-116376144D01*
G37*
D14*
G04 #@! TD*
G04 #@! TO.P,DY1,1*
G04 #@! TO.N,Net-(DY1-Pad1)*
X120375000Y-116850000D03*
D13*
G04 #@! TO.N,+BATT*
G04 #@! TO.C,DR3*
G36*
X141360779Y-97401144D02*
X141383834Y-97404563D01*
X141406443Y-97410227D01*
X141428387Y-97418079D01*
X141449457Y-97428044D01*
X141469448Y-97440026D01*
X141488168Y-97453910D01*
X141505438Y-97469562D01*
X141521090Y-97486832D01*
X141534974Y-97505552D01*
X141546956Y-97525543D01*
X141556921Y-97546613D01*
X141564773Y-97568557D01*
X141570437Y-97591166D01*
X141573856Y-97614221D01*
X141575000Y-97637500D01*
X141575000Y-98112500D01*
X141573856Y-98135779D01*
X141570437Y-98158834D01*
X141564773Y-98181443D01*
X141556921Y-98203387D01*
X141546956Y-98224457D01*
X141534974Y-98244448D01*
X141521090Y-98263168D01*
X141505438Y-98280438D01*
X141488168Y-98296090D01*
X141469448Y-98309974D01*
X141449457Y-98321956D01*
X141428387Y-98331921D01*
X141406443Y-98339773D01*
X141383834Y-98345437D01*
X141360779Y-98348856D01*
X141337500Y-98350000D01*
X140762500Y-98350000D01*
X140739221Y-98348856D01*
X140716166Y-98345437D01*
X140693557Y-98339773D01*
X140671613Y-98331921D01*
X140650543Y-98321956D01*
X140630552Y-98309974D01*
X140611832Y-98296090D01*
X140594562Y-98280438D01*
X140578910Y-98263168D01*
X140565026Y-98244448D01*
X140553044Y-98224457D01*
X140543079Y-98203387D01*
X140535227Y-98181443D01*
X140529563Y-98158834D01*
X140526144Y-98135779D01*
X140525000Y-98112500D01*
X140525000Y-97637500D01*
X140526144Y-97614221D01*
X140529563Y-97591166D01*
X140535227Y-97568557D01*
X140543079Y-97546613D01*
X140553044Y-97525543D01*
X140565026Y-97505552D01*
X140578910Y-97486832D01*
X140594562Y-97469562D01*
X140611832Y-97453910D01*
X140630552Y-97440026D01*
X140650543Y-97428044D01*
X140671613Y-97418079D01*
X140693557Y-97410227D01*
X140716166Y-97404563D01*
X140739221Y-97401144D01*
X140762500Y-97400000D01*
X141337500Y-97400000D01*
X141360779Y-97401144D01*
X141360779Y-97401144D01*
G37*
D14*
G04 #@! TD*
G04 #@! TO.P,DR3,2*
G04 #@! TO.N,+BATT*
X141050000Y-97875000D03*
D13*
G04 #@! TO.N,Net-(DR3-Pad1)*
G04 #@! TO.C,DR3*
G36*
X139610779Y-97401144D02*
X139633834Y-97404563D01*
X139656443Y-97410227D01*
X139678387Y-97418079D01*
X139699457Y-97428044D01*
X139719448Y-97440026D01*
X139738168Y-97453910D01*
X139755438Y-97469562D01*
X139771090Y-97486832D01*
X139784974Y-97505552D01*
X139796956Y-97525543D01*
X139806921Y-97546613D01*
X139814773Y-97568557D01*
X139820437Y-97591166D01*
X139823856Y-97614221D01*
X139825000Y-97637500D01*
X139825000Y-98112500D01*
X139823856Y-98135779D01*
X139820437Y-98158834D01*
X139814773Y-98181443D01*
X139806921Y-98203387D01*
X139796956Y-98224457D01*
X139784974Y-98244448D01*
X139771090Y-98263168D01*
X139755438Y-98280438D01*
X139738168Y-98296090D01*
X139719448Y-98309974D01*
X139699457Y-98321956D01*
X139678387Y-98331921D01*
X139656443Y-98339773D01*
X139633834Y-98345437D01*
X139610779Y-98348856D01*
X139587500Y-98350000D01*
X139012500Y-98350000D01*
X138989221Y-98348856D01*
X138966166Y-98345437D01*
X138943557Y-98339773D01*
X138921613Y-98331921D01*
X138900543Y-98321956D01*
X138880552Y-98309974D01*
X138861832Y-98296090D01*
X138844562Y-98280438D01*
X138828910Y-98263168D01*
X138815026Y-98244448D01*
X138803044Y-98224457D01*
X138793079Y-98203387D01*
X138785227Y-98181443D01*
X138779563Y-98158834D01*
X138776144Y-98135779D01*
X138775000Y-98112500D01*
X138775000Y-97637500D01*
X138776144Y-97614221D01*
X138779563Y-97591166D01*
X138785227Y-97568557D01*
X138793079Y-97546613D01*
X138803044Y-97525543D01*
X138815026Y-97505552D01*
X138828910Y-97486832D01*
X138844562Y-97469562D01*
X138861832Y-97453910D01*
X138880552Y-97440026D01*
X138900543Y-97428044D01*
X138921613Y-97418079D01*
X138943557Y-97410227D01*
X138966166Y-97404563D01*
X138989221Y-97401144D01*
X139012500Y-97400000D01*
X139587500Y-97400000D01*
X139610779Y-97401144D01*
X139610779Y-97401144D01*
G37*
D14*
G04 #@! TD*
G04 #@! TO.P,DR3,1*
G04 #@! TO.N,Net-(DR3-Pad1)*
X139300000Y-97875000D03*
D13*
G04 #@! TO.N,+BATT*
G04 #@! TO.C,DG5*
G36*
X127535779Y-67526144D02*
X127558834Y-67529563D01*
X127581443Y-67535227D01*
X127603387Y-67543079D01*
X127624457Y-67553044D01*
X127644448Y-67565026D01*
X127663168Y-67578910D01*
X127680438Y-67594562D01*
X127696090Y-67611832D01*
X127709974Y-67630552D01*
X127721956Y-67650543D01*
X127731921Y-67671613D01*
X127739773Y-67693557D01*
X127745437Y-67716166D01*
X127748856Y-67739221D01*
X127750000Y-67762500D01*
X127750000Y-68237500D01*
X127748856Y-68260779D01*
X127745437Y-68283834D01*
X127739773Y-68306443D01*
X127731921Y-68328387D01*
X127721956Y-68349457D01*
X127709974Y-68369448D01*
X127696090Y-68388168D01*
X127680438Y-68405438D01*
X127663168Y-68421090D01*
X127644448Y-68434974D01*
X127624457Y-68446956D01*
X127603387Y-68456921D01*
X127581443Y-68464773D01*
X127558834Y-68470437D01*
X127535779Y-68473856D01*
X127512500Y-68475000D01*
X126937500Y-68475000D01*
X126914221Y-68473856D01*
X126891166Y-68470437D01*
X126868557Y-68464773D01*
X126846613Y-68456921D01*
X126825543Y-68446956D01*
X126805552Y-68434974D01*
X126786832Y-68421090D01*
X126769562Y-68405438D01*
X126753910Y-68388168D01*
X126740026Y-68369448D01*
X126728044Y-68349457D01*
X126718079Y-68328387D01*
X126710227Y-68306443D01*
X126704563Y-68283834D01*
X126701144Y-68260779D01*
X126700000Y-68237500D01*
X126700000Y-67762500D01*
X126701144Y-67739221D01*
X126704563Y-67716166D01*
X126710227Y-67693557D01*
X126718079Y-67671613D01*
X126728044Y-67650543D01*
X126740026Y-67630552D01*
X126753910Y-67611832D01*
X126769562Y-67594562D01*
X126786832Y-67578910D01*
X126805552Y-67565026D01*
X126825543Y-67553044D01*
X126846613Y-67543079D01*
X126868557Y-67535227D01*
X126891166Y-67529563D01*
X126914221Y-67526144D01*
X126937500Y-67525000D01*
X127512500Y-67525000D01*
X127535779Y-67526144D01*
X127535779Y-67526144D01*
G37*
D14*
G04 #@! TD*
G04 #@! TO.P,DG5,2*
G04 #@! TO.N,+BATT*
X127225000Y-68000000D03*
D13*
G04 #@! TO.N,Net-(DG5-Pad1)*
G04 #@! TO.C,DG5*
G36*
X129285779Y-67526144D02*
X129308834Y-67529563D01*
X129331443Y-67535227D01*
X129353387Y-67543079D01*
X129374457Y-67553044D01*
X129394448Y-67565026D01*
X129413168Y-67578910D01*
X129430438Y-67594562D01*
X129446090Y-67611832D01*
X129459974Y-67630552D01*
X129471956Y-67650543D01*
X129481921Y-67671613D01*
X129489773Y-67693557D01*
X129495437Y-67716166D01*
X129498856Y-67739221D01*
X129500000Y-67762500D01*
X129500000Y-68237500D01*
X129498856Y-68260779D01*
X129495437Y-68283834D01*
X129489773Y-68306443D01*
X129481921Y-68328387D01*
X129471956Y-68349457D01*
X129459974Y-68369448D01*
X129446090Y-68388168D01*
X129430438Y-68405438D01*
X129413168Y-68421090D01*
X129394448Y-68434974D01*
X129374457Y-68446956D01*
X129353387Y-68456921D01*
X129331443Y-68464773D01*
X129308834Y-68470437D01*
X129285779Y-68473856D01*
X129262500Y-68475000D01*
X128687500Y-68475000D01*
X128664221Y-68473856D01*
X128641166Y-68470437D01*
X128618557Y-68464773D01*
X128596613Y-68456921D01*
X128575543Y-68446956D01*
X128555552Y-68434974D01*
X128536832Y-68421090D01*
X128519562Y-68405438D01*
X128503910Y-68388168D01*
X128490026Y-68369448D01*
X128478044Y-68349457D01*
X128468079Y-68328387D01*
X128460227Y-68306443D01*
X128454563Y-68283834D01*
X128451144Y-68260779D01*
X128450000Y-68237500D01*
X128450000Y-67762500D01*
X128451144Y-67739221D01*
X128454563Y-67716166D01*
X128460227Y-67693557D01*
X128468079Y-67671613D01*
X128478044Y-67650543D01*
X128490026Y-67630552D01*
X128503910Y-67611832D01*
X128519562Y-67594562D01*
X128536832Y-67578910D01*
X128555552Y-67565026D01*
X128575543Y-67553044D01*
X128596613Y-67543079D01*
X128618557Y-67535227D01*
X128641166Y-67529563D01*
X128664221Y-67526144D01*
X128687500Y-67525000D01*
X129262500Y-67525000D01*
X129285779Y-67526144D01*
X129285779Y-67526144D01*
G37*
D14*
G04 #@! TD*
G04 #@! TO.P,DG5,1*
G04 #@! TO.N,Net-(DG5-Pad1)*
X128975000Y-68000000D03*
D13*
G04 #@! TO.N,/BATT2*
G04 #@! TO.C,DG1*
G36*
X184835779Y-90626144D02*
X184858834Y-90629563D01*
X184881443Y-90635227D01*
X184903387Y-90643079D01*
X184924457Y-90653044D01*
X184944448Y-90665026D01*
X184963168Y-90678910D01*
X184980438Y-90694562D01*
X184996090Y-90711832D01*
X185009974Y-90730552D01*
X185021956Y-90750543D01*
X185031921Y-90771613D01*
X185039773Y-90793557D01*
X185045437Y-90816166D01*
X185048856Y-90839221D01*
X185050000Y-90862500D01*
X185050000Y-91337500D01*
X185048856Y-91360779D01*
X185045437Y-91383834D01*
X185039773Y-91406443D01*
X185031921Y-91428387D01*
X185021956Y-91449457D01*
X185009974Y-91469448D01*
X184996090Y-91488168D01*
X184980438Y-91505438D01*
X184963168Y-91521090D01*
X184944448Y-91534974D01*
X184924457Y-91546956D01*
X184903387Y-91556921D01*
X184881443Y-91564773D01*
X184858834Y-91570437D01*
X184835779Y-91573856D01*
X184812500Y-91575000D01*
X184237500Y-91575000D01*
X184214221Y-91573856D01*
X184191166Y-91570437D01*
X184168557Y-91564773D01*
X184146613Y-91556921D01*
X184125543Y-91546956D01*
X184105552Y-91534974D01*
X184086832Y-91521090D01*
X184069562Y-91505438D01*
X184053910Y-91488168D01*
X184040026Y-91469448D01*
X184028044Y-91449457D01*
X184018079Y-91428387D01*
X184010227Y-91406443D01*
X184004563Y-91383834D01*
X184001144Y-91360779D01*
X184000000Y-91337500D01*
X184000000Y-90862500D01*
X184001144Y-90839221D01*
X184004563Y-90816166D01*
X184010227Y-90793557D01*
X184018079Y-90771613D01*
X184028044Y-90750543D01*
X184040026Y-90730552D01*
X184053910Y-90711832D01*
X184069562Y-90694562D01*
X184086832Y-90678910D01*
X184105552Y-90665026D01*
X184125543Y-90653044D01*
X184146613Y-90643079D01*
X184168557Y-90635227D01*
X184191166Y-90629563D01*
X184214221Y-90626144D01*
X184237500Y-90625000D01*
X184812500Y-90625000D01*
X184835779Y-90626144D01*
X184835779Y-90626144D01*
G37*
D14*
G04 #@! TD*
G04 #@! TO.P,DG1,2*
G04 #@! TO.N,/BATT2*
X184525000Y-91100000D03*
D13*
G04 #@! TO.N,Net-(DG1-Pad1)*
G04 #@! TO.C,DG1*
G36*
X183085779Y-90626144D02*
X183108834Y-90629563D01*
X183131443Y-90635227D01*
X183153387Y-90643079D01*
X183174457Y-90653044D01*
X183194448Y-90665026D01*
X183213168Y-90678910D01*
X183230438Y-90694562D01*
X183246090Y-90711832D01*
X183259974Y-90730552D01*
X183271956Y-90750543D01*
X183281921Y-90771613D01*
X183289773Y-90793557D01*
X183295437Y-90816166D01*
X183298856Y-90839221D01*
X183300000Y-90862500D01*
X183300000Y-91337500D01*
X183298856Y-91360779D01*
X183295437Y-91383834D01*
X183289773Y-91406443D01*
X183281921Y-91428387D01*
X183271956Y-91449457D01*
X183259974Y-91469448D01*
X183246090Y-91488168D01*
X183230438Y-91505438D01*
X183213168Y-91521090D01*
X183194448Y-91534974D01*
X183174457Y-91546956D01*
X183153387Y-91556921D01*
X183131443Y-91564773D01*
X183108834Y-91570437D01*
X183085779Y-91573856D01*
X183062500Y-91575000D01*
X182487500Y-91575000D01*
X182464221Y-91573856D01*
X182441166Y-91570437D01*
X182418557Y-91564773D01*
X182396613Y-91556921D01*
X182375543Y-91546956D01*
X182355552Y-91534974D01*
X182336832Y-91521090D01*
X182319562Y-91505438D01*
X182303910Y-91488168D01*
X182290026Y-91469448D01*
X182278044Y-91449457D01*
X182268079Y-91428387D01*
X182260227Y-91406443D01*
X182254563Y-91383834D01*
X182251144Y-91360779D01*
X182250000Y-91337500D01*
X182250000Y-90862500D01*
X182251144Y-90839221D01*
X182254563Y-90816166D01*
X182260227Y-90793557D01*
X182268079Y-90771613D01*
X182278044Y-90750543D01*
X182290026Y-90730552D01*
X182303910Y-90711832D01*
X182319562Y-90694562D01*
X182336832Y-90678910D01*
X182355552Y-90665026D01*
X182375543Y-90653044D01*
X182396613Y-90643079D01*
X182418557Y-90635227D01*
X182441166Y-90629563D01*
X182464221Y-90626144D01*
X182487500Y-90625000D01*
X183062500Y-90625000D01*
X183085779Y-90626144D01*
X183085779Y-90626144D01*
G37*
D14*
G04 #@! TD*
G04 #@! TO.P,DG1,1*
G04 #@! TO.N,Net-(DG1-Pad1)*
X182775000Y-91100000D03*
D13*
G04 #@! TO.N,/BATT2*
G04 #@! TO.C,DY6*
G36*
X195560779Y-52476144D02*
X195583834Y-52479563D01*
X195606443Y-52485227D01*
X195628387Y-52493079D01*
X195649457Y-52503044D01*
X195669448Y-52515026D01*
X195688168Y-52528910D01*
X195705438Y-52544562D01*
X195721090Y-52561832D01*
X195734974Y-52580552D01*
X195746956Y-52600543D01*
X195756921Y-52621613D01*
X195764773Y-52643557D01*
X195770437Y-52666166D01*
X195773856Y-52689221D01*
X195775000Y-52712500D01*
X195775000Y-53187500D01*
X195773856Y-53210779D01*
X195770437Y-53233834D01*
X195764773Y-53256443D01*
X195756921Y-53278387D01*
X195746956Y-53299457D01*
X195734974Y-53319448D01*
X195721090Y-53338168D01*
X195705438Y-53355438D01*
X195688168Y-53371090D01*
X195669448Y-53384974D01*
X195649457Y-53396956D01*
X195628387Y-53406921D01*
X195606443Y-53414773D01*
X195583834Y-53420437D01*
X195560779Y-53423856D01*
X195537500Y-53425000D01*
X194962500Y-53425000D01*
X194939221Y-53423856D01*
X194916166Y-53420437D01*
X194893557Y-53414773D01*
X194871613Y-53406921D01*
X194850543Y-53396956D01*
X194830552Y-53384974D01*
X194811832Y-53371090D01*
X194794562Y-53355438D01*
X194778910Y-53338168D01*
X194765026Y-53319448D01*
X194753044Y-53299457D01*
X194743079Y-53278387D01*
X194735227Y-53256443D01*
X194729563Y-53233834D01*
X194726144Y-53210779D01*
X194725000Y-53187500D01*
X194725000Y-52712500D01*
X194726144Y-52689221D01*
X194729563Y-52666166D01*
X194735227Y-52643557D01*
X194743079Y-52621613D01*
X194753044Y-52600543D01*
X194765026Y-52580552D01*
X194778910Y-52561832D01*
X194794562Y-52544562D01*
X194811832Y-52528910D01*
X194830552Y-52515026D01*
X194850543Y-52503044D01*
X194871613Y-52493079D01*
X194893557Y-52485227D01*
X194916166Y-52479563D01*
X194939221Y-52476144D01*
X194962500Y-52475000D01*
X195537500Y-52475000D01*
X195560779Y-52476144D01*
X195560779Y-52476144D01*
G37*
D14*
G04 #@! TD*
G04 #@! TO.P,DY6,2*
G04 #@! TO.N,/BATT2*
X195250000Y-52950000D03*
D13*
G04 #@! TO.N,Net-(DY6-Pad1)*
G04 #@! TO.C,DY6*
G36*
X193810779Y-52476144D02*
X193833834Y-52479563D01*
X193856443Y-52485227D01*
X193878387Y-52493079D01*
X193899457Y-52503044D01*
X193919448Y-52515026D01*
X193938168Y-52528910D01*
X193955438Y-52544562D01*
X193971090Y-52561832D01*
X193984974Y-52580552D01*
X193996956Y-52600543D01*
X194006921Y-52621613D01*
X194014773Y-52643557D01*
X194020437Y-52666166D01*
X194023856Y-52689221D01*
X194025000Y-52712500D01*
X194025000Y-53187500D01*
X194023856Y-53210779D01*
X194020437Y-53233834D01*
X194014773Y-53256443D01*
X194006921Y-53278387D01*
X193996956Y-53299457D01*
X193984974Y-53319448D01*
X193971090Y-53338168D01*
X193955438Y-53355438D01*
X193938168Y-53371090D01*
X193919448Y-53384974D01*
X193899457Y-53396956D01*
X193878387Y-53406921D01*
X193856443Y-53414773D01*
X193833834Y-53420437D01*
X193810779Y-53423856D01*
X193787500Y-53425000D01*
X193212500Y-53425000D01*
X193189221Y-53423856D01*
X193166166Y-53420437D01*
X193143557Y-53414773D01*
X193121613Y-53406921D01*
X193100543Y-53396956D01*
X193080552Y-53384974D01*
X193061832Y-53371090D01*
X193044562Y-53355438D01*
X193028910Y-53338168D01*
X193015026Y-53319448D01*
X193003044Y-53299457D01*
X192993079Y-53278387D01*
X192985227Y-53256443D01*
X192979563Y-53233834D01*
X192976144Y-53210779D01*
X192975000Y-53187500D01*
X192975000Y-52712500D01*
X192976144Y-52689221D01*
X192979563Y-52666166D01*
X192985227Y-52643557D01*
X192993079Y-52621613D01*
X193003044Y-52600543D01*
X193015026Y-52580552D01*
X193028910Y-52561832D01*
X193044562Y-52544562D01*
X193061832Y-52528910D01*
X193080552Y-52515026D01*
X193100543Y-52503044D01*
X193121613Y-52493079D01*
X193143557Y-52485227D01*
X193166166Y-52479563D01*
X193189221Y-52476144D01*
X193212500Y-52475000D01*
X193787500Y-52475000D01*
X193810779Y-52476144D01*
X193810779Y-52476144D01*
G37*
D14*
G04 #@! TD*
G04 #@! TO.P,DY6,1*
G04 #@! TO.N,Net-(DY6-Pad1)*
X193500000Y-52950000D03*
D15*
G04 #@! TO.P,TP2,1*
G04 #@! TO.N,GND*
X134400000Y-79500000D03*
G04 #@! TD*
G04 #@! TO.P,TP5,1*
G04 #@! TO.N,/LED_RED2*
X171800000Y-68200000D03*
G04 #@! TD*
G04 #@! TO.P,TP8,1*
G04 #@! TO.N,/LED_YEL2*
X171800000Y-80000000D03*
G04 #@! TD*
G04 #@! TO.P,TP9,1*
G04 #@! TO.N,/LED_GRN1*
X171800000Y-74100000D03*
G04 #@! TD*
D16*
G04 #@! TO.N,GND*
X148100000Y-141500000D03*
X136500000Y-79500000D03*
X122100000Y-147200000D03*
G04 #@! TO.N,+BATT*
X139500000Y-147100000D03*
X143300000Y-120900000D03*
X136700000Y-146800000D03*
X119700000Y-146500000D03*
X125600000Y-90900000D03*
X111900000Y-135500000D03*
X154275000Y-146975000D03*
X102987616Y-148712384D03*
X107300000Y-142800000D03*
X116100000Y-129700000D03*
X139200000Y-77800000D03*
G04 #@! TO.N,Net-(J1-Pad4)*
X111559999Y-138000000D03*
X111500000Y-145000000D03*
G04 #@! TO.N,Net-(Q1-Pad3)*
X179600000Y-74100000D03*
X179600000Y-94800000D03*
X165950000Y-84350000D03*
X148200000Y-52700000D03*
X163265685Y-81100000D03*
G04 #@! TO.N,Net-(Q2-Pad3)*
X117100000Y-128000004D03*
X124700000Y-142025010D03*
X127200008Y-77800000D03*
G04 #@! TO.N,Net-(Q3-Pad3)*
X138900000Y-93900000D03*
G04 #@! TO.N,Net-(Q4-Pad3)*
X179900000Y-68100000D03*
X171100000Y-96100000D03*
G04 #@! TO.N,/LED_YEL1*
X115100000Y-147800000D03*
G04 #@! TO.N,Net-(Q5-Pad3)*
X130550000Y-144350000D03*
X132900000Y-142000000D03*
G04 #@! TO.N,Net-(Q6-Pad3)*
X174700000Y-124800000D03*
X174500000Y-110500000D03*
X180600000Y-80000000D03*
X196900000Y-51300000D03*
G04 #@! TO.N,Net-(R25-Pad1)*
X119600000Y-142600000D03*
G04 #@! TO.N,Net-(TP7-Pad1)*
X114700000Y-142400000D03*
X119000000Y-121800000D03*
G04 #@! TO.N,/BATT2*
X146500000Y-55400000D03*
X152400000Y-52500000D03*
X156300000Y-78300000D03*
X174700000Y-129100000D03*
X186200000Y-61100000D03*
X163500000Y-113200000D03*
X171900000Y-55400000D03*
G04 #@! TO.N,/GND2*
X176600000Y-66100000D03*
X174700000Y-72000000D03*
X174700000Y-77800000D03*
G04 #@! TD*
D17*
G04 #@! TO.N,GND*
X147175000Y-141450000D02*
X147225000Y-141500000D01*
X146600000Y-141450000D02*
X147175000Y-141450000D01*
X147225000Y-141500000D02*
X148100000Y-141500000D01*
X148100000Y-141500000D02*
X148100000Y-141500000D01*
X134400000Y-79500000D02*
X136500000Y-79500000D01*
X136150000Y-79500000D02*
X136500000Y-79500000D01*
X136500000Y-79500000D02*
X136150000Y-79500000D01*
X125650000Y-147825000D02*
X125800000Y-147975000D01*
X125650000Y-146350000D02*
X125650000Y-147825000D01*
X125650000Y-146350000D02*
X122950000Y-146350000D01*
X122950000Y-146350000D02*
X122100000Y-147200000D01*
X122100000Y-147200000D02*
X122100000Y-147200000D01*
G04 #@! TO.N,Net-(J1-Pad4)*
X111559999Y-138000000D02*
X111559999Y-137940001D01*
X111500000Y-145000000D02*
X111500000Y-145000000D01*
X111500000Y-145000000D02*
X111559999Y-138000000D01*
G04 #@! TO.N,Net-(Q1-Pad3)*
X178400000Y-74100000D02*
X179600000Y-74100000D01*
X179600000Y-74100000D02*
X179600000Y-74100000D01*
X180165685Y-94800000D02*
X179600000Y-94800000D01*
X183000000Y-94800000D02*
X180165685Y-94800000D01*
X184525000Y-93275000D02*
X183000000Y-94800000D01*
X184525000Y-92700000D02*
X184525000Y-93275000D01*
X164275000Y-84350000D02*
X165950000Y-84350000D01*
X165950000Y-84350000D02*
X165950000Y-84350000D01*
X148200000Y-52700000D02*
X148200000Y-52700000D01*
X153900000Y-81100000D02*
X163265685Y-81100000D01*
X151400000Y-78600000D02*
X153900000Y-81100000D01*
X151400000Y-55900000D02*
X151400000Y-78600000D01*
X148200000Y-52700000D02*
X151400000Y-55900000D01*
G04 #@! TO.N,/LED_GRN1*
X174775000Y-75050000D02*
X174700000Y-74975000D01*
X176400000Y-75050000D02*
X174775000Y-75050000D01*
X172675000Y-74975000D02*
X171800000Y-74100000D01*
X174700000Y-74975000D02*
X172675000Y-74975000D01*
G04 #@! TO.N,Net-(Q2-Pad3)*
X129300000Y-127975000D02*
X129275000Y-128000000D01*
X129275000Y-128000000D02*
X129274996Y-128000004D01*
X129274996Y-128000004D02*
X117665685Y-128000004D01*
X117665685Y-128000004D02*
X117100000Y-128000004D01*
X129300000Y-137425010D02*
X125099999Y-141625011D01*
X129275000Y-128000000D02*
X129300000Y-128025000D01*
X129300000Y-128025000D02*
X129300000Y-137425010D01*
X125099999Y-141625011D02*
X124700000Y-142025010D01*
X127225000Y-77775008D02*
X127200008Y-77800000D01*
X127225000Y-69600000D02*
X127225000Y-77775008D01*
G04 #@! TO.N,Net-(Q3-Pad3)*
X141050000Y-96175000D02*
X141050000Y-94950000D01*
X140000000Y-93900000D02*
X138900000Y-93900000D01*
X141050000Y-94950000D02*
X140000000Y-93900000D01*
G04 #@! TO.N,Net-(Q4-Pad3)*
X178600000Y-68150000D02*
X179900000Y-68100000D01*
X179900000Y-68100000D02*
X179850000Y-68150000D01*
X158600000Y-123300000D02*
X158600000Y-122300000D01*
X171100000Y-96100000D02*
X171100000Y-110500000D01*
X161500000Y-123900000D02*
X159200000Y-123900000D01*
X162600000Y-122800000D02*
X161500000Y-123900000D01*
X159200000Y-123900000D02*
X158600000Y-123300000D01*
X162600000Y-119000000D02*
X162600000Y-122800000D01*
X171100000Y-110500000D02*
X162600000Y-119000000D01*
G04 #@! TO.N,/LED_RED2*
X176575000Y-69075000D02*
X176600000Y-69100000D01*
X174700000Y-69075000D02*
X176575000Y-69075000D01*
X172675000Y-69075000D02*
X171800000Y-68200000D01*
X174700000Y-69075000D02*
X172675000Y-69075000D01*
G04 #@! TO.N,/LED_YEL1*
X127550000Y-146350000D02*
X127550000Y-147975000D01*
X127550000Y-148550000D02*
X127100000Y-149000000D01*
X127550000Y-147975000D02*
X127550000Y-148550000D01*
X116300000Y-149000000D02*
X115100000Y-147800000D01*
X127100000Y-149000000D02*
X116300000Y-149000000D01*
G04 #@! TO.N,Net-(Q5-Pad3)*
X126600000Y-144350000D02*
X130550000Y-144350000D01*
X130550000Y-144350000D02*
X130550000Y-144350000D01*
X140500000Y-128400000D02*
X143125000Y-128400000D01*
X139200000Y-129700000D02*
X140500000Y-128400000D01*
X139200000Y-135700000D02*
X139200000Y-129700000D01*
X132900000Y-142000000D02*
X139200000Y-135700000D01*
X122700000Y-115050000D02*
X122750000Y-115000000D01*
X122075000Y-115050000D02*
X122700000Y-115050000D01*
X127100000Y-115000000D02*
X140500000Y-128400000D01*
X122750000Y-115000000D02*
X127100000Y-115000000D01*
G04 #@! TO.N,/LED_YEL2*
X176400000Y-80950000D02*
X174700000Y-80950000D01*
X172750000Y-80950000D02*
X171800000Y-80000000D01*
X174700000Y-80950000D02*
X172750000Y-80950000D01*
G04 #@! TO.N,Net-(Q6-Pad3)*
X174700000Y-124700000D02*
X174700000Y-124800000D01*
X174500000Y-124500000D02*
X174700000Y-124700000D01*
X174500000Y-110500000D02*
X174500000Y-124500000D01*
X178400000Y-80650000D02*
X178400000Y-80000000D01*
X178400000Y-104000000D02*
X178400000Y-80650000D01*
X174500000Y-107900000D02*
X178400000Y-104000000D01*
X174500000Y-110500000D02*
X174500000Y-107900000D01*
X178400000Y-80000000D02*
X180600000Y-80000000D01*
X180600000Y-80000000D02*
X180600000Y-80000000D01*
X196850000Y-51250000D02*
X196900000Y-51300000D01*
X195225000Y-51250000D02*
X196850000Y-51250000D01*
G04 #@! TO.N,Net-(R25-Pad1)*
X155550000Y-143250000D02*
X148625000Y-143250000D01*
X156575000Y-143250000D02*
X155550000Y-143250000D01*
X146650000Y-143250000D02*
X146600000Y-143200000D01*
X148625000Y-143250000D02*
X146650000Y-143250000D01*
X119600000Y-142600000D02*
X119700000Y-142600000D01*
X120200000Y-143200000D02*
X119600000Y-142600000D01*
X146600000Y-143200000D02*
X120200000Y-143200000D01*
G04 #@! TO.N,Net-(DG1-Pad1)*
X182775000Y-91100000D02*
X182775000Y-92700000D01*
G04 #@! TO.N,Net-(DG3-Pad1)*
X162525000Y-84350000D02*
X162525000Y-86000000D01*
G04 #@! TO.N,Net-(DG5-Pad1)*
X128975000Y-69600000D02*
X128975000Y-68000000D01*
G04 #@! TO.N,Net-(DR3-Pad1)*
X139300000Y-96175000D02*
X139300000Y-97875000D01*
G04 #@! TO.N,Net-(DR5-Pad1)*
X160350000Y-120725000D02*
X160375000Y-120700000D01*
X160350000Y-122300000D02*
X160350000Y-120725000D01*
G04 #@! TO.N,Net-(DY1-Pad1)*
X120325000Y-116800000D02*
X120375000Y-116850000D01*
X120325000Y-115050000D02*
X120325000Y-116800000D01*
G04 #@! TO.N,Net-(DY3-Pad1)*
X144875000Y-128400000D02*
X144875000Y-130100000D01*
G04 #@! TO.N,Net-(DY6-Pad1)*
X193475000Y-52925000D02*
X193500000Y-52950000D01*
X193475000Y-51250000D02*
X193475000Y-52925000D01*
G04 #@! TO.N,Net-(TP7-Pad1)*
X114700000Y-126100000D02*
X118600001Y-122199999D01*
X118600001Y-122199999D02*
X119000000Y-121800000D01*
X114700000Y-142400000D02*
X114700000Y-126100000D01*
G04 #@! TO.N,/GND2*
X176475000Y-67325000D02*
X176600000Y-67200000D01*
X174700000Y-67325000D02*
X176475000Y-67325000D01*
X176600000Y-67200000D02*
X176600000Y-66100000D01*
X176600000Y-66550000D02*
X176600000Y-66100000D01*
X176600000Y-66100000D02*
X176600000Y-66550000D01*
X174775000Y-73150000D02*
X174700000Y-73225000D01*
X176400000Y-73150000D02*
X174775000Y-73150000D01*
X174700000Y-73225000D02*
X174700000Y-72000000D01*
X174700000Y-72000000D02*
X174700000Y-72000000D01*
X174850000Y-79050000D02*
X174700000Y-79200000D01*
X176400000Y-79050000D02*
X174850000Y-79050000D01*
X174700000Y-79200000D02*
X174700000Y-77800000D01*
X174700000Y-77800000D02*
X174700000Y-77800000D01*
G04 #@! TD*
D18*
G04 #@! TO.N,+BATT*
G36*
X129690000Y-67004289D02*
X129601152Y-66944922D01*
X129262500Y-66877560D01*
X128687500Y-66877560D01*
X128348848Y-66944922D01*
X128180460Y-67057435D01*
X128109698Y-66986673D01*
X127876309Y-66890000D01*
X127510750Y-66890000D01*
X127352000Y-67048750D01*
X127352000Y-67873000D01*
X127372000Y-67873000D01*
X127372000Y-68127000D01*
X127352000Y-68127000D01*
X127352000Y-68147000D01*
X127098000Y-68147000D01*
X127098000Y-68127000D01*
X126223750Y-68127000D01*
X126065000Y-68285750D01*
X126065000Y-68601310D01*
X126161673Y-68834699D01*
X126212408Y-68885433D01*
X126119922Y-69023848D01*
X126052560Y-69362500D01*
X126052560Y-69837500D01*
X126119922Y-70176152D01*
X126311753Y-70463247D01*
X126465000Y-70565644D01*
X126465001Y-77071296D01*
X126322577Y-77213720D01*
X126165008Y-77594126D01*
X126165008Y-78005874D01*
X126322577Y-78386280D01*
X126613728Y-78677431D01*
X126994134Y-78835000D01*
X127405882Y-78835000D01*
X127786288Y-78677431D01*
X128077439Y-78386280D01*
X128235008Y-78005874D01*
X128235008Y-77594126D01*
X128077439Y-77213720D01*
X127985000Y-77121281D01*
X127985000Y-70565644D01*
X128100000Y-70488803D01*
X128348848Y-70655078D01*
X128687500Y-70722440D01*
X129262500Y-70722440D01*
X129601152Y-70655078D01*
X129690000Y-70595711D01*
X129690001Y-107569926D01*
X129703642Y-107638504D01*
X129703642Y-107638513D01*
X129772150Y-107982928D01*
X129772151Y-107982930D01*
X129878165Y-108238871D01*
X130073261Y-108530852D01*
X130203853Y-108661443D01*
X130269148Y-108726739D01*
X130561130Y-108921835D01*
X130726523Y-108990343D01*
X130817072Y-109027850D01*
X131161486Y-109096358D01*
X131438513Y-109096358D01*
X131782928Y-109027850D01*
X131888943Y-108983937D01*
X132038871Y-108921835D01*
X132330852Y-108726739D01*
X132461443Y-108596147D01*
X132526739Y-108530852D01*
X132721835Y-108238870D01*
X132815857Y-108011881D01*
X132827850Y-107982928D01*
X132896358Y-107638514D01*
X132896358Y-107638509D01*
X132910000Y-107569926D01*
X132910000Y-93694126D01*
X137865000Y-93694126D01*
X137865000Y-94105874D01*
X138022569Y-94486280D01*
X138313720Y-94777431D01*
X138694126Y-94935000D01*
X139105874Y-94935000D01*
X139486280Y-94777431D01*
X139603711Y-94660000D01*
X139685199Y-94660000D01*
X140256763Y-95231565D01*
X140175000Y-95286197D01*
X139926152Y-95119922D01*
X139587500Y-95052560D01*
X139012500Y-95052560D01*
X138673848Y-95119922D01*
X138386753Y-95311753D01*
X138194922Y-95598848D01*
X138127560Y-95937500D01*
X138127560Y-96412500D01*
X138194922Y-96751152D01*
X138377902Y-97025000D01*
X138194922Y-97298848D01*
X138127560Y-97637500D01*
X138127560Y-98112500D01*
X138194922Y-98451152D01*
X138386753Y-98738247D01*
X138673848Y-98930078D01*
X139012500Y-98997440D01*
X139587500Y-98997440D01*
X139926152Y-98930078D01*
X140094540Y-98817565D01*
X140165302Y-98888327D01*
X140398691Y-98985000D01*
X140764250Y-98985000D01*
X140923000Y-98826250D01*
X140923000Y-98002000D01*
X141177000Y-98002000D01*
X141177000Y-98826250D01*
X141335750Y-98985000D01*
X141701309Y-98985000D01*
X141934698Y-98888327D01*
X142113327Y-98709699D01*
X142210000Y-98476310D01*
X142210000Y-98160750D01*
X142051250Y-98002000D01*
X141177000Y-98002000D01*
X140923000Y-98002000D01*
X140903000Y-98002000D01*
X140903000Y-97748000D01*
X140923000Y-97748000D01*
X140923000Y-97728000D01*
X141177000Y-97728000D01*
X141177000Y-97748000D01*
X142051250Y-97748000D01*
X142210000Y-97589250D01*
X142210000Y-97273690D01*
X142113327Y-97040301D01*
X142022538Y-96949512D01*
X142155078Y-96751152D01*
X142222440Y-96412500D01*
X142222440Y-95937500D01*
X142155078Y-95598848D01*
X141963247Y-95311753D01*
X141810000Y-95209356D01*
X141810000Y-95024846D01*
X141824888Y-94949999D01*
X141810000Y-94875152D01*
X141810000Y-94875148D01*
X141765904Y-94653463D01*
X141597929Y-94402071D01*
X141534473Y-94359671D01*
X140590331Y-93415530D01*
X140547929Y-93352071D01*
X140296537Y-93184096D01*
X140074852Y-93140000D01*
X140074847Y-93140000D01*
X140000000Y-93125112D01*
X139925153Y-93140000D01*
X139603711Y-93140000D01*
X139486280Y-93022569D01*
X139105874Y-92865000D01*
X138694126Y-92865000D01*
X138313720Y-93022569D01*
X138022569Y-93313720D01*
X137865000Y-93694126D01*
X132910000Y-93694126D01*
X132910000Y-81647440D01*
X135900000Y-81647440D01*
X136147765Y-81598157D01*
X136357809Y-81457809D01*
X136498157Y-81247765D01*
X136547440Y-81000000D01*
X136547440Y-80535000D01*
X136705874Y-80535000D01*
X137086280Y-80377431D01*
X137377431Y-80086280D01*
X137535000Y-79705874D01*
X137535000Y-79294126D01*
X137377431Y-78913720D01*
X137086280Y-78622569D01*
X136705874Y-78465000D01*
X136547440Y-78465000D01*
X136547440Y-78000000D01*
X136498157Y-77752235D01*
X136357809Y-77542191D01*
X136147765Y-77401843D01*
X135900000Y-77352560D01*
X132910000Y-77352560D01*
X132910000Y-61619286D01*
X136394271Y-67771203D01*
X136394271Y-68068310D01*
X136567064Y-68485470D01*
X136886345Y-68804751D01*
X137254635Y-68957301D01*
X137254635Y-69297038D01*
X137427428Y-69714198D01*
X137746709Y-70033479D01*
X138115000Y-70186030D01*
X138115000Y-70525766D01*
X138287793Y-70942926D01*
X138607074Y-71262207D01*
X138975365Y-71414758D01*
X138975365Y-71754494D01*
X139148158Y-72171654D01*
X139467439Y-72490935D01*
X139835729Y-72643485D01*
X139835729Y-72983222D01*
X140008522Y-73400382D01*
X140327803Y-73719663D01*
X140744963Y-73892456D01*
X140932161Y-73892456D01*
X141027624Y-74032568D01*
X147738358Y-80623038D01*
X140066818Y-80766431D01*
X140011897Y-80778427D01*
X139852487Y-80806857D01*
X139729928Y-80854795D01*
X139606438Y-80900291D01*
X139440051Y-81002153D01*
X139381411Y-81056312D01*
X139236540Y-81190111D01*
X139121800Y-81347892D01*
X139032020Y-81542418D01*
X139005710Y-81599423D01*
X138960084Y-81789102D01*
X138955252Y-81910739D01*
X138949086Y-82065911D01*
X138958863Y-82127819D01*
X138951434Y-82172281D01*
X138998985Y-82378017D01*
X145006454Y-95705515D01*
X145019589Y-95723921D01*
X145079622Y-95837359D01*
X145093789Y-95855209D01*
X145101945Y-95876485D01*
X145185576Y-95986969D01*
X145472145Y-96297261D01*
X145472145Y-96631843D01*
X145644938Y-97049003D01*
X145964219Y-97368284D01*
X146145929Y-97443551D01*
X146106073Y-97539772D01*
X146106073Y-97991304D01*
X146278866Y-98408464D01*
X146598147Y-98727745D01*
X146779857Y-98803011D01*
X146740000Y-98899234D01*
X146740000Y-99350766D01*
X146912793Y-99767926D01*
X147232074Y-100087207D01*
X147413784Y-100162473D01*
X147373927Y-100258696D01*
X147373927Y-100710228D01*
X147546720Y-101127388D01*
X147866001Y-101446669D01*
X148047711Y-101521936D01*
X148007855Y-101618157D01*
X148007855Y-102069689D01*
X148180648Y-102486849D01*
X148499929Y-102806130D01*
X148753150Y-102911017D01*
X148759771Y-102928612D01*
X148975040Y-103387705D01*
X148995919Y-103437843D01*
X154383905Y-111468811D01*
X154420846Y-111573304D01*
X154416708Y-111651468D01*
X154382973Y-111722100D01*
X154324778Y-111774443D01*
X154207196Y-111816011D01*
X146562059Y-111940524D01*
X146550960Y-111938927D01*
X146539522Y-111939539D01*
X146533862Y-111940983D01*
X146518522Y-111941233D01*
X146431459Y-111960030D01*
X146395134Y-111962334D01*
X146178099Y-112020001D01*
X145941559Y-112136034D01*
X145929383Y-112142007D01*
X145750937Y-112278339D01*
X145750935Y-112278342D01*
X145750934Y-112278342D01*
X145567841Y-112486240D01*
X145455153Y-112680484D01*
X145450135Y-112695166D01*
X145365557Y-112942621D01*
X145335779Y-113165201D01*
X145335779Y-113165202D01*
X145353318Y-113441674D01*
X145410985Y-113658710D01*
X145415376Y-113667660D01*
X145421441Y-113695331D01*
X149652460Y-123373473D01*
X149687461Y-123423713D01*
X149813940Y-123615082D01*
X149813940Y-124056688D01*
X149986733Y-124473848D01*
X150306014Y-124793129D01*
X150402236Y-124832986D01*
X150326970Y-125014695D01*
X150326970Y-125466227D01*
X150499763Y-125883387D01*
X150819044Y-126202668D01*
X150915266Y-126242525D01*
X150840000Y-126424234D01*
X150840000Y-126875766D01*
X151012793Y-127292926D01*
X151332074Y-127612207D01*
X151428296Y-127652064D01*
X151353030Y-127833773D01*
X151353030Y-128285305D01*
X151525823Y-128702465D01*
X151845104Y-129021746D01*
X151941326Y-129061603D01*
X151866060Y-129243312D01*
X151866060Y-129694844D01*
X152038853Y-130112004D01*
X152358134Y-130431285D01*
X152517773Y-130497409D01*
X161712669Y-149211144D01*
X161728527Y-149290000D01*
X127884801Y-149290000D01*
X128034470Y-149140331D01*
X128097929Y-149097929D01*
X128138225Y-149037622D01*
X128176152Y-149030078D01*
X128463247Y-148838247D01*
X128655078Y-148551152D01*
X128722440Y-148212500D01*
X128722440Y-148035750D01*
X147215000Y-148035750D01*
X147215000Y-148526310D01*
X147311673Y-148759699D01*
X147490302Y-148938327D01*
X147723691Y-149035000D01*
X148339250Y-149035000D01*
X148498000Y-148876250D01*
X148498000Y-147877000D01*
X148752000Y-147877000D01*
X148752000Y-148876250D01*
X148910750Y-149035000D01*
X149526309Y-149035000D01*
X149759698Y-148938327D01*
X149938327Y-148759699D01*
X150035000Y-148526310D01*
X150035000Y-148035750D01*
X155165000Y-148035750D01*
X155165000Y-148526310D01*
X155261673Y-148759699D01*
X155440302Y-148938327D01*
X155673691Y-149035000D01*
X156289250Y-149035000D01*
X156448000Y-148876250D01*
X156448000Y-147877000D01*
X156702000Y-147877000D01*
X156702000Y-148876250D01*
X156860750Y-149035000D01*
X157476309Y-149035000D01*
X157709698Y-148938327D01*
X157888327Y-148759699D01*
X157985000Y-148526310D01*
X157985000Y-148035750D01*
X157826250Y-147877000D01*
X156702000Y-147877000D01*
X156448000Y-147877000D01*
X155323750Y-147877000D01*
X155165000Y-148035750D01*
X150035000Y-148035750D01*
X149876250Y-147877000D01*
X148752000Y-147877000D01*
X148498000Y-147877000D01*
X147373750Y-147877000D01*
X147215000Y-148035750D01*
X128722440Y-148035750D01*
X128722440Y-147737500D01*
X128655078Y-147398848D01*
X128484324Y-147143297D01*
X128548157Y-147047765D01*
X128562891Y-146973690D01*
X147215000Y-146973690D01*
X147215000Y-147464250D01*
X147373750Y-147623000D01*
X148498000Y-147623000D01*
X148498000Y-146623750D01*
X148752000Y-146623750D01*
X148752000Y-147623000D01*
X149876250Y-147623000D01*
X150035000Y-147464250D01*
X150035000Y-146973690D01*
X155165000Y-146973690D01*
X155165000Y-147464250D01*
X155323750Y-147623000D01*
X156448000Y-147623000D01*
X156448000Y-146623750D01*
X156702000Y-146623750D01*
X156702000Y-147623000D01*
X157826250Y-147623000D01*
X157985000Y-147464250D01*
X157985000Y-146973690D01*
X157888327Y-146740301D01*
X157709698Y-146561673D01*
X157476309Y-146465000D01*
X156860750Y-146465000D01*
X156702000Y-146623750D01*
X156448000Y-146623750D01*
X156289250Y-146465000D01*
X155673691Y-146465000D01*
X155440302Y-146561673D01*
X155261673Y-146740301D01*
X155165000Y-146973690D01*
X150035000Y-146973690D01*
X149938327Y-146740301D01*
X149759698Y-146561673D01*
X149526309Y-146465000D01*
X148910750Y-146465000D01*
X148752000Y-146623750D01*
X148498000Y-146623750D01*
X148339250Y-146465000D01*
X147723691Y-146465000D01*
X147490302Y-146561673D01*
X147311673Y-146740301D01*
X147215000Y-146973690D01*
X128562891Y-146973690D01*
X128597440Y-146800000D01*
X128597440Y-145900000D01*
X128548157Y-145652235D01*
X128407809Y-145442191D01*
X128197765Y-145301843D01*
X127950000Y-145252560D01*
X127461316Y-145252560D01*
X127556573Y-145110000D01*
X129846289Y-145110000D01*
X129963720Y-145227431D01*
X130344126Y-145385000D01*
X130755874Y-145385000D01*
X131136280Y-145227431D01*
X131427431Y-144936280D01*
X131585000Y-144555874D01*
X131585000Y-144144126D01*
X131508733Y-143960000D01*
X145634356Y-143960000D01*
X145736753Y-144113247D01*
X146023848Y-144305078D01*
X146362500Y-144372440D01*
X146837500Y-144372440D01*
X147176152Y-144305078D01*
X147301150Y-144221557D01*
X147392191Y-144357809D01*
X147602235Y-144498157D01*
X147850000Y-144547440D01*
X149400000Y-144547440D01*
X149647765Y-144498157D01*
X149857809Y-144357809D01*
X149998157Y-144147765D01*
X150025560Y-144010000D01*
X155174440Y-144010000D01*
X155201843Y-144147765D01*
X155342191Y-144357809D01*
X155552235Y-144498157D01*
X155800000Y-144547440D01*
X157350000Y-144547440D01*
X157597765Y-144498157D01*
X157807809Y-144357809D01*
X157948157Y-144147765D01*
X157997440Y-143900000D01*
X157997440Y-142600000D01*
X157948157Y-142352235D01*
X157807809Y-142142191D01*
X157597765Y-142001843D01*
X157350000Y-141952560D01*
X155800000Y-141952560D01*
X155552235Y-142001843D01*
X155342191Y-142142191D01*
X155201843Y-142352235D01*
X155174440Y-142490000D01*
X150025560Y-142490000D01*
X149998157Y-142352235D01*
X149857809Y-142142191D01*
X149647765Y-142001843D01*
X149400000Y-141952560D01*
X149032820Y-141952560D01*
X149135000Y-141705874D01*
X149135000Y-141294126D01*
X148977431Y-140913720D01*
X148686280Y-140622569D01*
X148305874Y-140465000D01*
X147894126Y-140465000D01*
X147519099Y-140620341D01*
X147463247Y-140536753D01*
X147176152Y-140344922D01*
X146837500Y-140277560D01*
X146362500Y-140277560D01*
X146023848Y-140344922D01*
X145736753Y-140536753D01*
X145544922Y-140823848D01*
X145477560Y-141162500D01*
X145477560Y-141737500D01*
X145544922Y-142076152D01*
X145711197Y-142325000D01*
X145634356Y-142440000D01*
X133838022Y-142440000D01*
X133935000Y-142205874D01*
X133935000Y-142039801D01*
X139684476Y-136290327D01*
X139747929Y-136247929D01*
X139790327Y-136184476D01*
X139790329Y-136184474D01*
X139915903Y-135996538D01*
X139915904Y-135996537D01*
X139960000Y-135774852D01*
X139960000Y-135774848D01*
X139974888Y-135700001D01*
X139960000Y-135625154D01*
X139960000Y-130385750D01*
X141965000Y-130385750D01*
X141965000Y-130701310D01*
X142061673Y-130934699D01*
X142240302Y-131113327D01*
X142473691Y-131210000D01*
X142839250Y-131210000D01*
X142998000Y-131051250D01*
X142998000Y-130227000D01*
X142123750Y-130227000D01*
X141965000Y-130385750D01*
X139960000Y-130385750D01*
X139960000Y-130014801D01*
X140814802Y-129160000D01*
X142142765Y-129160000D01*
X142152462Y-129174512D01*
X142061673Y-129265301D01*
X141965000Y-129498690D01*
X141965000Y-129814250D01*
X142123750Y-129973000D01*
X142998000Y-129973000D01*
X142998000Y-129953000D01*
X143252000Y-129953000D01*
X143252000Y-129973000D01*
X143272000Y-129973000D01*
X143272000Y-130227000D01*
X143252000Y-130227000D01*
X143252000Y-131051250D01*
X143410750Y-131210000D01*
X143776309Y-131210000D01*
X144009698Y-131113327D01*
X144080460Y-131042565D01*
X144248848Y-131155078D01*
X144587500Y-131222440D01*
X145162500Y-131222440D01*
X145501152Y-131155078D01*
X145788247Y-130963247D01*
X145980078Y-130676152D01*
X146047440Y-130337500D01*
X146047440Y-129862500D01*
X145980078Y-129523848D01*
X145797098Y-129250000D01*
X145980078Y-128976152D01*
X146047440Y-128637500D01*
X146047440Y-128162500D01*
X145980078Y-127823848D01*
X145788247Y-127536753D01*
X145501152Y-127344922D01*
X145162500Y-127277560D01*
X144587500Y-127277560D01*
X144248848Y-127344922D01*
X144000000Y-127511197D01*
X143751152Y-127344922D01*
X143412500Y-127277560D01*
X142837500Y-127277560D01*
X142498848Y-127344922D01*
X142211753Y-127536753D01*
X142142765Y-127640000D01*
X140814802Y-127640000D01*
X127690331Y-114515530D01*
X127647929Y-114452071D01*
X127396537Y-114284096D01*
X127174852Y-114240000D01*
X127174847Y-114240000D01*
X127100000Y-114225112D01*
X127025153Y-114240000D01*
X123023826Y-114240000D01*
X122988247Y-114186753D01*
X122701152Y-113994922D01*
X122362500Y-113927560D01*
X121787500Y-113927560D01*
X121448848Y-113994922D01*
X121200000Y-114161197D01*
X120951152Y-113994922D01*
X120612500Y-113927560D01*
X120037500Y-113927560D01*
X119698848Y-113994922D01*
X119411753Y-114186753D01*
X119219922Y-114473848D01*
X119152560Y-114812500D01*
X119152560Y-115287500D01*
X119219922Y-115626152D01*
X119411753Y-115913247D01*
X119491758Y-115966704D01*
X119461753Y-115986753D01*
X119269922Y-116273848D01*
X119202560Y-116612500D01*
X119202560Y-117087500D01*
X119269922Y-117426152D01*
X119461753Y-117713247D01*
X119748848Y-117905078D01*
X120087500Y-117972440D01*
X120662500Y-117972440D01*
X121001152Y-117905078D01*
X121169540Y-117792565D01*
X121240302Y-117863327D01*
X121473691Y-117960000D01*
X121839250Y-117960000D01*
X121998000Y-117801250D01*
X121998000Y-116977000D01*
X122252000Y-116977000D01*
X122252000Y-117801250D01*
X122410750Y-117960000D01*
X122776309Y-117960000D01*
X123009698Y-117863327D01*
X123188327Y-117684699D01*
X123285000Y-117451310D01*
X123285000Y-117135750D01*
X123126250Y-116977000D01*
X122252000Y-116977000D01*
X121998000Y-116977000D01*
X121978000Y-116977000D01*
X121978000Y-116723000D01*
X121998000Y-116723000D01*
X121998000Y-116703000D01*
X122252000Y-116703000D01*
X122252000Y-116723000D01*
X123126250Y-116723000D01*
X123285000Y-116564250D01*
X123285000Y-116248690D01*
X123188327Y-116015301D01*
X123027510Y-115854485D01*
X123090644Y-115760000D01*
X126785199Y-115760000D01*
X139425198Y-128400000D01*
X138715528Y-129109671D01*
X138652072Y-129152071D01*
X138609672Y-129215527D01*
X138609671Y-129215528D01*
X138513614Y-129359288D01*
X138484097Y-129403463D01*
X138444631Y-129601874D01*
X138425112Y-129700000D01*
X138440001Y-129774852D01*
X138440000Y-135385197D01*
X132860199Y-140965000D01*
X132694126Y-140965000D01*
X132313720Y-141122569D01*
X132022569Y-141413720D01*
X131865000Y-141794126D01*
X131865000Y-142205874D01*
X131961978Y-142440000D01*
X125648381Y-142440000D01*
X125735000Y-142230884D01*
X125735000Y-142064811D01*
X129784476Y-138015337D01*
X129847929Y-137972939D01*
X129890327Y-137909486D01*
X129890329Y-137909484D01*
X130015903Y-137721548D01*
X130015904Y-137721547D01*
X130060000Y-137499862D01*
X130060000Y-137499858D01*
X130074888Y-137425011D01*
X130060000Y-137350164D01*
X130060000Y-128099846D01*
X130074888Y-128024999D01*
X130069915Y-128000000D01*
X130074888Y-127975001D01*
X130015903Y-127678463D01*
X129847929Y-127427071D01*
X129596537Y-127259097D01*
X129299999Y-127200112D01*
X129099449Y-127240004D01*
X117803711Y-127240004D01*
X117686280Y-127122573D01*
X117305874Y-126965004D01*
X116894126Y-126965004D01*
X116513720Y-127122573D01*
X116222569Y-127413724D01*
X116065000Y-127794130D01*
X116065000Y-128205878D01*
X116222569Y-128586284D01*
X116513720Y-128877435D01*
X116894126Y-129035004D01*
X117305874Y-129035004D01*
X117686280Y-128877435D01*
X117803711Y-128760004D01*
X128540000Y-128760004D01*
X128540001Y-137110206D01*
X124660199Y-140990010D01*
X124494126Y-140990010D01*
X124113720Y-141147579D01*
X123822569Y-141438730D01*
X123665000Y-141819136D01*
X123665000Y-142230884D01*
X123751619Y-142440000D01*
X120635000Y-142440000D01*
X120635000Y-142394126D01*
X120477431Y-142013720D01*
X120186280Y-141722569D01*
X119805874Y-141565000D01*
X119394126Y-141565000D01*
X119013720Y-141722569D01*
X118722569Y-142013720D01*
X118565000Y-142394126D01*
X118565000Y-142805874D01*
X118722569Y-143186280D01*
X119013720Y-143477431D01*
X119394126Y-143635000D01*
X119560198Y-143635000D01*
X119609670Y-143684472D01*
X119652071Y-143747929D01*
X119903463Y-143915904D01*
X120125148Y-143960000D01*
X120125152Y-143960000D01*
X120199999Y-143974888D01*
X120274846Y-143960000D01*
X125552560Y-143960000D01*
X125552560Y-144800000D01*
X125601843Y-145047765D01*
X125738684Y-145252560D01*
X125250000Y-145252560D01*
X125002235Y-145301843D01*
X124792191Y-145442191D01*
X124693427Y-145590000D01*
X123024848Y-145590000D01*
X122950000Y-145575112D01*
X122875152Y-145590000D01*
X122875148Y-145590000D01*
X122653463Y-145634096D01*
X122402071Y-145802071D01*
X122359671Y-145865527D01*
X122060198Y-146165000D01*
X121894126Y-146165000D01*
X121513720Y-146322569D01*
X121222569Y-146613720D01*
X121065000Y-146994126D01*
X121065000Y-147405874D01*
X121222569Y-147786280D01*
X121513720Y-148077431D01*
X121894126Y-148235000D01*
X122305874Y-148235000D01*
X122686280Y-148077431D01*
X122977431Y-147786280D01*
X123135000Y-147405874D01*
X123135000Y-147239802D01*
X123264802Y-147110000D01*
X124693427Y-147110000D01*
X124790676Y-147255542D01*
X124694922Y-147398848D01*
X124627560Y-147737500D01*
X124627560Y-148212500D01*
X124633030Y-148240000D01*
X116614802Y-148240000D01*
X116135000Y-147760199D01*
X116135000Y-147594126D01*
X115977431Y-147213720D01*
X115686280Y-146922569D01*
X115305874Y-146765000D01*
X114894126Y-146765000D01*
X114513720Y-146922569D01*
X114222569Y-147213720D01*
X114065000Y-147594126D01*
X114065000Y-148005874D01*
X114222569Y-148386280D01*
X114513720Y-148677431D01*
X114894126Y-148835000D01*
X115060199Y-148835000D01*
X115515198Y-149290000D01*
X100818295Y-149290000D01*
X101786537Y-147285169D01*
X106718700Y-147285169D01*
X106718700Y-147734831D01*
X106890778Y-148150264D01*
X107208736Y-148468222D01*
X107624169Y-148640300D01*
X108073831Y-148640300D01*
X108489264Y-148468222D01*
X108807222Y-148150264D01*
X108865000Y-148010776D01*
X108922778Y-148150264D01*
X109240736Y-148468222D01*
X109656169Y-148640300D01*
X110105831Y-148640300D01*
X110521264Y-148468222D01*
X110839222Y-148150264D01*
X111011300Y-147734831D01*
X111011300Y-147285169D01*
X110839222Y-146869736D01*
X110521264Y-146551778D01*
X110105831Y-146379700D01*
X109656169Y-146379700D01*
X109240736Y-146551778D01*
X108922778Y-146869736D01*
X108865000Y-147009224D01*
X108807222Y-146869736D01*
X108489264Y-146551778D01*
X108073831Y-146379700D01*
X107624169Y-146379700D01*
X107208736Y-146551778D01*
X106890778Y-146869736D01*
X106718700Y-147285169D01*
X101786537Y-147285169D01*
X102989597Y-144794126D01*
X110465000Y-144794126D01*
X110465000Y-145205874D01*
X110622569Y-145586280D01*
X110913720Y-145877431D01*
X111294126Y-146035000D01*
X111705874Y-146035000D01*
X112086280Y-145877431D01*
X112377431Y-145586280D01*
X112535000Y-145205874D01*
X112535000Y-144794126D01*
X112377431Y-144413720D01*
X112266008Y-144302297D01*
X112284077Y-142194126D01*
X113665000Y-142194126D01*
X113665000Y-142605874D01*
X113822569Y-142986280D01*
X114113720Y-143277431D01*
X114494126Y-143435000D01*
X114905874Y-143435000D01*
X115286280Y-143277431D01*
X115577431Y-142986280D01*
X115735000Y-142605874D01*
X115735000Y-142194126D01*
X115577431Y-141813720D01*
X115460000Y-141696289D01*
X115460000Y-126414801D01*
X119039803Y-122835000D01*
X119205874Y-122835000D01*
X119586280Y-122677431D01*
X119877431Y-122386280D01*
X120035000Y-122005874D01*
X120035000Y-121594126D01*
X119877431Y-121213720D01*
X119586280Y-120922569D01*
X119205874Y-120765000D01*
X118794126Y-120765000D01*
X118413720Y-120922569D01*
X118122569Y-121213720D01*
X117965000Y-121594126D01*
X117965000Y-121760197D01*
X114215528Y-125509671D01*
X114152072Y-125552071D01*
X114109672Y-125615527D01*
X114109671Y-125615528D01*
X113984097Y-125803463D01*
X113925112Y-126100000D01*
X113940001Y-126174852D01*
X113940000Y-141696289D01*
X113822569Y-141813720D01*
X113665000Y-142194126D01*
X112284077Y-142194126D01*
X112313943Y-138709767D01*
X112437430Y-138586280D01*
X112594999Y-138205874D01*
X112594999Y-137794126D01*
X112437430Y-137413720D01*
X112146279Y-137122569D01*
X111765873Y-136965000D01*
X111354125Y-136965000D01*
X110973719Y-137122569D01*
X110682568Y-137413720D01*
X110524999Y-137794126D01*
X110524999Y-138205874D01*
X110682568Y-138586280D01*
X110793991Y-138697703D01*
X110746056Y-144290233D01*
X110622569Y-144413720D01*
X110465000Y-144794126D01*
X102989597Y-144794126D01*
X104239946Y-142205169D01*
X107734700Y-142205169D01*
X107734700Y-142654831D01*
X107906778Y-143070264D01*
X108224736Y-143388222D01*
X108640169Y-143560300D01*
X109089831Y-143560300D01*
X109505264Y-143388222D01*
X109823222Y-143070264D01*
X109995300Y-142654831D01*
X109995300Y-142205169D01*
X109823222Y-141789736D01*
X109505264Y-141471778D01*
X109089831Y-141299700D01*
X108640169Y-141299700D01*
X108224736Y-141471778D01*
X107906778Y-141789736D01*
X107734700Y-142205169D01*
X104239946Y-142205169D01*
X107029895Y-136428335D01*
X107063057Y-136369204D01*
X107089864Y-136286874D01*
X107128586Y-136209430D01*
X107143077Y-136156514D01*
X107325071Y-136081130D01*
X107644352Y-135761849D01*
X107817145Y-135344689D01*
X107817145Y-134893157D01*
X107777289Y-134796936D01*
X107958999Y-134721669D01*
X108278280Y-134402388D01*
X108451073Y-133985228D01*
X108451073Y-133533696D01*
X108411216Y-133437473D01*
X108592926Y-133362207D01*
X108912207Y-133042926D01*
X109085000Y-132625766D01*
X109085000Y-132174234D01*
X109045143Y-132078011D01*
X109226853Y-132002745D01*
X109546134Y-131683464D01*
X109718927Y-131266304D01*
X109718927Y-130814772D01*
X109679071Y-130718551D01*
X109860781Y-130643284D01*
X110180062Y-130324003D01*
X110352855Y-129906843D01*
X110352855Y-129455311D01*
X110332457Y-129406065D01*
X110375712Y-129342744D01*
X117080554Y-113614094D01*
X117123871Y-113407425D01*
X117121663Y-113395696D01*
X117135705Y-113322779D01*
X117134874Y-113186482D01*
X117134874Y-113050000D01*
X117093882Y-112843919D01*
X117093881Y-112843916D01*
X116987866Y-112587976D01*
X116871130Y-112413269D01*
X116713405Y-112255546D01*
X116675242Y-112217383D01*
X116500535Y-112100648D01*
X116394521Y-112056736D01*
X116244595Y-111994634D01*
X116048229Y-111955574D01*
X115989797Y-111942239D01*
X107974836Y-111717521D01*
X107903372Y-111698070D01*
X107913340Y-111661447D01*
X111780054Y-106081634D01*
X111909009Y-106028219D01*
X112228290Y-105708938D01*
X112401083Y-105291778D01*
X112401083Y-104904784D01*
X112725967Y-104770213D01*
X113045248Y-104450932D01*
X113218041Y-104033772D01*
X113218041Y-103646779D01*
X113542926Y-103512207D01*
X113862207Y-103192926D01*
X114035000Y-102775766D01*
X114035000Y-102388773D01*
X114359885Y-102254201D01*
X114679166Y-101934920D01*
X114851959Y-101517760D01*
X114851959Y-101130766D01*
X115176843Y-100996195D01*
X115496124Y-100676914D01*
X115668917Y-100259754D01*
X115668917Y-99808222D01*
X115548602Y-99517755D01*
X123449683Y-82256931D01*
X123498424Y-82051474D01*
X123490541Y-82002556D01*
X123498781Y-81896112D01*
X123496242Y-81874888D01*
X123484138Y-81773738D01*
X123465867Y-81621046D01*
X123465866Y-81621044D01*
X123415137Y-81465597D01*
X123317540Y-81291850D01*
X123279465Y-81224067D01*
X123173111Y-81099866D01*
X123171651Y-81098718D01*
X122955335Y-80928638D01*
X122809546Y-80854591D01*
X122639455Y-80806857D01*
X122542825Y-80779738D01*
X122427762Y-80770831D01*
X122406441Y-80766229D01*
X114646482Y-80640256D01*
X114598202Y-80634187D01*
X119769195Y-75633133D01*
X119897403Y-75633133D01*
X120314563Y-75460340D01*
X120633844Y-75141059D01*
X120806637Y-74723899D01*
X120806637Y-74484067D01*
X120861585Y-74484067D01*
X121278745Y-74311274D01*
X121598026Y-73991993D01*
X121770819Y-73574833D01*
X121770819Y-73335000D01*
X121825766Y-73335000D01*
X122242926Y-73162207D01*
X122562207Y-72842926D01*
X122735000Y-72425766D01*
X122735000Y-72185933D01*
X122789947Y-72185933D01*
X123207107Y-72013140D01*
X123526388Y-71693859D01*
X123699181Y-71276699D01*
X123699181Y-71036867D01*
X123754129Y-71036867D01*
X124171289Y-70864074D01*
X124490570Y-70544793D01*
X124663363Y-70127633D01*
X124663363Y-69732811D01*
X126065000Y-67420662D01*
X126065000Y-67714250D01*
X126223750Y-67873000D01*
X127098000Y-67873000D01*
X127098000Y-67048750D01*
X126939250Y-66890000D01*
X126573691Y-66890000D01*
X126340302Y-66986673D01*
X126309282Y-67017693D01*
X129690000Y-61440839D01*
X129690000Y-67004289D01*
X129690000Y-67004289D01*
G37*
X129690000Y-67004289D02*
X129601152Y-66944922D01*
X129262500Y-66877560D01*
X128687500Y-66877560D01*
X128348848Y-66944922D01*
X128180460Y-67057435D01*
X128109698Y-66986673D01*
X127876309Y-66890000D01*
X127510750Y-66890000D01*
X127352000Y-67048750D01*
X127352000Y-67873000D01*
X127372000Y-67873000D01*
X127372000Y-68127000D01*
X127352000Y-68127000D01*
X127352000Y-68147000D01*
X127098000Y-68147000D01*
X127098000Y-68127000D01*
X126223750Y-68127000D01*
X126065000Y-68285750D01*
X126065000Y-68601310D01*
X126161673Y-68834699D01*
X126212408Y-68885433D01*
X126119922Y-69023848D01*
X126052560Y-69362500D01*
X126052560Y-69837500D01*
X126119922Y-70176152D01*
X126311753Y-70463247D01*
X126465000Y-70565644D01*
X126465001Y-77071296D01*
X126322577Y-77213720D01*
X126165008Y-77594126D01*
X126165008Y-78005874D01*
X126322577Y-78386280D01*
X126613728Y-78677431D01*
X126994134Y-78835000D01*
X127405882Y-78835000D01*
X127786288Y-78677431D01*
X128077439Y-78386280D01*
X128235008Y-78005874D01*
X128235008Y-77594126D01*
X128077439Y-77213720D01*
X127985000Y-77121281D01*
X127985000Y-70565644D01*
X128100000Y-70488803D01*
X128348848Y-70655078D01*
X128687500Y-70722440D01*
X129262500Y-70722440D01*
X129601152Y-70655078D01*
X129690000Y-70595711D01*
X129690001Y-107569926D01*
X129703642Y-107638504D01*
X129703642Y-107638513D01*
X129772150Y-107982928D01*
X129772151Y-107982930D01*
X129878165Y-108238871D01*
X130073261Y-108530852D01*
X130203853Y-108661443D01*
X130269148Y-108726739D01*
X130561130Y-108921835D01*
X130726523Y-108990343D01*
X130817072Y-109027850D01*
X131161486Y-109096358D01*
X131438513Y-109096358D01*
X131782928Y-109027850D01*
X131888943Y-108983937D01*
X132038871Y-108921835D01*
X132330852Y-108726739D01*
X132461443Y-108596147D01*
X132526739Y-108530852D01*
X132721835Y-108238870D01*
X132815857Y-108011881D01*
X132827850Y-107982928D01*
X132896358Y-107638514D01*
X132896358Y-107638509D01*
X132910000Y-107569926D01*
X132910000Y-93694126D01*
X137865000Y-93694126D01*
X137865000Y-94105874D01*
X138022569Y-94486280D01*
X138313720Y-94777431D01*
X138694126Y-94935000D01*
X139105874Y-94935000D01*
X139486280Y-94777431D01*
X139603711Y-94660000D01*
X139685199Y-94660000D01*
X140256763Y-95231565D01*
X140175000Y-95286197D01*
X139926152Y-95119922D01*
X139587500Y-95052560D01*
X139012500Y-95052560D01*
X138673848Y-95119922D01*
X138386753Y-95311753D01*
X138194922Y-95598848D01*
X138127560Y-95937500D01*
X138127560Y-96412500D01*
X138194922Y-96751152D01*
X138377902Y-97025000D01*
X138194922Y-97298848D01*
X138127560Y-97637500D01*
X138127560Y-98112500D01*
X138194922Y-98451152D01*
X138386753Y-98738247D01*
X138673848Y-98930078D01*
X139012500Y-98997440D01*
X139587500Y-98997440D01*
X139926152Y-98930078D01*
X140094540Y-98817565D01*
X140165302Y-98888327D01*
X140398691Y-98985000D01*
X140764250Y-98985000D01*
X140923000Y-98826250D01*
X140923000Y-98002000D01*
X141177000Y-98002000D01*
X141177000Y-98826250D01*
X141335750Y-98985000D01*
X141701309Y-98985000D01*
X141934698Y-98888327D01*
X142113327Y-98709699D01*
X142210000Y-98476310D01*
X142210000Y-98160750D01*
X142051250Y-98002000D01*
X141177000Y-98002000D01*
X140923000Y-98002000D01*
X140903000Y-98002000D01*
X140903000Y-97748000D01*
X140923000Y-97748000D01*
X140923000Y-97728000D01*
X141177000Y-97728000D01*
X141177000Y-97748000D01*
X142051250Y-97748000D01*
X142210000Y-97589250D01*
X142210000Y-97273690D01*
X142113327Y-97040301D01*
X142022538Y-96949512D01*
X142155078Y-96751152D01*
X142222440Y-96412500D01*
X142222440Y-95937500D01*
X142155078Y-95598848D01*
X141963247Y-95311753D01*
X141810000Y-95209356D01*
X141810000Y-95024846D01*
X141824888Y-94949999D01*
X141810000Y-94875152D01*
X141810000Y-94875148D01*
X141765904Y-94653463D01*
X141597929Y-94402071D01*
X141534473Y-94359671D01*
X140590331Y-93415530D01*
X140547929Y-93352071D01*
X140296537Y-93184096D01*
X140074852Y-93140000D01*
X140074847Y-93140000D01*
X140000000Y-93125112D01*
X139925153Y-93140000D01*
X139603711Y-93140000D01*
X139486280Y-93022569D01*
X139105874Y-92865000D01*
X138694126Y-92865000D01*
X138313720Y-93022569D01*
X138022569Y-93313720D01*
X137865000Y-93694126D01*
X132910000Y-93694126D01*
X132910000Y-81647440D01*
X135900000Y-81647440D01*
X136147765Y-81598157D01*
X136357809Y-81457809D01*
X136498157Y-81247765D01*
X136547440Y-81000000D01*
X136547440Y-80535000D01*
X136705874Y-80535000D01*
X137086280Y-80377431D01*
X137377431Y-80086280D01*
X137535000Y-79705874D01*
X137535000Y-79294126D01*
X137377431Y-78913720D01*
X137086280Y-78622569D01*
X136705874Y-78465000D01*
X136547440Y-78465000D01*
X136547440Y-78000000D01*
X136498157Y-77752235D01*
X136357809Y-77542191D01*
X136147765Y-77401843D01*
X135900000Y-77352560D01*
X132910000Y-77352560D01*
X132910000Y-61619286D01*
X136394271Y-67771203D01*
X136394271Y-68068310D01*
X136567064Y-68485470D01*
X136886345Y-68804751D01*
X137254635Y-68957301D01*
X137254635Y-69297038D01*
X137427428Y-69714198D01*
X137746709Y-70033479D01*
X138115000Y-70186030D01*
X138115000Y-70525766D01*
X138287793Y-70942926D01*
X138607074Y-71262207D01*
X138975365Y-71414758D01*
X138975365Y-71754494D01*
X139148158Y-72171654D01*
X139467439Y-72490935D01*
X139835729Y-72643485D01*
X139835729Y-72983222D01*
X140008522Y-73400382D01*
X140327803Y-73719663D01*
X140744963Y-73892456D01*
X140932161Y-73892456D01*
X141027624Y-74032568D01*
X147738358Y-80623038D01*
X140066818Y-80766431D01*
X140011897Y-80778427D01*
X139852487Y-80806857D01*
X139729928Y-80854795D01*
X139606438Y-80900291D01*
X139440051Y-81002153D01*
X139381411Y-81056312D01*
X139236540Y-81190111D01*
X139121800Y-81347892D01*
X139032020Y-81542418D01*
X139005710Y-81599423D01*
X138960084Y-81789102D01*
X138955252Y-81910739D01*
X138949086Y-82065911D01*
X138958863Y-82127819D01*
X138951434Y-82172281D01*
X138998985Y-82378017D01*
X145006454Y-95705515D01*
X145019589Y-95723921D01*
X145079622Y-95837359D01*
X145093789Y-95855209D01*
X145101945Y-95876485D01*
X145185576Y-95986969D01*
X145472145Y-96297261D01*
X145472145Y-96631843D01*
X145644938Y-97049003D01*
X145964219Y-97368284D01*
X146145929Y-97443551D01*
X146106073Y-97539772D01*
X146106073Y-97991304D01*
X146278866Y-98408464D01*
X146598147Y-98727745D01*
X146779857Y-98803011D01*
X146740000Y-98899234D01*
X146740000Y-99350766D01*
X146912793Y-99767926D01*
X147232074Y-100087207D01*
X147413784Y-100162473D01*
X147373927Y-100258696D01*
X147373927Y-100710228D01*
X147546720Y-101127388D01*
X147866001Y-101446669D01*
X148047711Y-101521936D01*
X148007855Y-101618157D01*
X148007855Y-102069689D01*
X148180648Y-102486849D01*
X148499929Y-102806130D01*
X148753150Y-102911017D01*
X148759771Y-102928612D01*
X148975040Y-103387705D01*
X148995919Y-103437843D01*
X154383905Y-111468811D01*
X154420846Y-111573304D01*
X154416708Y-111651468D01*
X154382973Y-111722100D01*
X154324778Y-111774443D01*
X154207196Y-111816011D01*
X146562059Y-111940524D01*
X146550960Y-111938927D01*
X146539522Y-111939539D01*
X146533862Y-111940983D01*
X146518522Y-111941233D01*
X146431459Y-111960030D01*
X146395134Y-111962334D01*
X146178099Y-112020001D01*
X145941559Y-112136034D01*
X145929383Y-112142007D01*
X145750937Y-112278339D01*
X145750935Y-112278342D01*
X145750934Y-112278342D01*
X145567841Y-112486240D01*
X145455153Y-112680484D01*
X145450135Y-112695166D01*
X145365557Y-112942621D01*
X145335779Y-113165201D01*
X145335779Y-113165202D01*
X145353318Y-113441674D01*
X145410985Y-113658710D01*
X145415376Y-113667660D01*
X145421441Y-113695331D01*
X149652460Y-123373473D01*
X149687461Y-123423713D01*
X149813940Y-123615082D01*
X149813940Y-124056688D01*
X149986733Y-124473848D01*
X150306014Y-124793129D01*
X150402236Y-124832986D01*
X150326970Y-125014695D01*
X150326970Y-125466227D01*
X150499763Y-125883387D01*
X150819044Y-126202668D01*
X150915266Y-126242525D01*
X150840000Y-126424234D01*
X150840000Y-126875766D01*
X151012793Y-127292926D01*
X151332074Y-127612207D01*
X151428296Y-127652064D01*
X151353030Y-127833773D01*
X151353030Y-128285305D01*
X151525823Y-128702465D01*
X151845104Y-129021746D01*
X151941326Y-129061603D01*
X151866060Y-129243312D01*
X151866060Y-129694844D01*
X152038853Y-130112004D01*
X152358134Y-130431285D01*
X152517773Y-130497409D01*
X161712669Y-149211144D01*
X161728527Y-149290000D01*
X127884801Y-149290000D01*
X128034470Y-149140331D01*
X128097929Y-149097929D01*
X128138225Y-149037622D01*
X128176152Y-149030078D01*
X128463247Y-148838247D01*
X128655078Y-148551152D01*
X128722440Y-148212500D01*
X128722440Y-148035750D01*
X147215000Y-148035750D01*
X147215000Y-148526310D01*
X147311673Y-148759699D01*
X147490302Y-148938327D01*
X147723691Y-149035000D01*
X148339250Y-149035000D01*
X148498000Y-148876250D01*
X148498000Y-147877000D01*
X148752000Y-147877000D01*
X148752000Y-148876250D01*
X148910750Y-149035000D01*
X149526309Y-149035000D01*
X149759698Y-148938327D01*
X149938327Y-148759699D01*
X150035000Y-148526310D01*
X150035000Y-148035750D01*
X155165000Y-148035750D01*
X155165000Y-148526310D01*
X155261673Y-148759699D01*
X155440302Y-148938327D01*
X155673691Y-149035000D01*
X156289250Y-149035000D01*
X156448000Y-148876250D01*
X156448000Y-147877000D01*
X156702000Y-147877000D01*
X156702000Y-148876250D01*
X156860750Y-149035000D01*
X157476309Y-149035000D01*
X157709698Y-148938327D01*
X157888327Y-148759699D01*
X157985000Y-148526310D01*
X157985000Y-148035750D01*
X157826250Y-147877000D01*
X156702000Y-147877000D01*
X156448000Y-147877000D01*
X155323750Y-147877000D01*
X155165000Y-148035750D01*
X150035000Y-148035750D01*
X149876250Y-147877000D01*
X148752000Y-147877000D01*
X148498000Y-147877000D01*
X147373750Y-147877000D01*
X147215000Y-148035750D01*
X128722440Y-148035750D01*
X128722440Y-147737500D01*
X128655078Y-147398848D01*
X128484324Y-147143297D01*
X128548157Y-147047765D01*
X128562891Y-146973690D01*
X147215000Y-146973690D01*
X147215000Y-147464250D01*
X147373750Y-147623000D01*
X148498000Y-147623000D01*
X148498000Y-146623750D01*
X148752000Y-146623750D01*
X148752000Y-147623000D01*
X149876250Y-147623000D01*
X150035000Y-147464250D01*
X150035000Y-146973690D01*
X155165000Y-146973690D01*
X155165000Y-147464250D01*
X155323750Y-147623000D01*
X156448000Y-147623000D01*
X156448000Y-146623750D01*
X156702000Y-146623750D01*
X156702000Y-147623000D01*
X157826250Y-147623000D01*
X157985000Y-147464250D01*
X157985000Y-146973690D01*
X157888327Y-146740301D01*
X157709698Y-146561673D01*
X157476309Y-146465000D01*
X156860750Y-146465000D01*
X156702000Y-146623750D01*
X156448000Y-146623750D01*
X156289250Y-146465000D01*
X155673691Y-146465000D01*
X155440302Y-146561673D01*
X155261673Y-146740301D01*
X155165000Y-146973690D01*
X150035000Y-146973690D01*
X149938327Y-146740301D01*
X149759698Y-146561673D01*
X149526309Y-146465000D01*
X148910750Y-146465000D01*
X148752000Y-146623750D01*
X148498000Y-146623750D01*
X148339250Y-146465000D01*
X147723691Y-146465000D01*
X147490302Y-146561673D01*
X147311673Y-146740301D01*
X147215000Y-146973690D01*
X128562891Y-146973690D01*
X128597440Y-146800000D01*
X128597440Y-145900000D01*
X128548157Y-145652235D01*
X128407809Y-145442191D01*
X128197765Y-145301843D01*
X127950000Y-145252560D01*
X127461316Y-145252560D01*
X127556573Y-145110000D01*
X129846289Y-145110000D01*
X129963720Y-145227431D01*
X130344126Y-145385000D01*
X130755874Y-145385000D01*
X131136280Y-145227431D01*
X131427431Y-144936280D01*
X131585000Y-144555874D01*
X131585000Y-144144126D01*
X131508733Y-143960000D01*
X145634356Y-143960000D01*
X145736753Y-144113247D01*
X146023848Y-144305078D01*
X146362500Y-144372440D01*
X146837500Y-144372440D01*
X147176152Y-144305078D01*
X147301150Y-144221557D01*
X147392191Y-144357809D01*
X147602235Y-144498157D01*
X147850000Y-144547440D01*
X149400000Y-144547440D01*
X149647765Y-144498157D01*
X149857809Y-144357809D01*
X149998157Y-144147765D01*
X150025560Y-144010000D01*
X155174440Y-144010000D01*
X155201843Y-144147765D01*
X155342191Y-144357809D01*
X155552235Y-144498157D01*
X155800000Y-144547440D01*
X157350000Y-144547440D01*
X157597765Y-144498157D01*
X157807809Y-144357809D01*
X157948157Y-144147765D01*
X157997440Y-143900000D01*
X157997440Y-142600000D01*
X157948157Y-142352235D01*
X157807809Y-142142191D01*
X157597765Y-142001843D01*
X157350000Y-141952560D01*
X155800000Y-141952560D01*
X155552235Y-142001843D01*
X155342191Y-142142191D01*
X155201843Y-142352235D01*
X155174440Y-142490000D01*
X150025560Y-142490000D01*
X149998157Y-142352235D01*
X149857809Y-142142191D01*
X149647765Y-142001843D01*
X149400000Y-141952560D01*
X149032820Y-141952560D01*
X149135000Y-141705874D01*
X149135000Y-141294126D01*
X148977431Y-140913720D01*
X148686280Y-140622569D01*
X148305874Y-140465000D01*
X147894126Y-140465000D01*
X147519099Y-140620341D01*
X147463247Y-140536753D01*
X147176152Y-140344922D01*
X146837500Y-140277560D01*
X146362500Y-140277560D01*
X146023848Y-140344922D01*
X145736753Y-140536753D01*
X145544922Y-140823848D01*
X145477560Y-141162500D01*
X145477560Y-141737500D01*
X145544922Y-142076152D01*
X145711197Y-142325000D01*
X145634356Y-142440000D01*
X133838022Y-142440000D01*
X133935000Y-142205874D01*
X133935000Y-142039801D01*
X139684476Y-136290327D01*
X139747929Y-136247929D01*
X139790327Y-136184476D01*
X139790329Y-136184474D01*
X139915903Y-135996538D01*
X139915904Y-135996537D01*
X139960000Y-135774852D01*
X139960000Y-135774848D01*
X139974888Y-135700001D01*
X139960000Y-135625154D01*
X139960000Y-130385750D01*
X141965000Y-130385750D01*
X141965000Y-130701310D01*
X142061673Y-130934699D01*
X142240302Y-131113327D01*
X142473691Y-131210000D01*
X142839250Y-131210000D01*
X142998000Y-131051250D01*
X142998000Y-130227000D01*
X142123750Y-130227000D01*
X141965000Y-130385750D01*
X139960000Y-130385750D01*
X139960000Y-130014801D01*
X140814802Y-129160000D01*
X142142765Y-129160000D01*
X142152462Y-129174512D01*
X142061673Y-129265301D01*
X141965000Y-129498690D01*
X141965000Y-129814250D01*
X142123750Y-129973000D01*
X142998000Y-129973000D01*
X142998000Y-129953000D01*
X143252000Y-129953000D01*
X143252000Y-129973000D01*
X143272000Y-129973000D01*
X143272000Y-130227000D01*
X143252000Y-130227000D01*
X143252000Y-131051250D01*
X143410750Y-131210000D01*
X143776309Y-131210000D01*
X144009698Y-131113327D01*
X144080460Y-131042565D01*
X144248848Y-131155078D01*
X144587500Y-131222440D01*
X145162500Y-131222440D01*
X145501152Y-131155078D01*
X145788247Y-130963247D01*
X145980078Y-130676152D01*
X146047440Y-130337500D01*
X146047440Y-129862500D01*
X145980078Y-129523848D01*
X145797098Y-129250000D01*
X145980078Y-128976152D01*
X146047440Y-128637500D01*
X146047440Y-128162500D01*
X145980078Y-127823848D01*
X145788247Y-127536753D01*
X145501152Y-127344922D01*
X145162500Y-127277560D01*
X144587500Y-127277560D01*
X144248848Y-127344922D01*
X144000000Y-127511197D01*
X143751152Y-127344922D01*
X143412500Y-127277560D01*
X142837500Y-127277560D01*
X142498848Y-127344922D01*
X142211753Y-127536753D01*
X142142765Y-127640000D01*
X140814802Y-127640000D01*
X127690331Y-114515530D01*
X127647929Y-114452071D01*
X127396537Y-114284096D01*
X127174852Y-114240000D01*
X127174847Y-114240000D01*
X127100000Y-114225112D01*
X127025153Y-114240000D01*
X123023826Y-114240000D01*
X122988247Y-114186753D01*
X122701152Y-113994922D01*
X122362500Y-113927560D01*
X121787500Y-113927560D01*
X121448848Y-113994922D01*
X121200000Y-114161197D01*
X120951152Y-113994922D01*
X120612500Y-113927560D01*
X120037500Y-113927560D01*
X119698848Y-113994922D01*
X119411753Y-114186753D01*
X119219922Y-114473848D01*
X119152560Y-114812500D01*
X119152560Y-115287500D01*
X119219922Y-115626152D01*
X119411753Y-115913247D01*
X119491758Y-115966704D01*
X119461753Y-115986753D01*
X119269922Y-116273848D01*
X119202560Y-116612500D01*
X119202560Y-117087500D01*
X119269922Y-117426152D01*
X119461753Y-117713247D01*
X119748848Y-117905078D01*
X120087500Y-117972440D01*
X120662500Y-117972440D01*
X121001152Y-117905078D01*
X121169540Y-117792565D01*
X121240302Y-117863327D01*
X121473691Y-117960000D01*
X121839250Y-117960000D01*
X121998000Y-117801250D01*
X121998000Y-116977000D01*
X122252000Y-116977000D01*
X122252000Y-117801250D01*
X122410750Y-117960000D01*
X122776309Y-117960000D01*
X123009698Y-117863327D01*
X123188327Y-117684699D01*
X123285000Y-117451310D01*
X123285000Y-117135750D01*
X123126250Y-116977000D01*
X122252000Y-116977000D01*
X121998000Y-116977000D01*
X121978000Y-116977000D01*
X121978000Y-116723000D01*
X121998000Y-116723000D01*
X121998000Y-116703000D01*
X122252000Y-116703000D01*
X122252000Y-116723000D01*
X123126250Y-116723000D01*
X123285000Y-116564250D01*
X123285000Y-116248690D01*
X123188327Y-116015301D01*
X123027510Y-115854485D01*
X123090644Y-115760000D01*
X126785199Y-115760000D01*
X139425198Y-128400000D01*
X138715528Y-129109671D01*
X138652072Y-129152071D01*
X138609672Y-129215527D01*
X138609671Y-129215528D01*
X138513614Y-129359288D01*
X138484097Y-129403463D01*
X138444631Y-129601874D01*
X138425112Y-129700000D01*
X138440001Y-129774852D01*
X138440000Y-135385197D01*
X132860199Y-140965000D01*
X132694126Y-140965000D01*
X132313720Y-141122569D01*
X132022569Y-141413720D01*
X131865000Y-141794126D01*
X131865000Y-142205874D01*
X131961978Y-142440000D01*
X125648381Y-142440000D01*
X125735000Y-142230884D01*
X125735000Y-142064811D01*
X129784476Y-138015337D01*
X129847929Y-137972939D01*
X129890327Y-137909486D01*
X129890329Y-137909484D01*
X130015903Y-137721548D01*
X130015904Y-137721547D01*
X130060000Y-137499862D01*
X130060000Y-137499858D01*
X130074888Y-137425011D01*
X130060000Y-137350164D01*
X130060000Y-128099846D01*
X130074888Y-128024999D01*
X130069915Y-128000000D01*
X130074888Y-127975001D01*
X130015903Y-127678463D01*
X129847929Y-127427071D01*
X129596537Y-127259097D01*
X129299999Y-127200112D01*
X129099449Y-127240004D01*
X117803711Y-127240004D01*
X117686280Y-127122573D01*
X117305874Y-126965004D01*
X116894126Y-126965004D01*
X116513720Y-127122573D01*
X116222569Y-127413724D01*
X116065000Y-127794130D01*
X116065000Y-128205878D01*
X116222569Y-128586284D01*
X116513720Y-128877435D01*
X116894126Y-129035004D01*
X117305874Y-129035004D01*
X117686280Y-128877435D01*
X117803711Y-128760004D01*
X128540000Y-128760004D01*
X128540001Y-137110206D01*
X124660199Y-140990010D01*
X124494126Y-140990010D01*
X124113720Y-141147579D01*
X123822569Y-141438730D01*
X123665000Y-141819136D01*
X123665000Y-142230884D01*
X123751619Y-142440000D01*
X120635000Y-142440000D01*
X120635000Y-142394126D01*
X120477431Y-142013720D01*
X120186280Y-141722569D01*
X119805874Y-141565000D01*
X119394126Y-141565000D01*
X119013720Y-141722569D01*
X118722569Y-142013720D01*
X118565000Y-142394126D01*
X118565000Y-142805874D01*
X118722569Y-143186280D01*
X119013720Y-143477431D01*
X119394126Y-143635000D01*
X119560198Y-143635000D01*
X119609670Y-143684472D01*
X119652071Y-143747929D01*
X119903463Y-143915904D01*
X120125148Y-143960000D01*
X120125152Y-143960000D01*
X120199999Y-143974888D01*
X120274846Y-143960000D01*
X125552560Y-143960000D01*
X125552560Y-144800000D01*
X125601843Y-145047765D01*
X125738684Y-145252560D01*
X125250000Y-145252560D01*
X125002235Y-145301843D01*
X124792191Y-145442191D01*
X124693427Y-145590000D01*
X123024848Y-145590000D01*
X122950000Y-145575112D01*
X122875152Y-145590000D01*
X122875148Y-145590000D01*
X122653463Y-145634096D01*
X122402071Y-145802071D01*
X122359671Y-145865527D01*
X122060198Y-146165000D01*
X121894126Y-146165000D01*
X121513720Y-146322569D01*
X121222569Y-146613720D01*
X121065000Y-146994126D01*
X121065000Y-147405874D01*
X121222569Y-147786280D01*
X121513720Y-148077431D01*
X121894126Y-148235000D01*
X122305874Y-148235000D01*
X122686280Y-148077431D01*
X122977431Y-147786280D01*
X123135000Y-147405874D01*
X123135000Y-147239802D01*
X123264802Y-147110000D01*
X124693427Y-147110000D01*
X124790676Y-147255542D01*
X124694922Y-147398848D01*
X124627560Y-147737500D01*
X124627560Y-148212500D01*
X124633030Y-148240000D01*
X116614802Y-148240000D01*
X116135000Y-147760199D01*
X116135000Y-147594126D01*
X115977431Y-147213720D01*
X115686280Y-146922569D01*
X115305874Y-146765000D01*
X114894126Y-146765000D01*
X114513720Y-146922569D01*
X114222569Y-147213720D01*
X114065000Y-147594126D01*
X114065000Y-148005874D01*
X114222569Y-148386280D01*
X114513720Y-148677431D01*
X114894126Y-148835000D01*
X115060199Y-148835000D01*
X115515198Y-149290000D01*
X100818295Y-149290000D01*
X101786537Y-147285169D01*
X106718700Y-147285169D01*
X106718700Y-147734831D01*
X106890778Y-148150264D01*
X107208736Y-148468222D01*
X107624169Y-148640300D01*
X108073831Y-148640300D01*
X108489264Y-148468222D01*
X108807222Y-148150264D01*
X108865000Y-148010776D01*
X108922778Y-148150264D01*
X109240736Y-148468222D01*
X109656169Y-148640300D01*
X110105831Y-148640300D01*
X110521264Y-148468222D01*
X110839222Y-148150264D01*
X111011300Y-147734831D01*
X111011300Y-147285169D01*
X110839222Y-146869736D01*
X110521264Y-146551778D01*
X110105831Y-146379700D01*
X109656169Y-146379700D01*
X109240736Y-146551778D01*
X108922778Y-146869736D01*
X108865000Y-147009224D01*
X108807222Y-146869736D01*
X108489264Y-146551778D01*
X108073831Y-146379700D01*
X107624169Y-146379700D01*
X107208736Y-146551778D01*
X106890778Y-146869736D01*
X106718700Y-147285169D01*
X101786537Y-147285169D01*
X102989597Y-144794126D01*
X110465000Y-144794126D01*
X110465000Y-145205874D01*
X110622569Y-145586280D01*
X110913720Y-145877431D01*
X111294126Y-146035000D01*
X111705874Y-146035000D01*
X112086280Y-145877431D01*
X112377431Y-145586280D01*
X112535000Y-145205874D01*
X112535000Y-144794126D01*
X112377431Y-144413720D01*
X112266008Y-144302297D01*
X112284077Y-142194126D01*
X113665000Y-142194126D01*
X113665000Y-142605874D01*
X113822569Y-142986280D01*
X114113720Y-143277431D01*
X114494126Y-143435000D01*
X114905874Y-143435000D01*
X115286280Y-143277431D01*
X115577431Y-142986280D01*
X115735000Y-142605874D01*
X115735000Y-142194126D01*
X115577431Y-141813720D01*
X115460000Y-141696289D01*
X115460000Y-126414801D01*
X119039803Y-122835000D01*
X119205874Y-122835000D01*
X119586280Y-122677431D01*
X119877431Y-122386280D01*
X120035000Y-122005874D01*
X120035000Y-121594126D01*
X119877431Y-121213720D01*
X119586280Y-120922569D01*
X119205874Y-120765000D01*
X118794126Y-120765000D01*
X118413720Y-120922569D01*
X118122569Y-121213720D01*
X117965000Y-121594126D01*
X117965000Y-121760197D01*
X114215528Y-125509671D01*
X114152072Y-125552071D01*
X114109672Y-125615527D01*
X114109671Y-125615528D01*
X113984097Y-125803463D01*
X113925112Y-126100000D01*
X113940001Y-126174852D01*
X113940000Y-141696289D01*
X113822569Y-141813720D01*
X113665000Y-142194126D01*
X112284077Y-142194126D01*
X112313943Y-138709767D01*
X112437430Y-138586280D01*
X112594999Y-138205874D01*
X112594999Y-137794126D01*
X112437430Y-137413720D01*
X112146279Y-137122569D01*
X111765873Y-136965000D01*
X111354125Y-136965000D01*
X110973719Y-137122569D01*
X110682568Y-137413720D01*
X110524999Y-137794126D01*
X110524999Y-138205874D01*
X110682568Y-138586280D01*
X110793991Y-138697703D01*
X110746056Y-144290233D01*
X110622569Y-144413720D01*
X110465000Y-144794126D01*
X102989597Y-144794126D01*
X104239946Y-142205169D01*
X107734700Y-142205169D01*
X107734700Y-142654831D01*
X107906778Y-143070264D01*
X108224736Y-143388222D01*
X108640169Y-143560300D01*
X109089831Y-143560300D01*
X109505264Y-143388222D01*
X109823222Y-143070264D01*
X109995300Y-142654831D01*
X109995300Y-142205169D01*
X109823222Y-141789736D01*
X109505264Y-141471778D01*
X109089831Y-141299700D01*
X108640169Y-141299700D01*
X108224736Y-141471778D01*
X107906778Y-141789736D01*
X107734700Y-142205169D01*
X104239946Y-142205169D01*
X107029895Y-136428335D01*
X107063057Y-136369204D01*
X107089864Y-136286874D01*
X107128586Y-136209430D01*
X107143077Y-136156514D01*
X107325071Y-136081130D01*
X107644352Y-135761849D01*
X107817145Y-135344689D01*
X107817145Y-134893157D01*
X107777289Y-134796936D01*
X107958999Y-134721669D01*
X108278280Y-134402388D01*
X108451073Y-133985228D01*
X108451073Y-133533696D01*
X108411216Y-133437473D01*
X108592926Y-133362207D01*
X108912207Y-133042926D01*
X109085000Y-132625766D01*
X109085000Y-132174234D01*
X109045143Y-132078011D01*
X109226853Y-132002745D01*
X109546134Y-131683464D01*
X109718927Y-131266304D01*
X109718927Y-130814772D01*
X109679071Y-130718551D01*
X109860781Y-130643284D01*
X110180062Y-130324003D01*
X110352855Y-129906843D01*
X110352855Y-129455311D01*
X110332457Y-129406065D01*
X110375712Y-129342744D01*
X117080554Y-113614094D01*
X117123871Y-113407425D01*
X117121663Y-113395696D01*
X117135705Y-113322779D01*
X117134874Y-113186482D01*
X117134874Y-113050000D01*
X117093882Y-112843919D01*
X117093881Y-112843916D01*
X116987866Y-112587976D01*
X116871130Y-112413269D01*
X116713405Y-112255546D01*
X116675242Y-112217383D01*
X116500535Y-112100648D01*
X116394521Y-112056736D01*
X116244595Y-111994634D01*
X116048229Y-111955574D01*
X115989797Y-111942239D01*
X107974836Y-111717521D01*
X107903372Y-111698070D01*
X107913340Y-111661447D01*
X111780054Y-106081634D01*
X111909009Y-106028219D01*
X112228290Y-105708938D01*
X112401083Y-105291778D01*
X112401083Y-104904784D01*
X112725967Y-104770213D01*
X113045248Y-104450932D01*
X113218041Y-104033772D01*
X113218041Y-103646779D01*
X113542926Y-103512207D01*
X113862207Y-103192926D01*
X114035000Y-102775766D01*
X114035000Y-102388773D01*
X114359885Y-102254201D01*
X114679166Y-101934920D01*
X114851959Y-101517760D01*
X114851959Y-101130766D01*
X115176843Y-100996195D01*
X115496124Y-100676914D01*
X115668917Y-100259754D01*
X115668917Y-99808222D01*
X115548602Y-99517755D01*
X123449683Y-82256931D01*
X123498424Y-82051474D01*
X123490541Y-82002556D01*
X123498781Y-81896112D01*
X123496242Y-81874888D01*
X123484138Y-81773738D01*
X123465867Y-81621046D01*
X123465866Y-81621044D01*
X123415137Y-81465597D01*
X123317540Y-81291850D01*
X123279465Y-81224067D01*
X123173111Y-81099866D01*
X123171651Y-81098718D01*
X122955335Y-80928638D01*
X122809546Y-80854591D01*
X122639455Y-80806857D01*
X122542825Y-80779738D01*
X122427762Y-80770831D01*
X122406441Y-80766229D01*
X114646482Y-80640256D01*
X114598202Y-80634187D01*
X119769195Y-75633133D01*
X119897403Y-75633133D01*
X120314563Y-75460340D01*
X120633844Y-75141059D01*
X120806637Y-74723899D01*
X120806637Y-74484067D01*
X120861585Y-74484067D01*
X121278745Y-74311274D01*
X121598026Y-73991993D01*
X121770819Y-73574833D01*
X121770819Y-73335000D01*
X121825766Y-73335000D01*
X122242926Y-73162207D01*
X122562207Y-72842926D01*
X122735000Y-72425766D01*
X122735000Y-72185933D01*
X122789947Y-72185933D01*
X123207107Y-72013140D01*
X123526388Y-71693859D01*
X123699181Y-71276699D01*
X123699181Y-71036867D01*
X123754129Y-71036867D01*
X124171289Y-70864074D01*
X124490570Y-70544793D01*
X124663363Y-70127633D01*
X124663363Y-69732811D01*
X126065000Y-67420662D01*
X126065000Y-67714250D01*
X126223750Y-67873000D01*
X127098000Y-67873000D01*
X127098000Y-67048750D01*
X126939250Y-66890000D01*
X126573691Y-66890000D01*
X126340302Y-66986673D01*
X126309282Y-67017693D01*
X129690000Y-61440839D01*
X129690000Y-67004289D01*
G04 #@! TO.N,/BATT2*
G36*
X167040001Y-97069926D02*
X167053642Y-97138504D01*
X167053642Y-97138513D01*
X167122150Y-97482928D01*
X167143959Y-97535579D01*
X167228165Y-97738871D01*
X167423261Y-98030852D01*
X167537385Y-98144975D01*
X167619148Y-98226739D01*
X167911130Y-98421835D01*
X168076523Y-98490343D01*
X168167072Y-98527850D01*
X168511486Y-98596358D01*
X168788513Y-98596358D01*
X169132928Y-98527850D01*
X169335879Y-98443785D01*
X169388871Y-98421835D01*
X169680852Y-98226739D01*
X169820992Y-98086598D01*
X169876739Y-98030852D01*
X170071835Y-97738870D01*
X170154304Y-97539772D01*
X170177850Y-97482928D01*
X170211587Y-97313322D01*
X170218214Y-97303449D01*
X170259849Y-97096435D01*
X170260640Y-96724351D01*
X170340000Y-96803711D01*
X170340001Y-110185197D01*
X162115530Y-118409669D01*
X162052071Y-118452071D01*
X161884096Y-118703464D01*
X161840000Y-118925149D01*
X161840000Y-118925153D01*
X161825112Y-119000000D01*
X161840000Y-119074847D01*
X161840001Y-122485197D01*
X161456576Y-122868623D01*
X161522440Y-122537500D01*
X161522440Y-122062500D01*
X161455078Y-121723848D01*
X161318007Y-121518708D01*
X161480078Y-121276152D01*
X161547440Y-120937500D01*
X161547440Y-120462500D01*
X161480078Y-120123848D01*
X161288247Y-119836753D01*
X161001152Y-119644922D01*
X160662500Y-119577560D01*
X160087500Y-119577560D01*
X159748848Y-119644922D01*
X159580460Y-119757435D01*
X159509698Y-119686673D01*
X159276309Y-119590000D01*
X158910750Y-119590000D01*
X158752000Y-119748750D01*
X158752000Y-120573000D01*
X158772000Y-120573000D01*
X158772000Y-120827000D01*
X158752000Y-120827000D01*
X158752000Y-120847000D01*
X158498000Y-120847000D01*
X158498000Y-120827000D01*
X157623750Y-120827000D01*
X157465000Y-120985750D01*
X157465000Y-121301310D01*
X157561673Y-121534699D01*
X157597421Y-121570447D01*
X157494922Y-121723848D01*
X157427560Y-122062500D01*
X157427560Y-122537500D01*
X157494922Y-122876152D01*
X157686753Y-123163247D01*
X157832891Y-123260893D01*
X157825112Y-123300000D01*
X157840000Y-123374847D01*
X157840000Y-123374851D01*
X157884096Y-123596536D01*
X158052071Y-123847929D01*
X158115530Y-123890331D01*
X158609671Y-124384473D01*
X158652071Y-124447929D01*
X158903463Y-124615904D01*
X159125148Y-124660000D01*
X159125152Y-124660000D01*
X159199999Y-124674888D01*
X159274846Y-124660000D01*
X161425153Y-124660000D01*
X161500000Y-124674888D01*
X161574847Y-124660000D01*
X161574852Y-124660000D01*
X161796537Y-124615904D01*
X162047929Y-124447929D01*
X162090331Y-124384470D01*
X163084473Y-123390329D01*
X163147929Y-123347929D01*
X163315904Y-123096537D01*
X163360000Y-122874852D01*
X163360000Y-122874847D01*
X163374888Y-122800000D01*
X163360000Y-122725153D01*
X163360000Y-119314801D01*
X171584473Y-111090329D01*
X171647929Y-111047929D01*
X171815904Y-110796537D01*
X171860000Y-110574852D01*
X171860000Y-110574848D01*
X171874888Y-110500001D01*
X171860000Y-110425154D01*
X171860000Y-96803711D01*
X171977431Y-96686280D01*
X172135000Y-96305874D01*
X172135000Y-95894126D01*
X171977431Y-95513720D01*
X171686280Y-95222569D01*
X171305874Y-95065000D01*
X170894126Y-95065000D01*
X170513720Y-95222569D01*
X170263301Y-95472988D01*
X170291642Y-82145778D01*
X170300000Y-82147440D01*
X173300000Y-82147440D01*
X173547765Y-82098157D01*
X173757809Y-81957809D01*
X173828873Y-81851454D01*
X173836753Y-81863247D01*
X174123848Y-82055078D01*
X174462500Y-82122440D01*
X174937500Y-82122440D01*
X175276152Y-82055078D01*
X175563247Y-81863247D01*
X175566924Y-81857744D01*
X175702235Y-81948157D01*
X175950000Y-81997440D01*
X176850000Y-81997440D01*
X177097765Y-81948157D01*
X177307809Y-81807809D01*
X177448157Y-81597765D01*
X177497440Y-81350000D01*
X177497440Y-80861316D01*
X177640001Y-80956573D01*
X177640000Y-103685198D01*
X174015528Y-107309671D01*
X173952072Y-107352071D01*
X173909672Y-107415527D01*
X173909671Y-107415528D01*
X173784097Y-107603463D01*
X173725112Y-107900000D01*
X173740001Y-107974852D01*
X173740000Y-109796289D01*
X173622569Y-109913720D01*
X173465000Y-110294126D01*
X173465000Y-110705874D01*
X173622569Y-111086280D01*
X173740000Y-111203711D01*
X173740001Y-124413057D01*
X173665000Y-124594126D01*
X173665000Y-125005874D01*
X173822569Y-125386280D01*
X174113720Y-125677431D01*
X174494126Y-125835000D01*
X174905874Y-125835000D01*
X175286280Y-125677431D01*
X175577431Y-125386280D01*
X175735000Y-125005874D01*
X175735000Y-124594126D01*
X175577431Y-124213720D01*
X175286280Y-123922569D01*
X175260000Y-123911683D01*
X175260000Y-111203711D01*
X175377431Y-111086280D01*
X175535000Y-110705874D01*
X175535000Y-110294126D01*
X175377431Y-109913720D01*
X175260000Y-109796289D01*
X175260000Y-108214801D01*
X178884473Y-104590329D01*
X178947929Y-104547929D01*
X179115904Y-104296537D01*
X179160000Y-104074852D01*
X179160000Y-104074847D01*
X179174888Y-104000000D01*
X179160000Y-103925153D01*
X179160000Y-95738022D01*
X179394126Y-95835000D01*
X179805874Y-95835000D01*
X180186280Y-95677431D01*
X180303711Y-95560000D01*
X182925153Y-95560000D01*
X183000000Y-95574888D01*
X183074847Y-95560000D01*
X183074852Y-95560000D01*
X183296537Y-95515904D01*
X183547929Y-95347929D01*
X183590331Y-95284470D01*
X185009473Y-93865329D01*
X185072929Y-93822929D01*
X185113225Y-93762622D01*
X185151152Y-93755078D01*
X185438247Y-93563247D01*
X185630078Y-93276152D01*
X185697440Y-92937500D01*
X185697440Y-92462500D01*
X185630078Y-92123848D01*
X185537592Y-91985433D01*
X185588327Y-91934699D01*
X185685000Y-91701310D01*
X185685000Y-91385750D01*
X185526250Y-91227000D01*
X184652000Y-91227000D01*
X184652000Y-91247000D01*
X184398000Y-91247000D01*
X184398000Y-91227000D01*
X184378000Y-91227000D01*
X184378000Y-90973000D01*
X184398000Y-90973000D01*
X184398000Y-90148750D01*
X184652000Y-90148750D01*
X184652000Y-90973000D01*
X185526250Y-90973000D01*
X185685000Y-90814250D01*
X185685000Y-90498690D01*
X185588327Y-90265301D01*
X185409698Y-90086673D01*
X185176309Y-89990000D01*
X184810750Y-89990000D01*
X184652000Y-90148750D01*
X184398000Y-90148750D01*
X184239250Y-89990000D01*
X183873691Y-89990000D01*
X183640302Y-90086673D01*
X183569540Y-90157435D01*
X183401152Y-90044922D01*
X183062500Y-89977560D01*
X182487500Y-89977560D01*
X182148848Y-90044922D01*
X181861753Y-90236753D01*
X181669922Y-90523848D01*
X181602560Y-90862500D01*
X181602560Y-91337500D01*
X181669922Y-91676152D01*
X181819493Y-91900000D01*
X181669922Y-92123848D01*
X181602560Y-92462500D01*
X181602560Y-92937500D01*
X181669922Y-93276152D01*
X181861753Y-93563247D01*
X182148848Y-93755078D01*
X182487500Y-93822440D01*
X182902759Y-93822440D01*
X182685199Y-94040000D01*
X180303711Y-94040000D01*
X180186280Y-93922569D01*
X179805874Y-93765000D01*
X179394126Y-93765000D01*
X179160000Y-93861978D01*
X179160000Y-80956573D01*
X179307809Y-80857809D01*
X179373163Y-80760000D01*
X179896289Y-80760000D01*
X180013720Y-80877431D01*
X180394126Y-81035000D01*
X180805874Y-81035000D01*
X181186280Y-80877431D01*
X181477431Y-80586280D01*
X181635000Y-80205874D01*
X181635000Y-79794126D01*
X181477431Y-79413720D01*
X181186280Y-79122569D01*
X180805874Y-78965000D01*
X180394126Y-78965000D01*
X180013720Y-79122569D01*
X179896289Y-79240000D01*
X179373163Y-79240000D01*
X179307809Y-79142191D01*
X179097765Y-79001843D01*
X178850000Y-78952560D01*
X177950000Y-78952560D01*
X177702235Y-79001843D01*
X177497440Y-79138684D01*
X177497440Y-78650000D01*
X177448157Y-78402235D01*
X177307809Y-78192191D01*
X177097765Y-78051843D01*
X176850000Y-78002560D01*
X175950000Y-78002560D01*
X175717191Y-78048868D01*
X175735000Y-78005874D01*
X175735000Y-77594126D01*
X175577431Y-77213720D01*
X175286280Y-76922569D01*
X174905874Y-76765000D01*
X174494126Y-76765000D01*
X174113720Y-76922569D01*
X173822569Y-77213720D01*
X173665000Y-77594126D01*
X173665000Y-77980178D01*
X173547765Y-77901843D01*
X173300000Y-77852560D01*
X170300772Y-77852560D01*
X170304185Y-76247440D01*
X173300000Y-76247440D01*
X173547765Y-76198157D01*
X173757809Y-76057809D01*
X173860504Y-75904117D01*
X174123848Y-76080078D01*
X174462500Y-76147440D01*
X174937500Y-76147440D01*
X175276152Y-76080078D01*
X175513081Y-75921767D01*
X175702235Y-76048157D01*
X175950000Y-76097440D01*
X176850000Y-76097440D01*
X177097765Y-76048157D01*
X177307809Y-75907809D01*
X177448157Y-75697765D01*
X177497440Y-75450000D01*
X177497440Y-74961316D01*
X177702235Y-75098157D01*
X177950000Y-75147440D01*
X178850000Y-75147440D01*
X179097765Y-75098157D01*
X179177138Y-75045121D01*
X179394126Y-75135000D01*
X179805874Y-75135000D01*
X180186280Y-74977431D01*
X180477431Y-74686280D01*
X180635000Y-74305874D01*
X180635000Y-73894126D01*
X180477431Y-73513720D01*
X180186280Y-73222569D01*
X179805874Y-73065000D01*
X179394126Y-73065000D01*
X179177138Y-73154879D01*
X179097765Y-73101843D01*
X178850000Y-73052560D01*
X177950000Y-73052560D01*
X177702235Y-73101843D01*
X177497440Y-73238684D01*
X177497440Y-72750000D01*
X177448157Y-72502235D01*
X177307809Y-72292191D01*
X177097765Y-72151843D01*
X176850000Y-72102560D01*
X175950000Y-72102560D01*
X175735000Y-72145326D01*
X175735000Y-71794126D01*
X175577431Y-71413720D01*
X175286280Y-71122569D01*
X174905874Y-70965000D01*
X174494126Y-70965000D01*
X174113720Y-71122569D01*
X173822569Y-71413720D01*
X173665000Y-71794126D01*
X173665000Y-72080178D01*
X173547765Y-72001843D01*
X173300000Y-71952560D01*
X170313318Y-71952560D01*
X170316732Y-70347440D01*
X173300000Y-70347440D01*
X173547765Y-70298157D01*
X173757809Y-70157809D01*
X173860504Y-70004117D01*
X174123848Y-70180078D01*
X174462500Y-70247440D01*
X174937500Y-70247440D01*
X175276152Y-70180078D01*
X175563247Y-69988247D01*
X175637888Y-69876539D01*
X175692191Y-69957809D01*
X175902235Y-70098157D01*
X176150000Y-70147440D01*
X177050000Y-70147440D01*
X177297765Y-70098157D01*
X177507809Y-69957809D01*
X177648157Y-69747765D01*
X177697440Y-69500000D01*
X177697440Y-69011316D01*
X177902235Y-69148157D01*
X178150000Y-69197440D01*
X179050000Y-69197440D01*
X179297765Y-69148157D01*
X179461600Y-69038685D01*
X179694126Y-69135000D01*
X180105874Y-69135000D01*
X180486280Y-68977431D01*
X180777431Y-68686280D01*
X180935000Y-68305874D01*
X180935000Y-67894126D01*
X180777431Y-67513720D01*
X180486280Y-67222569D01*
X180105874Y-67065000D01*
X179694126Y-67065000D01*
X179369213Y-67199583D01*
X179297765Y-67151843D01*
X179050000Y-67102560D01*
X178150000Y-67102560D01*
X177902235Y-67151843D01*
X177697440Y-67288684D01*
X177697440Y-66800000D01*
X177648157Y-66552235D01*
X177577040Y-66445802D01*
X177635000Y-66305874D01*
X177635000Y-65894126D01*
X177477431Y-65513720D01*
X177186280Y-65222569D01*
X176805874Y-65065000D01*
X176394126Y-65065000D01*
X176013720Y-65222569D01*
X175722569Y-65513720D01*
X175565000Y-65894126D01*
X175565000Y-66305874D01*
X175622960Y-66445802D01*
X175604479Y-66473461D01*
X175563247Y-66411753D01*
X175276152Y-66219922D01*
X174937500Y-66152560D01*
X174462500Y-66152560D01*
X174123848Y-66219922D01*
X173860504Y-66395883D01*
X173757809Y-66242191D01*
X173547765Y-66101843D01*
X173300000Y-66052560D01*
X170325865Y-66052560D01*
X170358492Y-50710000D01*
X192362731Y-50710000D01*
X192302560Y-51012500D01*
X192302560Y-51487500D01*
X192369922Y-51826152D01*
X192561753Y-52113247D01*
X192566798Y-52116618D01*
X192394922Y-52373848D01*
X192327560Y-52712500D01*
X192327560Y-53187500D01*
X192394922Y-53526152D01*
X192586753Y-53813247D01*
X192873848Y-54005078D01*
X193212500Y-54072440D01*
X193787500Y-54072440D01*
X194126152Y-54005078D01*
X194294540Y-53892565D01*
X194365302Y-53963327D01*
X194598691Y-54060000D01*
X194964250Y-54060000D01*
X195123000Y-53901250D01*
X195123000Y-53077000D01*
X195377000Y-53077000D01*
X195377000Y-53901250D01*
X195535750Y-54060000D01*
X195901309Y-54060000D01*
X196134698Y-53963327D01*
X196313327Y-53784699D01*
X196410000Y-53551310D01*
X196410000Y-53235750D01*
X196251250Y-53077000D01*
X195377000Y-53077000D01*
X195123000Y-53077000D01*
X195103000Y-53077000D01*
X195103000Y-52823000D01*
X195123000Y-52823000D01*
X195123000Y-52803000D01*
X195377000Y-52803000D01*
X195377000Y-52823000D01*
X196251250Y-52823000D01*
X196410000Y-52664250D01*
X196410000Y-52348690D01*
X196344311Y-52190102D01*
X196694126Y-52335000D01*
X197105874Y-52335000D01*
X197486280Y-52177431D01*
X197777431Y-51886280D01*
X197935000Y-51505874D01*
X197935000Y-51094126D01*
X197777431Y-50713720D01*
X197773711Y-50710000D01*
X199154025Y-50710000D01*
X193664669Y-61883028D01*
X193606499Y-61997951D01*
X193374929Y-62093870D01*
X193055648Y-62413151D01*
X192882855Y-62830311D01*
X192882855Y-63281843D01*
X192922711Y-63378064D01*
X192741001Y-63453331D01*
X192421720Y-63772612D01*
X192248927Y-64189772D01*
X192248927Y-64641304D01*
X192288784Y-64737527D01*
X192107074Y-64812793D01*
X191787793Y-65132074D01*
X191615000Y-65549234D01*
X191615000Y-66000766D01*
X191654857Y-66096989D01*
X191473147Y-66172255D01*
X191153866Y-66491536D01*
X190981073Y-66908696D01*
X190981073Y-67360228D01*
X191020929Y-67456449D01*
X190839219Y-67531716D01*
X190519938Y-67850997D01*
X190347145Y-68268157D01*
X190347145Y-68699557D01*
X190326455Y-68733526D01*
X190319365Y-68752905D01*
X190299061Y-68782670D01*
X182849586Y-86290191D01*
X182817509Y-86361417D01*
X182795563Y-86456516D01*
X182762629Y-86548397D01*
X182731486Y-86757539D01*
X182736592Y-86862662D01*
X182744924Y-87034242D01*
X182796187Y-87239382D01*
X182838344Y-87328643D01*
X182914490Y-87489876D01*
X183040354Y-87659782D01*
X183040355Y-87659785D01*
X183245515Y-87845941D01*
X183426819Y-87954749D01*
X183520152Y-87988203D01*
X183687602Y-88048224D01*
X183820781Y-88068055D01*
X183892333Y-88083629D01*
X191944205Y-88228273D01*
X186093122Y-97694662D01*
X185865489Y-97788950D01*
X185546208Y-98108231D01*
X185373415Y-98525391D01*
X185373415Y-98976923D01*
X185390591Y-99018389D01*
X185161281Y-99113372D01*
X184842000Y-99432653D01*
X184669207Y-99849813D01*
X184669207Y-100301345D01*
X184686383Y-100342810D01*
X184457074Y-100437793D01*
X184137793Y-100757074D01*
X183965000Y-101174234D01*
X183965000Y-101625766D01*
X183982176Y-101667231D01*
X183752867Y-101762214D01*
X183433586Y-102081495D01*
X183260793Y-102498655D01*
X183260793Y-102950187D01*
X183277969Y-102991653D01*
X183048659Y-103086636D01*
X182729378Y-103405917D01*
X182556585Y-103823077D01*
X182556585Y-104160457D01*
X176549089Y-117471672D01*
X176548488Y-117474266D01*
X176544070Y-117484253D01*
X176523746Y-117575074D01*
X176491791Y-117662478D01*
X176456284Y-117890982D01*
X176456284Y-117890984D01*
X176467969Y-118167765D01*
X176522610Y-118392463D01*
X176599827Y-118558678D01*
X176639326Y-118643703D01*
X176775795Y-118830386D01*
X176775796Y-118830387D01*
X176979773Y-119017838D01*
X177177295Y-119138087D01*
X177357057Y-119203807D01*
X177437478Y-119233209D01*
X177461127Y-119236884D01*
X177468718Y-119242026D01*
X177675554Y-119284540D01*
X185166309Y-119332251D01*
X177872038Y-126674199D01*
X177859927Y-126692453D01*
X177839266Y-126715970D01*
X177502803Y-126855337D01*
X177183522Y-127174618D01*
X177010729Y-127591778D01*
X177010729Y-127931515D01*
X176642439Y-128084065D01*
X176323158Y-128403346D01*
X176150365Y-128820506D01*
X176150365Y-129160242D01*
X175782074Y-129312793D01*
X175462793Y-129632074D01*
X175290000Y-130049234D01*
X175290000Y-130388970D01*
X174921709Y-130541521D01*
X174602428Y-130860802D01*
X174429635Y-131277962D01*
X174429635Y-131617699D01*
X174061345Y-131770249D01*
X173742064Y-132089530D01*
X173569271Y-132506690D01*
X173569271Y-132801032D01*
X173390680Y-133007435D01*
X173347043Y-133056724D01*
X169234347Y-140103479D01*
X169059298Y-140310816D01*
X168878515Y-140414463D01*
X168673180Y-140450028D01*
X168468073Y-140413222D01*
X168287917Y-140308480D01*
X168106382Y-140090799D01*
X160113705Y-127387706D01*
X160047563Y-127317830D01*
X160023324Y-127282482D01*
X159755995Y-127021507D01*
X159755995Y-126868295D01*
X159583202Y-126451135D01*
X159263921Y-126131854D01*
X158846761Y-125959061D01*
X158732998Y-125959061D01*
X158732998Y-125771265D01*
X158560205Y-125354105D01*
X158240924Y-125034824D01*
X157823764Y-124862031D01*
X157710000Y-124862031D01*
X157710000Y-124674234D01*
X157537207Y-124257074D01*
X157217926Y-123937793D01*
X156800766Y-123765000D01*
X156687002Y-123765000D01*
X156687002Y-123577203D01*
X156514209Y-123160043D01*
X156194928Y-122840762D01*
X155777768Y-122667969D01*
X155664005Y-122667969D01*
X155664005Y-122480173D01*
X155491212Y-122063013D01*
X155171931Y-121743732D01*
X154754771Y-121570939D01*
X154479361Y-121570939D01*
X154442614Y-121519847D01*
X154433372Y-121511221D01*
X154399928Y-121466843D01*
X152866937Y-120098690D01*
X157465000Y-120098690D01*
X157465000Y-120414250D01*
X157623750Y-120573000D01*
X158498000Y-120573000D01*
X158498000Y-119748750D01*
X158339250Y-119590000D01*
X157973691Y-119590000D01*
X157740302Y-119686673D01*
X157561673Y-119865301D01*
X157465000Y-120098690D01*
X152866937Y-120098690D01*
X152074672Y-119391616D01*
X152064134Y-119374935D01*
X152062831Y-119367373D01*
X152064522Y-119359881D01*
X152068948Y-119353610D01*
X152086222Y-119342698D01*
X152129313Y-119333721D01*
X159904022Y-119234045D01*
X160110578Y-119190198D01*
X160111047Y-119189876D01*
X160158527Y-119179720D01*
X160283122Y-119126001D01*
X160408139Y-119073304D01*
X160571497Y-118962676D01*
X160627193Y-118906282D01*
X160766165Y-118765570D01*
X160874752Y-118600848D01*
X160959002Y-118393816D01*
X160979170Y-118344257D01*
X161016456Y-118150520D01*
X161016198Y-118109018D01*
X161014733Y-117873494D01*
X160975040Y-117680236D01*
X160964295Y-117654744D01*
X160948819Y-117590571D01*
X153240140Y-100913626D01*
X153200018Y-100858519D01*
X152955145Y-100519169D01*
X152927277Y-100490676D01*
X152905180Y-100457507D01*
X152843415Y-100399347D01*
X152843415Y-100148077D01*
X152670622Y-99730917D01*
X152351341Y-99411636D01*
X152122031Y-99316653D01*
X152139207Y-99275187D01*
X152139207Y-98823655D01*
X151966414Y-98406495D01*
X151647133Y-98087214D01*
X151417824Y-97992231D01*
X151435000Y-97950766D01*
X151435000Y-97499234D01*
X151262207Y-97082074D01*
X150942926Y-96762793D01*
X150713617Y-96667810D01*
X150730793Y-96626345D01*
X150730793Y-96174813D01*
X150558000Y-95757653D01*
X150238719Y-95438372D01*
X150009409Y-95343389D01*
X150026585Y-95301923D01*
X150026585Y-94850391D01*
X149853792Y-94433231D01*
X149534511Y-94113950D01*
X149201839Y-93976153D01*
X149080817Y-93752786D01*
X149049217Y-93679540D01*
X145290723Y-88228481D01*
X145287015Y-88214940D01*
X145288903Y-88199968D01*
X145296376Y-88186857D01*
X145308301Y-88177603D01*
X145373624Y-88159714D01*
X153281221Y-88033796D01*
X153286758Y-88032603D01*
X153307376Y-88031948D01*
X153401826Y-88010023D01*
X153498224Y-87999483D01*
X153703114Y-87934921D01*
X153854782Y-87851747D01*
X153946014Y-87801717D01*
X154110601Y-87663662D01*
X154110604Y-87663659D01*
X154258053Y-87480007D01*
X154284038Y-87447642D01*
X154284038Y-87447641D01*
X154284040Y-87447639D01*
X154383266Y-87257108D01*
X154422543Y-87122440D01*
X154460832Y-86991165D01*
X154479593Y-86777164D01*
X154478454Y-86766742D01*
X154470778Y-86696546D01*
X154449483Y-86501778D01*
X154449482Y-86501776D01*
X154421898Y-86414236D01*
X154408498Y-86345500D01*
X153493513Y-84112500D01*
X161352560Y-84112500D01*
X161352560Y-84587500D01*
X161419922Y-84926152D01*
X161586197Y-85175000D01*
X161419922Y-85423848D01*
X161352560Y-85762500D01*
X161352560Y-86237500D01*
X161419922Y-86576152D01*
X161611753Y-86863247D01*
X161898848Y-87055078D01*
X162237500Y-87122440D01*
X162812500Y-87122440D01*
X163151152Y-87055078D01*
X163319540Y-86942565D01*
X163390302Y-87013327D01*
X163623691Y-87110000D01*
X163989250Y-87110000D01*
X164148000Y-86951250D01*
X164148000Y-86127000D01*
X164402000Y-86127000D01*
X164402000Y-86951250D01*
X164560750Y-87110000D01*
X164926309Y-87110000D01*
X165159698Y-87013327D01*
X165338327Y-86834699D01*
X165435000Y-86601310D01*
X165435000Y-86285750D01*
X165276250Y-86127000D01*
X164402000Y-86127000D01*
X164148000Y-86127000D01*
X164128000Y-86127000D01*
X164128000Y-85873000D01*
X164148000Y-85873000D01*
X164148000Y-85853000D01*
X164402000Y-85853000D01*
X164402000Y-85873000D01*
X165276250Y-85873000D01*
X165435000Y-85714250D01*
X165435000Y-85398690D01*
X165364133Y-85227602D01*
X165744126Y-85385000D01*
X166155874Y-85385000D01*
X166536280Y-85227431D01*
X166827431Y-84936280D01*
X166985000Y-84555874D01*
X166985000Y-84144126D01*
X166827431Y-83763720D01*
X166536280Y-83472569D01*
X166155874Y-83315000D01*
X165744126Y-83315000D01*
X165363720Y-83472569D01*
X165252850Y-83583439D01*
X165188247Y-83486753D01*
X164901152Y-83294922D01*
X164562500Y-83227560D01*
X163987500Y-83227560D01*
X163648848Y-83294922D01*
X163400000Y-83461197D01*
X163151152Y-83294922D01*
X162812500Y-83227560D01*
X162237500Y-83227560D01*
X161898848Y-83294922D01*
X161611753Y-83486753D01*
X161419922Y-83773848D01*
X161352560Y-84112500D01*
X153493513Y-84112500D01*
X151866143Y-80140944D01*
X153309671Y-81584473D01*
X153352071Y-81647929D01*
X153603463Y-81815904D01*
X153825148Y-81860000D01*
X153825153Y-81860000D01*
X153900000Y-81874888D01*
X153974847Y-81860000D01*
X162561974Y-81860000D01*
X162679405Y-81977431D01*
X163059811Y-82135000D01*
X163471559Y-82135000D01*
X163851965Y-81977431D01*
X164143116Y-81686280D01*
X164300685Y-81305874D01*
X164300685Y-80894126D01*
X164143116Y-80513720D01*
X163851965Y-80222569D01*
X163471559Y-80065000D01*
X163059811Y-80065000D01*
X162679405Y-80222569D01*
X162561974Y-80340000D01*
X154214802Y-80340000D01*
X152160000Y-78285199D01*
X152160000Y-55974846D01*
X152174888Y-55899999D01*
X152160000Y-55825152D01*
X152160000Y-55825148D01*
X152115904Y-55603463D01*
X152074102Y-55540902D01*
X151990329Y-55415526D01*
X151990327Y-55415524D01*
X151947929Y-55352071D01*
X151884476Y-55309673D01*
X149235000Y-52660199D01*
X149235000Y-52494126D01*
X149077431Y-52113720D01*
X148786280Y-51822569D01*
X148405874Y-51665000D01*
X147994126Y-51665000D01*
X147613720Y-51822569D01*
X147322569Y-52113720D01*
X147165000Y-52494126D01*
X147165000Y-52905874D01*
X147322569Y-53286280D01*
X147613720Y-53577431D01*
X147994126Y-53735000D01*
X148160199Y-53735000D01*
X150640000Y-56214803D01*
X150640001Y-77148574D01*
X148055471Y-70841092D01*
X147944903Y-70674242D01*
X147977855Y-70594689D01*
X147977855Y-70143157D01*
X147805062Y-69725997D01*
X147485781Y-69406716D01*
X147304071Y-69331449D01*
X147343927Y-69235228D01*
X147343927Y-68783696D01*
X147171134Y-68366536D01*
X146851853Y-68047255D01*
X146670143Y-67971989D01*
X146710000Y-67875766D01*
X146710000Y-67424234D01*
X146537207Y-67007074D01*
X146217926Y-66687793D01*
X146036216Y-66612527D01*
X146076073Y-66516304D01*
X146076073Y-66064772D01*
X145903280Y-65647612D01*
X145583999Y-65328331D01*
X145402289Y-65253064D01*
X145442145Y-65156843D01*
X145442145Y-64705311D01*
X145269352Y-64288151D01*
X144950071Y-63968870D01*
X144698744Y-63864767D01*
X144668027Y-63749543D01*
X138258345Y-50710000D01*
X167040000Y-50710000D01*
X167040001Y-97069926D01*
X167040001Y-97069926D01*
G37*
X167040001Y-97069926D02*
X167053642Y-97138504D01*
X167053642Y-97138513D01*
X167122150Y-97482928D01*
X167143959Y-97535579D01*
X167228165Y-97738871D01*
X167423261Y-98030852D01*
X167537385Y-98144975D01*
X167619148Y-98226739D01*
X167911130Y-98421835D01*
X168076523Y-98490343D01*
X168167072Y-98527850D01*
X168511486Y-98596358D01*
X168788513Y-98596358D01*
X169132928Y-98527850D01*
X169335879Y-98443785D01*
X169388871Y-98421835D01*
X169680852Y-98226739D01*
X169820992Y-98086598D01*
X169876739Y-98030852D01*
X170071835Y-97738870D01*
X170154304Y-97539772D01*
X170177850Y-97482928D01*
X170211587Y-97313322D01*
X170218214Y-97303449D01*
X170259849Y-97096435D01*
X170260640Y-96724351D01*
X170340000Y-96803711D01*
X170340001Y-110185197D01*
X162115530Y-118409669D01*
X162052071Y-118452071D01*
X161884096Y-118703464D01*
X161840000Y-118925149D01*
X161840000Y-118925153D01*
X161825112Y-119000000D01*
X161840000Y-119074847D01*
X161840001Y-122485197D01*
X161456576Y-122868623D01*
X161522440Y-122537500D01*
X161522440Y-122062500D01*
X161455078Y-121723848D01*
X161318007Y-121518708D01*
X161480078Y-121276152D01*
X161547440Y-120937500D01*
X161547440Y-120462500D01*
X161480078Y-120123848D01*
X161288247Y-119836753D01*
X161001152Y-119644922D01*
X160662500Y-119577560D01*
X160087500Y-119577560D01*
X159748848Y-119644922D01*
X159580460Y-119757435D01*
X159509698Y-119686673D01*
X159276309Y-119590000D01*
X158910750Y-119590000D01*
X158752000Y-119748750D01*
X158752000Y-120573000D01*
X158772000Y-120573000D01*
X158772000Y-120827000D01*
X158752000Y-120827000D01*
X158752000Y-120847000D01*
X158498000Y-120847000D01*
X158498000Y-120827000D01*
X157623750Y-120827000D01*
X157465000Y-120985750D01*
X157465000Y-121301310D01*
X157561673Y-121534699D01*
X157597421Y-121570447D01*
X157494922Y-121723848D01*
X157427560Y-122062500D01*
X157427560Y-122537500D01*
X157494922Y-122876152D01*
X157686753Y-123163247D01*
X157832891Y-123260893D01*
X157825112Y-123300000D01*
X157840000Y-123374847D01*
X157840000Y-123374851D01*
X157884096Y-123596536D01*
X158052071Y-123847929D01*
X158115530Y-123890331D01*
X158609671Y-124384473D01*
X158652071Y-124447929D01*
X158903463Y-124615904D01*
X159125148Y-124660000D01*
X159125152Y-124660000D01*
X159199999Y-124674888D01*
X159274846Y-124660000D01*
X161425153Y-124660000D01*
X161500000Y-124674888D01*
X161574847Y-124660000D01*
X161574852Y-124660000D01*
X161796537Y-124615904D01*
X162047929Y-124447929D01*
X162090331Y-124384470D01*
X163084473Y-123390329D01*
X163147929Y-123347929D01*
X163315904Y-123096537D01*
X163360000Y-122874852D01*
X163360000Y-122874847D01*
X163374888Y-122800000D01*
X163360000Y-122725153D01*
X163360000Y-119314801D01*
X171584473Y-111090329D01*
X171647929Y-111047929D01*
X171815904Y-110796537D01*
X171860000Y-110574852D01*
X171860000Y-110574848D01*
X171874888Y-110500001D01*
X171860000Y-110425154D01*
X171860000Y-96803711D01*
X171977431Y-96686280D01*
X172135000Y-96305874D01*
X172135000Y-95894126D01*
X171977431Y-95513720D01*
X171686280Y-95222569D01*
X171305874Y-95065000D01*
X170894126Y-95065000D01*
X170513720Y-95222569D01*
X170263301Y-95472988D01*
X170291642Y-82145778D01*
X170300000Y-82147440D01*
X173300000Y-82147440D01*
X173547765Y-82098157D01*
X173757809Y-81957809D01*
X173828873Y-81851454D01*
X173836753Y-81863247D01*
X174123848Y-82055078D01*
X174462500Y-82122440D01*
X174937500Y-82122440D01*
X175276152Y-82055078D01*
X175563247Y-81863247D01*
X175566924Y-81857744D01*
X175702235Y-81948157D01*
X175950000Y-81997440D01*
X176850000Y-81997440D01*
X177097765Y-81948157D01*
X177307809Y-81807809D01*
X177448157Y-81597765D01*
X177497440Y-81350000D01*
X177497440Y-80861316D01*
X177640001Y-80956573D01*
X177640000Y-103685198D01*
X174015528Y-107309671D01*
X173952072Y-107352071D01*
X173909672Y-107415527D01*
X173909671Y-107415528D01*
X173784097Y-107603463D01*
X173725112Y-107900000D01*
X173740001Y-107974852D01*
X173740000Y-109796289D01*
X173622569Y-109913720D01*
X173465000Y-110294126D01*
X173465000Y-110705874D01*
X173622569Y-111086280D01*
X173740000Y-111203711D01*
X173740001Y-124413057D01*
X173665000Y-124594126D01*
X173665000Y-125005874D01*
X173822569Y-125386280D01*
X174113720Y-125677431D01*
X174494126Y-125835000D01*
X174905874Y-125835000D01*
X175286280Y-125677431D01*
X175577431Y-125386280D01*
X175735000Y-125005874D01*
X175735000Y-124594126D01*
X175577431Y-124213720D01*
X175286280Y-123922569D01*
X175260000Y-123911683D01*
X175260000Y-111203711D01*
X175377431Y-111086280D01*
X175535000Y-110705874D01*
X175535000Y-110294126D01*
X175377431Y-109913720D01*
X175260000Y-109796289D01*
X175260000Y-108214801D01*
X178884473Y-104590329D01*
X178947929Y-104547929D01*
X179115904Y-104296537D01*
X179160000Y-104074852D01*
X179160000Y-104074847D01*
X179174888Y-104000000D01*
X179160000Y-103925153D01*
X179160000Y-95738022D01*
X179394126Y-95835000D01*
X179805874Y-95835000D01*
X180186280Y-95677431D01*
X180303711Y-95560000D01*
X182925153Y-95560000D01*
X183000000Y-95574888D01*
X183074847Y-95560000D01*
X183074852Y-95560000D01*
X183296537Y-95515904D01*
X183547929Y-95347929D01*
X183590331Y-95284470D01*
X185009473Y-93865329D01*
X185072929Y-93822929D01*
X185113225Y-93762622D01*
X185151152Y-93755078D01*
X185438247Y-93563247D01*
X185630078Y-93276152D01*
X185697440Y-92937500D01*
X185697440Y-92462500D01*
X185630078Y-92123848D01*
X185537592Y-91985433D01*
X185588327Y-91934699D01*
X185685000Y-91701310D01*
X185685000Y-91385750D01*
X185526250Y-91227000D01*
X184652000Y-91227000D01*
X184652000Y-91247000D01*
X184398000Y-91247000D01*
X184398000Y-91227000D01*
X184378000Y-91227000D01*
X184378000Y-90973000D01*
X184398000Y-90973000D01*
X184398000Y-90148750D01*
X184652000Y-90148750D01*
X184652000Y-90973000D01*
X185526250Y-90973000D01*
X185685000Y-90814250D01*
X185685000Y-90498690D01*
X185588327Y-90265301D01*
X185409698Y-90086673D01*
X185176309Y-89990000D01*
X184810750Y-89990000D01*
X184652000Y-90148750D01*
X184398000Y-90148750D01*
X184239250Y-89990000D01*
X183873691Y-89990000D01*
X183640302Y-90086673D01*
X183569540Y-90157435D01*
X183401152Y-90044922D01*
X183062500Y-89977560D01*
X182487500Y-89977560D01*
X182148848Y-90044922D01*
X181861753Y-90236753D01*
X181669922Y-90523848D01*
X181602560Y-90862500D01*
X181602560Y-91337500D01*
X181669922Y-91676152D01*
X181819493Y-91900000D01*
X181669922Y-92123848D01*
X181602560Y-92462500D01*
X181602560Y-92937500D01*
X181669922Y-93276152D01*
X181861753Y-93563247D01*
X182148848Y-93755078D01*
X182487500Y-93822440D01*
X182902759Y-93822440D01*
X182685199Y-94040000D01*
X180303711Y-94040000D01*
X180186280Y-93922569D01*
X179805874Y-93765000D01*
X179394126Y-93765000D01*
X179160000Y-93861978D01*
X179160000Y-80956573D01*
X179307809Y-80857809D01*
X179373163Y-80760000D01*
X179896289Y-80760000D01*
X180013720Y-80877431D01*
X180394126Y-81035000D01*
X180805874Y-81035000D01*
X181186280Y-80877431D01*
X181477431Y-80586280D01*
X181635000Y-80205874D01*
X181635000Y-79794126D01*
X181477431Y-79413720D01*
X181186280Y-79122569D01*
X180805874Y-78965000D01*
X180394126Y-78965000D01*
X180013720Y-79122569D01*
X179896289Y-79240000D01*
X179373163Y-79240000D01*
X179307809Y-79142191D01*
X179097765Y-79001843D01*
X178850000Y-78952560D01*
X177950000Y-78952560D01*
X177702235Y-79001843D01*
X177497440Y-79138684D01*
X177497440Y-78650000D01*
X177448157Y-78402235D01*
X177307809Y-78192191D01*
X177097765Y-78051843D01*
X176850000Y-78002560D01*
X175950000Y-78002560D01*
X175717191Y-78048868D01*
X175735000Y-78005874D01*
X175735000Y-77594126D01*
X175577431Y-77213720D01*
X175286280Y-76922569D01*
X174905874Y-76765000D01*
X174494126Y-76765000D01*
X174113720Y-76922569D01*
X173822569Y-77213720D01*
X173665000Y-77594126D01*
X173665000Y-77980178D01*
X173547765Y-77901843D01*
X173300000Y-77852560D01*
X170300772Y-77852560D01*
X170304185Y-76247440D01*
X173300000Y-76247440D01*
X173547765Y-76198157D01*
X173757809Y-76057809D01*
X173860504Y-75904117D01*
X174123848Y-76080078D01*
X174462500Y-76147440D01*
X174937500Y-76147440D01*
X175276152Y-76080078D01*
X175513081Y-75921767D01*
X175702235Y-76048157D01*
X175950000Y-76097440D01*
X176850000Y-76097440D01*
X177097765Y-76048157D01*
X177307809Y-75907809D01*
X177448157Y-75697765D01*
X177497440Y-75450000D01*
X177497440Y-74961316D01*
X177702235Y-75098157D01*
X177950000Y-75147440D01*
X178850000Y-75147440D01*
X179097765Y-75098157D01*
X179177138Y-75045121D01*
X179394126Y-75135000D01*
X179805874Y-75135000D01*
X180186280Y-74977431D01*
X180477431Y-74686280D01*
X180635000Y-74305874D01*
X180635000Y-73894126D01*
X180477431Y-73513720D01*
X180186280Y-73222569D01*
X179805874Y-73065000D01*
X179394126Y-73065000D01*
X179177138Y-73154879D01*
X179097765Y-73101843D01*
X178850000Y-73052560D01*
X177950000Y-73052560D01*
X177702235Y-73101843D01*
X177497440Y-73238684D01*
X177497440Y-72750000D01*
X177448157Y-72502235D01*
X177307809Y-72292191D01*
X177097765Y-72151843D01*
X176850000Y-72102560D01*
X175950000Y-72102560D01*
X175735000Y-72145326D01*
X175735000Y-71794126D01*
X175577431Y-71413720D01*
X175286280Y-71122569D01*
X174905874Y-70965000D01*
X174494126Y-70965000D01*
X174113720Y-71122569D01*
X173822569Y-71413720D01*
X173665000Y-71794126D01*
X173665000Y-72080178D01*
X173547765Y-72001843D01*
X173300000Y-71952560D01*
X170313318Y-71952560D01*
X170316732Y-70347440D01*
X173300000Y-70347440D01*
X173547765Y-70298157D01*
X173757809Y-70157809D01*
X173860504Y-70004117D01*
X174123848Y-70180078D01*
X174462500Y-70247440D01*
X174937500Y-70247440D01*
X175276152Y-70180078D01*
X175563247Y-69988247D01*
X175637888Y-69876539D01*
X175692191Y-69957809D01*
X175902235Y-70098157D01*
X176150000Y-70147440D01*
X177050000Y-70147440D01*
X177297765Y-70098157D01*
X177507809Y-69957809D01*
X177648157Y-69747765D01*
X177697440Y-69500000D01*
X177697440Y-69011316D01*
X177902235Y-69148157D01*
X178150000Y-69197440D01*
X179050000Y-69197440D01*
X179297765Y-69148157D01*
X179461600Y-69038685D01*
X179694126Y-69135000D01*
X180105874Y-69135000D01*
X180486280Y-68977431D01*
X180777431Y-68686280D01*
X180935000Y-68305874D01*
X180935000Y-67894126D01*
X180777431Y-67513720D01*
X180486280Y-67222569D01*
X180105874Y-67065000D01*
X179694126Y-67065000D01*
X179369213Y-67199583D01*
X179297765Y-67151843D01*
X179050000Y-67102560D01*
X178150000Y-67102560D01*
X177902235Y-67151843D01*
X177697440Y-67288684D01*
X177697440Y-66800000D01*
X177648157Y-66552235D01*
X177577040Y-66445802D01*
X177635000Y-66305874D01*
X177635000Y-65894126D01*
X177477431Y-65513720D01*
X177186280Y-65222569D01*
X176805874Y-65065000D01*
X176394126Y-65065000D01*
X176013720Y-65222569D01*
X175722569Y-65513720D01*
X175565000Y-65894126D01*
X175565000Y-66305874D01*
X175622960Y-66445802D01*
X175604479Y-66473461D01*
X175563247Y-66411753D01*
X175276152Y-66219922D01*
X174937500Y-66152560D01*
X174462500Y-66152560D01*
X174123848Y-66219922D01*
X173860504Y-66395883D01*
X173757809Y-66242191D01*
X173547765Y-66101843D01*
X173300000Y-66052560D01*
X170325865Y-66052560D01*
X170358492Y-50710000D01*
X192362731Y-50710000D01*
X192302560Y-51012500D01*
X192302560Y-51487500D01*
X192369922Y-51826152D01*
X192561753Y-52113247D01*
X192566798Y-52116618D01*
X192394922Y-52373848D01*
X192327560Y-52712500D01*
X192327560Y-53187500D01*
X192394922Y-53526152D01*
X192586753Y-53813247D01*
X192873848Y-54005078D01*
X193212500Y-54072440D01*
X193787500Y-54072440D01*
X194126152Y-54005078D01*
X194294540Y-53892565D01*
X194365302Y-53963327D01*
X194598691Y-54060000D01*
X194964250Y-54060000D01*
X195123000Y-53901250D01*
X195123000Y-53077000D01*
X195377000Y-53077000D01*
X195377000Y-53901250D01*
X195535750Y-54060000D01*
X195901309Y-54060000D01*
X196134698Y-53963327D01*
X196313327Y-53784699D01*
X196410000Y-53551310D01*
X196410000Y-53235750D01*
X196251250Y-53077000D01*
X195377000Y-53077000D01*
X195123000Y-53077000D01*
X195103000Y-53077000D01*
X195103000Y-52823000D01*
X195123000Y-52823000D01*
X195123000Y-52803000D01*
X195377000Y-52803000D01*
X195377000Y-52823000D01*
X196251250Y-52823000D01*
X196410000Y-52664250D01*
X196410000Y-52348690D01*
X196344311Y-52190102D01*
X196694126Y-52335000D01*
X197105874Y-52335000D01*
X197486280Y-52177431D01*
X197777431Y-51886280D01*
X197935000Y-51505874D01*
X197935000Y-51094126D01*
X197777431Y-50713720D01*
X197773711Y-50710000D01*
X199154025Y-50710000D01*
X193664669Y-61883028D01*
X193606499Y-61997951D01*
X193374929Y-62093870D01*
X193055648Y-62413151D01*
X192882855Y-62830311D01*
X192882855Y-63281843D01*
X192922711Y-63378064D01*
X192741001Y-63453331D01*
X192421720Y-63772612D01*
X192248927Y-64189772D01*
X192248927Y-64641304D01*
X192288784Y-64737527D01*
X192107074Y-64812793D01*
X191787793Y-65132074D01*
X191615000Y-65549234D01*
X191615000Y-66000766D01*
X191654857Y-66096989D01*
X191473147Y-66172255D01*
X191153866Y-66491536D01*
X190981073Y-66908696D01*
X190981073Y-67360228D01*
X191020929Y-67456449D01*
X190839219Y-67531716D01*
X190519938Y-67850997D01*
X190347145Y-68268157D01*
X190347145Y-68699557D01*
X190326455Y-68733526D01*
X190319365Y-68752905D01*
X190299061Y-68782670D01*
X182849586Y-86290191D01*
X182817509Y-86361417D01*
X182795563Y-86456516D01*
X182762629Y-86548397D01*
X182731486Y-86757539D01*
X182736592Y-86862662D01*
X182744924Y-87034242D01*
X182796187Y-87239382D01*
X182838344Y-87328643D01*
X182914490Y-87489876D01*
X183040354Y-87659782D01*
X183040355Y-87659785D01*
X183245515Y-87845941D01*
X183426819Y-87954749D01*
X183520152Y-87988203D01*
X183687602Y-88048224D01*
X183820781Y-88068055D01*
X183892333Y-88083629D01*
X191944205Y-88228273D01*
X186093122Y-97694662D01*
X185865489Y-97788950D01*
X185546208Y-98108231D01*
X185373415Y-98525391D01*
X185373415Y-98976923D01*
X185390591Y-99018389D01*
X185161281Y-99113372D01*
X184842000Y-99432653D01*
X184669207Y-99849813D01*
X184669207Y-100301345D01*
X184686383Y-100342810D01*
X184457074Y-100437793D01*
X184137793Y-100757074D01*
X183965000Y-101174234D01*
X183965000Y-101625766D01*
X183982176Y-101667231D01*
X183752867Y-101762214D01*
X183433586Y-102081495D01*
X183260793Y-102498655D01*
X183260793Y-102950187D01*
X183277969Y-102991653D01*
X183048659Y-103086636D01*
X182729378Y-103405917D01*
X182556585Y-103823077D01*
X182556585Y-104160457D01*
X176549089Y-117471672D01*
X176548488Y-117474266D01*
X176544070Y-117484253D01*
X176523746Y-117575074D01*
X176491791Y-117662478D01*
X176456284Y-117890982D01*
X176456284Y-117890984D01*
X176467969Y-118167765D01*
X176522610Y-118392463D01*
X176599827Y-118558678D01*
X176639326Y-118643703D01*
X176775795Y-118830386D01*
X176775796Y-118830387D01*
X176979773Y-119017838D01*
X177177295Y-119138087D01*
X177357057Y-119203807D01*
X177437478Y-119233209D01*
X177461127Y-119236884D01*
X177468718Y-119242026D01*
X177675554Y-119284540D01*
X185166309Y-119332251D01*
X177872038Y-126674199D01*
X177859927Y-126692453D01*
X177839266Y-126715970D01*
X177502803Y-126855337D01*
X177183522Y-127174618D01*
X177010729Y-127591778D01*
X177010729Y-127931515D01*
X176642439Y-128084065D01*
X176323158Y-128403346D01*
X176150365Y-128820506D01*
X176150365Y-129160242D01*
X175782074Y-129312793D01*
X175462793Y-129632074D01*
X175290000Y-130049234D01*
X175290000Y-130388970D01*
X174921709Y-130541521D01*
X174602428Y-130860802D01*
X174429635Y-131277962D01*
X174429635Y-131617699D01*
X174061345Y-131770249D01*
X173742064Y-132089530D01*
X173569271Y-132506690D01*
X173569271Y-132801032D01*
X173390680Y-133007435D01*
X173347043Y-133056724D01*
X169234347Y-140103479D01*
X169059298Y-140310816D01*
X168878515Y-140414463D01*
X168673180Y-140450028D01*
X168468073Y-140413222D01*
X168287917Y-140308480D01*
X168106382Y-140090799D01*
X160113705Y-127387706D01*
X160047563Y-127317830D01*
X160023324Y-127282482D01*
X159755995Y-127021507D01*
X159755995Y-126868295D01*
X159583202Y-126451135D01*
X159263921Y-126131854D01*
X158846761Y-125959061D01*
X158732998Y-125959061D01*
X158732998Y-125771265D01*
X158560205Y-125354105D01*
X158240924Y-125034824D01*
X157823764Y-124862031D01*
X157710000Y-124862031D01*
X157710000Y-124674234D01*
X157537207Y-124257074D01*
X157217926Y-123937793D01*
X156800766Y-123765000D01*
X156687002Y-123765000D01*
X156687002Y-123577203D01*
X156514209Y-123160043D01*
X156194928Y-122840762D01*
X155777768Y-122667969D01*
X155664005Y-122667969D01*
X155664005Y-122480173D01*
X155491212Y-122063013D01*
X155171931Y-121743732D01*
X154754771Y-121570939D01*
X154479361Y-121570939D01*
X154442614Y-121519847D01*
X154433372Y-121511221D01*
X154399928Y-121466843D01*
X152866937Y-120098690D01*
X157465000Y-120098690D01*
X157465000Y-120414250D01*
X157623750Y-120573000D01*
X158498000Y-120573000D01*
X158498000Y-119748750D01*
X158339250Y-119590000D01*
X157973691Y-119590000D01*
X157740302Y-119686673D01*
X157561673Y-119865301D01*
X157465000Y-120098690D01*
X152866937Y-120098690D01*
X152074672Y-119391616D01*
X152064134Y-119374935D01*
X152062831Y-119367373D01*
X152064522Y-119359881D01*
X152068948Y-119353610D01*
X152086222Y-119342698D01*
X152129313Y-119333721D01*
X159904022Y-119234045D01*
X160110578Y-119190198D01*
X160111047Y-119189876D01*
X160158527Y-119179720D01*
X160283122Y-119126001D01*
X160408139Y-119073304D01*
X160571497Y-118962676D01*
X160627193Y-118906282D01*
X160766165Y-118765570D01*
X160874752Y-118600848D01*
X160959002Y-118393816D01*
X160979170Y-118344257D01*
X161016456Y-118150520D01*
X161016198Y-118109018D01*
X161014733Y-117873494D01*
X160975040Y-117680236D01*
X160964295Y-117654744D01*
X160948819Y-117590571D01*
X153240140Y-100913626D01*
X153200018Y-100858519D01*
X152955145Y-100519169D01*
X152927277Y-100490676D01*
X152905180Y-100457507D01*
X152843415Y-100399347D01*
X152843415Y-100148077D01*
X152670622Y-99730917D01*
X152351341Y-99411636D01*
X152122031Y-99316653D01*
X152139207Y-99275187D01*
X152139207Y-98823655D01*
X151966414Y-98406495D01*
X151647133Y-98087214D01*
X151417824Y-97992231D01*
X151435000Y-97950766D01*
X151435000Y-97499234D01*
X151262207Y-97082074D01*
X150942926Y-96762793D01*
X150713617Y-96667810D01*
X150730793Y-96626345D01*
X150730793Y-96174813D01*
X150558000Y-95757653D01*
X150238719Y-95438372D01*
X150009409Y-95343389D01*
X150026585Y-95301923D01*
X150026585Y-94850391D01*
X149853792Y-94433231D01*
X149534511Y-94113950D01*
X149201839Y-93976153D01*
X149080817Y-93752786D01*
X149049217Y-93679540D01*
X145290723Y-88228481D01*
X145287015Y-88214940D01*
X145288903Y-88199968D01*
X145296376Y-88186857D01*
X145308301Y-88177603D01*
X145373624Y-88159714D01*
X153281221Y-88033796D01*
X153286758Y-88032603D01*
X153307376Y-88031948D01*
X153401826Y-88010023D01*
X153498224Y-87999483D01*
X153703114Y-87934921D01*
X153854782Y-87851747D01*
X153946014Y-87801717D01*
X154110601Y-87663662D01*
X154110604Y-87663659D01*
X154258053Y-87480007D01*
X154284038Y-87447642D01*
X154284038Y-87447641D01*
X154284040Y-87447639D01*
X154383266Y-87257108D01*
X154422543Y-87122440D01*
X154460832Y-86991165D01*
X154479593Y-86777164D01*
X154478454Y-86766742D01*
X154470778Y-86696546D01*
X154449483Y-86501778D01*
X154449482Y-86501776D01*
X154421898Y-86414236D01*
X154408498Y-86345500D01*
X153493513Y-84112500D01*
X161352560Y-84112500D01*
X161352560Y-84587500D01*
X161419922Y-84926152D01*
X161586197Y-85175000D01*
X161419922Y-85423848D01*
X161352560Y-85762500D01*
X161352560Y-86237500D01*
X161419922Y-86576152D01*
X161611753Y-86863247D01*
X161898848Y-87055078D01*
X162237500Y-87122440D01*
X162812500Y-87122440D01*
X163151152Y-87055078D01*
X163319540Y-86942565D01*
X163390302Y-87013327D01*
X163623691Y-87110000D01*
X163989250Y-87110000D01*
X164148000Y-86951250D01*
X164148000Y-86127000D01*
X164402000Y-86127000D01*
X164402000Y-86951250D01*
X164560750Y-87110000D01*
X164926309Y-87110000D01*
X165159698Y-87013327D01*
X165338327Y-86834699D01*
X165435000Y-86601310D01*
X165435000Y-86285750D01*
X165276250Y-86127000D01*
X164402000Y-86127000D01*
X164148000Y-86127000D01*
X164128000Y-86127000D01*
X164128000Y-85873000D01*
X164148000Y-85873000D01*
X164148000Y-85853000D01*
X164402000Y-85853000D01*
X164402000Y-85873000D01*
X165276250Y-85873000D01*
X165435000Y-85714250D01*
X165435000Y-85398690D01*
X165364133Y-85227602D01*
X165744126Y-85385000D01*
X166155874Y-85385000D01*
X166536280Y-85227431D01*
X166827431Y-84936280D01*
X166985000Y-84555874D01*
X166985000Y-84144126D01*
X166827431Y-83763720D01*
X166536280Y-83472569D01*
X166155874Y-83315000D01*
X165744126Y-83315000D01*
X165363720Y-83472569D01*
X165252850Y-83583439D01*
X165188247Y-83486753D01*
X164901152Y-83294922D01*
X164562500Y-83227560D01*
X163987500Y-83227560D01*
X163648848Y-83294922D01*
X163400000Y-83461197D01*
X163151152Y-83294922D01*
X162812500Y-83227560D01*
X162237500Y-83227560D01*
X161898848Y-83294922D01*
X161611753Y-83486753D01*
X161419922Y-83773848D01*
X161352560Y-84112500D01*
X153493513Y-84112500D01*
X151866143Y-80140944D01*
X153309671Y-81584473D01*
X153352071Y-81647929D01*
X153603463Y-81815904D01*
X153825148Y-81860000D01*
X153825153Y-81860000D01*
X153900000Y-81874888D01*
X153974847Y-81860000D01*
X162561974Y-81860000D01*
X162679405Y-81977431D01*
X163059811Y-82135000D01*
X163471559Y-82135000D01*
X163851965Y-81977431D01*
X164143116Y-81686280D01*
X164300685Y-81305874D01*
X164300685Y-80894126D01*
X164143116Y-80513720D01*
X163851965Y-80222569D01*
X163471559Y-80065000D01*
X163059811Y-80065000D01*
X162679405Y-80222569D01*
X162561974Y-80340000D01*
X154214802Y-80340000D01*
X152160000Y-78285199D01*
X152160000Y-55974846D01*
X152174888Y-55899999D01*
X152160000Y-55825152D01*
X152160000Y-55825148D01*
X152115904Y-55603463D01*
X152074102Y-55540902D01*
X151990329Y-55415526D01*
X151990327Y-55415524D01*
X151947929Y-55352071D01*
X151884476Y-55309673D01*
X149235000Y-52660199D01*
X149235000Y-52494126D01*
X149077431Y-52113720D01*
X148786280Y-51822569D01*
X148405874Y-51665000D01*
X147994126Y-51665000D01*
X147613720Y-51822569D01*
X147322569Y-52113720D01*
X147165000Y-52494126D01*
X147165000Y-52905874D01*
X147322569Y-53286280D01*
X147613720Y-53577431D01*
X147994126Y-53735000D01*
X148160199Y-53735000D01*
X150640000Y-56214803D01*
X150640001Y-77148574D01*
X148055471Y-70841092D01*
X147944903Y-70674242D01*
X147977855Y-70594689D01*
X147977855Y-70143157D01*
X147805062Y-69725997D01*
X147485781Y-69406716D01*
X147304071Y-69331449D01*
X147343927Y-69235228D01*
X147343927Y-68783696D01*
X147171134Y-68366536D01*
X146851853Y-68047255D01*
X146670143Y-67971989D01*
X146710000Y-67875766D01*
X146710000Y-67424234D01*
X146537207Y-67007074D01*
X146217926Y-66687793D01*
X146036216Y-66612527D01*
X146076073Y-66516304D01*
X146076073Y-66064772D01*
X145903280Y-65647612D01*
X145583999Y-65328331D01*
X145402289Y-65253064D01*
X145442145Y-65156843D01*
X145442145Y-64705311D01*
X145269352Y-64288151D01*
X144950071Y-63968870D01*
X144698744Y-63864767D01*
X144668027Y-63749543D01*
X138258345Y-50710000D01*
X167040000Y-50710000D01*
X167040001Y-97069926D01*
G04 #@! TD*
M02*
